<svg xmlns="http://www.w3.org/2000/svg" xmlns:xlink="http://www.w3.org/1999/xlink" viewBox="0 0 2410 626"><defs><style>.cls-1{fill:#7c6e62;}.cls-2{fill:#332824;}.cls-3{fill:#534741;}.cls-4{fill:#f7931e;}.cls-5{fill:#42210b;}.cls-6{fill:#2b2522;}.cls-7{fill:none;stroke:#000;}.cls-14,.cls-19,.cls-22,.cls-7{stroke-miterlimit:10;}.cls-8{fill:#f2c6f4;}.cls-9{fill:#e05a83;}.cls-10{fill:#c1272d;}.cls-11{fill:#ed96af;}.cls-12{fill:#fff;}.cls-13{fill:#47c0ea;}.cls-14,.cls-19,.cls-22{stroke:#c19371;}.cls-14{fill:url(#linear-gradient);}.cls-15{fill:#844b24;}.cls-16{fill:url(#linear-gradient-2);}.cls-17{fill:url(#linear-gradient-3);}.cls-18{fill:#543119;}.cls-19{fill:url(#linear-gradient-4);}.cls-20{fill:url(#linear-gradient-5);}.cls-21{fill:url(#linear-gradient-6);}.cls-22{fill:url(#linear-gradient-7);}.cls-23{fill:url(#linear-gradient-8);}.cls-24{fill:url(#linear-gradient-9);}</style><linearGradient id="linear-gradient" x1="168.15" y1="339.38" x2="726.76" y2="661.89" gradientUnits="userSpaceOnUse"><stop offset="0" stop-color="#ab7a1e"/><stop offset="0.4" stop-color="#ba8044"/><stop offset="1"/></linearGradient><linearGradient id="linear-gradient-2" x1="426.52" y1="370.52" x2="690.94" y2="523.18" xlink:href="#linear-gradient"/><linearGradient id="linear-gradient-3" x1="16727.5" y1="16699.74" x2="16991.93" y2="16852.41" gradientTransform="translate(17197.47 17334.13) rotate(-179.97)" xlink:href="#linear-gradient"/><linearGradient id="linear-gradient-4" x1="169.92" y1="338.21" x2="728.52" y2="660.72" xlink:href="#linear-gradient"/><linearGradient id="linear-gradient-5" x1="428.29" y1="369.34" x2="692.71" y2="522.01" xlink:href="#linear-gradient"/><linearGradient id="linear-gradient-6" x1="16727.5" y1="16699.74" x2="16991.93" y2="16852.41" gradientTransform="translate(17199.24 17332.96) rotate(-179.97)" xlink:href="#linear-gradient"/><linearGradient id="linear-gradient-7" x1="176.77" y1="376.34" x2="735.38" y2="698.85" xlink:href="#linear-gradient"/><linearGradient id="linear-gradient-8" x1="435.14" y1="407.47" x2="699.56" y2="560.14" xlink:href="#linear-gradient"/><linearGradient id="linear-gradient-9" x1="16727.49" y1="16699.75" x2="16991.91" y2="16852.41" gradientTransform="translate(17206.08 17371.09) rotate(-179.97)" xlink:href="#linear-gradient"/><symbol id="f1" data-name="f1" viewBox="0 0 557.93 330.56"><path class="cls-1" d="M183.33,139.5c-74.58-28.53-79.22-12-158.16,9.84-4.88,14.74-3.64,26.11,8.6,36.33C61.77,172,177.56,155.06,183.33,139.5Z"/><path class="cls-2" d="M181.36,161.61C119.94,178.12,89.93,169.79,31.88,209c-2.08,15-1.55,23.43,16,20C110.32,183.07,199.54,185.57,181.36,161.61Z"/><path class="cls-3" d="M182.05,150.67C109,141.25,67.37,158.9,2.78,190.87-2.92,210-1.07,217.52,19.94,220,48.48,205.41,173.43,163.83,182.05,150.67Z"/><path class="cls-4" d="M223.85,243.47c-8,10.7-25.69,37.38-32.84,43.1s-11.19-14.49-18.9-8.71c3.61,5.19,5.56,9.38,9.17,15.78s10,16.07,10.5,24.29a71.77,71.77,0,0,1-.52,8.48,20.72,20.72,0,0,0,7.65-6.33c1.13,3.43.78,6.83.37,10.36,19.22-12.75,9.25-23.25-3.81-36.65,11.37-15,25.17-28,38.56-41.17C230.62,249.65,227.53,245.79,223.85,243.47Z"/><path class="cls-4" d="M180.16,235.74c-9.92,9.11-30.31,34.36-37.46,40s-11-14.6-18.69-8.88c3.5,5.26,5.35,9.43,8.83,15.91s9.72,16.31,10.06,24.55a72.34,72.34,0,0,1-.68,8.53,21.38,21.38,0,0,0,7.77-6.37c1.08,3.46.67,6.87.19,10.4,19.28-12.75,10-23.07-3.24-36.75,11.59-14.69,26.94-25.06,41.95-36C186,243.41,183.34,238.84,180.16,235.74Z"/><path class="cls-5" d="M143.23,308.37c.22-.29,5.36,2.17,6.37,1.48-.88,2.16-5.68,5.9-7.13,5.91C141.67,315.76,143,308.65,143.23,308.37Z"/><path class="cls-5" d="M146.78,310.53"/><path class="cls-5" d="M150.58,311.72a12.92,12.92,0,0,0,7.85,1.56,28.35,28.35,0,0,1-8.74,6.69A19.72,19.72,0,0,0,150.58,311.72Z"/><path class="cls-5" d="M123.9,266c1.58,3.05,3.13,6.12,4.7,9.18q2.39-2.13,4.76-4.27C131.73,269.68,126.28,264.34,123.9,266Z"/><path d="M86.91,2.46"/><path class="cls-6" d="M283.19,151c-19.25,18-58.34,36.38-55.63,66.35C85.67,190.54,193.28,77.45,293.08,86.93c8.57-20.68,11.57-41.31,30.14-56.17,8.81-6.46,18.19-10.5,29.28-11,30-1.25,62,12.68,57.57,47.63C361.93,84.89,322,118.4,283.19,151Z"/><path d="M377.13,0c-14.63-.55-21.38,4.77-22.67,19.48C359,8.5,365.38,2.54,377.13,0Z"/><path d="M383.32,14.15c-12.2-5.67-21.55-6.47-28.82,6.06C363.49,12.76,372.08,11.51,383.32,14.15Z"/><path class="cls-6" d="M255,236.84c-5,8.87-20,28-31.64,16.22-8.74-8.81,4-27.69,10-35.26s22.5-24.3,31.58-15.82S259.63,228.53,255,236.84Z"/><path class="cls-6" d="M209.56,232.09c-5.55,9.11-22.31,27.77-33.5,14.74-8.39-9.77,5.71-28.93,12-36.31s22.5-23.86,31.63-15.38S214.77,223.56,209.56,232.09Z"/><path class="cls-5" d="M192.13,319c.21-.28,5.38,2.16,6.4,1.48-.85,2.15-5.58,5.87-7,5.87C190.71,326.36,191.92,319.29,192.13,319Z"/><path class="cls-5" d="M192.73,319.16"/><path class="cls-5" d="M199.54,322.36a13.11,13.11,0,0,0,7.86,1.58,27.16,27.16,0,0,1-8.6,6.62A19.76,19.76,0,0,0,199.54,322.36Z"/><path class="cls-5" d="M172,277q2.44,4.54,4.9,9.09,2.33-2.14,4.67-4.27C179.92,280.65,174.33,275.39,172,277Z"/><path class="cls-6" d="M292.47,87.42C266,120.77,204.65,146.8,163.72,135.58c-25.3-6.93-35.65-14.44-34.36-38.51C105.12,80.3,93.75,69.74,97.62,38.9,88.84,27,80,15.15,86.27.28,118.66,10.58,278.34,61.7,292.47,87.42Z"/><path class="cls-7" d="M225.59,218.38"/><path class="cls-7" d="M400.38,56.85"/><path class="cls-8" d="M355,146.35c17-19.79,57.71-60.95,45.4-89.5-49.93-44-78.88-12.87-84.17,42.77-7.83,42.94-110.54,88.27-91.11,118.27C282.18,233.48,326,190.62,355,146.35Z"/><path class="cls-9" d="M370.71,119.08c15.38,5,30.36,8.39,46.62,7.68,8,34.88,46.19,25.58,58,59.35C425.76,185.29,395,160.57,370.71,119.08Z"/><path class="cls-4" d="M366.25,118.61c23.69,10.12,47.93,11.58,73.27,8.27,45.32-3.7,87.29,9.19,117.77,43.91C557.65,61,510.38,57.69,411.94,60.37,405.81,87.31,393.58,109.41,366.25,118.61Z"/><path class="cls-10" d="M557.32,149.86c2.86-35.88-3.41-60.09-36.63-78.12C460.51,90.32,533.53,138,557.32,149.86Z"/><path class="cls-11" d="M378.6,130.23c10.24,13.1,23.62,34.54,42.77,29.88-5.4-22.67-17.65-29.32-38.44-37Z"/><path class="cls-4" d="M475.34,186c-40.89,13-78.06-3.73-110-29.4,1.82-9.62,8.32-18.29,13.39-26.44C403.29,160.44,434.69,185.83,475.34,186Z"/><path class="cls-10" d="M412.43,59.87c-4.57,30.78-47.39,76.56-46.11,97.7-16.45-6.77-8.61-33.53-6.51-46.54,27.64-8.88,38.09-23.64,41.61-52.17Z"/><path class="cls-12" d="M328.67,87.31c6,14.73,24.14,15,37.16,9.18s25.89-19.24,19.52-34.15-25-15.43-38.28-9.73S322.65,72.57,328.67,87.31Z"/><path class="cls-13" d="M374.56,76.54c.34,9.74-6.71,17.6-16.52,17.78S341.12,87,340.67,77.13s6.11-17.78,16.15-17.82S374.23,66.79,374.56,76.54Z"/><path d="M367.69,76.55a10,10,0,0,1-9.85,10.71c-5.88.13-10.25-4.49-10.51-10.33S351,66.21,357,66.18A10.52,10.52,0,0,1,367.69,76.55Z"/><path class="cls-12" d="M359.53,70A5.68,5.68,0,0,1,354,76.15a6,6,0,0,1-6.09-5.92,5.48,5.48,0,0,1,5.53-6.1A6,6,0,0,1,359.53,70Z"/><path d="M190.12,105.17c-18,1.53-44.65-3.18-61.68-8.3-.39,3.67-.94,9.25,1.25,12.41C151.43,106.14,168.19,112.19,190.12,105.17Z"/><path d="M153.33,72.55c-26.42-5.28-38.2-13.86-55.66-34.1-.84,2.55-1.49,5.11-.67,7.74C115.33,65.06,127.07,71,153.33,72.55Z"/><path d="M168.1,137c-1.19-.28-2.38-.56-3.58-.82a159.11,159.11,0,0,0,36.76-8.12C190.56,133.9,180.41,137.59,168.1,137Z"/></symbol><symbol id="f11" data-name="f11" viewBox="0 0 771.62 588.57"><use width="557.93" height="330.56" xlink:href="#f1"/><path class="cls-14" d="M127.69,409.47H760.76S772,421.2,770.84,426s-7.13,5.35-4.16,18.43c0,0-1.19,16.05,1.79,21.4,0,0,3.56,7.73-3.57,23.18l-9.51,2.38,2.38,7.13h9.51l.08,4.29-6.43,2.81,4,3.22-3.62,4,2.82,4h4s3.22,7.25.8,9.66l-3.22,4.43,1.61,23.34s4.72,3.62,3.57,7.64l.18,12.88h-5.76s-1.2,2.82,0,4H769s-2,7.64.41,9.25H127.69Z"/><polygon class="cls-15" points="127.69 457.07 294.97 457.07 287.11 462.57 127.69 457.07"/><path class="cls-15" d="M567.12,511c0-.79,72.33-8.65,72.33-8.65L629.23,511,470.11,523.55Z"/><polygon class="cls-16" points="383.81 444.49 717.14 444.49 733.65 449.21 597.65 457.07 383.81 444.49"/><polygon class="cls-17" points="522.42 550.73 189.09 550.53 172.59 545.81 308.6 538.02 522.42 550.73"/><ellipse class="cls-18" cx="478.54" cy="433.27" rx="16.9" ry="23.8"/><ellipse class="cls-15" cx="478.54" cy="437.81" rx="11.79" ry="16.12"/><ellipse class="cls-18" cx="478.54" cy="439.68" rx="7.47" ry="11.1"/><ellipse class="cls-18" cx="199.84" cy="397.48" rx="15.35" ry="18.11"/><ellipse class="cls-18" cx="203.12" cy="366.05" rx="15.35" ry="18.11"/><ellipse class="cls-18" cx="322.26" cy="232.96" rx="15.35" ry="18.11"/><ellipse class="cls-18" cx="301.42" cy="244.02" rx="15.35" ry="18.11"/><ellipse class="cls-18" cx="286.07" cy="257.79" rx="15.35" ry="18.11"/><ellipse class="cls-18" cx="270.72" cy="275.91" rx="15.35" ry="18.11"/><ellipse class="cls-18" cx="249.44" cy="289.82" rx="15.35" ry="18.11"/><ellipse class="cls-18" cx="230.54" cy="312.13" rx="15.35" ry="18.11"/><ellipse class="cls-18" cx="215.19" cy="337.53" rx="15.35" ry="18.11"/><ellipse class="cls-18" cx="199.84" cy="419.97" rx="15.35" ry="18.11"/><ellipse class="cls-18" cx="449.4" cy="161.39" rx="15.35" ry="18.11"/><ellipse class="cls-18" cx="423.47" cy="168.26" rx="15.35" ry="18.11"/><ellipse class="cls-18" cx="402.14" cy="182.87" rx="15.35" ry="18.11" transform="translate(-8.67 20.4) rotate(-2.88)"/><ellipse class="cls-18" cx="377.07" cy="192.21" rx="15.35" ry="18.11"/><ellipse class="cls-18" cx="357.35" cy="204.48" rx="15.35" ry="18.11"/><ellipse class="cls-18" cx="342" cy="219.1" rx="15.35" ry="18.11"/><ellipse class="cls-18" cx="688.77" cy="413.37" rx="18.11" ry="15.35" transform="translate(245.91 1083.57) rotate(-87.51)"/><ellipse class="cls-18" cx="686.86" cy="381.83" rx="18.11" ry="15.35" transform="translate(275.59 1051.48) rotate(-87.51)"/><ellipse class="cls-18" cx="573.61" cy="243.69" rx="18.11" ry="15.35" transform="translate(305.27 806.19) rotate(-87.51)"/><ellipse class="cls-18" cx="593.96" cy="255.64" rx="18.11" ry="15.35" transform="translate(312.79 837.95) rotate(-87.51)"/><ellipse class="cls-18" cx="608.69" cy="270.07" rx="18.11" ry="15.35" transform="translate(312.47 866.48) rotate(-87.51)"/><ellipse class="cls-18" cx="623.24" cy="288.84" rx="18.11" ry="15.35" transform="translate(307.64 898.96) rotate(-87.51)"/><ellipse class="cls-18" cx="643.89" cy="303.66" rx="18.11" ry="15.35" transform="translate(312.59 933.77) rotate(-87.51)"/><ellipse class="cls-18" cx="661.81" cy="326.77" rx="18.11" ry="15.35" transform="matrix(0.04, -1, 1, 0.04, 306.63, 973.78)"/><ellipse class="cls-18" cx="676.04" cy="352.81" rx="18.11" ry="15.35" transform="translate(294.23 1012.91) rotate(-87.51)"/><ellipse class="cls-18" cx="475.3" cy="174.66" rx="18.11" ry="15.35" transform="translate(280.18 641.94) rotate(-87.51)"/><ellipse class="cls-18" cx="496.33" cy="186.37" rx="18.11" ry="15.35" transform="translate(264.4 663.12) rotate(-84.64)"/><ellipse class="cls-18" cx="520.62" cy="200.61" rx="18.11" ry="15.35" transform="matrix(0.04, -1, 1, 0.04, 297.61, 712.03)"/><ellipse class="cls-18" cx="539.78" cy="213.72" rx="18.11" ry="15.35" transform="matrix(0.04, -1, 1, 0.04, 302.85, 743.73)"/><ellipse class="cls-18" cx="554.49" cy="228.99" rx="18.11" ry="15.35" transform="translate(301.66 773.02) rotate(-87.51)"/><path class="cls-12" d="M168.37,563.53l-.14.87L157.39,566c.06-.34.09-.52.14-.87l.59-.09a4.37,4.37,0,0,0,1.93-.7,2.47,2.47,0,0,0,1-1.11,16.31,16.31,0,0,0,.51-2.47l2.6-16.34a10.15,10.15,0,0,0,.25-2.35c-.13-.87-1-1.18-2.64-.94l-.68.11.14-.88,10.1-1.51-.14.87-.53.08a4.22,4.22,0,0,0-1.6.56,2.11,2.11,0,0,0-.93,1,21.38,21.38,0,0,0-.61,3c-1,6.3-1.52,9.45-2.54,15.74a10.32,10.32,0,0,0-.22,2.26,1.35,1.35,0,0,0,1,1.17,4.11,4.11,0,0,0,1.9.13Z"/><path class="cls-12" d="M187.15,535.1l2-.29c1.13-.17,2.51-.4,4.12-.7s2.62-.49,3.25-.58a14.47,14.47,0,0,1,6.82.4,9,9,0,0,1,4.65,3.49,12.88,12.88,0,0,1,2.19,5.53A15.49,15.49,0,0,1,207.38,554a13.84,13.84,0,0,1-3.88,3.67,15.22,15.22,0,0,1-4.1,1.83,55.38,55.38,0,0,1-5.59,1.06l-10.9,1.63.14-.92,1.16-.17a4.73,4.73,0,0,0,2-.75,2.77,2.77,0,0,0,1-1.16,15.77,15.77,0,0,0,.55-2.61c1.11-6.91,1.66-10.36,2.77-17.26a11.72,11.72,0,0,0,.24-2.5c-.13-.9-1.06-1.22-2.78-1l-1,.15Zm7.68-.41c-1.36,8.5-2.05,12.74-3.42,21.24a10.9,10.9,0,0,0-.22,2.32q.27,1.83,4.37,1.21a11.11,11.11,0,0,0,8.87-6.28,18.09,18.09,0,0,0,1.82-10.85,10.37,10.37,0,0,0-3.1-6.35q-2.49-2.26-6.77-1.62C195.94,534.43,195.43,534.54,194.83,534.69Z"/><path class="cls-12" d="M234.66,547.75l.88-.14c-.44,2.75-.67,4.12-1.11,6.87l-22.7,3.4.14-.92.58-.09a4.6,4.6,0,0,0,2-.74,2.73,2.73,0,0,0,1-1.17,15.77,15.77,0,0,0,.55-2.61c1.11-6.9,1.66-10.35,2.77-17.25a11.77,11.77,0,0,0,.24-2.5c-.14-.9-1.06-1.23-2.78-1l-.8.12.15-.92,19.33-2.9,1,5.83-.84.12a8.65,8.65,0,0,0-2.09-3.17,3.86,3.86,0,0,0-2.21-1,25.13,25.13,0,0,0-4.22.41l-3.52.53c-.74,4.63-1.11,7-1.84,11.59l2-.29a9.68,9.68,0,0,0,4.13-1.38,7.13,7.13,0,0,0,2.15-3.88l.92-.14c-.67,4.26-1,6.38-1.69,10.64l-.92.14a9.17,9.17,0,0,0-.08-2,4.2,4.2,0,0,0-.73-2.12,1.84,1.84,0,0,0-1.21-.61,12.16,12.16,0,0,0-2.46.21l-2.22.33c-.54,3.37-.8,5-1.34,8.42a13.55,13.55,0,0,0-.25,2.4,1.49,1.49,0,0,0,1.15,1.31,8.93,8.93,0,0,0,3.29-.07l1.58-.23a12.16,12.16,0,0,0,6.13-2.34A10.44,10.44,0,0,0,234.66,547.75Z"/><path class="cls-12" d="M257.58,551.26l-.94.14c-4.33-8.32-6.49-12.48-10.83-20.8-.39,3.9-.59,5.85-1,9.75s-.76,6.77-1.19,8.91a10.28,10.28,0,0,1-1.92,4.71,4.64,4.64,0,0,1-2.83,1.73,3.84,3.84,0,0,1-2.58-.42,2.52,2.52,0,0,1-1.28-1.89c-.2-1.3.22-2,1.25-2.18a1.5,1.5,0,0,1,1.09.25,1.37,1.37,0,0,1,.58,1,2.37,2.37,0,0,1-.19,1.18,1.37,1.37,0,0,0-.1.64.61.61,0,0,0,.36.51,1.5,1.5,0,0,0,.85.07q1.83-.29,3-2.76T244,539.87c.33-3.38.49-5.07.82-8.45.16-1.5.23-2.31.21-2.45a1.38,1.38,0,0,0-.81-1,7,7,0,0,0-3.27,0L241,527l6.25-.94,10,19.13c.27-2.73.4-4.1.67-6.83q1-10.54,2.13-12.63a3.93,3.93,0,0,1,2.87-2.35,2.54,2.54,0,0,1,1.73.24,1.5,1.5,0,0,1,.78,1.12,1.32,1.32,0,0,1-.31,1.12,1.66,1.66,0,0,1-1,.56,1.73,1.73,0,0,1-1.52-.71,1,1,0,0,0-.88-.41c-.55.08-1,.88-1.43,2.4a94.17,94.17,0,0,0-1.47,11C258.32,543.75,258.07,546.25,257.58,551.26Z"/><path class="cls-12" d="M276.44,536.72a18.9,18.9,0,0,1,1.24-9.23,19.71,19.71,0,0,1,5.33-8.21,13.8,13.8,0,0,1,7.07-3.62,11.07,11.07,0,0,1,4.3.32,8.81,8.81,0,0,1,4.52,3.17,13.09,13.09,0,0,1,2.71,6.57,19.72,19.72,0,0,1-3.07,13.65q-4.11,6.64-10,7.53a9.89,9.89,0,0,1-7.82-2C278.41,543.19,277,540.44,276.44,536.72Zm4.38,1.57a14.71,14.71,0,0,0,1.32,4.64,6.07,6.07,0,0,0,2.47,2.45,5.62,5.62,0,0,0,3.65.58,8.08,8.08,0,0,0,5.49-3.89A23,23,0,0,0,297,533a30.6,30.6,0,0,0,.39-9.44q-.58-3.89-2.58-5.59a5.63,5.63,0,0,0-4.68-1.29,8.28,8.28,0,0,0-5.47,3.75,21.84,21.84,0,0,0-3.38,8.7A27.88,27.88,0,0,0,280.82,538.29Z"/><path class="cls-12" d="M322.53,536.65l14-27.43,7.67-1.15c-.06.42-.1.63-.16,1a8.61,8.61,0,0,0-3,.83,2.4,2.4,0,0,0-.94,1.21,20.07,20.07,0,0,0-.45,3.17c-.8,7.58-1.19,11.37-2,18.94a15.69,15.69,0,0,0-.16,2.54,1.75,1.75,0,0,0,1.25,1.49,4.85,4.85,0,0,0,2.36.18l.7-.11c-.07.42-.1.63-.17,1l-12.83,1.93c.07-.42.1-.63.17-1l.54-.08a5.77,5.77,0,0,0,2.34-.83A2.92,2.92,0,0,0,333,537a16.69,16.69,0,0,0,.54-3.11l2.3-21.26L321,541.49l-1.09.17-6.6-23.39c-1.53,6.44-2.29,9.67-3.81,16.11a20.55,20.55,0,0,0-.85,5.17,2.31,2.31,0,0,0,1.22,2,6,6,0,0,0,3.08.18c-.06.42-.1.63-.17,1l-10.32,1.55.17-1a5.82,5.82,0,0,0,2.76-1.21,5.49,5.49,0,0,0,1.63-2.38c.36-1,.85-2.77,1.47-5.37,1.46-6.09,2.19-9.14,3.66-15.23a12.66,12.66,0,0,0,.51-3.37,1.73,1.73,0,0,0-.74-1.27,3.87,3.87,0,0,0-2.36-.12l-1.31.2c.06-.42.09-.63.14-1l7.16-1.07Z"/><path class="cls-12" d="M356,537l-1.81.27L352,511.73c-.05-.57-.07-.85-.12-1.42a2,2,0,0,0-1-1.71,7.11,7.11,0,0,0-3.37,0c0-.41,0-.61,0-1l12.31-1.84v1a8,8,0,0,0-2.77.82,2.41,2.41,0,0,0-1.13,1.23,7,7,0,0,0,0,2.49c.74,8,1.12,12,1.87,20L367.85,511c.87-1.74,1.26-2.89,1.17-3.47a1.74,1.74,0,0,0-1-1.36,6.23,6.23,0,0,0-3.14-.18l.12-1,10-1.5c-.06.42-.1.62-.17,1a5.17,5.17,0,0,0-2.88,1.65,25.31,25.31,0,0,0-3.11,5.14Z"/><path class="cls-12" d="M398,522.38l1-.15c-.5,3.11-.76,4.66-1.26,7.76L372,533.84c.07-.41.1-.62.17-1l.65-.09a5.44,5.44,0,0,0,2.3-.84,3.15,3.15,0,0,0,1.15-1.33,17,17,0,0,0,.62-2.95c1.26-7.81,1.88-11.72,3.14-19.53a12.75,12.75,0,0,0,.27-2.82c-.15-1-1.2-1.39-3.15-1.1l-.9.14c.06-.42.1-.62.16-1L398.34,500l1.1,6.59-.95.14a9.49,9.49,0,0,0-2.37-3.58,4.31,4.31,0,0,0-2.5-1.18,29.54,29.54,0,0,0-4.77.47l-4,.59c-.83,5.25-1.25,7.88-2.08,13.12l2.22-.33a10.84,10.84,0,0,0,4.67-1.56c1-.72,1.82-2.19,2.44-4.39l1-.15c-.77,4.81-1.15,7.22-1.92,12l-1,.15a10.31,10.31,0,0,0-.08-2.24,4.83,4.83,0,0,0-.83-2.39,2,2,0,0,0-1.37-.69,13.6,13.6,0,0,0-2.79.23l-2.51.38c-.6,3.8-.9,5.71-1.51,9.52a16,16,0,0,0-.29,2.71,1.69,1.69,0,0,0,1.3,1.49,10,10,0,0,0,3.73-.07l1.79-.27a13.89,13.89,0,0,0,6.94-2.64A11.93,11.93,0,0,0,398,522.38Z"/><path class="cls-12" d="M423.93,526.35l-1.06.16L410.61,503c-.45,4.41-.67,6.62-1.12,11s-.87,7.66-1.34,10.08a11.72,11.72,0,0,1-2.18,5.33,5.26,5.26,0,0,1-3.2,2,4.3,4.3,0,0,1-2.92-.48,2.86,2.86,0,0,1-1.45-2.13c-.22-1.47.25-2.29,1.41-2.47a1.72,1.72,0,0,1,1.23.28,1.58,1.58,0,0,1,.67,1.12,2.77,2.77,0,0,1-.22,1.33,1.54,1.54,0,0,0-.12.73.74.74,0,0,0,.41.58,1.7,1.7,0,0,0,1,.07c1.39-.21,2.52-1.24,3.4-3.11s1.67-6.48,2.39-13.83c.37-3.83.56-5.74.93-9.57.17-1.69.25-2.61.23-2.77a1.55,1.55,0,0,0-.91-1.14c-.54-.28-1.77-.29-3.71,0l.1-1,7.09-1.06c4.51,8.66,6.77,13,11.29,21.65.31-3.09.46-4.64.76-7.73q1.19-11.93,2.41-14.29a4.45,4.45,0,0,1,3.25-2.66,2.93,2.93,0,0,1,2,.27,1.72,1.72,0,0,1,.88,1.27,1.52,1.52,0,0,1-.35,1.27,1.86,1.86,0,0,1-1.15.63,1.94,1.94,0,0,1-1.71-.8,1.12,1.12,0,0,0-1-.47c-.62.09-1.16,1-1.62,2.72a105.86,105.86,0,0,0-1.66,12.46C424.77,517.85,424.49,520.69,423.93,526.35Z"/><path class="cls-12" d="M434.05,494.6l2.22-.33c1.28-.19,2.85-.45,4.67-.79s3-.55,3.67-.66a16.36,16.36,0,0,1,7.72.46,10.19,10.19,0,0,1,5.26,3.94,14.64,14.64,0,0,1,2.48,6.27A17.66,17.66,0,0,1,457,516a15.37,15.37,0,0,1-4.4,4.15,17.31,17.31,0,0,1-4.63,2.08c-1.45.38-3.56.77-6.34,1.19l-12.33,1.85.17-1,1.31-.2a5.22,5.22,0,0,0,2.29-.84,3,3,0,0,0,1.16-1.32,18.21,18.21,0,0,0,.62-3c1.26-7.81,1.88-11.71,3.14-19.52a14.3,14.3,0,0,0,.27-2.83c-.16-1-1.2-1.38-3.15-1.09l-1.18.18C434,495.23,434,495,434.05,494.6Zm8.7-.46c-1.55,9.61-2.32,14.42-3.87,24a12.79,12.79,0,0,0-.26,2.62q.31,2.09,4.95,1.38a12.54,12.54,0,0,0,10-7.11,20.34,20.34,0,0,0,2.06-12.28,11.66,11.66,0,0,0-3.51-7.18q-2.81-2.57-7.65-1.83A16.92,16.92,0,0,0,442.75,494.14Z"/><path class="cls-12" d="M482.19,489.29c-1.47,9.14-2.2,13.71-3.67,22.85a12.41,12.41,0,0,0-.28,2.67,1.67,1.67,0,0,0,1.22,1.42,5.09,5.09,0,0,0,2.28.15l.82-.12c-.07.42-.1.63-.17,1l-13.15,2c.07-.41.1-.62.17-1l.68-.1a5.77,5.77,0,0,0,2.36-.83,3.21,3.21,0,0,0,1.26-1.36,17.1,17.1,0,0,0,.72-3.14c1.49-9.27,2.24-13.91,3.74-23.18q-3.81.24-6.43.64a15.33,15.33,0,0,0-4.21,1.09c-.9.45-1.31,1-1.22,1.58a2.93,2.93,0,0,0,.39.93,2.77,2.77,0,0,1,.37.87,1.39,1.39,0,0,1-.29,1.07,1.63,1.63,0,0,1-1.08.6,1.65,1.65,0,0,1-1.47-.45,2.36,2.36,0,0,1-.7-1.37,3.66,3.66,0,0,1,1.59-3.32q1.86-1.59,7-2.37c1.76-.26,5.15-.58,10.13-.92,3.57-.24,6.25-.49,8-.76s2.57-.82,2.62-1.69c0-.62.3-1,.81-1a1,1,0,0,1,1.25.94c.24,1.57-1.39,2.61-4.87,3.13Q487.6,488.92,482.19,489.29Z"/><path class="cls-12" d="M518.24,504.35l1-.15L518,512l-25.69,3.85.17-1,.65-.1a5.31,5.31,0,0,0,2.3-.84,3.08,3.08,0,0,0,1.15-1.32,17.15,17.15,0,0,0,.62-3c1.26-7.81,1.88-11.71,3.14-19.52a14.3,14.3,0,0,0,.27-2.83c-.15-1-1.2-1.38-3.15-1.09l-.91.13c.07-.41.11-.62.17-1l21.89-3.28,1.1,6.59-.95.15a9.54,9.54,0,0,0-2.37-3.59,4.38,4.38,0,0,0-2.5-1.17,28.18,28.18,0,0,0-4.78.46l-4,.6c-.83,5.25-1.25,7.87-2.08,13.12l2.22-.33a10.83,10.83,0,0,0,4.67-1.57q1.5-1.08,2.44-4.38l1-.16-1.92,12-1,.16a11.08,11.08,0,0,0-.08-2.25,4.87,4.87,0,0,0-.83-2.39,2.09,2.09,0,0,0-1.37-.69,14.37,14.37,0,0,0-2.79.23l-2.51.38c-.6,3.81-.91,5.71-1.51,9.52a16.06,16.06,0,0,0-.29,2.72,1.68,1.68,0,0,0,1.3,1.48,10,10,0,0,0,3.73-.07l1.79-.27a13.72,13.72,0,0,0,6.93-2.64A11.81,11.81,0,0,0,518.24,504.35Z"/><path class="cls-12" d="M546.48,508.51l-2,.3-2.52-28.49c-.05-.63-.08-.95-.13-1.58a2.26,2.26,0,0,0-1.15-1.91,7.9,7.9,0,0,0-3.76,0v-1.13l13.74-2.06v1.13a8.54,8.54,0,0,0-3.09.92,2.58,2.58,0,0,0-1.26,1.37,7.61,7.61,0,0,0,0,2.78c.83,8.95,1.25,13.42,2.08,22.37l11.38-22.71c1-1.94,1.4-3.23,1.3-3.87a1.94,1.94,0,0,0-1.12-1.52,7,7,0,0,0-3.5-.2c0-.46.08-.7.13-1.16l11.14-1.67c-.07.47-.11.7-.18,1.16a5.84,5.84,0,0,0-3.23,1.84,28.59,28.59,0,0,0-3.46,5.75Z"/><path class="cls-12" d="M593.35,492.21l1.11-.16c-.57,3.46-.85,5.2-1.42,8.66L564.37,505c.08-.46.11-.7.19-1.16l.73-.11a5.93,5.93,0,0,0,2.56-.94,3.46,3.46,0,0,0,1.29-1.47,19.86,19.86,0,0,0,.69-3.3l3.5-21.8a14.82,14.82,0,0,0,.31-3.15c-.18-1.14-1.35-1.55-3.52-1.22l-1,.15c.07-.47.11-.7.19-1.16l24.43-3.67c.49,2.95.74,4.42,1.23,7.36l-1.06.16a10.81,10.81,0,0,0-2.64-4,4.85,4.85,0,0,0-2.8-1.31,32.48,32.48,0,0,0-5.33.52l-4.45.66c-.93,5.86-1.39,8.79-2.32,14.65l2.47-.37a12.23,12.23,0,0,0,5.22-1.75c1.12-.8,2-2.44,2.73-4.89l1.16-.17-2.15,13.43-1.16.18a11.51,11.51,0,0,0-.09-2.51,5.4,5.4,0,0,0-.93-2.67,2.27,2.27,0,0,0-1.52-.77A15.9,15.9,0,0,0,579,486l-2.81.42c-.67,4.25-1,6.38-1.68,10.63a15.76,15.76,0,0,0-.32,3,1.89,1.89,0,0,0,1.44,1.66,11.21,11.21,0,0,0,4.16-.08l2-.3q5.21-.78,7.75-2.95A13.26,13.26,0,0,0,593.35,492.21Z"/><path class="cls-12" d="M627.5,492.79l.73,1a9.8,9.8,0,0,1-5.43,2.88,5.63,5.63,0,0,1-4.68-1q-1.71-1.47-2.27-5.19c-.11-.79-.16-1.18-.27-2a13.41,13.41,0,0,0-1.32-4.65,3.41,3.41,0,0,0-2-1.63,9.33,9.33,0,0,0-3.55,0l-1.27.19c-.64,4-1,5.94-1.61,9.9a15.34,15.34,0,0,0-.33,3,1.83,1.83,0,0,0,1.36,1.63,5.61,5.61,0,0,0,2.49.16l.71-.11-.19,1.17L596,500.27c.07-.47.11-.7.18-1.17l.56-.08a6,6,0,0,0,2.57-.94,3.29,3.29,0,0,0,1.29-1.48,20.9,20.9,0,0,0,.68-3.29l3.5-21.8a14.53,14.53,0,0,0,.3-3.15,1.39,1.39,0,0,0-1-1.16,6.68,6.68,0,0,0-3,0c.08-.47.12-.7.19-1.17l9-1.34c2.49-.37,4.37-.59,5.62-.66a10.83,10.83,0,0,1,4,.61,7.71,7.71,0,0,1,3.39,2.17,6.55,6.55,0,0,1,1.59,3.46A7.76,7.76,0,0,1,622.6,477q-2.85,3-9.84,4.24a9.7,9.7,0,0,1,5.65,2.72,12.51,12.51,0,0,1,2.54,5.93,11.54,11.54,0,0,0,1.26,3.95,2.09,2.09,0,0,0,2.18.74A6.68,6.68,0,0,0,627.5,492.79Zm-19.84-11.4,1-.15q6.47-1,9.32-3.82a7.82,7.82,0,0,0,2.22-7.08,5.3,5.3,0,0,0-2.63-4.18q-2.18-1.19-6.09-.6c-.41.06-.84.14-1.31.24Z"/><path class="cls-12" d="M632.5,461.37,635,461c1.43-.21,3.18-.5,5.22-.88s3.3-.62,4.1-.74a18.33,18.33,0,0,1,8.61.51,11.39,11.39,0,0,1,5.88,4.41,16.26,16.26,0,0,1,2.76,7,19.74,19.74,0,0,1-3.48,14,17.56,17.56,0,0,1-4.91,4.63A19.48,19.48,0,0,1,648,492.2a71.39,71.39,0,0,1-7.07,1.34l-13.77,2.06c.07-.47.11-.7.19-1.16l1.46-.22a5.88,5.88,0,0,0,2.56-.94,3.42,3.42,0,0,0,1.29-1.48,19.42,19.42,0,0,0,.69-3.29l3.5-21.8a14.82,14.82,0,0,0,.31-3.15c-.17-1.14-1.35-1.55-3.52-1.22l-1.31.19C632.39,462.07,632.43,461.84,632.5,461.37Zm9.72-.52c-1.73,10.73-2.6,16.1-4.32,26.83a13.58,13.58,0,0,0-.29,2.92q.35,2.32,5.53,1.54a14,14,0,0,0,11.19-7.94,22.71,22.71,0,0,0,2.3-13.7,13.1,13.1,0,0,0-3.91-8c-2.1-1.9-5-2.59-8.55-2A18.65,18.65,0,0,0,642.22,460.85Z"/><path class="cls-12" d="M692.53,477.34l1.11-.16c-.57,3.46-.85,5.2-1.41,8.66l-28.68,4.3c.08-.46.11-.7.19-1.16l.73-.11a5.88,5.88,0,0,0,2.56-.94,3.46,3.46,0,0,0,1.29-1.47,20.62,20.62,0,0,0,.7-3.3c1.39-8.72,2.09-13.08,3.49-21.8a14.82,14.82,0,0,0,.31-3.15c-.17-1.14-1.35-1.55-3.52-1.22l-1,.15.19-1.16,24.43-3.66c.49,2.94.74,4.41,1.23,7.35l-1.06.16a10.81,10.81,0,0,0-2.64-4,4.92,4.92,0,0,0-2.79-1.31,32.48,32.48,0,0,0-5.34.52l-4.44.66c-.93,5.86-1.4,8.79-2.33,14.65L678,470a12.24,12.24,0,0,0,5.21-1.74q1.68-1.22,2.73-4.9l1.16-.17c-.86,5.37-1.29,8.06-2.14,13.43l-1.17.18a11.39,11.39,0,0,0-.09-2.5,5.21,5.21,0,0,0-.93-2.68,2.27,2.27,0,0,0-1.52-.77,15.9,15.9,0,0,0-3.11.26l-2.81.42c-.67,4.25-1,6.38-1.68,10.63a15.76,15.76,0,0,0-.32,3,1.88,1.88,0,0,0,1.45,1.66,10.94,10.94,0,0,0,4.15-.08l2-.3q5.2-.78,7.75-2.95A13.21,13.21,0,0,0,692.53,477.34Z"/><path class="cls-12" d="M721.48,481.78l-1.19.18-13.68-26.28L705.36,468q-.71,7.2-1.5,11.26a13.11,13.11,0,0,1-2.43,5.94,5.87,5.87,0,0,1-3.57,2.19,4.84,4.84,0,0,1-3.26-.53,3.17,3.17,0,0,1-1.62-2.39c-.25-1.64.28-2.55,1.57-2.75a1.9,1.9,0,0,1,1.38.31,1.77,1.77,0,0,1,.74,1.25,3.09,3.09,0,0,1-.24,1.49,1.84,1.84,0,0,0-.14.81.8.8,0,0,0,.46.64,1.8,1.8,0,0,0,1.07.09q2.32-.35,3.8-3.48t2.67-15.43c.41-4.28.62-6.41,1-10.68a31,31,0,0,0,.26-3.1,1.74,1.74,0,0,0-1-1.27c-.59-.31-2-.32-4.13,0,0-.46.06-.69.11-1.15l7.9-1.18,12.62,24.16.85-8.63q1.3-13.32,2.68-15.95a5,5,0,0,1,3.62-3,3.31,3.31,0,0,1,2.19.3,1.92,1.92,0,0,1,1,1.42,1.68,1.68,0,0,1-.39,1.41,2,2,0,0,1-1.28.71,2.19,2.19,0,0,1-1.92-.89,1.24,1.24,0,0,0-1.11-.53c-.69.11-1.29,1.12-1.8,3S723.75,458.61,723,466Z"/></symbol><symbol id="f2" data-name="f2" viewBox="0 0 549.84 332.14"><path class="cls-1" d="M196.08,175.7c-43.46,1.2-104-12.58-150.29-18.3-8.09,11.6-10.85,20.88-6.4,34.48C82.45,192.67,163.47,225.6,196.08,175.7Z"/><path class="cls-2" d="M192.26,192.42C128.78,227.16,92,202.8,26.56,212.51c-7.61,15.08-9.71,22.06,8.28,26.86C52.7,236.17,210.93,233.78,192.26,192.42Z"/><path class="cls-3" d="M194,184.46c-59.79,15.83-123.38-4.6-185.61.89-9.57,17.23-14.12,24,4.12,35.77C71.56,202.41,135.51,255.37,194,184.46Z"/><path class="cls-4" d="M218.37,245.88c-14.9,9.61-23.78,28.78-35.37,39.82s-6.41-10.29-19.1-5c4.08,5.26,5.87,9,9.78,15.42s10,15.54,11.3,23.78c.46,3-.25,5.5-.25,8.36a28.12,28.12,0,0,0,7.68-6.25,28.49,28.49,0,0,1,.56,10c18.1-17,9.52-21.89-5.51-36.79,11.89-19.77,19.33-28.32,39.27-40.27C224,251.88,221.66,248.24,218.37,245.88Z"/><path class="cls-4" d="M172.11,235.58c-15.75,9-25.69,28.6-37.93,39.61s-6.79-10.54-19.63-4.39c4.3,5.15,6.39,9,10.51,15.24s10.21,14.85,11.81,23c.59,2.95,0,5.71.08,8.61a29.49,29.49,0,0,0,7.44-7,29.54,29.54,0,0,1,1,10.3c17.09-18.19,9.51-22.24-6.74-36.53,10.59-16.41,22.77-27.11,39.72-36.75C176.4,243.6,174.74,239.1,172.11,235.58Z"/><path class="cls-5" d="M137.81,310.43c1.56-.61,4.26,1.27,6.11.69-1.26,2.27-3.63,6.13-6.57,5.92C135.75,316.92,136.25,311,137.81,310.43Z"/><path class="cls-5" d="M141.21,312"/><path class="cls-5" d="M145.17,312.86a15.05,15.05,0,0,0,8.18.86,39.25,39.25,0,0,1-8.46,7.39A24.84,24.84,0,0,0,145.17,312.86Z"/><path class="cls-5" d="M114.51,269.79c1.8,2.85,3.55,5.73,5.34,8.59,1.47-1.6,2.93-3.21,4.44-4.78C121.22,271.44,118.47,269,114.51,269.79Z"/><path d="M88.54,102.15"/><path class="cls-6" d="M276,155.64c-15,18.7-43.7,45.61-49.37,68.43-115.84-29.45,4.32-119.57,55.84-127.94,3.77-16.68,20.33-49,31.65-61.91,9.67-5.85,16.67-11.86,28.72-12.64,32.59-2.11,59.55,8,59.91,45.26C354.58,86.24,312.55,119.57,276,155.64Z"/><path d="M365.23,0c-13.68,1.87-18.91,7.28-20.8,20.94C348.9,10.37,354.53,4.31,365.23,0Z"/><path d="M372.31,13.93c-12.41-4-20-3.34-27.79,7.7C353.34,14.81,361.25,12.85,372.31,13.93Z"/><path class="cls-6" d="M251.46,244.07c-8.57,8.53-23.72,21.93-34.25,8.77C209.32,243,225.59,231,232.72,225s20.74-23.44,31-14.31S259.49,236.09,251.46,244.07Z"/><path class="cls-6" d="M201.22,236c-8.09,7-23.49,25.75-34.14,8.68-8-12.8,11.56-23.33,21.22-26.56s23.46-19.08,32.83-10.42S208.81,229.44,201.22,236Z"/><path class="cls-5" d="M185.85,321.31c1.6-.51,4.2,1.54,6.09,1.09-1.37,2.15-3.95,5.66-6.79,5.27C183.6,327.46,184.26,321.81,185.85,321.31Z"/><path class="cls-5" d="M186.1,321.17"/><path class="cls-5" d="M193.09,324.17a15.3,15.3,0,0,0,8,1.42,36.92,36.92,0,0,1-8.67,6.55A24,24,0,0,0,193.09,324.17Z"/><path class="cls-5" d="M163.9,279.67l4.92,8.6c1.52-1.47,3-3,4.61-4.37C170.45,281.65,167.84,279.24,163.9,279.67Z"/><path class="cls-6" d="M281.86,96.88c-21.21,28.39-63.78,80.76-101.38,80.64-23.24-.07-28.43-2.68-28.68-24.19-18-10.13-23.53-13.57-39.08-26.93-16.85-4.8-22.69-7.24-25.29-25.87C149.45,88.39,223.67,38,281.86,96.88Z"/><path class="cls-7" d="M224.32,224.88"/><path class="cls-7" d="M392.58,56.39"/><path class="cls-8" d="M349.05,146.55c20.48-24,53.93-55.36,43.53-90.16-51.53-39.2-79.42-9-85.65,47.92-7,26.6-88.9,103.92-83.08,120.12C285,239.11,318.86,191.89,349.05,146.55Z"/><path class="cls-9" d="M364.08,119.48c15.42,3.77,30.5,6.33,46.42,6.4C423.1,156,454.66,154.74,470.43,183,420.29,182.06,391.27,160,364.08,119.48Z"/><path class="cls-4" d="M359.53,119.22c23.88,7.55,47.87,8.94,72.76,7.37,44.23-.45,86.26,15,115.79,48.65C550.5,68.49,499.18,56.46,404.39,59.68,398.35,86.53,385,107.49,359.53,119.22Z"/><path class="cls-10" d="M548.9,154.31c3.42-37.44-1.24-57.69-33.84-79.17C456.92,97.57,522.28,139.11,548.9,154.31Z"/><path class="cls-11" d="M372.28,130.13c13.71,16.83,20.09,28,43.58,28.46-9.31-22.62-17-27.28-39.41-35.63Z"/><path class="cls-4" d="M470.42,182.86c-40.56,11.86-77-3-110.14-26.37,2.39-9.75,6.88-17.92,12.11-26.42C399,158.92,429.82,181.6,470.42,182.86Z"/><path class="cls-10" d="M404.86,59.16c-7.23,35.79-42.26,61-43.53,98.24-16.47-14.39-12.46-26-8.53-45.27C381,100.6,389.93,88.45,393.72,58.4,397.43,58.64,401.15,58.88,404.86,59.16Z"/><path class="cls-12" d="M321.49,90.65c7,14.55,24.54,12.59,37.34,6.38s25.08-19,18-33.95-24.12-14.49-37-7.74S314.48,76.11,321.49,90.65Z"/><path class="cls-13" d="M367.16,77.38c.46,9.9-6.33,17.17-16.16,17.92s-16.95-5.69-17.28-15.22,6.2-17.74,15.8-18.56S366.69,67.48,367.16,77.38Z"/><path d="M360.53,77.78c.31,5.9-3.87,10.37-9.78,10.79s-10.1-3.41-10.38-9.25a10.33,10.33,0,0,1,9.76-11C355.94,68,360.23,71.88,360.53,77.78Z"/><path class="cls-12" d="M352.48,71.7A5.7,5.7,0,0,1,347,77.91,5.23,5.23,0,0,1,341,72.56a5.88,5.88,0,0,1,5.55-6.23A5.29,5.29,0,0,1,352.48,71.7Z"/><path d="M201.73,145.19c-19.69,9.4-29.22,12.47-50.74,7.92-.21,4.17-.64,7.85.89,11.84C170.39,161.75,186.4,156.31,201.73,145.19Z"/><path d="M169.12,128.27c-21.21,1.89-35.68.94-56.61-2.21.82,1.91,2.6,3.17,4.19,4.45C135.3,132.66,150.71,132.5,169.12,128.27Z"/><path d="M183.89,178.21l-2.95.11c10.88-3.91,20.39-10.34,29.58-17.26C202.5,168.64,194.32,174.4,183.89,178.21Z"/></symbol><symbol id="f22" data-name="f22" viewBox="0 0 773.39 587.4"><use width="549.84" height="332.14" xlink:href="#f2"/><path class="cls-19" d="M129.45,408.3H762.53S773.8,420,772.61,424.78s-7.13,5.35-4.16,18.43c0,0-1.19,16,1.78,21.39,0,0,3.57,7.73-3.56,23.18l-9.51,2.38,2.37,7.13H769l.09,4.29-6.44,2.82,4,3.22-3.62,4,2.81,4h4s3.22,7.24.8,9.66l-3.22,4.42,1.61,23.34s4.72,3.63,3.57,7.65l.18,12.88h-5.76s-1.21,2.81,0,4h3.62s-2,7.65.4,9.26H129.45Z"/><polygon class="cls-15" points="129.45 455.9 296.74 455.9 288.88 461.4 129.45 455.9"/><path class="cls-15" d="M568.89,509.79c0-.78,72.33-8.64,72.33-8.64L631,509.79,471.88,522.37Z"/><polygon class="cls-20" points="385.58 443.32 718.91 443.32 735.42 448.03 599.41 455.9 385.58 443.32"/><polygon class="cls-21" points="524.19 549.55 190.86 549.36 174.35 544.63 310.36 536.85 524.19 549.55"/><ellipse class="cls-18" cx="480.31" cy="432.1" rx="16.9" ry="23.8"/><ellipse class="cls-15" cx="480.31" cy="436.63" rx="11.79" ry="16.12"/><ellipse class="cls-18" cx="480.31" cy="438.5" rx="7.47" ry="11.1"/><ellipse class="cls-18" cx="201.61" cy="396.31" rx="15.35" ry="18.11"/><ellipse class="cls-18" cx="204.89" cy="364.88" rx="15.35" ry="18.11"/><ellipse class="cls-18" cx="324.03" cy="231.78" rx="15.35" ry="18.11"/><ellipse class="cls-18" cx="303.18" cy="242.84" rx="15.35" ry="18.11"/><ellipse class="cls-18" cx="287.83" cy="256.62" rx="15.35" ry="18.11"/><ellipse class="cls-18" cx="272.48" cy="274.73" rx="15.35" ry="18.11"/><ellipse class="cls-18" cx="251.21" cy="288.64" rx="15.35" ry="18.11"/><ellipse class="cls-18" cx="232.31" cy="310.96" rx="15.35" ry="18.11"/><ellipse class="cls-18" cx="216.96" cy="336.36" rx="15.35" ry="18.11"/><ellipse class="cls-18" cx="201.61" cy="418.8" rx="15.35" ry="18.11"/><ellipse class="cls-18" cx="451.17" cy="160.22" rx="15.35" ry="18.11"/><ellipse class="cls-18" cx="425.24" cy="167.08" rx="15.35" ry="18.11"/><ellipse class="cls-18" cx="403.91" cy="181.7" rx="15.35" ry="18.11" transform="translate(-8.61 20.49) rotate(-2.88)"/><ellipse class="cls-18" cx="378.84" cy="191.04" rx="15.35" ry="18.11"/><ellipse class="cls-18" cx="359.12" cy="203.31" rx="15.35" ry="18.11"/><ellipse class="cls-18" cx="343.77" cy="217.92" rx="15.35" ry="18.11"/><ellipse class="cls-18" cx="690.54" cy="412.2" rx="18.11" ry="15.35" transform="translate(248.78 1084.21) rotate(-87.51)"/><ellipse class="cls-18" cx="688.63" cy="380.65" rx="18.11" ry="15.35" transform="translate(278.46 1052.12) rotate(-87.51)"/><ellipse class="cls-18" cx="575.38" cy="242.52" rx="18.11" ry="15.35" transform="translate(308.13 806.83) rotate(-87.51)"/><ellipse class="cls-18" cx="595.72" cy="254.47" rx="18.11" ry="15.35" transform="translate(315.65 838.59) rotate(-87.51)"/><ellipse class="cls-18" cx="610.46" cy="268.9" rx="18.11" ry="15.35" transform="translate(315.33 867.12) rotate(-87.51)"/><ellipse class="cls-18" cx="625.01" cy="287.66" rx="18.11" ry="15.35" transform="translate(310.51 899.6) rotate(-87.51)"/><ellipse class="cls-18" cx="645.66" cy="302.48" rx="18.11" ry="15.35" transform="matrix(0.04, -1, 1, 0.04, 315.45, 934.41)"/><ellipse class="cls-18" cx="663.57" cy="325.59" rx="18.11" ry="15.35" transform="translate(309.5 974.42) rotate(-87.51)"/><ellipse class="cls-18" cx="677.81" cy="351.64" rx="18.11" ry="15.35" transform="translate(297.1 1013.55) rotate(-87.51)"/><ellipse class="cls-18" cx="477.07" cy="173.49" rx="18.11" ry="15.35" transform="translate(283.05 642.58) rotate(-87.51)"/><ellipse class="cls-18" cx="498.1" cy="185.2" rx="18.11" ry="15.35" transform="translate(267.17 663.81) rotate(-84.64)"/><ellipse class="cls-18" cx="522.38" cy="199.43" rx="18.11" ry="15.35" transform="translate(300.48 712.67) rotate(-87.51)"/><ellipse class="cls-18" cx="541.55" cy="212.55" rx="18.11" ry="15.35" transform="translate(305.71 744.37) rotate(-87.51)"/><ellipse class="cls-18" cx="556.25" cy="227.81" rx="18.11" ry="15.35" transform="translate(304.52 773.66) rotate(-87.51)"/><path class="cls-12" d="M170.14,562.35l-.14.87-10.84,1.63.14-.87.59-.09a4.42,4.42,0,0,0,1.93-.71,2.56,2.56,0,0,0,1-1.1,16.93,16.93,0,0,0,.51-2.47l2.6-16.35a10.74,10.74,0,0,0,.25-2.35c-.13-.86-1-1.18-2.64-.93l-.68.1.14-.87,10.1-1.52-.14.88-.53.08a4.21,4.21,0,0,0-1.6.55,2.12,2.12,0,0,0-.93,1,19.64,19.64,0,0,0-.61,2.95c-1,6.3-1.53,9.45-2.54,15.75a10.54,10.54,0,0,0-.23,2.25,1.37,1.37,0,0,0,1,1.17,4,4,0,0,0,1.91.13Z"/><path class="cls-12" d="M188.91,533.93l2-.3c1.14-.17,2.52-.39,4.13-.69s2.62-.49,3.25-.59a14.6,14.6,0,0,1,6.82.4,9.07,9.07,0,0,1,4.65,3.49,12.91,12.91,0,0,1,2.19,5.54,15.65,15.65,0,0,1-2.76,11.06,13.69,13.69,0,0,1-3.89,3.66,15.54,15.54,0,0,1-4.09,1.84c-1.28.33-3.14.68-5.6,1L184.67,561l.15-.92,1.16-.17a4.65,4.65,0,0,0,2-.74,2.73,2.73,0,0,0,1-1.17,15.77,15.77,0,0,0,.55-2.61c1.11-6.9,1.66-10.35,2.77-17.26a11.65,11.65,0,0,0,.24-2.49c-.14-.9-1.07-1.23-2.79-1l-1,.16Zm7.69-.42c-1.37,8.5-2,12.75-3.42,21.24a10.9,10.9,0,0,0-.22,2.32q.27,1.83,4.37,1.22a11.09,11.09,0,0,0,8.86-6.29A17.93,17.93,0,0,0,208,541.15a10.29,10.29,0,0,0-3.1-6.34c-1.65-1.51-3.91-2-6.76-1.62A14.37,14.37,0,0,0,196.6,533.51Z"/><path class="cls-12" d="M236.43,546.57l.88-.13c-.45,2.74-.67,4.12-1.12,6.86l-22.7,3.4.15-.92.58-.08a4.66,4.66,0,0,0,2-.75,2.77,2.77,0,0,0,1-1.16,15.77,15.77,0,0,0,.55-2.61c1.11-6.91,1.66-10.36,2.77-17.26a11.65,11.65,0,0,0,.24-2.49c-.14-.91-1.07-1.23-2.79-1l-.8.12.15-.92,19.34-2.9c.39,2.33.59,3.49,1,5.82l-.84.13a8.57,8.57,0,0,0-2.09-3.17,3.91,3.91,0,0,0-2.21-1,26.48,26.48,0,0,0-4.23.41l-3.52.53c-.73,4.64-1.1,7-1.84,11.59l2-.29a9.58,9.58,0,0,0,4.13-1.38,7,7,0,0,0,2.16-3.87l.92-.14L230.45,546l-.92.14a8.63,8.63,0,0,0-.07-2,4.15,4.15,0,0,0-.73-2.11,1.8,1.8,0,0,0-1.21-.61,12.71,12.71,0,0,0-2.46.2l-2.22.33c-.54,3.37-.81,5-1.34,8.42a12.7,12.7,0,0,0-.25,2.4,1.48,1.48,0,0,0,1.14,1.31,8.71,8.71,0,0,0,3.3-.06l1.58-.24a12.2,12.2,0,0,0,6.13-2.33A10.47,10.47,0,0,0,236.43,546.57Z"/><path class="cls-12" d="M259.35,550.08l-.94.14-10.83-20.8c-.39,3.9-.59,5.85-1,9.75s-.77,6.78-1.19,8.92a10.28,10.28,0,0,1-1.92,4.7,4.7,4.7,0,0,1-2.83,1.74,3.88,3.88,0,0,1-2.58-.43,2.52,2.52,0,0,1-1.28-1.88c-.2-1.3.22-2,1.24-2.18a1.47,1.47,0,0,1,1.1.25,1.37,1.37,0,0,1,.58,1,2.35,2.35,0,0,1-.19,1.18,1.6,1.6,0,0,0-.11.64.64.64,0,0,0,.37.51,1.46,1.46,0,0,0,.84.07c1.23-.18,2.23-1.1,3-2.75s1.48-5.73,2.11-12.22c.33-3.39.49-5.08.82-8.46a21,21,0,0,0,.2-2.45,1.36,1.36,0,0,0-.8-1,6.82,6.82,0,0,0-3.28,0l.09-.91,6.26-.94L259,544c.27-2.73.4-4.1.67-6.83q1-10.53,2.13-12.62a3.91,3.91,0,0,1,2.86-2.35,2.62,2.62,0,0,1,1.74.23,1.52,1.52,0,0,1,.78,1.13,1.36,1.36,0,0,1-.31,1.12,1.66,1.66,0,0,1-1,.56,1.75,1.75,0,0,1-1.52-.71,1,1,0,0,0-.88-.42c-.55.09-1,.88-1.43,2.4a91.9,91.9,0,0,0-1.47,11C260.09,542.57,259.84,545.08,259.35,550.08Z"/><path class="cls-12" d="M278.21,535.54a18.92,18.92,0,0,1,1.24-9.23,19.77,19.77,0,0,1,5.33-8.21,13.84,13.84,0,0,1,7.07-3.62,10.93,10.93,0,0,1,4.3.33,8.82,8.82,0,0,1,4.52,3.16,13.25,13.25,0,0,1,2.71,6.58,19.7,19.7,0,0,1-3.07,13.64c-2.75,4.43-6.09,6.94-10.05,7.53a9.84,9.84,0,0,1-7.81-2Q279,541.14,278.21,535.54Zm4.38,1.58a14.05,14.05,0,0,0,1.32,4.63,6,6,0,0,0,2.47,2.46,5.67,5.67,0,0,0,3.65.58,8.11,8.11,0,0,0,5.49-3.89,23.18,23.18,0,0,0,3.26-9.06,30.66,30.66,0,0,0,.39-9.45q-.59-3.89-2.59-5.58a5.61,5.61,0,0,0-4.67-1.3,8.27,8.27,0,0,0-5.47,3.76,21.87,21.87,0,0,0-3.39,8.7A27.84,27.84,0,0,0,282.59,537.12Z"/><path class="cls-12" d="M324.29,535.48l14-27.43L346,506.9l-.17,1a8.32,8.32,0,0,0-3,.83,2.31,2.31,0,0,0-.94,1.21,17.7,17.7,0,0,0-.45,3.17l-2,18.94a14.1,14.1,0,0,0-.15,2.54,1.76,1.76,0,0,0,1.24,1.49,5,5,0,0,0,2.37.17l.7-.1-.17,1-12.83,1.92c.07-.41.1-.62.17-1l.54-.08a5.77,5.77,0,0,0,2.34-.82,2.92,2.92,0,0,0,1.19-1.35,16.68,16.68,0,0,0,.54-3.12c.92-8.5,1.38-12.75,2.29-21.26L322.8,540.32l-1.09.16c-2.64-9.36-4-14-6.61-23.39l-3.8,16.12a20,20,0,0,0-.85,5.16,2.33,2.33,0,0,0,1.22,2,6,6,0,0,0,3.08.18c-.07.41-.1.62-.17,1l-10.32,1.55.17-1.05a5.72,5.72,0,0,0,2.76-1.2,5.61,5.61,0,0,0,1.63-2.39,53.88,53.88,0,0,0,1.46-5.36c1.47-6.1,2.2-9.15,3.67-15.24a12.61,12.61,0,0,0,.51-3.37,1.67,1.67,0,0,0-.75-1.26,3.8,3.8,0,0,0-2.35-.13l-1.31.2.14-1,7.15-1.07Z"/><path class="cls-12" d="M357.78,535.8l-1.81.27-2.25-25.52c-.05-.57-.08-.85-.12-1.42a2,2,0,0,0-1-1.71,7.34,7.34,0,0,0-3.36,0v-1l12.31-1.85v1a7.82,7.82,0,0,0-2.77.82,2.3,2.3,0,0,0-1.13,1.23,7,7,0,0,0-.05,2.49c.75,8,1.12,12,1.87,20l10.19-20.35c.87-1.73,1.26-2.89,1.17-3.46a1.73,1.73,0,0,0-1-1.36,6.24,6.24,0,0,0-3.14-.18l.12-1,10-1.5-.17,1.05a5.18,5.18,0,0,0-2.89,1.64,26,26,0,0,0-3.1,5.15Z"/><path class="cls-12" d="M399.76,521.2l1-.14c-.51,3.1-.76,4.65-1.27,7.76l-25.68,3.85c.06-.42.1-.62.17-1l.65-.1a5.22,5.22,0,0,0,2.29-.84,3,3,0,0,0,1.16-1.32,18.27,18.27,0,0,0,.62-3c1.26-7.82,1.88-11.72,3.14-19.53a14.28,14.28,0,0,0,.27-2.82c-.16-1-1.21-1.39-3.15-1.1l-.91.14.17-1.05,21.88-3.28c.45,2.64.67,4,1.11,6.59l-.95.15a9.54,9.54,0,0,0-2.37-3.59,4.38,4.38,0,0,0-2.5-1.17,28.18,28.18,0,0,0-4.78.46l-4,.6c-.83,5.25-1.25,7.87-2.08,13.12l2.22-.33a11,11,0,0,0,4.67-1.56q1.5-1.09,2.44-4.39l1-.16c-.77,4.82-1.15,7.23-1.92,12l-1,.16a11,11,0,0,0-.08-2.24,4.81,4.81,0,0,0-.84-2.4,2,2,0,0,0-1.36-.69,14.37,14.37,0,0,0-2.79.23l-2.51.38c-.61,3.81-.91,5.71-1.51,9.52a15,15,0,0,0-.29,2.72,1.68,1.68,0,0,0,1.3,1.48,10,10,0,0,0,3.73-.07l1.78-.27q4.67-.69,6.94-2.64A11.75,11.75,0,0,0,399.76,521.2Z"/><path class="cls-12" d="M425.7,525.18l-1.07.16L412.38,501.8c-.45,4.41-.67,6.62-1.12,11s-.87,7.67-1.35,10.09a11.77,11.77,0,0,1-2.17,5.33,5.31,5.31,0,0,1-3.2,2,4.42,4.42,0,0,1-2.92-.48,2.86,2.86,0,0,1-1.45-2.14q-.33-2.21,1.41-2.46a1.63,1.63,0,0,1,1.23.28,1.57,1.57,0,0,1,.67,1.11,2.81,2.81,0,0,1-.22,1.34,1.52,1.52,0,0,0-.12.72.71.71,0,0,0,.41.58,1.69,1.69,0,0,0,1,.08q2.08-.32,3.4-3.12t2.39-13.83c.37-3.82.55-5.74.92-9.57.18-1.68.26-2.61.24-2.77a1.55,1.55,0,0,0-.91-1.13c-.54-.28-1.78-.29-3.71,0l.1-1L414,496.7l11.3,21.64c.31-3.09.46-4.64.76-7.73q1.19-11.92,2.41-14.28a4.43,4.43,0,0,1,3.24-2.66,2.92,2.92,0,0,1,2,.27,1.69,1.69,0,0,1,.89,1.26,1.51,1.51,0,0,1-.36,1.27,1.81,1.81,0,0,1-1.14.64,2,2,0,0,1-1.71-.81,1.09,1.09,0,0,0-1-.46c-.62.09-1.16,1-1.62,2.71A106.2,106.2,0,0,0,427.09,511C426.53,516.68,426.26,519.51,425.7,525.18Z"/><path class="cls-12" d="M435.82,493.43l2.21-.33c1.29-.2,2.85-.45,4.68-.79s3-.56,3.67-.66a16.5,16.5,0,0,1,7.72.45,10.25,10.25,0,0,1,5.26,3.95,14.65,14.65,0,0,1,2.48,6.26,17.7,17.7,0,0,1-3.12,12.52,15.78,15.78,0,0,1-4.4,4.15,17.58,17.58,0,0,1-4.63,2.07,62.8,62.8,0,0,1-6.34,1.19L431,524.09c.07-.41.1-.62.17-1l1.31-.2a5.27,5.27,0,0,0,2.29-.84,3.11,3.11,0,0,0,1.16-1.32,19.19,19.19,0,0,0,.62-3c1.25-7.81,1.88-11.72,3.13-19.53a13.76,13.76,0,0,0,.28-2.82c-.16-1-1.21-1.39-3.15-1.1l-1.18.18Zm8.7-.47c-1.55,9.62-2.33,14.42-3.87,24a12,12,0,0,0-.26,2.62q.32,2.07,4.95,1.38a12.59,12.59,0,0,0,10-7.12,20.38,20.38,0,0,0,2.06-12.27,11.63,11.63,0,0,0-3.51-7.18c-1.87-1.71-4.43-2.32-7.65-1.84C445.77,492.67,445.18,492.79,444.52,493Z"/><path class="cls-12" d="M484,488.11c-1.47,9.14-2.21,13.71-3.68,22.86a12.8,12.8,0,0,0-.27,2.66,1.66,1.66,0,0,0,1.22,1.42,5,5,0,0,0,2.28.16l.81-.12c-.06.41-.1.62-.16,1l-13.15,2c.07-.42.1-.63.17-1l.67-.11a5.82,5.82,0,0,0,2.37-.82,3.24,3.24,0,0,0,1.25-1.36,17.5,17.5,0,0,0,.72-3.15l3.75-23.17q-3.81.24-6.43.63a15.17,15.17,0,0,0-4.21,1.1c-.91.44-1.31,1-1.22,1.57a3.06,3.06,0,0,0,.39.94,2.84,2.84,0,0,1,.36.87,1.36,1.36,0,0,1-.29,1.07,1.61,1.61,0,0,1-1.08.59,1.63,1.63,0,0,1-1.46-.44,2.37,2.37,0,0,1-.71-1.38,3.65,3.65,0,0,1,1.6-3.31q1.86-1.6,7-2.37,2.64-.41,10.13-.92,5.35-.37,8-.76c1.69-.26,2.57-.83,2.61-1.7,0-.62.31-1,.82-1a1,1,0,0,1,1.25.94q.36,2.36-4.88,3.14C490.2,487.62,487.56,487.87,484,488.11Z"/><path class="cls-12" d="M520,503.18l1-.15-1.27,7.76-25.68,3.85c.06-.41.1-.62.16-1l.66-.1a5.22,5.22,0,0,0,2.29-.84,3,3,0,0,0,1.16-1.32,18,18,0,0,0,.62-2.95c1.25-7.81,1.88-11.72,3.14-19.53a14.28,14.28,0,0,0,.27-2.82c-.16-1-1.21-1.39-3.15-1.1l-.91.14.17-1,21.88-3.28c.45,2.63.67,3.95,1.11,6.59l-1,.14a9.62,9.62,0,0,0-2.37-3.59,4.38,4.38,0,0,0-2.5-1.17,28.56,28.56,0,0,0-4.78.47l-4,.59c-.83,5.25-1.25,7.88-2.08,13.12l2.21-.33a11,11,0,0,0,4.68-1.56c1-.72,1.81-2.19,2.44-4.39l1-.15c-.77,4.81-1.15,7.22-1.92,12l-1,.16a11,11,0,0,0-.08-2.24,4.72,4.72,0,0,0-.84-2.39,2,2,0,0,0-1.36-.69,13.6,13.6,0,0,0-2.79.23l-2.51.37c-.61,3.81-.91,5.72-1.51,9.53a14.82,14.82,0,0,0-.29,2.71,1.7,1.7,0,0,0,1.3,1.49,10,10,0,0,0,3.72-.08l1.79-.26q4.67-.7,6.94-2.65A11.76,11.76,0,0,0,520,503.18Z"/><path class="cls-12" d="M548.25,507.33l-2,.31-2.52-28.49c-.05-.64-.08-.95-.13-1.59a2.28,2.28,0,0,0-1.16-1.91,8.14,8.14,0,0,0-3.75,0l0-1.13,13.75-2.06c0,.45,0,.68,0,1.13a9,9,0,0,0-3.09.92,2.72,2.72,0,0,0-1.27,1.37,8.1,8.1,0,0,0,0,2.78c.84,8.95,1.26,13.42,2.09,22.37l11.37-22.71c1-1.93,1.41-3.22,1.31-3.87a2,2,0,0,0-1.12-1.52,7,7,0,0,0-3.5-.2c.05-.46.08-.69.13-1.15l11.14-1.67c-.07.46-.11.69-.18,1.16a5.84,5.84,0,0,0-3.23,1.84,28.43,28.43,0,0,0-3.46,5.74Z"/><path class="cls-12" d="M595.11,491l1.11-.17c-.56,3.47-.84,5.2-1.41,8.67l-28.67,4.3c.07-.47.11-.7.19-1.17l.73-.11a5.92,5.92,0,0,0,2.56-.93,3.42,3.42,0,0,0,1.29-1.48,19.37,19.37,0,0,0,.69-3.3l3.5-21.79a14,14,0,0,0,.3-3.15c-.17-1.15-1.34-1.55-3.51-1.23l-1,.15.18-1.16L595.49,466c.5,2.94.74,4.41,1.24,7.36l-1.07.16a10.62,10.62,0,0,0-2.64-4,4.85,4.85,0,0,0-2.79-1.3,31,31,0,0,0-5.33.51l-4.45.67c-.93,5.86-1.39,8.79-2.32,14.64l2.47-.37a12.1,12.1,0,0,0,5.22-1.74q1.68-1.21,2.72-4.9l1.17-.17-2.15,13.44-1.16.17a11.42,11.42,0,0,0-.09-2.5,5.32,5.32,0,0,0-.93-2.67,2.27,2.27,0,0,0-1.52-.77,15.21,15.21,0,0,0-3.12.26l-2.8.42c-.68,4.25-1,6.37-1.69,10.63a16.72,16.72,0,0,0-.32,3,1.88,1.88,0,0,0,1.45,1.65,11,11,0,0,0,4.16-.08l2-.3q5.21-.78,7.74-2.95A13.09,13.09,0,0,0,595.11,491Z"/><path class="cls-12" d="M629.27,491.61l.73,1.05a9.8,9.8,0,0,1-5.44,2.88,5.58,5.58,0,0,1-4.67-1c-1.15-1-1.9-2.7-2.27-5.18l-.28-2A13.3,13.3,0,0,0,616,482.7a3.52,3.52,0,0,0-2-1.63,9.38,9.38,0,0,0-3.56,0l-1.26.19c-.65,4-1,5.95-1.61,9.91a16.77,16.77,0,0,0-.34,3,1.86,1.86,0,0,0,1.37,1.63,5.61,5.61,0,0,0,2.49.15l.71-.1c-.08.46-.11.7-.19,1.16l-13.87,2.08c.08-.46.12-.7.19-1.16l.56-.09a5.89,5.89,0,0,0,2.57-.94,3.33,3.33,0,0,0,1.29-1.47,22.18,22.18,0,0,0,.68-3.29l3.5-21.8a15.35,15.35,0,0,0,.3-3.15,1.39,1.39,0,0,0-1-1.17,6.84,6.84,0,0,0-3,0c.08-.46.11-.7.19-1.16l9-1.35q3.73-.56,5.62-.65a10.65,10.65,0,0,1,4,.61,7.71,7.71,0,0,1,3.38,2.16,6.62,6.62,0,0,1,1.59,3.46,7.73,7.73,0,0,1-2.28,6.76q-2.83,3-9.84,4.23a9.65,9.65,0,0,1,5.66,2.73,12.42,12.42,0,0,1,2.54,5.93A11.71,11.71,0,0,0,624,492.7a2.08,2.08,0,0,0,2.18.73A6.64,6.64,0,0,0,629.27,491.61Zm-19.84-11.4,1-.15c4.31-.64,7.42-1.92,9.32-3.81a7.85,7.85,0,0,0,2.22-7.09,5.34,5.34,0,0,0-2.63-4.18c-1.45-.79-3.49-1-6.1-.6-.4.06-.84.14-1.3.25C610.94,470.86,610.44,474,609.43,480.21Z"/><path class="cls-12" d="M634.27,460.2l2.48-.38c1.43-.21,3.18-.5,5.21-.88s3.31-.62,4.1-.73a18.25,18.25,0,0,1,8.62.5,11.46,11.46,0,0,1,5.87,4.41,16.38,16.38,0,0,1,2.77,7,19.7,19.7,0,0,1-3.48,14,17.45,17.45,0,0,1-4.92,4.63,19.48,19.48,0,0,1-5.16,2.32c-1.62.42-4,.87-7.08,1.33l-13.76,2.06c.07-.46.11-.69.18-1.16l1.47-.22a5.8,5.8,0,0,0,2.56-.94,3.4,3.4,0,0,0,1.29-1.47,19.61,19.61,0,0,0,.69-3.3l3.5-21.8a13.87,13.87,0,0,0,.3-3.15c-.17-1.14-1.34-1.55-3.51-1.22l-1.32.2C634.16,460.89,634.2,460.66,634.27,460.2Zm9.71-.52c-1.72,10.73-2.59,16.09-4.32,26.82a14.08,14.08,0,0,0-.28,2.93c.23,1.54,2.07,2.06,5.52,1.54A14,14,0,0,0,656.1,483a22.75,22.75,0,0,0,2.3-13.71,13,13,0,0,0-3.92-8q-3.13-2.87-8.54-2.05A17.18,17.18,0,0,0,644,459.68Z"/><path class="cls-12" d="M694.29,476.17l1.12-.17c-.57,3.47-.85,5.2-1.42,8.67L665.32,489c.08-.47.11-.7.19-1.17l.73-.11a5.8,5.8,0,0,0,2.56-.93,3.42,3.42,0,0,0,1.29-1.48,19.42,19.42,0,0,0,.69-3.29l3.5-21.8a14,14,0,0,0,.3-3.15q-.26-1.71-3.51-1.23l-1,.15.19-1.16,24.42-3.66c.5,2.94.74,4.41,1.24,7.36l-1.06.16a10.86,10.86,0,0,0-2.64-4,4.9,4.9,0,0,0-2.8-1.3,31,31,0,0,0-5.33.51l-4.45.67c-.93,5.86-1.39,8.79-2.32,14.64l2.47-.37a12.1,12.1,0,0,0,5.22-1.74q1.68-1.21,2.73-4.89l1.16-.18-2.15,13.44-1.16.17a11.42,11.42,0,0,0-.09-2.5,5.32,5.32,0,0,0-.93-2.67,2.27,2.27,0,0,0-1.52-.77,15.13,15.13,0,0,0-3.11.26l-2.81.42c-.67,4.25-1,6.38-1.68,10.63a17.21,17.21,0,0,0-.33,3,1.87,1.87,0,0,0,1.45,1.65,11,11,0,0,0,4.16-.08l2-.3q5.21-.78,7.75-2.94A13.16,13.16,0,0,0,694.29,476.17Z"/><path class="cls-12" d="M723.24,480.6l-1.18.18-13.68-26.27-1.25,12.31q-.71,7.21-1.51,11.26A13.1,13.1,0,0,1,703.2,484a6,6,0,0,1-3.58,2.19,4.88,4.88,0,0,1-3.25-.54,3.19,3.19,0,0,1-1.63-2.38c-.24-1.64.28-2.56,1.58-2.75a1.87,1.87,0,0,1,1.38.31,1.75,1.75,0,0,1,.74,1.24,3.07,3.07,0,0,1-.24,1.49,1.84,1.84,0,0,0-.14.81.82.82,0,0,0,.46.65,2,2,0,0,0,1.07.09c1.55-.24,2.82-1.4,3.79-3.48s1.87-7.23,2.67-15.44l1-10.68c.2-1.89.28-2.92.26-3.1a1.71,1.71,0,0,0-1-1.26q-.9-.46-4.14,0l.12-1.15,7.9-1.19L722.82,473l.85-8.63Q725,451,726.36,448.4a4.94,4.94,0,0,1,3.62-3,3.21,3.21,0,0,1,2.19.3,1.89,1.89,0,0,1,1,1.42,1.67,1.67,0,0,1-.4,1.41,2,2,0,0,1-1.27.71,2.18,2.18,0,0,1-1.92-.9,1.23,1.23,0,0,0-1.11-.52c-.69.1-1.29,1.11-1.81,3a118.58,118.58,0,0,0-1.85,13.91C724.18,471.12,723.87,474.28,723.24,480.6Z"/></symbol><symbol id="f3" data-name="f3" viewBox="0 0 558 366.99"><path class="cls-1" d="M197.44,177.05c-62.94-39.39-101-12.85-166.87-1.48-4.89,14.92-3.73,27.25,5,40.42C81.19,192.9,166.45,206,197.44,177.05Z"/><path class="cls-2" d="M190.6,200.3C127,218,92.88,196.61,32.82,244.46c.18,17.11.93,20,19,18.83C80.74,244.21,193.28,221.12,190.6,200.3Z"/><path class="cls-3" d="M193.3,188.86c-80-18.12-121.94-1.36-192.7,35-2.2,22.34.92,23.5,21.74,31.48C56.45,242.28,173.5,207.57,193.3,188.86Z"/><path class="cls-4" d="M224.79,280.11c-11.58,12.42-19.34,30.52-33.22,40.1s-4.37-6.87-19.3-5.21c3.89,5.62,6.2,9.93,9.92,16.35s8.55,14.92,10,22.86c.52,2.87-.29,5.79-.29,8.64a38.78,38.78,0,0,0,7.74-6.32,41.14,41.14,0,0,1,.33,10.34c15.72-18.45,11.86-21.08-4.24-36.7a431.83,431.83,0,0,1,38.77-41C231.4,286,228.45,282.57,224.79,280.11Z"/><path class="cls-4" d="M178.49,267.11c-15.08,11.3-27,27.58-40.2,40.31s-5.07-5.68-20.39-.31a179.61,179.61,0,0,1,13.26,14.31c5,5.8,11.59,13.55,14.82,21.25,1.17,2.8,1.07,6.06,1.72,9a42.3,42.3,0,0,0,6-8.71,44.44,44.44,0,0,1,2.79,10.57c10.83-22.58,7.15-24-12.6-36.71,10.15-16.87,24.39-26.93,40.94-37A118.33,118.33,0,0,0,178.49,267.11Z"/><path class="cls-5" d="M147.4,344.09c1.71-.93,4,0,5.89-.53-1.19,2.67-1.77,6.79-5.41,6.95C145.89,350.6,145.69,345,147.4,344.09Z"/><path class="cls-5" d="M150.82,345"/><path class="cls-5" d="M154.83,345.09a18.26,18.26,0,0,0,8.11-.64,56.77,56.77,0,0,1-6.93,9.32A38.52,38.52,0,0,0,154.83,345.09Z"/><path class="cls-5" d="M117.77,306q3.35,4,6.65,7.94c1.21-1.92,2.43-3.84,3.66-5.74C124.61,306.48,121.69,305.26,117.77,306Z"/><path d="M238,.85"/><path class="cls-6" d="M285.19,188.56c-24.39,20.21-49.57,31.07-56.13,65.11-141.78-43.39-10.38-120.77,70.5-123.59,6.87-21.27,9.26-41.86,21.93-61,10.59-5.12,16-11.87,28.93-12.58,34.82-1.91,56.43,6.6,60.06,44.91C363,122,327.31,159.67,285.19,188.56Z"/><path d="M372.3,34.65c-12.44,3.16-17.79,8.47-20.79,21C356.5,45.87,362.55,39.67,372.3,34.65Z"/><path d="M379.57,48.34c-12-2.65-19.47-1.27-28,8C360.57,50.5,368.92,48.23,379.57,48.34Z"/><path class="cls-6" d="M255.36,274.54c-6.52,11.14-16.57,26.35-29.62,12.4-9.79-10.45,2.57-23.63,9.16-32.43s18-24.06,28.51-13.42S261.47,264.1,255.36,274.54Z"/><path class="cls-6" d="M207.62,269.81c-10.25,10.11-22.5,23.23-33.4,5.51C166.05,262,181.12,250,191,243.45s19.37-22.08,29.37-9.33S217.22,260.35,207.62,269.81Z"/><path class="cls-5" d="M193.25,355.92c1.9-.44,3.9,1.09,5.87,1.08-1.8,2.19-3.38,5.65-6.81,4.89C190.44,361.47,191.35,356.36,193.25,355.92Z"/><path class="cls-5" d="M193.38,355.62"/><path class="cls-5" d="M200.25,358.8a19.45,19.45,0,0,0,8,1.58,50.38,50.38,0,0,1-8.75,6.61A34.13,34.13,0,0,0,200.25,358.8Z"/><path class="cls-5" d="M172.32,313.91c1.61,3,3.2,6,4.83,9,1.55-1.45,3.1-2.9,4.7-4.3C178.88,316.09,176.28,314.21,172.32,313.91Z"/><path class="cls-6" d="M299.11,130.83C269.87,160.17,222.63,193.4,179.84,168c-26.45-15.67-30.15-24.47-14.29-55.59-1.07-37.31,11.66-58.83,37.21-84.55,12.72-17,14.75-26.45,36.78-27.9C269.65,101.76,238.25,34.71,299.11,130.83Z"/><path class="cls-7" d="M227,254.74"/><path class="cls-7" d="M400.25,90.8"/><path class="cls-8" d="M357.56,183.66C381.32,157.39,408,129,400.25,90.8c-58.79-41.36-73-6-80.21,49.28C305,180.9,219.85,214.68,226.46,254.23,282.52,264.59,326.78,225.72,357.56,183.66Z"/><path class="cls-9" d="M373.61,155.78a249.27,249.27,0,0,0,45.59,6c13.76,25.32,42.49,33.81,58.52,57.11C428.13,216.64,400,196.92,373.61,155.78Z"/><path class="cls-4" d="M369.18,155.57c23.6,6.66,47.28,8.14,71.67,6.38,44-.64,85.49,13.71,116.68,45.3-2.73-106.37-52.2-114.5-145.47-113C405.55,120.66,393.08,141.61,369.18,155.57Z"/><path class="cls-10" d="M557.75,186.3c1.56-38.21-3.48-56.05-36-78.17C467.31,137.42,528.72,170.47,557.75,186.3Z"/><path class="cls-11" d="M381.31,166.56c14,18.49,18.73,24.92,42.57,28.22-10.16-21.87-16.25-26.45-38.3-35.6Z"/><path class="cls-4" d="M477.72,218.84c-39.94,9.34-76.38-3.33-109.56-25.63,3.46-9.44,8.14-18.09,13.27-26.71C407.42,195,438.48,215.65,477.72,218.84Z"/><path class="cls-10" d="M412.52,93.7c-9.07,35.92-37,63.57-43.36,100.39-14.47-17.53-10.83-25.06-6.46-45.82,27.86-14,34.43-24.83,38.72-55.42C405.12,93.12,408.82,93.39,412.52,93.7Z"/><path class="cls-12" d="M334,126.15c7.28,15.29,20.77,13.68,33.87,6.08s22.84-19.45,15.83-34.13-23-15.32-36.11-7.76S326.7,110.86,334,126.15Z"/><path class="cls-13" d="M375,112c.89,9.67-4.69,17.31-14.44,18.21s-15.63-5.77-16.85-15.22S347,97.08,357.05,96.28,374.09,102.29,375,112Z"/><path d="M368.6,112.36c.57,5.81-2.68,10.46-8.6,11s-9.58-3.61-10.34-9.32,2.24-10.67,8.26-11.07S368,106.56,368.6,112.36Z"/><path class="cls-12" d="M360.35,106.06c.36,3.31-1.41,6-4.8,6.28s-5.69-2.07-6.13-5.37,1.34-6,4.77-6.26A5.62,5.62,0,0,1,360.35,106.06Z"/><path d="M213.58,144.24c-23.75-6.07-34.56-13.4-48.77-33.13a130.32,130.32,0,0,0-8.89,23.8C175.67,135.85,194,142.9,213.58,144.24Z"/><path d="M195.71,101.79c-17-23.68-5.47-51.42,7.75-74.2-4.06,2.1-7.18,5.52-10.38,8.72C183.63,61.58,176.65,79.47,195.71,101.79Z"/><path d="M184.15,172.43l-3.11-2A142.49,142.49,0,0,0,216.49,168,87.45,87.45,0,0,1,184.15,172.43Z"/></symbol><symbol id="f33" data-name="f33" viewBox="0 0 780.24 625.53"><use width="558" height="366.99" xlink:href="#f3"/><path class="cls-22" d="M136.31,446.43H769.38s11.27,11.73,10.08,16.48-7.13,5.35-4.16,18.43c0,0-1.19,16.05,1.79,21.4,0,0,3.56,7.72-3.57,23.18L764,528.29l2.38,7.14h9.51l.08,4.28-6.43,2.82,4,3.22-3.62,4,2.82,4h4s3.22,7.24.8,9.66l-3.22,4.42L776,591.23s4.72,3.62,3.57,7.64l.18,12.88H774s-1.2,2.82,0,4h3.62s-2,7.65.41,9.26H136.31Z"/><polygon class="cls-15" points="136.31 494.03 303.59 494.03 295.73 499.53 136.31 494.03"/><path class="cls-15" d="M575.74,547.93c0-.79,72.33-8.65,72.33-8.65l-10.22,8.65L478.73,560.5Z"/><polygon class="cls-23" points="392.43 481.45 725.76 481.45 742.27 486.17 606.27 494.03 392.43 481.45"/><polygon class="cls-24" points="531.04 587.68 197.71 587.49 181.21 582.76 317.21 574.98 531.04 587.68"/><ellipse class="cls-18" cx="487.16" cy="470.23" rx="16.9" ry="23.8"/><ellipse class="cls-15" cx="487.16" cy="474.77" rx="11.79" ry="16.12"/><ellipse class="cls-18" cx="487.16" cy="476.63" rx="7.47" ry="11.1"/><ellipse class="cls-18" cx="208.46" cy="434.44" rx="15.35" ry="18.11"/><ellipse class="cls-18" cx="211.74" cy="403.01" rx="15.35" ry="18.11"/><ellipse class="cls-18" cx="330.88" cy="269.91" rx="15.35" ry="18.11"/><ellipse class="cls-18" cx="310.04" cy="280.97" rx="15.35" ry="18.11"/><ellipse class="cls-18" cx="294.69" cy="294.75" rx="15.35" ry="18.11"/><ellipse class="cls-18" cx="279.34" cy="312.86" rx="15.35" ry="18.11"/><ellipse class="cls-18" cx="258.06" cy="326.78" rx="15.35" ry="18.11"/><ellipse class="cls-18" cx="239.16" cy="349.09" rx="15.35" ry="18.11"/><ellipse class="cls-18" cx="223.81" cy="374.49" rx="15.35" ry="18.11"/><ellipse class="cls-18" cx="208.46" cy="456.93" rx="15.35" ry="18.11"/><ellipse class="cls-18" cx="458.02" cy="198.35" rx="15.35" ry="18.11"/><ellipse class="cls-18" cx="432.09" cy="205.22" rx="15.35" ry="18.11"/><ellipse class="cls-18" cx="410.76" cy="219.83" rx="15.35" ry="18.11" transform="translate(-10.51 20.88) rotate(-2.88)"/><ellipse class="cls-18" cx="385.69" cy="229.17" rx="15.35" ry="18.11"/><ellipse class="cls-18" cx="365.97" cy="241.44" rx="15.35" ry="18.11"/><ellipse class="cls-18" cx="350.62" cy="256.05" rx="15.35" ry="18.11"/><ellipse class="cls-18" cx="697.39" cy="450.33" rx="18.11" ry="15.35" transform="translate(217.24 1127.53) rotate(-87.51)"/><ellipse class="cls-18" cx="695.48" cy="418.79" rx="18.11" ry="15.35" transform="translate(246.92 1095.44) rotate(-87.51)"/><ellipse class="cls-18" cx="582.23" cy="280.65" rx="18.11" ry="15.35" transform="translate(276.59 850.15) rotate(-87.51)"/><ellipse class="cls-18" cx="602.58" cy="292.6" rx="18.11" ry="15.35" transform="translate(284.11 881.92) rotate(-87.51)"/><ellipse class="cls-18" cx="617.31" cy="307.03" rx="18.11" ry="15.35" transform="translate(283.79 910.44) rotate(-87.51)"/><ellipse class="cls-18" cx="631.86" cy="325.79" rx="18.11" ry="15.35" transform="translate(278.97 942.93) rotate(-87.51)"/><ellipse class="cls-18" cx="652.51" cy="340.62" rx="18.11" ry="15.35" transform="matrix(0.04, -1, 1, 0.04, 283.91, 977.74)"/><ellipse class="cls-18" cx="670.43" cy="363.73" rx="18.11" ry="15.35" transform="matrix(0.04, -1, 1, 0.04, 277.96, 1017.74)"/><ellipse class="cls-18" cx="684.66" cy="389.77" rx="18.11" ry="15.35" transform="translate(265.56 1056.88) rotate(-87.51)"/><ellipse class="cls-18" cx="483.92" cy="211.62" rx="18.11" ry="15.35" transform="translate(251.5 685.9) rotate(-87.51)"/><ellipse class="cls-18" cx="504.95" cy="223.33" rx="18.11" ry="15.35" transform="translate(235.42 705.21) rotate(-84.64)"/><ellipse class="cls-18" cx="529.24" cy="237.56" rx="18.11" ry="15.35" transform="translate(268.94 756) rotate(-87.51)"/><ellipse class="cls-18" cx="548.41" cy="250.68" rx="18.11" ry="15.35" transform="translate(274.17 787.69) rotate(-87.51)"/><ellipse class="cls-18" cx="563.11" cy="265.94" rx="18.11" ry="15.35" transform="translate(272.98 816.98) rotate(-87.51)"/><path class="cls-12" d="M177,600.49l-.14.87L166,603l.15-.87.58-.09a4.5,4.5,0,0,0,1.93-.7,2.57,2.57,0,0,0,1-1.11,16.61,16.61,0,0,0,.51-2.47l2.61-16.35a10.39,10.39,0,0,0,.24-2.34c-.13-.87-1-1.18-2.64-.94l-.68.1.14-.87,10.1-1.51-.14.87-.53.08a4.21,4.21,0,0,0-1.6.55,2.17,2.17,0,0,0-.93,1,21,21,0,0,0-.61,3c-1,6.29-1.52,9.44-2.54,15.74a10.25,10.25,0,0,0-.22,2.25,1.38,1.38,0,0,0,1,1.18,4.11,4.11,0,0,0,1.9.13Z"/><path class="cls-12" d="M195.77,572.06l2-.3c1.13-.17,2.51-.39,4.12-.69s2.62-.49,3.25-.59a14.46,14.46,0,0,1,6.82.41,9,9,0,0,1,4.65,3.48,12.91,12.91,0,0,1,2.19,5.54A15.49,15.49,0,0,1,216,591a13.84,13.84,0,0,1-3.88,3.67,15.87,15.87,0,0,1-4.1,1.83c-1.27.33-3.14.68-5.59,1l-10.9,1.64.14-.92,1.16-.18a4.6,4.6,0,0,0,2-.74,2.73,2.73,0,0,0,1-1.17,15.77,15.77,0,0,0,.55-2.61c1.11-6.9,1.66-10.35,2.77-17.25a11.77,11.77,0,0,0,.24-2.5c-.13-.9-1.06-1.23-2.78-1l-1,.16Zm7.68-.41c-1.36,8.49-2,12.74-3.42,21.23a10.94,10.94,0,0,0-.22,2.32q.27,1.83,4.37,1.22a11.13,11.13,0,0,0,8.87-6.29,18.07,18.07,0,0,0,1.82-10.85,10.37,10.37,0,0,0-3.1-6.34q-2.49-2.27-6.77-1.62A12.9,12.9,0,0,0,203.45,571.65Z"/><path class="cls-12" d="M243.28,584.7l.88-.13c-.44,2.75-.67,4.12-1.11,6.86l-22.7,3.41.14-.92.58-.09a4.73,4.73,0,0,0,2-.74,2.79,2.79,0,0,0,1-1.17,15.77,15.77,0,0,0,.55-2.61c1.11-6.9,1.66-10.36,2.77-17.26a11.65,11.65,0,0,0,.24-2.49c-.13-.91-1.06-1.23-2.78-1l-.8.12.15-.92,19.34-2.9c.39,2.33.58,3.49,1,5.82l-.84.13a8.57,8.57,0,0,0-2.09-3.17,3.8,3.8,0,0,0-2.21-1,24.75,24.75,0,0,0-4.22.4l-3.52.53c-.74,4.64-1.11,7-1.84,11.6l2-.3a9.68,9.68,0,0,0,4.13-1.38,7.09,7.09,0,0,0,2.15-3.87l.92-.14c-.67,4.25-1,6.38-1.69,10.64l-.92.13a9.22,9.22,0,0,0-.08-2,4.19,4.19,0,0,0-.73-2.11,1.8,1.8,0,0,0-1.21-.61,12.71,12.71,0,0,0-2.46.2l-2.22.34c-.54,3.36-.8,5-1.34,8.41a13.71,13.71,0,0,0-.25,2.4,1.47,1.47,0,0,0,1.15,1.31,8.66,8.66,0,0,0,3.29-.06l1.58-.24a12.17,12.17,0,0,0,6.13-2.33A10.47,10.47,0,0,0,243.28,584.7Z"/><path class="cls-12" d="M266.2,588.21l-.94.15c-4.33-8.32-6.49-12.48-10.83-20.8-.39,3.9-.59,5.85-1,9.75s-.76,6.77-1.19,8.91a10.28,10.28,0,0,1-1.92,4.71,4.69,4.69,0,0,1-2.83,1.73,3.84,3.84,0,0,1-2.58-.43,2.5,2.5,0,0,1-1.28-1.88c-.2-1.3.22-2,1.25-2.18a1.45,1.45,0,0,1,1.09.25,1.41,1.41,0,0,1,.59,1,2.49,2.49,0,0,1-.2,1.18,1.4,1.4,0,0,0-.1.64.6.6,0,0,0,.36.51,1.42,1.42,0,0,0,.85.07c1.22-.18,2.22-1.1,3-2.75s1.48-5.73,2.11-12.22c.33-3.38.49-5.07.82-8.46.16-1.49.23-2.31.21-2.45a1.37,1.37,0,0,0-.81-1,6.78,6.78,0,0,0-3.27,0l.09-.91,6.26-.93c4,7.65,6,11.47,10,19.13.27-2.74.4-4.1.67-6.84q1-10.53,2.13-12.62a3.9,3.9,0,0,1,2.87-2.35,2.6,2.6,0,0,1,1.73.23,1.52,1.52,0,0,1,.78,1.13,1.33,1.33,0,0,1-.31,1.12,1.66,1.66,0,0,1-1,.56,1.76,1.76,0,0,1-1.52-.71,1,1,0,0,0-.88-.41c-.55.08-1,.88-1.43,2.39a94.12,94.12,0,0,0-1.47,11C266.94,580.7,266.69,583.21,266.2,588.21Z"/><path class="cls-12" d="M285.06,573.67a18.92,18.92,0,0,1,1.24-9.23,19.73,19.73,0,0,1,5.33-8.2,13.83,13.83,0,0,1,7.07-3.63,11.29,11.29,0,0,1,4.3.33,8.75,8.75,0,0,1,4.52,3.17,13.09,13.09,0,0,1,2.71,6.57,19.7,19.7,0,0,1-3.07,13.64q-4.11,6.64-10,7.54a9.9,9.9,0,0,1-7.82-2Q285.9,579.27,285.06,573.67Zm4.38,1.58a14.56,14.56,0,0,0,1.32,4.63,6.09,6.09,0,0,0,2.47,2.46,5.68,5.68,0,0,0,3.65.58,8.11,8.11,0,0,0,5.49-3.89,23,23,0,0,0,3.26-9.06,30.6,30.6,0,0,0,.39-9.44c-.39-2.59-1.25-4.46-2.58-5.59a5.66,5.66,0,0,0-4.68-1.3,8.33,8.33,0,0,0-5.47,3.76,21.72,21.72,0,0,0-3.38,8.7A27.88,27.88,0,0,0,289.44,575.25Z"/><path class="cls-12" d="M331.15,573.61l14-27.43,7.67-1.15-.16,1a8.39,8.39,0,0,0-3,.83,2.36,2.36,0,0,0-.94,1.21,19.87,19.87,0,0,0-.45,3.17c-.79,7.58-1.19,11.36-2,18.94a14.1,14.1,0,0,0-.15,2.54,1.74,1.74,0,0,0,1.24,1.49,5,5,0,0,0,2.36.18l.7-.11c-.07.42-.1.63-.17,1l-12.83,1.93c.07-.42.1-.63.17-1l.54-.08a5.62,5.62,0,0,0,2.34-.82,2.92,2.92,0,0,0,1.19-1.35,16.68,16.68,0,0,0,.54-3.12l2.3-21.25-14.84,28.83-1.09.16L322,555.22c-1.53,6.45-2.29,9.67-3.81,16.12a20.44,20.44,0,0,0-.85,5.16,2.33,2.33,0,0,0,1.22,2,6,6,0,0,0,3.08.18c-.06.42-.1.62-.17,1l-10.31,1.55.16-1A5.78,5.78,0,0,0,314,579a5.52,5.52,0,0,0,1.63-2.39q.54-1.47,1.47-5.36c1.46-6.1,2.19-9.14,3.66-15.24a12.6,12.6,0,0,0,.51-3.36,1.69,1.69,0,0,0-.74-1.27,3.79,3.79,0,0,0-2.36-.12l-1.31.19.14-1,7.16-1.07Z"/><path class="cls-12" d="M364.63,573.93l-1.81.28-2.25-25.53c-.05-.56-.07-.85-.12-1.41a2.05,2.05,0,0,0-1-1.72,7.39,7.39,0,0,0-3.37,0v-1l12.31-1.85v1a7.82,7.82,0,0,0-2.77.82,2.34,2.34,0,0,0-1.13,1.23,7,7,0,0,0,0,2.49c.74,8,1.12,12,1.87,20L376.47,548c.87-1.74,1.26-2.89,1.17-3.47a1.74,1.74,0,0,0-1-1.36,6.23,6.23,0,0,0-3.14-.18l.12-1,10-1.49-.17,1a5.22,5.22,0,0,0-2.88,1.64,25.46,25.46,0,0,0-3.11,5.15Z"/><path class="cls-12" d="M406.62,559.34l1-.15c-.5,3.1-.76,4.66-1.26,7.76l-25.69,3.85c.07-.41.1-.62.17-1l.65-.1a5.31,5.31,0,0,0,2.3-.84,3.08,3.08,0,0,0,1.15-1.32,17.19,17.19,0,0,0,.62-3c1.26-7.81,1.88-11.72,3.14-19.53a12.79,12.79,0,0,0,.27-2.82c-.15-1-1.2-1.39-3.15-1.1l-.9.14.16-1L407,536.91l1.1,6.6-.95.14a9.54,9.54,0,0,0-2.37-3.59,4.35,4.35,0,0,0-2.5-1.17,29.13,29.13,0,0,0-4.77.46l-4,.6c-.83,5.25-1.25,7.87-2.08,13.12l2.22-.33a11,11,0,0,0,4.67-1.56c1-.73,1.82-2.19,2.44-4.39l1-.15c-.76,4.81-1.15,7.22-1.92,12l-1,.16a10.29,10.29,0,0,0-.08-2.24,4.74,4.74,0,0,0-.83-2.39,2.06,2.06,0,0,0-1.37-.7,14.63,14.63,0,0,0-2.79.24l-2.51.37c-.6,3.81-.9,5.72-1.51,9.53a15.89,15.89,0,0,0-.29,2.71,1.68,1.68,0,0,0,1.3,1.48,9.74,9.74,0,0,0,3.73-.07l1.79-.27c3.1-.46,5.42-1.34,6.94-2.64A11.84,11.84,0,0,0,406.62,559.34Z"/><path class="cls-12" d="M432.55,563.31l-1.06.16c-4.9-9.42-7.35-14.12-12.26-23.54-.44,4.42-.67,6.62-1.12,11s-.87,7.66-1.34,10.08a11.72,11.72,0,0,1-2.18,5.33,5.31,5.31,0,0,1-3.2,2,4.42,4.42,0,0,1-2.92-.48,2.86,2.86,0,0,1-1.45-2.14c-.22-1.46.25-2.29,1.41-2.46a1.63,1.63,0,0,1,1.23.28,1.54,1.54,0,0,1,.67,1.11,2.81,2.81,0,0,1-.22,1.34,1.66,1.66,0,0,0-.12.72.71.71,0,0,0,.41.58,1.6,1.6,0,0,0,1,.08q2.08-.32,3.4-3.12t2.39-13.82c.37-3.83.56-5.75.93-9.57.18-1.69.25-2.62.23-2.78a1.55,1.55,0,0,0-.91-1.13c-.54-.28-1.77-.29-3.71,0l.1-1,7.09-1.06c4.51,8.66,6.77,13,11.29,21.65.31-3.1.46-4.64.76-7.74q1.19-11.93,2.41-14.28a4.45,4.45,0,0,1,3.25-2.66,2.93,2.93,0,0,1,2,.27,1.72,1.72,0,0,1,.88,1.27,1.46,1.46,0,0,1-.35,1.26,1.83,1.83,0,0,1-1.15.64,1.94,1.94,0,0,1-1.71-.8,1.1,1.1,0,0,0-1-.47c-.62.09-1.16,1-1.62,2.71a106.2,106.2,0,0,0-1.66,12.46C433.39,554.81,433.11,557.64,432.55,563.31Z"/><path class="cls-12" d="M442.67,531.56l2.22-.33c1.28-.19,2.85-.45,4.67-.79s3-.56,3.67-.66a16.49,16.49,0,0,1,7.72.45,10.21,10.21,0,0,1,5.26,3.95,14.64,14.64,0,0,1,2.48,6.27A17.66,17.66,0,0,1,465.57,553a15.51,15.51,0,0,1-4.4,4.15,17.58,17.58,0,0,1-4.63,2.07q-2.18.57-6.33,1.2l-12.34,1.84c.07-.41.1-.62.17-1l1.31-.19a5.22,5.22,0,0,0,2.29-.84,3,3,0,0,0,1.16-1.33,18,18,0,0,0,.62-3c1.26-7.81,1.88-11.71,3.14-19.53a14.17,14.17,0,0,0,.27-2.82c-.15-1-1.2-1.39-3.15-1.09l-1.18.17Zm8.7-.46c-1.55,9.61-2.32,14.41-3.87,24a12.79,12.79,0,0,0-.26,2.62q.31,2.07,4.95,1.38a12.58,12.58,0,0,0,10-7.11,20.35,20.35,0,0,0,2.06-12.28,11.67,11.67,0,0,0-3.5-7.18q-2.82-2.56-7.66-1.84A17.24,17.24,0,0,0,451.37,531.1Z"/><path class="cls-12" d="M490.81,526.24c-1.47,9.14-2.2,13.72-3.67,22.86a12.41,12.41,0,0,0-.28,2.67,1.64,1.64,0,0,0,1.22,1.41,5,5,0,0,0,2.28.16l.82-.12c-.07.41-.1.62-.17,1l-13.15,2,.17-1,.68-.1a5.92,5.92,0,0,0,2.36-.83,3.21,3.21,0,0,0,1.26-1.36,17.28,17.28,0,0,0,.72-3.15c1.49-9.26,2.24-13.9,3.74-23.17q-3.81.24-6.43.63a15.27,15.27,0,0,0-4.21,1.1c-.9.44-1.31,1-1.22,1.57a3,3,0,0,0,.39.94,2.68,2.68,0,0,1,.37.87,1.39,1.39,0,0,1-.29,1.07,1.62,1.62,0,0,1-1.08.59,1.64,1.64,0,0,1-1.47-.44,2.36,2.36,0,0,1-.7-1.37,3.65,3.65,0,0,1,1.59-3.32q1.86-1.59,7-2.37c1.76-.26,5.15-.58,10.13-.92,3.57-.25,6.25-.5,8-.76s2.57-.82,2.62-1.7q0-.93.81-1.05a1,1,0,0,1,1.25.94c.24,1.57-1.39,2.62-4.87,3.14Q496.22,525.88,490.81,526.24Z"/><path class="cls-12" d="M526.86,541.31l1-.15-1.26,7.76-25.69,3.86c.07-.42.1-.63.17-1l.65-.09a5.31,5.31,0,0,0,2.3-.84,3,3,0,0,0,1.15-1.33,17,17,0,0,0,.62-3c1.26-7.81,1.88-11.72,3.14-19.53a13.4,13.4,0,0,0,.27-2.82c-.15-1-1.2-1.39-3.15-1.09l-.91.13.17-1,21.89-3.28,1.1,6.59-.95.14A9.49,9.49,0,0,0,525,522a4.31,4.31,0,0,0-2.5-1.17,28,28,0,0,0-4.77.46l-4,.6c-.83,5.24-1.25,7.87-2.08,13.12l2.22-.34a10.84,10.84,0,0,0,4.67-1.56c1-.72,1.82-2.19,2.44-4.38l1-.16c-.77,4.81-1.15,7.22-1.92,12l-1,.15a10.31,10.31,0,0,0-.08-2.24,4.74,4.74,0,0,0-.83-2.39,2,2,0,0,0-1.37-.69,13.6,13.6,0,0,0-2.79.23l-2.51.38c-.6,3.81-.9,5.71-1.51,9.52a16,16,0,0,0-.29,2.71,1.69,1.69,0,0,0,1.3,1.49,10,10,0,0,0,3.73-.07l1.79-.27a13.89,13.89,0,0,0,6.94-2.64A11.93,11.93,0,0,0,526.86,541.31Z"/><path class="cls-12" d="M555.1,545.46l-2,.31-2.52-28.49c0-.64-.08-.95-.13-1.58a2.27,2.27,0,0,0-1.15-1.92,8.18,8.18,0,0,0-3.76,0v-1.13l13.74-2.06c0,.45,0,.68,0,1.13a9,9,0,0,0-3.09.92,2.63,2.63,0,0,0-1.26,1.38,7.59,7.59,0,0,0,0,2.78c.83,8.94,1.25,13.42,2.09,22.36,4.54-9.08,6.82-13.62,11.37-22.7,1-1.94,1.4-3.23,1.3-3.87a1.94,1.94,0,0,0-1.12-1.52,6.94,6.94,0,0,0-3.5-.21c0-.46.08-.69.13-1.15l11.15-1.67c-.08.46-.12.7-.19,1.16a5.84,5.84,0,0,0-3.23,1.84,29.07,29.07,0,0,0-3.46,5.75Z"/><path class="cls-12" d="M602,529.17l1.11-.17c-.57,3.47-.85,5.2-1.42,8.67L573,542c.08-.47.11-.7.19-1.16l.73-.11a5.88,5.88,0,0,0,2.56-.94,3.42,3.42,0,0,0,1.29-1.48,19.42,19.42,0,0,0,.69-3.29l3.5-21.8a14.87,14.87,0,0,0,.31-3.15c-.18-1.14-1.35-1.55-3.52-1.23l-1,.15.19-1.16,24.43-3.66,1.23,7.36-1.06.16a11,11,0,0,0-2.64-4,4.9,4.9,0,0,0-2.79-1.3,31,31,0,0,0-5.34.51l-4.45.67c-.93,5.86-1.39,8.79-2.32,14.65l2.48-.38a12.1,12.1,0,0,0,5.21-1.74q1.68-1.21,2.73-4.89l1.16-.18c-.86,5.38-1.29,8.06-2.14,13.44l-1.17.17a11.42,11.42,0,0,0-.09-2.5,5.13,5.13,0,0,0-.93-2.67,2.27,2.27,0,0,0-1.52-.77,15.9,15.9,0,0,0-3.11.26l-2.81.42c-.67,4.25-1,6.38-1.68,10.63a15.76,15.76,0,0,0-.32,3,1.89,1.89,0,0,0,1.44,1.66,11.27,11.27,0,0,0,4.16-.09l2-.3q5.21-.78,7.75-2.94A13.26,13.26,0,0,0,602,529.17Z"/><path class="cls-12" d="M636.12,529.74l.73,1a9.89,9.89,0,0,1-5.43,2.89,5.64,5.64,0,0,1-4.68-1c-1.14-1-1.9-2.7-2.27-5.18l-.27-2a13.48,13.48,0,0,0-1.32-4.66,3.43,3.43,0,0,0-2-1.62,9.12,9.12,0,0,0-3.55,0l-1.27.19c-.64,4-1,5.94-1.61,9.9a15.34,15.34,0,0,0-.33,3,1.83,1.83,0,0,0,1.36,1.63,5.61,5.61,0,0,0,2.49.16l.71-.11c-.07.47-.11.7-.19,1.16l-13.86,2.08.18-1.16.56-.08A6,6,0,0,0,608,535a3.35,3.35,0,0,0,1.29-1.48,20.9,20.9,0,0,0,.68-3.29l3.5-21.8a13.87,13.87,0,0,0,.3-3.15,1.4,1.4,0,0,0-1-1.17,6.83,6.83,0,0,0-3,0c.08-.46.12-.69.19-1.16l9-1.34c2.49-.38,4.37-.6,5.62-.66a10.59,10.59,0,0,1,4,.61,7.62,7.62,0,0,1,3.39,2.17,6.55,6.55,0,0,1,1.59,3.46,7.78,7.78,0,0,1-2.28,6.75q-2.85,3-9.84,4.23A9.76,9.76,0,0,1,627,521a12.42,12.42,0,0,1,2.54,5.93,11.43,11.43,0,0,0,1.27,4,2.06,2.06,0,0,0,2.17.73A6.51,6.51,0,0,0,636.12,529.74Zm-19.84-11.39,1-.16q6.47-1,9.32-3.81a7.81,7.81,0,0,0,2.22-7.09,5.29,5.29,0,0,0-2.63-4.17q-2.18-1.2-6.09-.61c-.41.06-.84.15-1.31.25C617.79,509,617.29,512.11,616.28,518.35Z"/><path class="cls-12" d="M641.13,498.33l2.47-.37c1.43-.22,3.18-.5,5.22-.88s3.3-.62,4.1-.74a18.2,18.2,0,0,1,8.61.51,11.43,11.43,0,0,1,5.88,4.4,16.36,16.36,0,0,1,2.76,7,19.7,19.7,0,0,1-3.48,14,17.6,17.6,0,0,1-4.91,4.64,19.48,19.48,0,0,1-5.17,2.31c-1.62.42-4,.87-7.07,1.33l-13.77,2.07c.07-.47.11-.7.19-1.17l1.46-.22a5.75,5.75,0,0,0,2.56-.93,3.42,3.42,0,0,0,1.29-1.48,19.37,19.37,0,0,0,.69-3.3l3.5-21.79a14.92,14.92,0,0,0,.31-3.15c-.17-1.15-1.35-1.55-3.52-1.23l-1.31.2C641,499,641.05,498.79,641.13,498.33Zm9.71-.52c-1.73,10.73-2.6,16.09-4.32,26.82a13.7,13.7,0,0,0-.29,2.93c.23,1.54,2.07,2.06,5.53,1.54A14,14,0,0,0,663,521.16a22.75,22.75,0,0,0,2.3-13.71,13.07,13.07,0,0,0-3.91-8q-3.15-2.87-8.55-2.05A19,19,0,0,0,650.84,497.81Z"/><path class="cls-12" d="M701.15,514.3l1.11-.17c-.57,3.47-.85,5.2-1.41,8.67l-28.68,4.3c.08-.47.12-.7.19-1.16l.73-.11a5.88,5.88,0,0,0,2.56-.94,3.42,3.42,0,0,0,1.29-1.48,20.15,20.15,0,0,0,.7-3.29c1.4-8.72,2.1-13.08,3.49-21.8a14.82,14.82,0,0,0,.31-3.15c-.17-1.14-1.35-1.55-3.52-1.23l-1,.16.19-1.17,24.43-3.66c.49,3,.74,4.42,1.23,7.36l-1.06.16a11,11,0,0,0-2.64-4,4.9,4.9,0,0,0-2.79-1.3,31,31,0,0,0-5.34.51l-4.44.67c-.93,5.86-1.4,8.79-2.33,14.65l2.48-.37a12.23,12.23,0,0,0,5.21-1.75q1.68-1.21,2.73-4.89l1.16-.18c-.86,5.38-1.29,8.06-2.14,13.44l-1.17.17a11.42,11.42,0,0,0-.09-2.5,5.13,5.13,0,0,0-.93-2.67,2.27,2.27,0,0,0-1.52-.77,15.9,15.9,0,0,0-3.11.26l-2.81.42c-.67,4.25-1,6.38-1.68,10.63a16.72,16.72,0,0,0-.32,3,1.88,1.88,0,0,0,1.45,1.66,11,11,0,0,0,4.16-.09l2-.29c3.47-.52,6-1.51,7.75-2.95A13.26,13.26,0,0,0,701.15,514.3Z"/><path class="cls-12" d="M730.1,518.74l-1.19.17-13.68-26.27L714,505q-.71,7.2-1.5,11.25a13.16,13.16,0,0,1-2.43,5.95,6,6,0,0,1-3.57,2.19,4.84,4.84,0,0,1-3.26-.54,3.14,3.14,0,0,1-1.62-2.38c-.25-1.64.28-2.56,1.57-2.75a1.86,1.86,0,0,1,1.38.31,1.75,1.75,0,0,1,.74,1.25,3.11,3.11,0,0,1-.24,1.49,1.8,1.8,0,0,0-.14.81.8.8,0,0,0,.46.64,1.8,1.8,0,0,0,1.07.09q2.32-.35,3.8-3.48t2.67-15.44l1-10.68a30.89,30.89,0,0,0,.26-3.09,1.72,1.72,0,0,0-1-1.27c-.59-.31-2-.32-4.13,0l.11-1.15,7.9-1.19,12.62,24.17.85-8.63q1.31-13.32,2.68-16a5,5,0,0,1,3.62-3,3.31,3.31,0,0,1,2.19.3,1.91,1.91,0,0,1,1,1.42,1.69,1.69,0,0,1-.39,1.41,2,2,0,0,1-1.28.71,2.18,2.18,0,0,1-1.92-.9,1.23,1.23,0,0,0-1.11-.52q-1,.16-1.8,3c-.52,1.92-1.13,6.56-1.86,13.91Z"/></symbol></defs><title>fuglens_spritesheet</title><g id="Layer_2" data-name="Layer 2"><g id="Layer_5" data-name="Layer 5"><use width="771.62" height="588.57" transform="translate(0 19)" xlink:href="#f11"/><use width="773.39" height="587.4" transform="translate(1636 19.5)" xlink:href="#f22"/><use width="780.24" height="625.53" transform="translate(814.25)" xlink:href="#f33"/></g></g></svg>
