<svg xmlns="http://www.w3.org/2000/svg" xmlns:xlink="http://www.w3.org/1999/xlink" viewBox="0 0 4483.8 805.27"><defs><style>.cls-1{fill:#7c6e62;}.cls-2{fill:#332824;}.cls-3{fill:#534741;}.cls-4{fill:#f7931e;}.cls-5{fill:#42210b;}.cls-6{fill:#2b2522;}.cls-7{fill:none;stroke:#000;}.cls-14,.cls-19,.cls-22,.cls-25,.cls-7{stroke-miterlimit:10;}.cls-8{fill:#f2c6f4;}.cls-9{fill:#e05a83;}.cls-10{fill:#c1272d;}.cls-11{fill:#ed96af;}.cls-12{fill:#fff;}.cls-13{fill:#47c0ea;}.cls-14,.cls-19,.cls-22,.cls-25{stroke:#c19371;}.cls-14{fill:url(#linear-gradient);}.cls-15{fill:#844b24;}.cls-16{fill:url(#linear-gradient-2);}.cls-17{fill:url(#linear-gradient-3);}.cls-18{fill:#543119;}.cls-19{fill:url(#linear-gradient-4);}.cls-20{fill:url(#linear-gradient-5);}.cls-21{fill:url(#linear-gradient-6);}.cls-22{fill:url(#linear-gradient-7);}.cls-23{fill:url(#linear-gradient-8);}.cls-24{fill:url(#linear-gradient-9);}.cls-25{fill:url(#linear-gradient-10);}.cls-26{fill:url(#linear-gradient-11);}.cls-27{fill:url(#linear-gradient-12);}</style><linearGradient id="linear-gradient" x1="-674.93" y1="1267.23" x2="78.26" y2="1702.08" gradientTransform="translate(886.58 -820.15) rotate(5.38)" gradientUnits="userSpaceOnUse"><stop offset="0" stop-color="#ab7a1e"/><stop offset="0.4" stop-color="#ba8044"/><stop offset="1"/></linearGradient><linearGradient id="linear-gradient-2" x1="-326.44" y1="1306.94" x2="27.82" y2="1511.47" xlink:href="#linear-gradient"/><linearGradient id="linear-gradient-3" x1="17582.3" y1="15874.81" x2="17936.57" y2="16079.35" gradientTransform="translate(16484.48 18264.85) rotate(-174.59)" xlink:href="#linear-gradient"/><linearGradient id="linear-gradient-4" x1="638.78" y1="-91.11" x2="1391.97" y2="343.75" gradientTransform="translate(-526.95 560.93) rotate(-3.53)" xlink:href="#linear-gradient"/><linearGradient id="linear-gradient-5" x1="987.27" y1="-51.4" x2="1341.53" y2="153.14" gradientTransform="translate(-526.95 560.93) rotate(-3.53)" xlink:href="#linear-gradient"/><linearGradient id="linear-gradient-6" x1="16311.06" y1="17214.56" x2="16665.33" y2="17419.1" gradientTransform="translate(17877.59 16979.6) rotate(176.51)" xlink:href="#linear-gradient"/><linearGradient id="linear-gradient-7" x1="-267.31" y1="756.18" x2="485.87" y2="1191.03" gradientTransform="matrix(1, 0.04, -0.04, 1, 361.36, -353.86)" xlink:href="#linear-gradient"/><linearGradient id="linear-gradient-8" x1="81.18" y1="795.89" x2="435.44" y2="1000.42" gradientTransform="matrix(1, 0.04, -0.04, 1, 361.36, -353.86)" xlink:href="#linear-gradient"/><linearGradient id="linear-gradient-9" x1="17153.44" y1="16355.83" x2="17507.7" y2="16560.37" gradientTransform="matrix(-1, -0.04, 0.04, -1, 16972.62, 17806.29)" xlink:href="#linear-gradient"/><linearGradient id="linear-gradient-10" x1="818.64" y1="-185.82" x2="1571.83" y2="249.03" gradientTransform="translate(-647.87 708.92) rotate(-4.36)" xlink:href="#linear-gradient"/><linearGradient id="linear-gradient-11" x1="1167.13" y1="-146.11" x2="1521.39" y2="58.42" gradientTransform="translate(-647.87 708.92) rotate(-4.36)" xlink:href="#linear-gradient"/><linearGradient id="linear-gradient-12" x1="16184.57" y1="17340.48" x2="16538.84" y2="17545.02" gradientTransform="translate(18048.95 16885.25) rotate(175.67)" xlink:href="#linear-gradient"/><symbol id="f1" data-name="f1" viewBox="0 0 555.86 311.07"><path class="cls-1" d="M179.37,132.69c-38.1-1-89.27.42-147,3-6.52,11.79-6.91,23.49,4,35C97.2,160.36,174.87,153,179.37,132.69Z"/><path class="cls-2" d="M179.37,148.69l-149,42c-7,15.66-4.08,24.18,11,24C118.08,185.9,193.06,157.49,179.37,148.69Z"/><path class="cls-3" d="M179.37,140.69l-173,26c-10.53,16.09-8.53,27.28,10,32C85.9,179.22,167.92,159.65,179.37,140.69Z"/><path class="cls-4" d="M222.18,223.81c-11.56,18.8-34.93,45.76-34.11,45.52s-16.48-13.41-17.86-11.22l8.91,15.67c4.92,9.42,10.94,18.73,10.7,24.77.23,3.63-.39,6-.5,8.35a18.31,18.31,0,0,0,7.62-6.24c1.21,2.87.87,6.47.42,10.29,12.82-7,16.88-17.29-3.93-36.68,8-11.62,22.49-26,38.56-41Z"/><path class="cls-4" d="M179.1,216.72C165.89,234.4,140.18,259.14,141,259s-15.2-14.86-16.77-12.8l7.44,16.42c4.06,9.82,9.21,19.64,8.43,25.63-.11,3.64-.94,6-1.26,8.28A18.27,18.27,0,0,0,147,291c1,3,.28,6.52-.51,10.28,13.41-5.84,18.37-15.68-.6-36.88,9-10.85,24.76-23.86,42.12-37.39Z"/><path class="cls-5" d="M140.09,288.89c-.11.3,6.5,2.76,6.62,2.46-1.36,2.67-7.64,5.43-8,5.54C138.69,297.11,140.31,288.64,140.09,288.89Z"/><path class="cls-5" d="M143.75,291.75"/><path class="cls-5" d="M147.44,293.29c-.15.5,7.54,2.81,7.69,2.31a23.68,23.68,0,0,1-9.13,5.73A17.08,17.08,0,0,0,147.44,293.29Z"/><path class="cls-5" d="M124,245.68l4.09,9.43,5-3.82C128.13,246.85,124.76,244.54,124,245.68Z"/><path d="M49.37,94.69"/><path class="cls-6" d="M280.37,131.69c-24.64,27.5-58.74,41.32-54,67-143-23.28-21.29-138.57,59-133,9.75-25.69,21.31-45.46,36-55,8.11-6.5,18.84-9.91,30-10.57,30.16-1.79,63.42,16.49,56.51,48.07C363.16,63.79,321.33,92.35,280.37,131.69Z"/><path d="M376.37,4.16c-15.34-2-22.57,5-23,19.31C357.35,12.36,364.8,5.63,376.37,4.16Z"/><path d="M382.25,18.42c-14.08-8-23.45-5.51-28.88,5.74C361.1,17,370.61,14.74,382.25,18.42Z"/><path class="cls-6" d="M254.05,218c-10.67,16.85-25.62,23.8-33,16.18-5.54-5.71-1-20.88,11.22-35s27-21.39,33-16.19S264.05,202.17,254.05,218Z"/><path class="cls-6" d="M208.05,212c-10.67,16.85-25.62,23.8-33,16.18-5.54-5.71-1-20.88,11.22-35s27-21.39,33-16.19S218.05,196.17,208.05,212Z"/><path class="cls-5" d="M189.86,299.21c-.09.31,6.72,2.16,6.81,1.85-1.11,2.78-7.11,6.1-7.47,6.25C189.21,307.52,190.06,298.93,189.86,299.21Z"/><path class="cls-5" d="M190.76,299.72"/><path class="cls-5" d="M197.57,302.92c-.1.52,7.76,2.12,7.87,1.61a23.91,23.91,0,0,1-8.57,6.54A17.14,17.14,0,0,0,197.57,302.92Z"/><path class="cls-5" d="M169.92,257.63l4.92,9,4.66-4.25C174.14,258.42,170.58,256.43,169.92,257.63Z"/><path class="cls-6" d="M284.87,66.19c-30.6,41.51-88.14,65.06-126,69.72-23.38,2.89-39.23-1.45-36.53-13.22-23.56,7.31-36.06.26-43-14-17.19.79-28.76-3.41-32-15C147.91,46,245.33,7.85,284.87,66.19Z"/><path class="cls-7" d="M224.37,199.69"/><path class="cls-7" d="M398.37,61.16"/><path class="cls-8" d="M351.87,125.19c28-32.44,58.28-64.79,46.5-87.5-42-39.61-82.9-19.74-87,41-7.13,53.72-110.89,92.26-87.5,120.5C266,211.9,308.54,193.85,351.87,125.19Z"/><path class="cls-9" d="M367.37,98.69c17.35,6,33.21,9,47,8,5.16,35,48.8,24.16,58,59C422.67,165.86,390.87,138.63,367.37,98.69Z"/><path class="cls-4" d="M362.87,98.19c19.86,8.9,44,12.93,74,9,48.5-3.82,88.51,9.8,118,45,1.41-95-23.68-115.36-145-111C403.3,70.63,389,91.22,362.87,98.19Z"/><path class="cls-10" d="M555,131.23c3.62-35.09-3.65-61.94-36.18-78.54C470.82,64.59,505.67,107.15,555,131.23Z"/><path class="cls-11" d="M375.37,109.69c15.05,19.29,29.93,36.37,43,30-2.58-19-17.45-30.07-38.61-37Z"/><path class="cls-4" d="M472.37,165.6c-33.65,11.74-70,3.73-110-29.88.27-5.3,6.18-15.27,13.12-26.08C404,144.78,435.83,166.53,472.37,165.6Z"/><path class="cls-10" d="M410.37,40.69c-3.32,31.56-50.52,83-47,96-10-2.16-12.87-16.65-7-46,24.78-6.17,39.84-21.68,43-51Z"/><ellipse class="cls-12" cx="353.93" cy="54.86" rx="32.22" ry="23.77" transform="translate(5.03 135.77) rotate(-21.87)"/><circle class="cls-13" cx="354.87" cy="57.19" r="17.5"/><circle cx="354.87" cy="57.19" r="10.5"/><circle class="cls-12" cx="351.37" cy="74.16" r="6"/><path d="M179.37,104.69c-19.88,9.86-39.4,17.28-58,18.25.54,3,1.33,5.23,2.7,5.75C141.64,128,160.23,118.66,179.37,104.69Z"/><path d="M135,92.54c-19,8.12-37.73,14.41-55.77,15.89.62,2.18,1.46,3.82,2.8,4.15C99,111.34,116.8,103.67,135,92.54Z"/><path d="M164.12,135.17l-3.59.53a186.75,186.75,0,0,0,34.84-16C186.12,127.06,175.87,132.52,164.12,135.17Z"/></symbol><symbol id="f11" data-name="f11" viewBox="0 0 892.17 793.5"><use width="555.86" height="311.07" xlink:href="#f1"/><path class="cls-14" d="M36.05,462.48l844.1,79.46s13.49,17.81,11.27,24.32-10.21,6.58-8,25.25c0,0-3.7,22.3-.44,30.16,0,0,3.74,11.25-7.81,32l-13,2.14,2.23,10.27,12.68,1.2-.45,6-8.95,3.13,4.94,5-5.36,5.17,3.23,6,5.36.51s3.34,10.54-.2,13.61l-4.87,5.79-.93,32.85s5.81,5.66,3.75,11.14l-1.46,18-7.68-.72s-2,3.79-.53,5.63l4.83.45s-3.69,10.45-.68,13L12.53,712.31Z"/><polygon class="cls-15" points="29.78 529.06 252.83 550.05 241.63 556.76 29.78 529.06"/><path class="cls-15" d="M608.6,659.61c.1-1.1,97.58-3,97.58-3L691.41,667.4,477.6,665Z"/><polygon class="cls-16" points="372.94 543.61 817.38 585.45 838.77 594.12 656.4 588.04 372.94 543.61"/><polygon class="cls-17" points="543.77 709.61 99.35 667.5 77.96 658.82 260.33 665 543.77 709.61"/><ellipse class="cls-18" cx="500.73" cy="539.8" rx="33.44" ry="22.64" transform="translate(-83.63 987.73) rotate(-84.62)"/><ellipse class="cls-15" cx="500.13" cy="546.15" rx="22.64" ry="15.79" transform="translate(-90.49 992.89) rotate(-84.62)"/><ellipse class="cls-18" cx="499.88" cy="548.76" rx="15.6" ry="10" transform="translate(-93.32 995.01) rotate(-84.62)"/><ellipse class="cls-18" cx="133.84" cy="454.76" rx="25.45" ry="20.56" transform="translate(-331.46 545.39) rotate(-84.62)"/><ellipse class="cls-18" cx="142.35" cy="411.2" rx="25.45" ry="20.56" transform="translate(-280.38 514.39) rotate(-84.62)"/><ellipse class="cls-18" cx="318.73" cy="239.98" rx="25.45" ry="20.56" transform="translate(49.93 534.81) rotate(-84.62)"/><ellipse class="cls-18" cx="289.48" cy="252.83" rx="25.45" ry="20.56" transform="translate(10.63 517.34) rotate(-84.62)"/><ellipse class="cls-18" cx="267.2" cy="270.18" rx="25.45" ry="20.56" transform="translate(-26.83 510.88) rotate(-84.62)"/><ellipse class="cls-18" cx="244.35" cy="293.59" rx="25.45" ry="20.56" transform="translate(-70.85 509.34) rotate(-84.62)"/><ellipse class="cls-18" cx="214.15" cy="310.38" rx="25.45" ry="20.56" transform="translate(-114.93 494.5) rotate(-84.62)"/><ellipse class="cls-18" cx="186.01" cy="339.22" rx="25.45" ry="20.56" transform="translate(-169.15 492.62) rotate(-84.62)"/><ellipse class="cls-18" cx="162.2" cy="372.83" rx="25.45" ry="20.56" transform="translate(-224.19 499.37) rotate(-84.62)"/><ellipse class="cls-18" cx="130.88" cy="486.22" rx="25.45" ry="20.56" transform="translate(-365.47 570.95) rotate(-84.62)"/><ellipse class="cls-18" cx="497.67" cy="155.83" rx="25.45" ry="20.56" transform="translate(295.88 636.71) rotate(-84.62)"/><ellipse class="cls-18" cx="462.2" cy="162.18" rx="25.45" ry="20.56" transform="translate(257.41 607.14) rotate(-84.62)"/><ellipse class="cls-18" cx="431.83" cy="179.94" rx="25.45" ry="20.56" transform="translate(228.4 601.22) rotate(-86.85)"/><ellipse class="cls-18" cx="397.18" cy="189.86" rx="25.45" ry="20.56" transform="translate(170.93 567.5) rotate(-84.62)"/><ellipse class="cls-18" cx="369.27" cy="204.56" rx="25.45" ry="20.56" transform="translate(131 553.03) rotate(-84.62)"/><ellipse class="cls-18" cx="346.88" cy="223.07" rx="25.45" ry="20.56" transform="translate(92.28 547.51) rotate(-84.62)"/><ellipse class="cls-18" cx="783.66" cy="538.36" rx="25.45" ry="20.56" transform="translate(150.09 1247.25) rotate(-82.7)"/><ellipse class="cls-18" cx="785.26" cy="493.99" rx="25.45" ry="20.56" transform="translate(195.49 1210.11) rotate(-82.7)"/><ellipse class="cls-18" cx="652.45" cy="286.54" rx="25.45" ry="20.56" transform="translate(285.32 897.29) rotate(-82.7)"/><ellipse class="cls-18" cx="678" cy="305.82" rx="25.45" ry="20.56" transform="translate(288.51 939.46) rotate(-82.7)"/><ellipse class="cls-18" cx="695.75" cy="327.85" rx="25.45" ry="20.56" transform="matrix(0.13, -0.99, 0.99, 0.13, 282.15, 976.31)"/><ellipse class="cls-18" cx="712.68" cy="355.92" rx="25.45" ry="20.56" transform="translate(269.08 1017.6) rotate(-82.7)"/><ellipse class="cls-18" cx="738.26" cy="379.25" rx="25.45" ry="20.56" transform="translate(268.28 1063.34) rotate(-82.7)"/><ellipse class="cls-18" cx="759.1" cy="413.83" rx="25.45" ry="20.56" transform="translate(252.17 1114.19) rotate(-82.7)"/><ellipse class="cls-18" cx="774.65" cy="452.05" rx="25.45" ry="20.56" transform="translate(227.84 1162.98) rotate(-82.7)"/><ellipse class="cls-18" cx="530.46" cy="177.65" rx="25.45" ry="20.56" transform="translate(286.85 681.23) rotate(-82.7)"/><ellipse class="cls-18" cx="556.96" cy="196.66" rx="25.44" ry="20.56" transform="translate(270.84 713.4) rotate(-80.47)"/><ellipse class="cls-18" cx="587.46" cy="219.62" rx="25.45" ry="20.56" transform="translate(294.97 774.42) rotate(-82.7)"/><ellipse class="cls-18" cx="611.29" cy="240.38" rx="25.45" ry="20.56" transform="translate(295.19 816.17) rotate(-82.7)"/><ellipse class="cls-18" cx="628.89" cy="263.58" rx="25.45" ry="20.56" transform="translate(287.54 853.87) rotate(-82.7)"/><path d="M55.11,689.29c-.17.33-.26.49-.44.82l-15.12,1.74c.18-.33.27-.49.44-.82l.82-.1a9.78,9.78,0,0,0,2.82-.7,4.42,4.42,0,0,0,1.62-1.05,16.06,16.06,0,0,0,1.41-2.33l8.27-15.4a9.7,9.7,0,0,0,1-2.21c.07-.81-1-1.09-3.3-.83l-.95.11c.18-.33.27-.49.44-.82l14.09-1.62c-.17.33-.26.49-.44.82l-.74.09a9.24,9.24,0,0,0-2.33.55,3.85,3.85,0,0,0-1.54,1,20.27,20.27,0,0,0-1.68,2.79c-3.21,5.93-4.81,8.9-8,14.83a9.12,9.12,0,0,0-1,2.12c-.05.55.29.92,1,1.08a7.49,7.49,0,0,0,2.54.09Z"/><path d="M88.74,662.23l2.73-.31c1.58-.18,3.52-.42,5.79-.74s3.68-.51,4.55-.61a26.74,26.74,0,0,1,9.1.24,8.51,8.51,0,0,1,5.28,3.19,7.47,7.47,0,0,1,1.35,5.15,12,12,0,0,1-2.09,5.38,20,20,0,0,1-4.85,5.06,27.37,27.37,0,0,1-6.32,3.52,34.32,34.32,0,0,1-6.06,1.8c-1.83.34-4.45.7-7.87,1.1l-15.21,1.75.47-.87,1.62-.19a10.52,10.52,0,0,0,3-.73,4.89,4.89,0,0,0,1.72-1.12,16.62,16.62,0,0,0,1.5-2.46l8.75-16.26a9,9,0,0,0,1-2.34c.08-.85-1.08-1.13-3.48-.86l-1.45.17Zm10.51-.54c-4.32,8-6.47,12-10.79,20a9.15,9.15,0,0,0-1,2.18c-.1,1.14,1.75,1.5,5.56,1.06q8.68-1,13.81-6.08t5.61-10.22a6.23,6.23,0,0,0-2.35-5.9q-2.7-2.07-8.68-1.39C100.82,661.43,100.09,661.54,99.25,661.69Z"/><path d="M149.29,673.17l1.23-.14c-1.41,2.58-2.11,3.87-3.51,6.46l-31.66,3.64.46-.86.81-.1a10.17,10.17,0,0,0,3-.74,4.79,4.79,0,0,0,1.71-1.11,15,15,0,0,0,1.5-2.46c3.51-6.5,5.26-9.76,8.76-16.26a9.87,9.87,0,0,0,1-2.35c.08-.84-1.08-1.13-3.48-.85l-1.12.13.47-.87,27-3.1c-.15,2.18-.23,3.27-.38,5.45l-1.17.13a5.37,5.37,0,0,0-1.9-2.93,4.91,4.91,0,0,0-2.69-.93,50.88,50.88,0,0,0-5.82.47l-4.91.56-5.86,10.92,2.74-.31a21.22,21.22,0,0,0,6-1.38,10.55,10.55,0,0,0,4-3.68l1.28-.15-5.38,10-1.28.15a6.52,6.52,0,0,0,.47-1.86,2.45,2.45,0,0,0-.38-2,2.12,2.12,0,0,0-1.45-.54,26,26,0,0,0-3.39.23l-3.09.36L128,677a11.23,11.23,0,0,0-1,2.26q-.09,1,1.17,1.2a17,17,0,0,0,4.47-.12l2.2-.25a27.07,27.07,0,0,0,9-2.32A16.28,16.28,0,0,0,149.29,673.17Z"/><path d="M179.24,676l-1.31.15c-3.44-7.72-5.15-11.59-8.59-19.31-1.67,3.67-2.51,5.5-4.17,9.17a88.29,88.29,0,0,1-4.2,8.39,13.29,13.29,0,0,1-4,4.46,9.9,9.9,0,0,1-4.33,1.68,6.38,6.38,0,0,1-3.36-.35,1.67,1.67,0,0,1-1.19-1.74c.11-1.21.89-1.9,2.32-2.07a2.39,2.39,0,0,1,1.4.21.87.87,0,0,1,.51.91,2.33,2.33,0,0,1-.6,1.12,1.29,1.29,0,0,0-.33.6c0,.23.09.38.34.47a2.57,2.57,0,0,0,1.12,0,8.14,8.14,0,0,0,4.86-2.64q2.3-2.36,6.41-11.52c1.42-3.18,2.13-4.77,3.56-8q1-2.11,1-2.31c0-.39-.23-.7-.8-.92s-2-.21-4.42,0c.15-.35.23-.52.38-.86l8.74-1,7.94,17.76c1.15-2.57,1.73-3.86,2.89-6.43Q187.91,654,190,652a7.81,7.81,0,0,1,4.56-2.27,4.47,4.47,0,0,1,2.27.19,1,1,0,0,1,.73,1,1.45,1.45,0,0,1-.75,1.06,3.57,3.57,0,0,1-1.52.55,2.2,2.2,0,0,1-1.85-.64,1.22,1.22,0,0,0-1.07-.37c-.76.09-1.64.85-2.63,2.28a85.22,85.22,0,0,0-5.18,10.37Z"/><path d="M209,662q.36-3.84,4.36-8.69a31.28,31.28,0,0,1,9.59-7.81A30,30,0,0,1,233.5,642a20.29,20.29,0,0,1,5.71.22,8.75,8.75,0,0,1,5.2,2.88,7.7,7.7,0,0,1,1.75,6.12q-.61,6.55-8.11,12.87t-15.76,7.27q-6.16.71-10-1.69T209,662Zm5.46,1.39a8.47,8.47,0,0,0,.44,4.33,4.83,4.83,0,0,0,2.63,2.26,9.55,9.55,0,0,0,4.76.47,16.8,16.8,0,0,0,8.56-3.77,28,28,0,0,0,7-8.56c2-3.55,3-6.5,3.27-8.88s-.4-4.15-1.87-5.19a8.43,8.43,0,0,0-5.94-1.13,17.34,17.34,0,0,0-8.49,3.64,27.45,27.45,0,0,0-7.1,8.23Q214.75,659.88,214.41,663.38Z"/><path d="M271.25,661l26.9-26,10.7-1.24-.53,1a18.05,18.05,0,0,0-4.31.83,3.89,3.89,0,0,0-1.62,1.16,15.91,15.91,0,0,0-1.53,3l-8.2,17.82a11.25,11.25,0,0,0-.94,2.39c-.07.7.35,1.16,1.24,1.37a9,9,0,0,0,3.15.12l1-.11-.53,1-17.9,2.06.53-1,.75-.09a12.36,12.36,0,0,0,3.41-.82,5.1,5.1,0,0,0,2-1.29,15.3,15.3,0,0,0,1.63-2.94c3.72-8,5.57-12,9.28-20l-28.42,27.36-1.52.18c-.85-8.73-1.28-13.1-2.14-21.83l-9.82,15.21q-2.57,3.95-2.65,4.86a1.56,1.56,0,0,0,1.08,1.82,11.24,11.24,0,0,0,4.12.1c-.22.39-.32.59-.53,1L242,668.57l.53-1a12.69,12.69,0,0,0,4.08-1.19,9.1,9.1,0,0,0,2.9-2.27,59.78,59.78,0,0,0,3.53-5.07l9.38-14.37a11.38,11.38,0,0,0,1.67-3.17,1.08,1.08,0,0,0-.64-1.18,7.15,7.15,0,0,0-3.15-.07l-1.83.21.5-1,10-1.14C269.85,647.42,270.32,652,271.25,661Z"/><path d="M316.42,660.67l-2.53.29L318.26,637l.25-1.33a1.34,1.34,0,0,0-.9-1.58,13.54,13.54,0,0,0-4.55.07l.27-1,17.18-2c-.11.38-.17.57-.28,1a17.15,17.15,0,0,0-4,.82,4.35,4.35,0,0,0-1.89,1.18,5.59,5.59,0,0,0-.78,2.34c-1.32,7.51-2,11.26-3.29,18.77L340,636.05c1.68-1.65,2.54-2.74,2.59-3.28s-.27-1-1-1.26a11.38,11.38,0,0,0-4.19-.11c.19-.39.28-.58.46-1l13.93-1.6c-.21.39-.32.58-.53,1a11,11,0,0,0-4.38,1.6,39.06,39.06,0,0,0-5.69,4.89Z"/><path d="M377.4,646.14l1.39-.16-4,7.31L339,657.41l.53-1,.91-.1a11.4,11.4,0,0,0,3.34-.84,5.54,5.54,0,0,0,2-1.26,19,19,0,0,0,1.7-2.79l9.91-18.39a11.29,11.29,0,0,0,1.18-2.66c.09-.95-1.22-1.28-3.94-1l-1.26.14.53-1,30.53-3.51c-.17,2.47-.25,3.7-.42,6.17l-1.33.15a6,6,0,0,0-2.16-3.32,5.47,5.47,0,0,0-3-1.05,57.43,57.43,0,0,0-6.59.53l-5.55.63-6.63,12.36,3.09-.35a23.94,23.94,0,0,0,6.77-1.56,12,12,0,0,0,4.58-4.17l1.45-.16-6.09,11.34-1.45.16a7.4,7.4,0,0,0,.54-2.1,2.8,2.8,0,0,0-.43-2.23,2.42,2.42,0,0,0-1.65-.62,29.43,29.43,0,0,0-3.83.27l-3.51.4c-1.92,3.59-2.88,5.39-4.81,9a13.64,13.64,0,0,0-1.17,2.56c-.07.73.37,1.18,1.32,1.37a19.62,19.62,0,0,0,5.06-.15L361,654a30.24,30.24,0,0,0,10.14-2.62A18.31,18.31,0,0,0,377.4,646.14Z"/><path d="M411.29,649.36l-1.48.17c-3.89-8.75-5.84-13.12-9.72-21.86l-4.73,10.38a97.36,97.36,0,0,1-4.74,9.49,15,15,0,0,1-4.49,5.05,11.28,11.28,0,0,1-4.89,1.9,7.29,7.29,0,0,1-3.81-.39,1.9,1.9,0,0,1-1.34-2c.13-1.37,1-2.15,2.62-2.34a2.69,2.69,0,0,1,1.59.24,1,1,0,0,1,.57,1,2.54,2.54,0,0,1-.68,1.26,1.5,1.5,0,0,0-.37.69.48.48,0,0,0,.38.53,3,3,0,0,0,1.28.05,9.12,9.12,0,0,0,5.49-3q2.59-2.65,7.25-13l4-9a23.53,23.53,0,0,0,1.12-2.61c0-.44-.26-.79-.9-1s-2.31-.24-5,0l.43-1,9.89-1.13,9,20.1,3.27-7.28q5.06-11.22,7.4-13.46a8.93,8.93,0,0,1,5.16-2.56,5,5,0,0,1,2.57.22c.6.27.88.66.83,1.17a1.64,1.64,0,0,1-.85,1.2,4,4,0,0,1-1.73.62,2.45,2.45,0,0,1-2.08-.72,1.38,1.38,0,0,0-1.21-.42c-.86.1-1.86,1-3,2.58s-3.07,5.53-5.86,11.73Z"/><path d="M434.19,619.35l3.09-.36c1.79-.2,4-.47,6.54-.83s4.17-.58,5.16-.69a30.59,30.59,0,0,1,10.3.27,9.65,9.65,0,0,1,6,3.61,8.49,8.49,0,0,1,1.53,5.83,13.51,13.51,0,0,1-2.37,6.09,22.47,22.47,0,0,1-5.49,5.72,30.22,30.22,0,0,1-7.15,4,38.65,38.65,0,0,1-6.85,2c-2.07.38-5,.8-8.91,1.24l-17.21,2,.53-1,1.83-.21a11.73,11.73,0,0,0,3.34-.83,5.59,5.59,0,0,0,1.95-1.27,18.18,18.18,0,0,0,1.7-2.78l9.9-18.4a11.07,11.07,0,0,0,1.19-2.65q.13-1.44-3.94-1l-1.64.19Zm11.89-.61c-4.88,9.06-7.32,13.58-12.21,22.64a10.45,10.45,0,0,0-1.1,2.47c-.12,1.29,2,1.69,6.29,1.19q9.81-1.12,15.62-6.87T461,626.6a7,7,0,0,0-2.65-6.67q-3.06-2.35-9.82-1.57C447.86,618.44,447,618.57,446.08,618.74Z"/><path d="M500.8,613.41l-11.61,21.53a10.51,10.51,0,0,0-1.14,2.51c-.06.67.35,1.11,1.24,1.31a9.37,9.37,0,0,0,3,.1l1.14-.13c-.21.39-.32.58-.53,1l-18.34,2.11c.21-.4.31-.59.53-1l.94-.11a13.15,13.15,0,0,0,3.44-.83,5.92,5.92,0,0,0,2.09-1.3,18.12,18.12,0,0,0,1.88-3l11.79-21.83c-3.47.19-6.43.44-8.87.72a32.6,32.6,0,0,0-6,1.11c-1.35.43-2.05.93-2.11,1.5a1.75,1.75,0,0,0,.27.87,1.64,1.64,0,0,1,.23.81,1.46,1.46,0,0,1-.7,1,3.52,3.52,0,0,1-1.63.58,2.41,2.41,0,0,1-1.86-.39,1.42,1.42,0,0,1-.55-1.27q.15-1.62,3.12-3.15t10.17-2.36c2.46-.28,7.13-.65,14-1.07,4.89-.3,8.58-.58,11-.87s3.71-.82,4-1.64a1.55,1.55,0,0,1,1.4-1c1-.12,1.49.17,1.42.85q-.2,2.21-7.5,3C509.37,612.82,505.74,613.11,500.8,613.41Z"/><path d="M545.14,626.84l1.38-.16-4,7.32-35.83,4.12c.21-.39.31-.59.53-1l.91-.11a11.41,11.41,0,0,0,3.34-.83,5.74,5.74,0,0,0,2-1.26,19,19,0,0,0,1.7-2.79l9.9-18.39a11.06,11.06,0,0,0,1.19-2.66c.09-1-1.23-1.28-3.94-1l-1.26.15.53-1,30.53-3.51c-.17,2.46-.26,3.7-.43,6.16l-1.32.16a6,6,0,0,0-2.16-3.32,5.5,5.5,0,0,0-3-1,58.88,58.88,0,0,0-6.59.52l-5.56.64-6.62,12.36,3.09-.35a23.94,23.94,0,0,0,6.77-1.56,11.89,11.89,0,0,0,4.57-4.17l1.46-.16-6.09,11.33-1.46.17a7.4,7.4,0,0,0,.54-2.1,2.75,2.75,0,0,0-.43-2.23,2.42,2.42,0,0,0-1.64-.62,29.55,29.55,0,0,0-3.84.27l-3.5.4-4.81,9a12.3,12.3,0,0,0-1.17,2.56c-.07.73.37,1.18,1.32,1.37a19.62,19.62,0,0,0,5.06-.15l2.49-.28a30.24,30.24,0,0,0,10.15-2.62A18.53,18.53,0,0,0,545.14,626.84Z"/><path d="M582.1,630.19l-2.82.32c2-10.68,2.92-16,4.87-26.69.11-.6.17-.89.28-1.49a1.49,1.49,0,0,0-1-1.77,15.37,15.37,0,0,0-5.08.08c.12-.42.18-.63.31-1.06l19.17-2.2c-.12.42-.19.63-.31,1.06a19.32,19.32,0,0,0-4.44.92,4.84,4.84,0,0,0-2.11,1.32,6.17,6.17,0,0,0-.88,2.61c-1.47,8.38-2.2,12.57-3.67,21l22-21.55q2.8-2.75,2.89-3.65c.06-.65-.3-1.12-1.07-1.41a12.82,12.82,0,0,0-4.68-.12l.52-1.09,15.54-1.78-.59,1.09a12.52,12.52,0,0,0-4.89,1.79,44.38,44.38,0,0,0-6.35,5.46Z"/><path d="M650.17,614l1.55-.18L647.3,622l-40,4.6.59-1.09,1-.12a13.12,13.12,0,0,0,3.73-.93,6,6,0,0,0,2.17-1.41,20.25,20.25,0,0,0,1.9-3.11l11-20.53a12.71,12.71,0,0,0,1.33-3q.15-1.59-4.4-1.08l-1.41.17c.24-.44.36-.66.59-1.1L658,590.46c-.19,2.76-.28,4.13-.47,6.89l-1.48.17a6.8,6.8,0,0,0-2.41-3.71,6.06,6.06,0,0,0-3.39-1.17,63.52,63.52,0,0,0-7.36.59l-6.2.71-7.4,13.8,3.46-.4a26.75,26.75,0,0,0,7.55-1.74,13.35,13.35,0,0,0,5.11-4.65l1.62-.19-6.8,12.66-1.62.19a8.56,8.56,0,0,0,.6-2.35,3.08,3.08,0,0,0-.48-2.49,2.64,2.64,0,0,0-1.83-.69,30.62,30.62,0,0,0-4.28.3l-3.91.45-5.37,10A14.43,14.43,0,0,0,622,621.7c-.07.81.42,1.32,1.48,1.52a21.51,21.51,0,0,0,5.65-.16l2.78-.32a33.71,33.71,0,0,0,11.33-2.92A20.52,20.52,0,0,0,650.17,614Z"/><path d="M696.17,613.83l.67,1a21.1,21.1,0,0,1-8.17,2.82c-2.75.32-4.76,0-6-.87s-1.79-2.5-1.57-4.82l.2-1.85q.3-3.14-.42-4.35a3.13,3.13,0,0,0-2.2-1.49,18.2,18.2,0,0,0-4.82.11l-1.76.2c-2,3.73-3,5.6-5.06,9.33a14,14,0,0,0-1.31,2.79q-.11,1.19,1.38,1.5a10.34,10.34,0,0,0,3.32.1l1-.12c-.23.44-.35.66-.59,1.1l-19.34,2.22.58-1.09.78-.09a13.36,13.36,0,0,0,3.75-.93,6.13,6.13,0,0,0,2.17-1.41,21.58,21.58,0,0,0,1.88-3.11c4.42-8.21,6.63-12.32,11.06-20.53a13,13,0,0,0,1.32-3c0-.52-.26-.88-1-1.07a12.86,12.86,0,0,0-4.08.07c.24-.44.36-.66.59-1.1l12.51-1.44q5.22-.6,7.79-.72a18.1,18.1,0,0,1,5.2.49,8,8,0,0,1,4,2,3.85,3.85,0,0,1,1.14,3.21q-.33,3.53-5,6.39t-14.53,4.17q5,.6,6.85,2.45c1.21,1.23,1.79,3.07,1.71,5.51,0,1.87.13,3.1.56,3.69s1.35.8,2.73.64A14.1,14.1,0,0,0,696.17,613.83Zm-23.51-10.31,1.41-.16q9-1,13.71-3.76t5.05-6.7a3.48,3.48,0,0,0-2.34-3.87c-1.73-.72-4.42-.86-8.06-.45l-1.84.26Z"/><path d="M712.05,584.24l3.45-.4c2-.23,4.44-.53,7.31-.93s4.65-.64,5.75-.77a33.81,33.81,0,0,1,11.49.31q4.63,1.09,6.67,4a9.52,9.52,0,0,1,1.71,6.51,15.12,15.12,0,0,1-2.64,6.8,25.14,25.14,0,0,1-6.13,6.38,33.83,33.83,0,0,1-8,4.45,43,43,0,0,1-7.66,2.27c-2.3.43-5.62.89-9.94,1.39l-19.21,2.21.59-1.09,2-.24a13.21,13.21,0,0,0,3.73-.93,6,6,0,0,0,2.17-1.41,19.65,19.65,0,0,0,1.89-3.11c4.43-8.21,6.64-12.32,11.06-20.53a12.53,12.53,0,0,0,1.33-3q.15-1.59-4.4-1.08l-1.83.22Zm13.28-.68L711.7,608.83a11.94,11.94,0,0,0-1.24,2.76c-.13,1.44,2.21,1.89,7,1.33q11-1.26,17.44-7.67T742,592.33a7.79,7.79,0,0,0-3-7.44c-2.27-1.75-5.93-2.33-10.95-1.76C727.31,583.22,726.39,583.37,725.33,583.56Z"/><path d="M788.53,598.05l1.55-.17L785.66,606l-40,4.6c.23-.44.35-.66.59-1.09l1-.12a13.12,13.12,0,0,0,3.73-.93,6.33,6.33,0,0,0,2.17-1.41,20.79,20.79,0,0,0,1.9-3.11c4.42-8.21,6.63-12.32,11.06-20.53a13,13,0,0,0,1.32-3q.15-1.61-4.4-1.08l-1.41.16.59-1.09,34.08-3.92c-.18,2.75-.28,4.13-.47,6.88l-1.48.17a6.76,6.76,0,0,0-2.4-3.7,6.21,6.21,0,0,0-3.4-1.18,68.83,68.83,0,0,0-7.36.59L775,578c-3,5.52-4.44,8.27-7.39,13.79l3.45-.39a26.75,26.75,0,0,0,7.55-1.74,13.35,13.35,0,0,0,5.11-4.65l1.62-.19-6.8,12.66-1.62.18a8.16,8.16,0,0,0,.6-2.34,3.06,3.06,0,0,0-.48-2.49,2.62,2.62,0,0,0-1.83-.69,30.62,30.62,0,0,0-4.28.3l-3.91.45-5.37,10a13.51,13.51,0,0,0-1.31,2.85q-.12,1.22,1.47,1.53a21.51,21.51,0,0,0,5.65-.16l2.78-.32a34,34,0,0,0,11.33-2.92A20.44,20.44,0,0,0,788.53,598.05Z"/><path d="M826.37,601.65l-1.66.19-10.85-24.4L808.59,589a113.28,113.28,0,0,1-5.3,10.6,17,17,0,0,1-5,5.63,12.51,12.51,0,0,1-5.46,2.12,8,8,0,0,1-4.25-.44,2.12,2.12,0,0,1-1.5-2.2c.14-1.53,1.12-2.41,2.93-2.61a3,3,0,0,1,1.77.26,1.12,1.12,0,0,1,.64,1.16,2.91,2.91,0,0,1-.76,1.4,1.77,1.77,0,0,0-.42.76.55.55,0,0,0,.43.6,3.48,3.48,0,0,0,1.43.06,10.23,10.23,0,0,0,6.13-3.34q2.89-3,8.09-14.55l4.5-10a26.07,26.07,0,0,0,1.25-2.91c.05-.5-.29-.89-1-1.17s-2.57-.27-5.58,0c.2-.43.29-.65.49-1.08l11-1.27c4,9,6,13.46,10,22.44l3.65-8.13q5.64-12.51,8.26-15a9.94,9.94,0,0,1,5.76-2.86,5.68,5.68,0,0,1,2.87.24,1.27,1.27,0,0,1,.92,1.31,1.84,1.84,0,0,1-.94,1.34,4.4,4.4,0,0,1-1.93.69,2.76,2.76,0,0,1-2.33-.8,1.55,1.55,0,0,0-1.35-.47c-1,.11-2.07,1.07-3.32,2.88s-3.43,6.17-6.55,13.09C830.38,592.72,829.05,595.7,826.37,601.65Z"/></symbol><symbol id="f2" data-name="f2" viewBox="0 0 552.57 321.1"><path class="cls-1" d="M179.61,134.35C151,138.29,80.05,114.8,39.43,112.29c-8.13,12.65-8.88,22.91-1,35.89C75.69,145.7,165.63,168.68,179.61,134.35Z"/><path class="cls-2" d="M176.27,156.45c-21.63,10.66-110,4.91-146.67,11.41-7.21,13.4-10.47,22.17,7.58,25.37C92.71,178,177,157,176.27,156.45Z"/><path class="cls-3" d="M177.36,146.27c-23.87,9.09-127-7.25-168.42-5.17C-2.74,156.83-5,165.33,14.42,174.55,45,169.23,165,165.93,177.36,146.27Z"/><path class="cls-4" d="M217.85,232.07c-7.53,11.25-24.73,38.62-31.82,44.6s-11.64-14.22-19.25-8.22c3.74,5.16,5.82,9.26,9.59,15.65s10.43,16.16,11.12,24.44a68.75,68.75,0,0,1-.33,8.53,20.76,20.76,0,0,0,7.56-6.51c1.22,3.43.95,6.84.63,10.41,19.12-13.25,8.58-23.73-4.69-37.05,11-15.56,24.62-28.74,37.39-42.83C224.63,238.17,221.52,234.34,217.85,232.07Z"/><path class="cls-4" d="M174.63,224.61c-8.4,10.62-27.26,37.15-34.65,42.73s-10.6-15-18.53-9.45c3.38,5.41,5.17,9.65,8.49,16.31s9.27,16.88,9.41,25.2a70.16,70.16,0,0,1-.87,8.54,20.76,20.76,0,0,0,7.89-6.07c1,3.51.5,6.93-.05,10.48,19.7-12.12,10.07-23.23-2.23-37.45,11.89-14.93,26.18-27.62,40-40.7C180.91,231.12,178.1,227.09,174.63,224.61Z"/><path class="cls-5" d="M139.66,300.5c.22-.27,5.28,2.4,6.31,1.76-.92,2.13-5.79,5.7-7.24,5.64C137.93,307.87,139.44,300.78,139.66,300.5Z"/><path class="cls-5" d="M143.15,302.83"/><path class="cls-5" d="M146.9,304.19a12.9,12.9,0,0,0,7.77,1.92,27.18,27.18,0,0,1-8.84,6.34A20.11,20.11,0,0,0,146.9,304.19Z"/><path class="cls-5" d="M121.36,257.06l4.52,9.39,4.85-4.16C129.15,261,123.74,255.5,121.36,257.06Z"/><path d="M78.09,33.52"/><path class="cls-6" d="M279.91,139c-18.81,17.71-60.57,36.75-58.49,66C81.7,174.47,196.6,44.22,292.28,72.36c8.53-22.31,6.67-36.55,27.8-53.25C329,12.8,338.43,8.9,349.53,8.74c30-.45,60.76,14.16,55.32,48.85C355.13,75.51,319.72,105.37,279.91,139Z"/><path d="M374.37,13.05c-16.11-1-21.34,3-23.24,19.11C355.92,21.15,362.48,15.29,374.37,13.05Z"/><path d="M379.94,27.46c-12.05-6.15-21.28-7-28.8,5.39C360.16,25.47,368.83,24.47,379.94,27.46Z"/><path class="cls-6" d="M248.24,225c-4.82,8.6-18.68,28.25-30.53,16.68-8.88-8.67,3.15-28.45,9.36-36s23.12-23.3,31.81-14.83S252.74,217,248.24,225Z"/><path class="cls-6" d="M203.24,218c-5.18,8.39-19.36,28.85-31.54,17.54-9.13-8.46,3.45-28.24,9.79-35.38s23.93-24.94,32.9-16.7S208.08,210.16,203.24,218Z"/><path class="cls-5" d="M187.87,309.62c.21-.29,5.47,2.06,6.48,1.36-.81,2.18-5.48,6-6.94,6C186.61,317,187.66,309.9,187.87,309.62Z"/><path class="cls-5" d="M188.47,309.76"/><path class="cls-5" d="M195.41,312.84a13.15,13.15,0,0,0,8,1.43,27.4,27.4,0,0,1-8.51,6.83A19.69,19.69,0,0,0,195.41,312.84Z"/><path class="cls-5" d="M166.63,267.64l5.14,9,4.62-4.42C174.7,271.07,168.94,265.94,166.63,267.64Z"/><path class="cls-6" d="M292,72.83c-17,19-107.7,65.12-135.54,68.84-17.21,2.3-33.25-24.12-23.43-41.57-18.55-7.31-28.28-23.17-32-41.75C89.26,52.65,77.94,46,76.52,31.91,175.59,27.65,235.26-59.09,292,72.83Z"/><path class="cls-7" d="M219.44,206"/><path class="cls-7" d="M395.34,70.6"/><path class="cls-8" d="M349.61,135.35c16.59-19.73,57.05-60.23,46-88.34C347.75,2.51,317,32,312.37,87.65,304.65,131.25,200.61,177,219,205.47,274.43,222.86,322.3,179.28,349.61,135.35Z"/><path class="cls-9" d="M364.82,108.42c15.39,5.2,30.28,8.6,46.59,8,7.91,34.71,45.85,25.18,57.58,58.95C418.87,174.71,389.34,150.05,364.82,108.42Z"/><path class="cls-4" d="M360.38,107.89c23.68,10.39,48.17,12.06,73.61,8.57,45.55-4.32,87.44,8,118.37,42.75-1-110.44-47-112-145.45-108.62C400.11,77.14,387.68,99.11,360.38,107.89Z"/><path class="cls-10" d="M552.13,138.24c2.38-35.91-4.11-60.17-37.44-78C455,79.35,528.39,126.53,552.13,138.24Z"/><path class="cls-11" d="M372.71,119.59c10.15,13.14,23.29,34.58,42.45,29.9-5.22-22.64-17.52-29.15-38.14-37Q374.88,116.07,372.71,119.59Z"/><path class="cls-4" d="M469,175.23c-40.71,13.19-78.12-3.19-109.59-29.44,1.88-9.59,8.36-18.11,13.43-26.25C397.08,150,428.41,175.22,469,175.23Z"/><path class="cls-10" d="M407.41,50.09c-5.33,30.09-48,75.2-47.06,96.66-15.68-7-8.28-33.78-6.48-46.57C381.51,92.11,392.17,77,396.55,49Z"/><path class="cls-12" d="M323.65,75.76c5.47,14.92,23.11,15.47,36.21,10.11s26.38-18.55,20.62-33.58-24.24-16-37.5-10.48S318.17,60.83,323.65,75.76Z"/><path class="cls-13" d="M369.14,66.31c-.09,9.73-7.28,17.28-17.09,17.17s-16.9-7.82-16.86-17.54,7.16-17.32,17-17.23S369.24,56.59,369.14,66.31Z"/><path d="M362.28,66.2a10.12,10.12,0,0,1-10.44,10.22A10.41,10.41,0,1,1,362.28,66.2Z"/><path class="cls-12" d="M354.4,83.27a5.55,5.55,0,0,1-5.67,6,6,6,0,0,1-5.88-6.08c-.13-3.34,2-6.1,5.48-6A6.17,6.17,0,0,1,354.4,83.27Z"/><path d="M194.16,83C174,96.78,156,115.91,131.85,99.62c-.63,3.74-1.6,8-.53,11.73C156.32,128.05,177,99,194.16,83Z"/><path d="M159.28,55.76c-23.54,10.39-34,10.14-58.29,2.29,0,1.79,0,3.68,1.27,5C128.49,71.75,135.32,70.51,159.28,55.76Z"/><path d="M162.89,140.9c-1.26.39-2.53.77-3.81,1.11,15-8.79,27.9-20.11,41.92-30.25C189,122.67,177.51,133.51,162.89,140.9Z"/></symbol><symbol id="f22" data-name="f22" viewBox="0 0 933.85 774.16"><use width="552.57" height="321.1" xlink:href="#f2"/><path class="cls-19" d="M59,523.17,905.19,471s16.08,15.52,14.9,22.28-9.07,8.09-4,26.19c0,0-.2,22.6,4.24,29.86,0,0,5.43,10.54-2.77,32.8l-12.5,4.12,3.79,9.8,12.71-.78.49,6-8.36,4.48,5.66,4.18-4.5,5.94L919,621.3l5.38-.33s4.93,9.89,1.91,13.48l-3.92,6.47,4.17,32.6s6.62,4.69,5.43,10.43l1.36,18-7.7.47s-1.37,4,.35,5.64l4.84-.29s-2,10.88,1.33,12.94L74.4,773.63Z"/><polygon class="cls-15" points="63.08 589.92 286.69 576.13 276.66 584.5 63.08 589.92"/><path class="cls-15" d="M655.13,629.3c-.07-1.11,95.93-18.09,95.93-18.09l-12.91,13L526.54,654.93Z"/><polygon class="cls-20" points="404.35 551.18 849.91 523.71 872.39 528.97 691.27 551.2 404.35 551.18"/><polygon class="cls-21" points="598.82 688.73 153.24 715.92 130.76 710.66 311.89 688.54 598.82 688.73"/><ellipse class="cls-18" cx="530.01" cy="527.64" rx="22.64" ry="33.44" transform="translate(-31.45 33.6) rotate(-3.53)"/><ellipse class="cls-15" cx="530.4" cy="534" rx="15.79" ry="22.64" transform="translate(-31.85 33.64) rotate(-3.53)"/><ellipse class="cls-18" cx="530.56" cy="536.62" rx="10" ry="15.6" transform="translate(-32.01 33.65) rotate(-3.53)"/><ellipse class="cls-18" cx="154.38" cy="500.41" rx="20.56" ry="25.45" transform="translate(-30.49 10.44) rotate(-3.53)"/><ellipse class="cls-18" cx="156.05" cy="456.06" rx="20.56" ry="25.45" transform="translate(-27.76 10.46) rotate(-3.53)"/><ellipse class="cls-18" cx="303.79" cy="259.6" rx="20.56" ry="25.45" transform="translate(-15.39 19.18) rotate(-3.53)"/><ellipse class="cls-18" cx="276.89" cy="276.82" rx="20.56" ry="25.45" transform="translate(-16.5 17.56) rotate(-3.53)"/><ellipse class="cls-18" cx="257.56" cy="297.41" rx="20.56" ry="25.45" transform="translate(-17.81 16.41) rotate(-3.53)"/><ellipse class="cls-18" cx="238.61" cy="324.07" rx="20.56" ry="25.45" transform="translate(-19.48 15.29) rotate(-3.53)"/><ellipse class="cls-18" cx="211.37" cy="345.34" rx="20.56" ry="25.45" transform="translate(-20.84 13.66) rotate(-3.53)"/><ellipse class="cls-18" cx="188.04" cy="378.18" rx="20.56" ry="25.45" transform="translate(-22.91 12.28) rotate(-3.53)"/><ellipse class="cls-18" cx="169.72" cy="415.07" rx="20.56" ry="25.45" transform="translate(-25.21 11.23) rotate(-3.53)"/><ellipse class="cls-18" cx="156.32" cy="531.95" rx="20.56" ry="25.45" transform="translate(-32.43 10.62) rotate(-3.53)"/><ellipse class="cls-18" cx="467.55" cy="148.77" rx="20.56" ry="25.45" transform="translate(-8.27 29.04) rotate(-3.53)"/><ellipse class="cls-18" cx="433.49" cy="160.53" rx="20.56" ry="25.45" transform="translate(-9.05 26.97) rotate(-3.53)"/><ellipse class="cls-18" cx="406.24" cy="182.78" rx="20.56" ry="25.45" transform="matrix(0.99, -0.1, 0.1, 0.99, -16.27, 41.62)"/><ellipse class="cls-18" cx="373.54" cy="197.94" rx="20.56" ry="25.45" transform="translate(-11.47 23.35) rotate(-3.53)"/><ellipse class="cls-18" cx="348.24" cy="216.78" rx="20.56" ry="25.45" transform="translate(-12.68 21.83) rotate(-3.53)"/><ellipse class="cls-18" cx="328.99" cy="238.53" rx="20.56" ry="25.45" transform="translate(-14.05 20.69) rotate(-3.53)"/><ellipse class="cls-18" cx="809.3" cy="482.41" rx="20.56" ry="25.45" transform="translate(-13.19 22.85) rotate(-1.6)"/><ellipse class="cls-18" cx="804.02" cy="438.33" rx="20.56" ry="25.45" transform="translate(-11.96 22.69) rotate(-1.6)"/><ellipse class="cls-18" cx="640.7" cy="253.94" rx="20.56" ry="25.45" transform="translate(-6.86 18.04) rotate(-1.6)"/><ellipse class="cls-18" cx="668.93" cy="269.03" rx="20.56" ry="25.45" transform="translate(-7.27 18.84) rotate(-1.6)"/><ellipse class="cls-18" cx="689.87" cy="288.05" rx="20.56" ry="25.45" transform="translate(-7.8 19.43) rotate(-1.6)"/><ellipse class="cls-18" cx="710.94" cy="313.16" rx="20.56" ry="25.45" transform="translate(-8.49 20.03) rotate(-1.6)"/><ellipse class="cls-18" cx="739.83" cy="332.25" rx="20.56" ry="25.45" transform="translate(-9.01 20.85) rotate(-1.6)"/><ellipse class="cls-18" cx="765.77" cy="363.18" rx="20.56" ry="25.45" transform="translate(-9.87 21.59) rotate(-1.6)"/><ellipse class="cls-18" cx="787.05" cy="398.53" rx="20.56" ry="25.45" transform="translate(-10.85 22.2) rotate(-1.6)"/><ellipse class="cls-18" cx="503.32" cy="165.24" rx="20.56" ry="25.45" transform="matrix(1, -0.03, 0.03, 1, -4.43, 14.16)"/><ellipse class="cls-18" cx="532.45" cy="179.93" rx="25.44" ry="20.56" transform="translate(346.77 710.4) rotate(-89.38)"/><ellipse class="cls-18" cx="566.14" cy="197.89" rx="20.56" ry="25.45" transform="translate(-5.32 15.93) rotate(-1.6)"/><ellipse class="cls-18" cx="592.89" cy="214.7" rx="20.56" ry="25.45" transform="translate(-5.78 16.69) rotate(-1.6)"/><ellipse class="cls-18" cx="613.87" cy="234.9" rx="20.56" ry="25.45" transform="translate(-6.34 17.28) rotate(-1.6)"/><path d="M122.59,709.35l-.25,1.06-14.88,2,.24-1.06.81-.1a6.83,6.83,0,0,0,2.67-.86,3.29,3.29,0,0,0,1.38-1.34,17.52,17.52,0,0,0,.84-3l4.48-19.83a11.66,11.66,0,0,0,.47-2.85c-.12-1.05-1.31-1.43-3.55-1.14l-.93.13c.09-.43.14-.64.24-1.06L128,679.43c-.1.42-.14.63-.24,1.06l-.73.09a6.87,6.87,0,0,0-2.22.67,2.94,2.94,0,0,0-1.32,1.23,22.81,22.81,0,0,0-1,3.58c-1.74,7.65-2.62,11.47-4.36,19.11a11.31,11.31,0,0,0-.43,2.73,1.64,1.64,0,0,0,1.29,1.43,6.18,6.18,0,0,0,2.6.15Z"/><path d="M149.82,674.87l2.7-.36c1.55-.2,3.45-.48,5.67-.84s3.6-.59,4.46-.71a22,22,0,0,1,9.29.5,11.61,11.61,0,0,1,6.16,4.23,14.16,14.16,0,0,1,2.67,6.72,16.13,16.13,0,0,1-.76,7,18,18,0,0,1-3.63,6.47,19.44,19.44,0,0,1-5.52,4.45,23.43,23.43,0,0,1-5.68,2.22c-1.77.41-4.34.83-7.71,1.28l-15,2c.1-.45.15-.67.26-1.12l1.59-.21a7.21,7.21,0,0,0,2.81-.9,3.74,3.74,0,0,0,1.46-1.41,19.08,19.08,0,0,0,.89-3.17c1.91-8.38,2.86-12.56,4.76-20.94a13,13,0,0,0,.47-3c-.13-1.09-1.38-1.49-3.74-1.17l-1.43.18Zm10.52-.49c-2.35,10.3-3.52,15.46-5.87,25.77A12.2,12.2,0,0,0,154,703q.27,2.22,5.9,1.48,8.55-1.12,12.46-7.62a20.28,20.28,0,0,0,3.1-13.17,11.49,11.49,0,0,0-3.87-7.7q-3.27-2.75-9.15-2C161.87,674.06,161.16,674.19,160.34,674.38Z"/><path d="M214,690.25l1.21-.16c-.76,3.33-1.15,5-1.91,8.33l-31.18,4.11.25-1.12.8-.1a7.21,7.21,0,0,0,2.81-.9,3.75,3.75,0,0,0,1.46-1.42,18.77,18.77,0,0,0,.89-3.17c1.91-8.37,2.86-12.56,4.76-20.94a12.91,12.91,0,0,0,.47-3c-.13-1.1-1.38-1.49-3.74-1.18l-1.1.14.25-1.11,26.57-3.5,1,7.07-1.15.15a9.68,9.68,0,0,0-2.68-3.85,5.35,5.35,0,0,0-3-1.26,39.8,39.8,0,0,0-5.79.49l-4.83.64-3.17,14.07,2.69-.35a14.76,14.76,0,0,0,5.72-1.68c1.24-.77,2.3-2.34,3.16-4.7l1.27-.16-2.92,12.9-1.27.17a9.67,9.67,0,0,0,0-2.4,4.57,4.57,0,0,0-.89-2.57,2.45,2.45,0,0,0-1.61-.74,19.06,19.06,0,0,0-3.37.24l-3,.41-2.3,10.21a15.47,15.47,0,0,0-.49,2.91,1.79,1.79,0,0,0,1.5,1.59,13.28,13.28,0,0,0,4.5-.07l2.17-.29q5.66-.75,8.5-2.83A13.36,13.36,0,0,0,214,690.25Z"/><path d="M245.06,694.53l-1.29.17-13.6-25.25c-.77,4.73-1.15,7.1-1.91,11.83a106.6,106.6,0,0,1-2.13,10.81,12.54,12.54,0,0,1-2.89,5.72,7,7,0,0,1-4,2.1,5.67,5.67,0,0,1-3.49-.52,2.88,2.88,0,0,1-1.65-2.29q-.28-2.36,1.83-2.64a2.17,2.17,0,0,1,1.47.3,1.59,1.59,0,0,1,.75,1.19,2.89,2.89,0,0,1-.33,1.44,1.46,1.46,0,0,0-.18.77.74.74,0,0,0,.46.63,2.31,2.31,0,0,0,1.16.08c1.68-.22,3.1-1.34,4.25-3.34s2.34-6.95,3.58-14.83c.64-4.1,1-6.16,1.59-10.26a28.43,28.43,0,0,0,.42-3,1.6,1.6,0,0,0-1-1.22q-.94-.45-4.47,0c.07-.45.11-.67.17-1.11l8.6-1.13L245,687.2l1.3-8.29q2-12.79,3.62-15.32a5.6,5.6,0,0,1,4-2.85,3.86,3.86,0,0,1,2.35.29,1.73,1.73,0,0,1,1,1.36,1.52,1.52,0,0,1-.48,1.36,2.46,2.46,0,0,1-1.42.68,2.42,2.42,0,0,1-2-.86,1.31,1.31,0,0,0-1.17-.5c-.76.09-1.45,1.06-2.09,2.91s-1.52,6.29-2.63,13.36C246.49,685.41,246,688.45,245.06,694.53Z"/><path d="M271.63,676.9q-.61-5,2.22-11.2a25.35,25.35,0,0,1,7.74-10,20.8,20.8,0,0,1,9.85-4.39,16.74,16.74,0,0,1,5.85.4,11.4,11.4,0,0,1,6,3.85,14.29,14.29,0,0,1,3.33,8q1,8.49-5,16.56t-14.14,9.13A14.31,14.31,0,0,1,277,686.87Q272.45,683.69,271.63,676.9Zm5.89,1.91a15.55,15.55,0,0,0,1.53,5.63,7.45,7.45,0,0,0,3.24,3,8.43,8.43,0,0,0,4.95.71,11.85,11.85,0,0,0,7.72-4.72,27.56,27.56,0,0,0,5-11A33.47,33.47,0,0,0,301,661q-.58-4.73-3.22-6.78a8.07,8.07,0,0,0-6.3-1.58,12.17,12.17,0,0,0-7.69,4.56,26.34,26.34,0,0,0-5.11,10.55A30.43,30.43,0,0,0,277.52,678.81Z"/><path d="M334.54,676.85q10.33-16.64,20.68-33.27l10.53-1.39-.28,1.26a13.09,13.09,0,0,0-4.16,1,3.06,3.06,0,0,0-1.35,1.47,20,20,0,0,0-.8,3.85l-3.8,23a15.55,15.55,0,0,0-.35,3.08,2.07,2.07,0,0,0,1.61,1.81,7.57,7.57,0,0,0,3.22.22l1-.13c-.11.51-.17.76-.29,1.27l-17.62,2.32c.11-.5.17-.76.29-1.26l.74-.1a8.83,8.83,0,0,0,3.25-1,3.93,3.93,0,0,0,1.69-1.64,17.85,17.85,0,0,0,.91-3.78c1.74-10.32,2.61-15.48,4.34-25.79l-21.88,35-1.5.19q-3.84-14.19-7.69-28.39c-2.44,7.83-3.67,11.74-6.11,19.56-1.06,3.39-1.55,5.48-1.45,6.26a2.66,2.66,0,0,0,1.55,2.38,9,9,0,0,0,4.2.22c-.12.51-.17.76-.29,1.27l-14.17,1.87c.11-.51.17-.76.28-1.27a8.82,8.82,0,0,0,3.84-1.46,7.31,7.31,0,0,0,2.36-2.9,61.25,61.25,0,0,0,2.3-6.51l5.87-18.48a14.06,14.06,0,0,0,.89-4.09,2,2,0,0,0-.95-1.54,5.82,5.82,0,0,0-3.21-.15l-1.8.24c.1-.5.15-.76.26-1.26l9.82-1.3Z"/><path d="M380.24,677.27l-2.49.33q-.81-15.48-1.63-31c0-.69-.05-1-.08-1.72a2.31,2.31,0,0,0-1.32-2.08c-.74-.3-2.27-.3-4.59,0,0-.5,0-.74,0-1.23l16.91-2.23c0,.49,0,.73,0,1.23a12.08,12.08,0,0,0-3.83,1,3.28,3.28,0,0,0-1.62,1.5,7.94,7.94,0,0,0-.2,3c.57,9.73.86,14.59,1.42,24.31l15.06-24.67q1.92-3.16,1.79-4.21a2,2,0,0,0-1.29-1.65,9.36,9.36,0,0,0-4.27-.22c.09-.51.13-.76.22-1.26L408,636.61c-.11.51-.17.76-.29,1.27a7.7,7.7,0,0,0-4,2,32.5,32.5,0,0,0-4.53,6.25Q389.7,661.69,380.24,677.27Z"/><path d="M438.38,659.59l1.36-.18c-.86,3.77-1.3,5.65-2.16,9.42l-35.29,4.66c.12-.51.18-.76.29-1.27l.9-.12a8.05,8.05,0,0,0,3.18-1,4.09,4.09,0,0,0,1.65-1.6,20.3,20.3,0,0,0,1-3.58l5.38-23.7a14.3,14.3,0,0,0,.53-3.42c-.15-1.24-1.56-1.69-4.23-1.33l-1.25.16c.12-.51.18-.76.29-1.26l30.06-4c.45,3.2.68,4.8,1.14,8l-1.31.17a11,11,0,0,0-3-4.35,6,6,0,0,0-3.34-1.42,44.05,44.05,0,0,0-6.55.55l-5.48.73c-1.43,6.36-2.15,9.55-3.58,15.92l3.05-.41a16.64,16.64,0,0,0,6.46-1.89c1.41-.87,2.61-2.65,3.59-5.32l1.42-.19-3.3,14.61-1.43.19a11.28,11.28,0,0,0,0-2.72,5.11,5.11,0,0,0-1-2.9,2.7,2.7,0,0,0-1.82-.84,21.09,21.09,0,0,0-3.82.27l-3.45.46-2.6,11.56a16.51,16.51,0,0,0-.55,3.29,2,2,0,0,0,1.69,1.8,15.21,15.21,0,0,0,5.09-.08l2.46-.33q6.4-.84,9.62-3.2A15.18,15.18,0,0,0,438.38,659.59Z"/><path d="M473.55,664.43l-1.46.2L456.7,636.05c-.86,5.36-1.29,8-2.16,13.39a121.11,121.11,0,0,1-2.41,12.24,14.14,14.14,0,0,1-3.27,6.46,7.83,7.83,0,0,1-4.48,2.38,6.36,6.36,0,0,1-3.95-.59,3.27,3.27,0,0,1-1.87-2.59c-.21-1.78.48-2.78,2.07-3a2.5,2.5,0,0,1,1.67.34,1.77,1.77,0,0,1,.84,1.36,3.05,3.05,0,0,1-.37,1.62,2,2,0,0,0-.21.88.84.84,0,0,0,.53.7,2.43,2.43,0,0,0,1.31.09c1.9-.25,3.51-1.51,4.81-3.77s2.65-7.86,4.05-16.78c.72-4.65,1.08-7,1.81-11.62a32,32,0,0,0,.47-3.36,1.81,1.81,0,0,0-1.18-1.38q-1.07-.51-5.06,0l.2-1.26,9.73-1.28q7.09,13.14,14.2,26.28c.59-3.75.88-5.63,1.47-9.38q2.28-14.47,4.1-17.34a6.34,6.34,0,0,1,4.58-3.22,4.36,4.36,0,0,1,2.66.32,2,2,0,0,1,1.13,1.55,1.72,1.72,0,0,1-.55,1.53,2.59,2.59,0,0,1-3.89-.2,1.55,1.55,0,0,0-1.34-.57c-.85.11-1.63,1.21-2.36,3.29s-1.72,7.13-3,15.12C475.18,654.12,474.64,657.56,473.55,664.43Z"/><path d="M489.16,625.91l3-.4c1.76-.23,3.91-.54,6.42-1s4.08-.67,5.05-.8a24.69,24.69,0,0,1,10.51.56,13.09,13.09,0,0,1,7,4.79,15.83,15.83,0,0,1,3,7.61,18.38,18.38,0,0,1-.85,7.86,20.54,20.54,0,0,1-4.12,7.32,21.75,21.75,0,0,1-6.24,5,26.13,26.13,0,0,1-6.43,2.51q-3,.69-8.72,1.45l-16.94,2.23c.11-.5.17-.76.29-1.26l1.8-.24a8.16,8.16,0,0,0,3.18-1,4.16,4.16,0,0,0,1.65-1.6,19.69,19.69,0,0,0,1-3.58c2.16-9.48,3.24-14.22,5.39-23.7a14.87,14.87,0,0,0,.53-3.43c-.15-1.23-1.56-1.68-4.24-1.33l-1.61.22C489,626.67,489.05,626.42,489.16,625.91Zm11.91-.56q-3.33,14.6-6.65,29.17a13.05,13.05,0,0,0-.49,3.18c.2,1.67,2.43,2.23,6.67,1.67q9.67-1.27,14.1-8.62a22.91,22.91,0,0,0,3.5-14.9,12.86,12.86,0,0,0-4.38-8.71q-3.69-3.12-10.34-2.24C502.79,625,502,625.14,501.07,625.35Z"/><path d="M555.19,619.5q-3.16,13.86-6.32,27.73a13.81,13.81,0,0,0-.52,3.24,2,2,0,0,0,1.58,1.72,7.6,7.6,0,0,0,3.11.19l1.12-.15c-.12.51-.18.76-.29,1.26l-18.06,2.39c.11-.51.17-.76.29-1.27l.93-.12a9.13,9.13,0,0,0,3.27-1,4.4,4.4,0,0,0,1.79-1.65,19.33,19.33,0,0,0,1.16-3.82q3.21-14.06,6.43-28.12c-3.48.19-6.41.45-8.82.77a23.54,23.54,0,0,0-5.81,1.32c-1.26.54-1.84,1.18-1.75,1.91a3.27,3.27,0,0,0,.48,1.14,3.07,3.07,0,0,1,.45,1.05,1.6,1.6,0,0,1-.46,1.3,2.33,2.33,0,0,1-1.51.72,2.28,2.28,0,0,1-2-.54,2.58,2.58,0,0,1-.88-1.66c-.17-1.4.61-2.74,2.36-4s5-2.24,9.71-2.87c2.43-.32,7.06-.7,13.89-1.11q7.33-.45,11-.91c2.32-.31,3.55-1,3.66-2.06a1.27,1.27,0,0,1,1.17-1.27c1-.13,1.55.25,1.66,1.14q.35,2.85-6.83,3.8Q562.59,619.05,555.19,619.5Z"/><path d="M603.54,637.81l1.36-.18c-.86,3.77-1.3,5.65-2.16,9.42l-35.29,4.65c.12-.5.18-.76.29-1.26l.9-.12a8.05,8.05,0,0,0,3.18-1,4.16,4.16,0,0,0,1.65-1.6,20.3,20.3,0,0,0,1-3.58l5.38-23.7a14.29,14.29,0,0,0,.53-3.43c-.15-1.23-1.56-1.68-4.23-1.33l-1.25.17c.12-.51.17-.76.29-1.27l30.06-4c.45,3.2.68,4.8,1.13,8l-1.3.17a10.94,10.94,0,0,0-3-4.35,6,6,0,0,0-3.35-1.43,44.74,44.74,0,0,0-6.55.56l-5.47.72c-1.43,6.37-2.15,9.56-3.58,15.92l3-.4a16.64,16.64,0,0,0,6.47-1.89q2.11-1.32,3.58-5.32l1.43-.19L594.34,637l-1.43.18a11.73,11.73,0,0,0,0-2.71,5.18,5.18,0,0,0-1-2.91,2.79,2.79,0,0,0-1.82-.84,22.34,22.34,0,0,0-3.82.28l-3.45.46L580.23,643a16.66,16.66,0,0,0-.55,3.3,2,2,0,0,0,1.69,1.8,15,15,0,0,0,5.09-.09l2.46-.32q6.41-.84,9.62-3.2A15.25,15.25,0,0,0,603.54,637.81Z"/><path d="M641.85,642.87l-2.77.37q-.92-17.29-1.82-34.58l-.1-1.92a2.57,2.57,0,0,0-1.46-2.32q-1.25-.49-5.13,0c0-.55,0-.82,0-1.37l18.88-2.49c0,.55,0,.82,0,1.37a13.57,13.57,0,0,0-4.27,1.11,3.64,3.64,0,0,0-1.81,1.67,8.6,8.6,0,0,0-.22,3.37c.63,10.86,1,16.29,1.58,27.15q8.4-13.79,16.81-27.55c1.43-2.35,2.09-3.91,2-4.69a2.25,2.25,0,0,0-1.44-1.85,10.53,10.53,0,0,0-4.77-.25l.25-1.4,15.3-2-.32,1.41a8.72,8.72,0,0,0-4.51,2.23,36.68,36.68,0,0,0-5,7Z"/><path d="M706.75,623.13l1.53-.2-2.42,10.52-39.38,5.19c.13-.56.19-.84.32-1.41l1-.13a9,9,0,0,0,3.54-1.14,4.62,4.62,0,0,0,1.85-1.79,23.94,23.94,0,0,0,1.13-4c2.4-10.58,3.61-15.87,6-26.45a16.13,16.13,0,0,0,.59-3.82c-.17-1.39-1.74-1.88-4.73-1.49l-1.39.19.33-1.41,33.55-4.43c.51,3.57.76,5.36,1.27,8.93l-1.46.19a12.24,12.24,0,0,0-3.38-4.86,6.78,6.78,0,0,0-3.74-1.59,50.77,50.77,0,0,0-7.31.62l-6.1.81c-1.61,7.11-2.41,10.66-4,17.77l3.4-.45a18.56,18.56,0,0,0,7.22-2.11c1.57-1,2.91-3,4-5.94l1.6-.21c-1.48,6.52-2.21,9.78-3.69,16.31l-1.6.21a12.4,12.4,0,0,0,0-3,5.69,5.69,0,0,0-1.12-3.24,3.14,3.14,0,0,0-2-.94,25.33,25.33,0,0,0-4.27.31l-3.85.51-2.9,12.9a17.78,17.78,0,0,0-.61,3.68,2.26,2.26,0,0,0,1.88,2,16.93,16.93,0,0,0,5.69-.09l2.74-.37c4.76-.62,8.34-1.82,10.74-3.57A16.91,16.91,0,0,0,706.75,623.13Z"/><path d="M753.35,623.85l.93,1.28a14.76,14.76,0,0,1-7.58,3.5c-2.7.35-4.81-.06-6.32-1.25s-2.44-3.29-2.81-6.29c-.1-1-.16-1.44-.26-2.4a14.09,14.09,0,0,0-1.54-5.66,4.29,4.29,0,0,0-2.6-2,14.21,14.21,0,0,0-4.86,0l-1.73.23-2.77,12a17.11,17.11,0,0,0-.62,3.59,2.21,2.21,0,0,0,1.78,2,8.46,8.46,0,0,0,3.39.19l1-.13c-.13.57-.19.85-.32,1.41l-19,2.52c.13-.57.19-.85.32-1.41l.76-.1a9.21,9.21,0,0,0,3.57-1.14,4.51,4.51,0,0,0,1.84-1.79,24.58,24.58,0,0,0,1.12-4c2.4-10.58,3.6-15.87,6-26.45a16.79,16.79,0,0,0,.59-3.82,1.65,1.65,0,0,0-1.23-1.42,10.51,10.51,0,0,0-4.13,0c.13-.56.2-.84.33-1.41l12.32-1.62q5.13-.68,7.71-.8a15.82,15.82,0,0,1,5.4.75,10.06,10.06,0,0,1,4.49,2.63,7.24,7.24,0,0,1,2,4.2q.56,4.56-3.5,8.19t-13.67,5.13q5.26.89,7.57,3.32a13.67,13.67,0,0,1,3.13,7.19,12.18,12.18,0,0,0,1.5,4.8,2.91,2.91,0,0,0,2.93.89A9.85,9.85,0,0,0,753.35,623.85ZM726.91,610l1.39-.18c5.92-.79,10.23-2.32,12.94-4.62a9.26,9.26,0,0,0,3.43-8.6,6.11,6.11,0,0,0-3.35-5.08c-1.94-1-4.71-1.2-8.29-.73-.56.07-1.16.17-1.8.29Z"/><path d="M762,585.73l3.4-.44c2-.26,4.37-.61,7.17-1.07s4.55-.75,5.63-.89a27.69,27.69,0,0,1,11.73.62,14.67,14.67,0,0,1,7.78,5.35,17.87,17.87,0,0,1,3.38,8.49,20.49,20.49,0,0,1-1,8.78,22.9,22.9,0,0,1-4.59,8.17,24.28,24.28,0,0,1-7,5.62,29.48,29.48,0,0,1-7.18,2.8c-2.23.52-5.47,1.05-9.73,1.62l-18.91,2.49c.13-.57.19-.85.32-1.41l2-.27a9,9,0,0,0,3.55-1.13,4.65,4.65,0,0,0,1.84-1.79,23.26,23.26,0,0,0,1.14-4c2.4-10.58,3.6-15.87,6-26.45a16.78,16.78,0,0,0,.59-3.83c-.17-1.38-1.75-1.88-4.73-1.48l-1.81.23Zm13.28-.62-7.41,32.55a15,15,0,0,0-.56,3.56q.35,2.81,7.46,1.87,10.78-1.43,15.73-9.63a25.6,25.6,0,0,0,3.91-16.63,14.44,14.44,0,0,0-4.89-9.73q-4.12-3.47-11.55-2.49C777.17,584.71,776.27,584.88,775.24,585.11Z"/><path d="M843,605.16l1.53-.2c-1,4.21-1.46,6.31-2.42,10.52l-39.39,5.19c.13-.56.19-.84.32-1.41l1-.13a9.11,9.11,0,0,0,3.55-1.14,4.63,4.63,0,0,0,1.84-1.78,22.62,22.62,0,0,0,1.13-4l6-26.45a16.85,16.85,0,0,0,.59-3.83q-.25-2.07-4.73-1.49l-1.39.19c.13-.57.19-.85.32-1.41l33.56-4.43c.5,3.57.76,5.36,1.26,8.93l-1.46.2a12.2,12.2,0,0,0-3.37-4.87,6.8,6.8,0,0,0-3.74-1.59,49.59,49.59,0,0,0-7.31.63l-6.11.8-4,17.77,3.4-.44a18.77,18.77,0,0,0,7.22-2.12q2.35-1.47,4-5.93l1.59-.21-3.68,16.3-1.6.21a12.91,12.91,0,0,0,0-3,5.77,5.77,0,0,0-1.12-3.24,3.08,3.08,0,0,0-2-.93,23.17,23.17,0,0,0-4.26.31l-3.85.5c-1.17,5.16-1.75,7.74-2.91,12.9a19.56,19.56,0,0,0-.61,3.68,2.24,2.24,0,0,0,1.89,2,16.87,16.87,0,0,0,5.68-.09l2.74-.36q7.16-.94,10.74-3.58A16.85,16.85,0,0,0,843,605.16Z"/><path d="M882.26,610.57l-1.63.21-17.19-31.89L861,593.83q-1.38,8.74-2.69,13.66c-.89,3.28-2.1,5.69-3.65,7.22a8.74,8.74,0,0,1-5,2.65,7.14,7.14,0,0,1-4.42-.65,3.66,3.66,0,0,1-2.08-2.89q-.37-3,2.31-3.34a2.76,2.76,0,0,1,1.86.38,2,2,0,0,1,.94,1.51,3.49,3.49,0,0,1-.41,1.81,2,2,0,0,0-.24,1,1,1,0,0,0,.59.79,2.88,2.88,0,0,0,1.46.1q3.19-.42,5.38-4.22t4.52-18.73c.8-5.18,1.2-7.77,2-13a34,34,0,0,0,.53-3.76,2,2,0,0,0-1.32-1.53c-.79-.38-2.68-.4-5.64,0,.08-.56.13-.84.21-1.4L866.27,572l15.84,29.33,1.65-10.47q2.55-16.15,4.57-19.35a7.11,7.11,0,0,1,5.12-3.6,5,5,0,0,1,3,.36,2.25,2.25,0,0,1,1.27,1.72,2,2,0,0,1-.62,1.72,3.08,3.08,0,0,1-1.79.86,3,3,0,0,1-2.56-1.09,1.71,1.71,0,0,0-1.49-.64q-1.43.2-2.64,3.68t-3.31,16.88C884.07,599.06,883.46,602.89,882.26,610.57Z"/></symbol><symbol id="f3" data-name="f3" viewBox="0 0 484.15 307.24"><path class="cls-1" d="M125.9,181.67c-38,23.13-76.6,38.16-115.61,58.51.53,14.68,7.08,22.15,20.36,27.94C56.69,249.7,126.24,220,125.9,181.67Z"/><path class="cls-2" d="M130.82,194.57C100.43,234.43,70,254.46,34.8,288c1.42,15.41,3.68,23.81,20.51,16.56C60,299.45,152.13,197.16,130.82,194.57Z"/><path class="cls-3" d="M128.18,188c-40.11,37.84-82.26,57.86-125.85,90-1.1,19.87,2,27.62,23.29,24.1C59.25,270.31,120.06,236.7,128.18,188Z"/><path class="cls-4" d="M192.29,216.11c-10.6,13.89-6.08,31.41-3.8,41.47s-17.29,2.7-15.7,12.65c6-1,10.1-.76,17.27-1.12s19.14-2.27,26.68.81a57.45,57.45,0,0,1,6.75,3.82,18.47,18.47,0,0,0-1.49-9.18c3.33.37,6,2,8.75,3.79-1.26-23.35-17.14-16.27-33.54-10.79-10.16-19.44-4.1-22.92,8.77-39C201.51,217.87,196.31,216.27,192.29,216.11Z"/><path class="cls-4" d="M156.6,220.73c2.75,14-.12,22.31-8.56,24s-5.11-18-13.91-16.31c1.62,6.1,1.84,10.76,3.23,17.84s4.27,17.88,2,25.61a63.7,63.7,0,0,1-3.24,7.45,19.66,19.66,0,0,0,9.18-2.88c-.06,3.48-1.48,6.41-3,9.47,22-4.42,16.35-17.76,8-33.7,15.67-7.3,13.91-11.55,18.9-27.76C164.78,223.06,161.67,220.73,156.6,220.73Z"/><path class="cls-5" d="M139.3,273c.3-.15,4.28,3.92,5.47,3.69-1.53,1.66-7.13,3.24-8.45,2.71C135.6,279.08,139,273.14,139.3,273Z"/><path class="cls-5" d="M141.94,276.25"/><path class="cls-5" d="M145.1,278.73a13.53,13.53,0,0,0,6.8,4.32,25.82,25.82,0,0,1-10.15,2.8A17.84,17.84,0,0,0,145.1,278.73Z"/><path class="cls-5" d="M134.27,227.67c.51,3.42.86,6.86,1.42,10.27,1.78-.46,3.58-.89,5.33-1.47C140.07,234.65,137.22,227.09,134.27,227.67Z"/><path d="M2,174.47"/><path class="cls-6" d="M209.52,135.53c-12.29,15.27-40,42.73-24.11,63.43-153,48.37-27.71-106.31,21.7-123.46,6.32-23.51,18.48-47.94,38.11-63.15,9-6.63,20-11.38,31-12.14,29.89-2.05,63.25,10.58,60,45.71C286.91,64.72,244.26,96.13,209.52,135.53Z"/><path d="M302.11,3.12c-16-.2-21.54,3.71-22.2,20C284.05,11.88,290.37,5.91,302.11,3.12Z"/><path d="M309,17.08c-12.35-5.38-22.1-6.08-29,6.76C288.87,16.15,297.61,14.67,309,17.08Z"/><path class="cls-6" d="M215.42,204.28c1.59,10-8,21.71-20.74,18.08-9.55-2.71-6.45-17.83-5.13-25s6.85-22.85,14.88-18S213.94,194.91,215.42,204.28Z"/><path class="cls-6" d="M179.25,210.7c-.93,7.38-8.9,22.39-18.84,18.72-7.45-2.76-14.08-12.47-7.15-17.79s9.1-22.85,18-22.29S180.11,203.78,179.25,210.7Z"/><path class="cls-5" d="M217.81,270c-.09-.32,4.38-3.78,4.34-5,1.41,1.67,2.13,7.24,1.43,8.45C223.19,274.17,217.9,270.35,217.81,270Z"/><path class="cls-5" d="M218.23,269.58"/><path class="cls-5" d="M224.18,264.92a14,14,0,0,0,5.15-6.22,24.79,24.79,0,0,1,1.28,10.12A16.17,16.17,0,0,0,224.18,264.92Z"/><path class="cls-5" d="M172,269.92c3.27-.11,6.54-.19,9.81-.29-.37-1.94-.87-3.85-1.34-5.77C178.67,264.79,171.87,267.22,172,269.92Z"/><path class="cls-6" d="M206.38,76.46c-20.61,43.69-59.88,86.35-93,116.18-20.5,18.44-22.27,14.49-36.64,2.92-19.19,6.07-32.64,7-44.93-12C19.15,185.18,6.87,186.15,0,173.83,43.08,141.7,152.85,41.12,206.38,76.46Z"/><path class="cls-7" d="M184.41,200.31"/><path class="cls-7" d="M327.24,59.12"/><path class="cls-8" d="M280.65,123.51c17.07-19.44,59.19-59.3,45.53-87.83-47.59-39.31-88.06-12-89.57,45.94-3.24,26.47-83.78,104.92-52.72,118.56C235,188.82,251.62,168.23,280.65,123.51Z"/><path class="cls-9" d="M296.16,97.24c15.67,4.76,30.87,8.31,47.34,7.57,7.84,35.3,45.83,25.18,58.5,58.73C350.59,163.57,322.43,138.77,296.16,97.24Z"/><path class="cls-4" d="M291.5,96.83C316,106.29,340,108.15,366,105c45.15-2.87,87.22,12.05,116.49,47.25,3.35-108.35-45.21-118-144.61-113.36C332.51,66.59,319.22,87.92,291.5,96.83Z"/><path class="cls-10" d="M483.09,131.29c3.86-35.86-1.72-60.18-34.51-79.14C387.8,69.05,459.58,118.75,483.09,131.29Z"/><path class="cls-11" d="M304.41,108.12c10.54,13,23.7,35.1,43.09,30.17-5.15-21-19.11-30.09-38.65-37.18Z"/><path class="cls-4" d="M402,163.45c-43,14.5-77-1.76-110.1-29.31,1.34-9.6,7.54-18.09,12.63-26.07C330.17,138.38,360.22,164,402,163.45Z"/><path class="cls-10" d="M338.35,38.37c-3.44,31.54-47.67,75.46-45.41,96.76-16.71-7.54-10.67-31.49-8.26-45.55,27.95-8.39,40.19-22.56,42.61-51.94C331,37.87,334.67,38.1,338.35,38.37Z"/><path class="cls-12" d="M250.28,67.9c7.42,14.89,27.77,12.89,41,7.56s27.33-18.73,20.25-33.93S285,27.62,271.65,33.12,242.85,53,250.28,67.9Z"/><path class="cls-13" d="M301.08,55.9c0,10.27-8.17,17.33-18,17.68s-18.42-5.84-18.74-16.1S272.48,40,282.46,39.55,301.06,45.63,301.08,55.9Z"/><path d="M294.05,56.14c-.15,6.18-5.05,10.38-11,10.61S272,63.19,271.85,57s5-10.36,10.95-10.62S294.2,50,294.05,56.14Z"/><path class="cls-12" d="M285.56,73.25a6.13,6.13,0,0,1-6.19,6c-3.36.11-6.28-2-6.34-5.53s2.91-6,6.31-6.14S285.55,69.78,285.56,73.25Z"/><path d="M119.29,159.56c-13.31,13.33-24.86,29.29-43,36,1.35,2.17,2.94,5,5.61,5.62C98.8,191.91,108.05,174.61,119.29,159.56Z"/><path d="M78.51,162c-14.13,11.62-29,18-47,21.34.67,1.72,1.47,3.67,3.3,4.38C53.1,184.05,66.18,175.82,78.51,162Z"/><path d="M115.31,191.07c-.8.69-1.59,1.37-2.36,2.1,7.66-9.77,15.22-19.58,23.21-29.1C129.64,173.43,123,182.66,115.31,191.07Z"/></symbol><symbol id="f33" data-name="f33" viewBox="0 0 870.63 763.22"><use width="484.15" height="307.24" transform="translate(27.21)" xlink:href="#f3"/><path class="cls-22" d="M10.16,478.91l847.21,32.56s14.44,17,12.6,23.65-9.84,7.15-6.57,25.66c0,0-2.45,22.47,1.24,30.13,0,0,4.35,11-6,32.37l-12.85,2.84,2.79,10.14,12.73.49-.11,6-8.77,3.63,5.21,4.73-5.06,5.46,3.55,5.79,5.38.21s3.92,10.34.56,13.6l-4.55,6,.9,32.86s6.12,5.32,4.36,10.91l-.45,18.09-7.71-.29s-1.77,3.89-.22,5.65l4.85.18s-3.11,10.64,0,13L.52,729.66Z"/><polygon class="cls-15" points="7.59 545.73 231.46 554.34 220.64 561.66 7.59 545.73"/><path class="cls-15" d="M592.75,644c0-1.1,97.26-8.42,97.26-8.42L675.87,647.2l-213.62,9.47Z"/><polygon class="cls-23" points="351.02 541.24 797.1 558.39 818.94 565.86 636.51 569.9 351.02 541.24"/><polygon class="cls-24" points="530.79 697.52 84.72 680.11 62.88 672.62 245.32 668.69 530.79 697.52"/><ellipse class="cls-18" cx="478.4" cy="530.36" rx="33.44" ry="22.64" transform="translate(-69.94 988.05) rotate(-87.8)"/><ellipse class="cls-15" cx="478.16" cy="536.73" rx="22.64" ry="15.79" transform="translate(-76.54 993.93) rotate(-87.8)"/><ellipse class="cls-18" cx="478.06" cy="539.36" rx="15.6" ry="10" transform="translate(-79.26 996.35) rotate(-87.8)"/><ellipse class="cls-18" cx="107.37" cy="465.78" rx="25.45" ry="20.56" transform="translate(-362.19 555.18) rotate(-87.8)"/><ellipse class="cls-18" cx="113.45" cy="421.82" rx="25.45" ry="20.56" transform="translate(-312.41 518.99) rotate(-87.8)"/><ellipse class="cls-18" cx="280.07" cy="241.08" rx="25.45" ry="20.56" transform="translate(28.41 511.69) rotate(-87.8)"/><ellipse class="cls-18" cx="251.58" cy="255.54" rx="25.45" ry="20.56" transform="translate(-13.44 497.12) rotate(-87.8)"/><ellipse class="cls-18" cx="230.29" cy="274.09" rx="25.45" ry="20.56" transform="translate(-52.44 493.69) rotate(-87.8)"/><ellipse class="cls-18" cx="208.77" cy="298.73" rx="25.45" ry="20.56" transform="translate(-97.76 495.88) rotate(-87.8)"/><ellipse class="cls-18" cx="179.55" cy="317.17" rx="25.45" ry="20.56" transform="translate(-144.28 484.41) rotate(-87.8)"/><ellipse class="cls-18" cx="153.06" cy="347.53" rx="25.45" ry="20.56" transform="translate(-200.09 487.12) rotate(-87.8)"/><ellipse class="cls-18" cx="131.14" cy="382.4" rx="25.45" ry="20.56" transform="translate(-256.01 498.76) rotate(-87.8)"/><ellipse class="cls-18" cx="106.15" cy="497.36" rx="25.45" ry="20.56" transform="translate(-394.92 584.33) rotate(-87.8)"/><ellipse class="cls-18" cx="454.07" cy="147.15" rx="25.45" ry="20.56" transform="translate(289.59 595.24) rotate(-87.8)"/><ellipse class="cls-18" cx="419.01" cy="155.46" rx="25.45" ry="20.56" transform="translate(247.57 568.18) rotate(-87.8)"/><ellipse class="cls-18" cx="389.67" cy="174.87" rx="20.56" ry="25.45"/><ellipse class="cls-18" cx="355.62" cy="186.7" rx="25.45" ry="20.56" transform="translate(155.4 534.88) rotate(-87.8)"/><ellipse class="cls-18" cx="328.57" cy="202.92" rx="25.45" ry="20.56" transform="translate(113.18 523.45) rotate(-87.8)"/><ellipse class="cls-18" cx="307.24" cy="222.64" rx="25.45" ry="20.56" transform="translate(72.96 521.1) rotate(-87.8)"/><ellipse class="cls-18" cx="760.82" cy="513.24" rx="25.45" ry="20.56" transform="translate(194.21 1235.18) rotate(-85.88)"/><ellipse class="cls-18" cx="759.96" cy="468.85" rx="25.45" ry="20.56" transform="translate(237.68 1193.13) rotate(-85.88)"/><ellipse class="cls-18" cx="615.86" cy="269.08" rx="25.45" ry="20.56" transform="translate(303.19 864) rotate(-85.88)"/><ellipse class="cls-18" cx="642.44" cy="286.91" rx="25.45" ry="20.56" transform="translate(310.08 907.06) rotate(-85.88)"/><ellipse class="cls-18" cx="661.38" cy="307.93" rx="25.45" ry="20.56" transform="translate(306.69 945.46) rotate(-85.88)"/><ellipse class="cls-18" cx="679.84" cy="335.02" rx="25.45" ry="20.56" transform="translate(296.81 989.01) rotate(-85.88)"/><ellipse class="cls-18" cx="706.67" cy="356.89" rx="25.45" ry="20.56" transform="translate(299.89 1036.08) rotate(-85.88)"/><ellipse class="cls-18" cx="729.4" cy="390.26" rx="25.45" ry="20.56" transform="translate(287.71 1089.71) rotate(-85.88)"/><ellipse class="cls-18" cx="747.04" cy="427.56" rx="25.45" ry="20.56" transform="matrix(0.07, -1, 1, 0.07, 266.88, 1141.93)"/><ellipse class="cls-18" cx="488.02" cy="167.11" rx="25.45" ry="20.56" transform="translate(286.25 641.85) rotate(-85.88)"/><ellipse class="cls-18" cx="515.53" cy="184.63" rx="25.44" ry="20.56" transform="translate(275.03 676.59) rotate(-83.65)"/><ellipse class="cls-18" cx="547.26" cy="205.87" rx="25.45" ry="20.56" transform="translate(302.58 736.91) rotate(-85.88)"/><ellipse class="cls-18" cx="572.21" cy="225.27" rx="25.45" ry="20.56" transform="matrix(0.07, -1, 1, 0.07, 306.38, 779.8)"/><ellipse class="cls-18" cx="591.06" cy="247.46" rx="25.45" ry="20.56" transform="translate(301.74 819.19) rotate(-85.88)"/><path d="M40,700.8l-.24,1.06-14.89,2,.24-1.06.81-.1a6.72,6.72,0,0,0,2.67-.86A3.33,3.33,0,0,0,30,700.46a18.89,18.89,0,0,0,.83-3c1.8-7.93,2.69-11.9,4.49-19.83a12.22,12.22,0,0,0,.47-2.85c-.13-1-1.31-1.43-3.55-1.14l-.94.13c.1-.43.15-.64.24-1.06l13.88-1.83-.25,1.06-.73.09a6.73,6.73,0,0,0-2.21.67,2.84,2.84,0,0,0-1.32,1.23,21.32,21.32,0,0,0-1,3.58c-1.74,7.65-2.61,11.47-4.36,19.11a11.88,11.88,0,0,0-.43,2.73,1.65,1.65,0,0,0,1.3,1.43,6.17,6.17,0,0,0,2.6.15Z"/><path d="M67.28,666.32,70,666c1.56-.2,3.46-.48,5.68-.84s3.6-.59,4.46-.71a22,22,0,0,1,9.28.5,11.58,11.58,0,0,1,6.16,4.23,14.17,14.17,0,0,1,2.68,6.72,16.44,16.44,0,0,1-.76,6.95,18.15,18.15,0,0,1-3.64,6.47,19.53,19.53,0,0,1-5.51,4.45A23.65,23.65,0,0,1,82.63,696c-1.77.41-4.33.83-7.7,1.28l-15,2,.25-1.12,1.59-.21a7.16,7.16,0,0,0,2.81-.9,3.67,3.67,0,0,0,1.46-1.41,17.83,17.83,0,0,0,.9-3.17c1.9-8.38,2.85-12.56,4.76-20.94a13,13,0,0,0,.47-3c-.14-1.09-1.39-1.49-3.75-1.17l-1.43.18C67.13,667,67.18,666.76,67.28,666.32Zm10.52-.49c-2.35,10.3-3.53,15.46-5.88,25.77a11.94,11.94,0,0,0-.43,2.81c.18,1.48,2.14,2,5.9,1.48q8.53-1.12,12.45-7.62a20.28,20.28,0,0,0,3.1-13.17,11.4,11.4,0,0,0-3.87-7.7q-3.27-2.74-9.14-2C79.32,665.51,78.61,665.64,77.8,665.83Z"/><path d="M131.43,681.7l1.21-.16c-.77,3.33-1.15,5-1.92,8.33L99.54,694c.1-.45.15-.67.26-1.12l.79-.1a7.16,7.16,0,0,0,2.81-.9,3.68,3.68,0,0,0,1.46-1.42,17.56,17.56,0,0,0,.9-3.17c1.9-8.37,2.85-12.56,4.76-20.94a13.52,13.52,0,0,0,.47-3c-.14-1.1-1.39-1.49-3.75-1.18l-1.1.14c.1-.44.15-.66.26-1.11l26.56-3.5,1,7.07-1.15.15a9.77,9.77,0,0,0-2.67-3.85,5.31,5.31,0,0,0-3-1.26,39.61,39.61,0,0,0-5.79.49l-4.84.64c-1.26,5.63-1.9,8.44-3.17,14.07l2.7-.35a14.71,14.71,0,0,0,5.71-1.68c1.25-.77,2.3-2.34,3.17-4.7l1.26-.16L123.3,681l-1.26.17a10.15,10.15,0,0,0,0-2.4,4.58,4.58,0,0,0-.88-2.57,2.5,2.5,0,0,0-1.62-.74,19.11,19.11,0,0,0-3.37.24l-3.05.41-2.3,10.21a14.22,14.22,0,0,0-.48,2.91,1.78,1.78,0,0,0,1.49,1.59,13.28,13.28,0,0,0,4.5-.07l2.17-.29c3.77-.5,6.61-1.44,8.5-2.83A13.38,13.38,0,0,0,131.43,681.7Z"/><path d="M162.51,686l-1.29.17-13.6-25.25c-.76,4.73-1.14,7.1-1.91,11.83a110,110,0,0,1-2.12,10.81,12.64,12.64,0,0,1-2.89,5.72,7,7,0,0,1-4,2.1,5.7,5.7,0,0,1-3.5-.52,2.92,2.92,0,0,1-1.65-2.29q-.28-2.35,1.83-2.64a2.17,2.17,0,0,1,1.47.3,1.54,1.54,0,0,1,.75,1.2,2.67,2.67,0,0,1-.33,1.43,1.69,1.69,0,0,0-.18.77.76.76,0,0,0,.47.63,2.27,2.27,0,0,0,1.15.08c1.68-.22,3.1-1.34,4.25-3.34s2.35-7,3.58-14.83l1.6-10.26a28.43,28.43,0,0,0,.42-3,1.62,1.62,0,0,0-1-1.22c-.63-.3-2.13-.31-4.47,0,.06-.45.1-.67.17-1.11l8.6-1.13c5,9.29,7.52,13.93,12.54,23.22.52-3.32.79-5,1.31-8.29q2-12.79,3.61-15.32a5.63,5.63,0,0,1,4.05-2.85,3.84,3.84,0,0,1,2.35.29,1.74,1.74,0,0,1,1,1.36,1.56,1.56,0,0,1-.49,1.36,2.29,2.29,0,0,1-3.44-.18,1.34,1.34,0,0,0-1.18-.5c-.75.09-1.45,1.06-2.09,2.91s-1.51,6.29-2.63,13.36Z"/><path d="M189.08,668.35q-.6-5,2.22-11.2a25.44,25.44,0,0,1,7.74-10,20.83,20.83,0,0,1,9.86-4.39,16.67,16.67,0,0,1,5.84.4,11.43,11.43,0,0,1,6,3.85,14.36,14.36,0,0,1,3.33,8q1,8.49-5,16.56T205,680.71a14.31,14.31,0,0,1-10.56-2.39Q189.92,675.14,189.08,668.35Zm5.89,1.91a15.53,15.53,0,0,0,1.54,5.63,7.34,7.34,0,0,0,3.24,3,8.4,8.4,0,0,0,4.95.71,11.83,11.83,0,0,0,7.71-4.72,27.42,27.42,0,0,0,5-11,33.47,33.47,0,0,0,1.07-11.46q-.57-4.73-3.21-6.78a8.1,8.1,0,0,0-6.31-1.58,12.12,12.12,0,0,0-7.68,4.56,26.21,26.21,0,0,0-5.11,10.55A30.46,30.46,0,0,0,195,670.26Z"/><path d="M252,668.3,272.67,635l10.54-1.39c-.12.5-.18.76-.29,1.26a13.26,13.26,0,0,0-4.16,1,3.06,3.06,0,0,0-1.35,1.47,20.79,20.79,0,0,0-.8,3.85c-1.51,9.19-2.27,13.79-3.79,23a14.77,14.77,0,0,0-.35,3.08,2.06,2.06,0,0,0,1.61,1.81,7.36,7.36,0,0,0,3.21.22l1-.13c-.12.51-.18.76-.29,1.27l-17.63,2.32c.12-.5.18-.76.29-1.26l.75-.1a8.84,8.84,0,0,0,3.24-1,3.93,3.93,0,0,0,1.69-1.64,18.31,18.31,0,0,0,.92-3.78c1.73-10.32,2.6-15.48,4.34-25.79q-10.95,17.49-21.89,35l-1.49.19q-3.85-14.19-7.7-28.39c-2.44,7.83-3.66,11.74-6.11,19.56q-1.59,5.09-1.45,6.26a2.65,2.65,0,0,0,1.56,2.38,9,9,0,0,0,4.19.22c-.11.51-.17.76-.28,1.27l-14.18,1.87c.12-.51.17-.76.29-1.27a8.73,8.73,0,0,0,3.83-1.46,7.25,7.25,0,0,0,2.37-2.9,66.28,66.28,0,0,0,2.3-6.51c2.34-7.39,3.51-11.09,5.86-18.48a14.06,14.06,0,0,0,.89-4.09,1.94,1.94,0,0,0-.94-1.54,5.84,5.84,0,0,0-3.21-.15l-1.81.24c.11-.5.16-.76.26-1.26l9.82-1.3Q247.95,653.56,252,668.3Z"/><path d="M297.69,668.72l-2.49.33-1.63-31c0-.69-.05-1-.08-1.72a2.3,2.3,0,0,0-1.31-2.08c-.74-.3-2.28-.3-4.6,0,0-.49,0-.74,0-1.23l16.91-2.23c0,.49,0,.73,0,1.23a12,12,0,0,0-3.82,1,3.2,3.2,0,0,0-1.62,1.5,7.54,7.54,0,0,0-.2,3c.57,9.73.85,14.59,1.42,24.31l15.05-24.67q1.92-3.16,1.8-4.21a2,2,0,0,0-1.3-1.65,9.35,9.35,0,0,0-4.27-.22c.09-.51.14-.76.23-1.26l13.71-1.81c-.12.51-.18.76-.29,1.27a7.73,7.73,0,0,0-4,2,33.4,33.4,0,0,0-4.53,6.25Z"/><path d="M355.83,651l1.37-.18L355,660.28l-35.28,4.66c.11-.51.17-.76.29-1.27l.9-.12a8.05,8.05,0,0,0,3.17-1,4.06,4.06,0,0,0,1.66-1.6,20.58,20.58,0,0,0,1-3.58c2.16-9.48,3.23-14.22,5.39-23.7a14.88,14.88,0,0,0,.53-3.42c-.15-1.24-1.57-1.69-4.24-1.33l-1.24.16c.11-.51.17-.76.29-1.26l30.05-4c.46,3.2.69,4.8,1.14,8l-1.31.17a10.9,10.9,0,0,0-3-4.35,6,6,0,0,0-3.35-1.42,44.15,44.15,0,0,0-6.55.55l-5.47.73c-1.44,6.36-2.15,9.55-3.59,15.92l3-.41a16.58,16.58,0,0,0,6.46-1.89c1.41-.87,2.61-2.65,3.59-5.32l1.43-.19c-1.32,5.85-2,8.77-3.31,14.61l-1.42.19a11.79,11.79,0,0,0,0-2.72,5.11,5.11,0,0,0-1-2.9,2.71,2.71,0,0,0-1.83-.84,20.94,20.94,0,0,0-3.81.27l-3.45.46c-1.05,4.62-1.57,6.93-2.61,11.56a16.12,16.12,0,0,0-.54,3.29,2,2,0,0,0,1.69,1.8,15.21,15.21,0,0,0,5.09-.08l2.45-.33q6.41-.84,9.62-3.2A15.1,15.1,0,0,0,355.83,651Z"/><path d="M391,655.88l-1.46.2-15.4-28.58L372,640.89a124,124,0,0,1-2.41,12.24,14.14,14.14,0,0,1-3.27,6.46,7.86,7.86,0,0,1-4.48,2.38,6.38,6.38,0,0,1-4-.59,3.28,3.28,0,0,1-1.86-2.59c-.22-1.78.47-2.78,2.06-3a2.49,2.49,0,0,1,1.67.34,1.8,1.8,0,0,1,.85,1.36,3.15,3.15,0,0,1-.37,1.62,1.72,1.72,0,0,0-.21.88.83.83,0,0,0,.52.7,2.44,2.44,0,0,0,1.31.09c1.91-.25,3.51-1.51,4.82-3.77s2.65-7.86,4-16.79c.73-4.64,1.09-7,1.81-11.61a29.13,29.13,0,0,0,.47-3.36,1.82,1.82,0,0,0-1.17-1.38q-1.08-.51-5.06,0c.08-.51.11-.76.19-1.26l9.73-1.28,14.2,26.28c.59-3.75.89-5.63,1.48-9.38q2.28-14.48,4.09-17.34a6.38,6.38,0,0,1,4.58-3.22,4.35,4.35,0,0,1,2.66.32,2,2,0,0,1,1.14,1.55,1.73,1.73,0,0,1-.56,1.53,2.66,2.66,0,0,1-1.59.77,2.69,2.69,0,0,1-2.3-1,1.53,1.53,0,0,0-1.33-.57c-.85.11-1.64,1.21-2.37,3.29s-1.71,7.13-3,15.12Z"/><path d="M406.62,617.36l3-.4c1.77-.23,3.92-.54,6.43-1s4.07-.67,5.05-.8a24.64,24.64,0,0,1,10.5.56,13.05,13.05,0,0,1,7,4.79,16,16,0,0,1,3,7.61,18.4,18.4,0,0,1-.86,7.86,20.52,20.52,0,0,1-4.11,7.32,22,22,0,0,1-6.24,5,26.19,26.19,0,0,1-6.44,2.51c-2,.46-4.9.94-8.72,1.45l-16.94,2.23c.12-.5.18-.76.29-1.26l1.8-.24a8.05,8.05,0,0,0,3.18-1,4.16,4.16,0,0,0,1.65-1.6,20.58,20.58,0,0,0,1-3.58l5.38-23.7a14.29,14.29,0,0,0,.53-3.43c-.15-1.23-1.56-1.68-4.23-1.33l-1.62.22C406.44,618.12,406.5,617.87,406.62,617.36Zm11.9-.56q-3.31,14.6-6.64,29.17a13.29,13.29,0,0,0-.5,3.18q.3,2.51,6.68,1.67,9.66-1.27,14.09-8.62a23,23,0,0,0,3.51-14.9,12.94,12.94,0,0,0-4.38-8.71c-2.47-2.08-5.91-2.82-10.35-2.24C420.25,616.44,419.44,616.59,418.52,616.8Z"/><path d="M472.64,611q-3.15,13.86-6.31,27.73a14.07,14.07,0,0,0-.53,3.24,2,2,0,0,0,1.59,1.72,7.56,7.56,0,0,0,3.1.19l1.12-.15-.29,1.26-18.06,2.39c.12-.51.17-.76.29-1.27l.93-.12a9.12,9.12,0,0,0,3.28-1,4.36,4.36,0,0,0,1.78-1.65,18.65,18.65,0,0,0,1.16-3.82q3.23-14.06,6.43-28.12-5.2.28-8.81.77a23.32,23.32,0,0,0-5.81,1.32c-1.26.54-1.85,1.18-1.76,1.91a3.55,3.55,0,0,0,.49,1.14,3,3,0,0,1,.44,1,1.54,1.54,0,0,1-.46,1.3,2.66,2.66,0,0,1-3.48.18,2.62,2.62,0,0,1-.88-1.66c-.17-1.4.61-2.74,2.37-4s5-2.24,9.7-2.87c2.43-.32,7.07-.7,13.89-1.11q7.33-.45,11-.91c2.32-.31,3.55-1,3.67-2.06a1.26,1.26,0,0,1,1.17-1.27q1.49-.2,1.65,1.14c.23,1.9-2,3.17-6.83,3.8Q480,610.5,472.64,611Z"/><path d="M521,629.26l1.37-.18-2.17,9.42-35.28,4.65.28-1.26.91-.12a8.05,8.05,0,0,0,3.17-1,4.13,4.13,0,0,0,1.66-1.6,21.56,21.56,0,0,0,1-3.58c2.15-9.48,3.23-14.22,5.39-23.7a14.87,14.87,0,0,0,.53-3.43c-.16-1.23-1.57-1.68-4.24-1.33l-1.24.17c.11-.51.17-.76.28-1.27l30.06-4c.46,3.2.68,4.8,1.14,8l-1.31.17a10.93,10.93,0,0,0-3-4.35,6.05,6.05,0,0,0-3.35-1.43,44.65,44.65,0,0,0-6.55.56l-5.47.72c-1.44,6.37-2.15,9.56-3.59,15.92l3.05-.4a16.64,16.64,0,0,0,6.46-1.89q2.12-1.32,3.59-5.32l1.43-.19c-1.32,5.84-2,8.76-3.31,14.61l-1.43.18a11.2,11.2,0,0,0,0-2.71,5.18,5.18,0,0,0-1-2.91,2.84,2.84,0,0,0-1.83-.84,22.4,22.4,0,0,0-3.82.28l-3.45.46-2.6,11.55a15.51,15.51,0,0,0-.54,3.3,2,2,0,0,0,1.68,1.8,15.08,15.08,0,0,0,5.1-.09l2.45-.32q6.4-.84,9.62-3.2A15.18,15.18,0,0,0,521,629.26Z"/><path d="M559.31,634.32l-2.78.37q-.91-17.3-1.82-34.58c0-.77-.06-1.15-.09-1.92a2.59,2.59,0,0,0-1.47-2.32q-1.24-.5-5.13,0l.05-1.37L567,592l-.05,1.37a13.64,13.64,0,0,0-4.27,1.11,3.68,3.68,0,0,0-1.81,1.67,8.81,8.81,0,0,0-.22,3.37c.63,10.86.95,16.29,1.58,27.15L579,599.14q2.14-3.52,2-4.69a2.25,2.25,0,0,0-1.44-1.85,10.53,10.53,0,0,0-4.77-.25L575,591l15.3-2-.32,1.41a8.66,8.66,0,0,0-4.5,2.23,36.61,36.61,0,0,0-5.06,7Z"/><path d="M624.21,614.58l1.53-.2c-1,4.21-1.46,6.31-2.42,10.52l-39.39,5.19c.13-.56.19-.84.32-1.41l1-.13a9,9,0,0,0,3.54-1.14,4.62,4.62,0,0,0,1.85-1.79,22.07,22.07,0,0,0,1.13-4c2.41-10.58,3.61-15.87,6-26.45a16.38,16.38,0,0,0,.6-3.82c-.17-1.39-1.75-1.88-4.73-1.49l-1.39.19.32-1.41,33.56-4.43c.5,3.57.75,5.36,1.26,8.93l-1.46.19a12.23,12.23,0,0,0-3.37-4.86,6.8,6.8,0,0,0-3.74-1.59,50.56,50.56,0,0,0-7.31.62l-6.11.81-4,17.77,3.4-.45a18.5,18.5,0,0,0,7.21-2.11c1.58-1,2.91-3,4-5.94l1.59-.21c-1.47,6.52-2.21,9.78-3.69,16.31l-1.59.21a12.38,12.38,0,0,0,0-3,5.7,5.7,0,0,0-1.11-3.24,3.1,3.1,0,0,0-2-.93,23.83,23.83,0,0,0-4.26.3l-3.85.51c-1.17,5.16-1.75,7.74-2.91,12.9a18.57,18.57,0,0,0-.61,3.68,2.26,2.26,0,0,0,1.89,2,16.87,16.87,0,0,0,5.68-.09l2.74-.37c4.76-.62,8.35-1.82,10.74-3.57A16.85,16.85,0,0,0,624.21,614.58Z"/><path d="M670.8,615.3c.38.51.56.77.93,1.28a14.73,14.73,0,0,1-7.57,3.5c-2.71.35-4.82-.06-6.33-1.25s-2.44-3.29-2.81-6.29c-.1-1-.15-1.44-.26-2.4a14.29,14.29,0,0,0-1.53-5.66,4.32,4.32,0,0,0-2.6-2,14.27,14.27,0,0,0-4.87,0l-1.73.23-2.77,12a16.77,16.77,0,0,0-.61,3.59,2.19,2.19,0,0,0,1.77,2,8.49,8.49,0,0,0,3.39.19l1-.13c-.13.57-.19.85-.32,1.41l-19.05,2.52c.13-.57.19-.85.32-1.41l.77-.1a9.16,9.16,0,0,0,3.56-1.14,4.51,4.51,0,0,0,1.84-1.79,24.58,24.58,0,0,0,1.12-4c2.4-10.58,3.61-15.87,6-26.45a16.2,16.2,0,0,0,.59-3.82,1.65,1.65,0,0,0-1.23-1.42,10.46,10.46,0,0,0-4.12,0l.32-1.41,12.32-1.62q5.13-.68,7.71-.8a15.78,15.78,0,0,1,5.4.75,10.1,10.1,0,0,1,4.5,2.63,7.17,7.17,0,0,1,2,4.2q.56,4.56-3.49,8.19t-13.67,5.13q5.25.88,7.56,3.32a13.59,13.59,0,0,1,3.13,7.19,12.53,12.53,0,0,0,1.5,4.8,2.92,2.92,0,0,0,2.93.89A9.85,9.85,0,0,0,670.8,615.3Zm-26.44-13.84,1.39-.18c5.92-.79,10.24-2.32,12.94-4.62a9.21,9.21,0,0,0,3.43-8.6,6.09,6.09,0,0,0-3.35-5.08q-2.91-1.44-8.29-.73c-.55.07-1.15.17-1.8.29Z"/><path d="M679.41,577.18l3.4-.44c2-.26,4.37-.61,7.17-1.07s4.55-.75,5.64-.89a27.7,27.7,0,0,1,11.73.62,14.61,14.61,0,0,1,7.77,5.35,17.77,17.77,0,0,1,3.38,8.49,20.63,20.63,0,0,1-1,8.78,22.77,22.77,0,0,1-4.6,8.17,24.38,24.38,0,0,1-7,5.62,29.54,29.54,0,0,1-7.19,2.8c-2.23.52-5.47,1-9.73,1.61l-18.91,2.5c.13-.57.19-.85.32-1.41l2-.27a9,9,0,0,0,3.54-1.13,4.68,4.68,0,0,0,1.85-1.79,23.56,23.56,0,0,0,1.13-4c2.41-10.58,3.61-15.87,6-26.45a15.64,15.64,0,0,0,.59-3.83c-.16-1.38-1.74-1.88-4.73-1.48l-1.8.23C679.22,578,679.28,577.75,679.41,577.18Zm13.29-.62q-3.71,16.28-7.42,32.55a14.76,14.76,0,0,0-.55,3.56c.22,1.87,2.71,2.49,7.45,1.87q10.8-1.42,15.73-9.63a25.6,25.6,0,0,0,3.92-16.63,14.42,14.42,0,0,0-4.89-9.73c-2.75-2.31-6.6-3.15-11.55-2.49C694.62,576.16,693.73,576.33,692.7,576.56Z"/><path d="M760.44,596.61l1.53-.2-2.42,10.52-39.38,5.19c.12-.56.19-.84.32-1.41l1-.13a9,9,0,0,0,3.55-1.14,4.5,4.5,0,0,0,1.84-1.78,23.26,23.26,0,0,0,1.14-4c2.4-10.58,3.61-15.87,6-26.46a16.13,16.13,0,0,0,.59-3.82c-.17-1.38-1.74-1.88-4.73-1.49l-1.39.19c.13-.57.2-.85.32-1.41l33.56-4.43c.51,3.57.76,5.36,1.27,8.93l-1.46.19a12.24,12.24,0,0,0-3.38-4.86,6.78,6.78,0,0,0-3.74-1.59,49.69,49.69,0,0,0-7.31.63l-6.11.8-4,17.77,3.4-.44a18.71,18.71,0,0,0,7.22-2.12c1.57-1,2.91-3,4-5.93l1.6-.21c-1.48,6.52-2.22,9.78-3.69,16.3l-1.6.21a12.4,12.4,0,0,0,0-3,5.77,5.77,0,0,0-1.12-3.24,3.08,3.08,0,0,0-2-.93,23.31,23.31,0,0,0-4.27.31l-3.85.5-2.9,12.9a17.87,17.87,0,0,0-.61,3.68,2.24,2.24,0,0,0,1.88,2,16.87,16.87,0,0,0,5.68-.09l2.74-.36q7.15-.95,10.75-3.58A16.91,16.91,0,0,0,760.44,596.61Z"/><path d="M799.71,602l-1.63.21q-8.6-15.94-17.18-31.89c-1,6-1.45,9-2.41,14.94a136.43,136.43,0,0,1-2.69,13.66,15.78,15.78,0,0,1-3.65,7.22,8.71,8.71,0,0,1-5,2.65,7.17,7.17,0,0,1-4.42-.65,3.68,3.68,0,0,1-2.08-2.89q-.36-3,2.31-3.34a2.74,2.74,0,0,1,1.86.38,2,2,0,0,1,.94,1.51,3.4,3.4,0,0,1-.41,1.81,2.07,2.07,0,0,0-.23,1,.94.94,0,0,0,.59.79,2.86,2.86,0,0,0,1.46.1c2.12-.28,3.92-1.69,5.37-4.22s3-8.77,4.52-18.73c.81-5.18,1.21-7.77,2-13a34,34,0,0,0,.53-3.76,2,2,0,0,0-1.31-1.53c-.8-.38-2.68-.4-5.65,0,.09-.56.13-.84.22-1.4l10.86-1.43,15.85,29.33,1.65-10.47q2.53-16.15,4.57-19.35a7.09,7.09,0,0,1,5.11-3.6,4.93,4.93,0,0,1,3,.36,2.23,2.23,0,0,1,1.27,1.72,2,2,0,0,1-.62,1.72,2.9,2.9,0,0,1-4.35-.23,1.69,1.69,0,0,0-1.48-.64q-1.43.19-2.64,3.68t-3.32,16.88Z"/></symbol><symbol id="f4" data-name="f4" viewBox="0 0 607.55 324.25"><path class="cls-1" d="M214.46,173c-53.76-9.68-108.79-7.29-162-20.75-12,11.86-15.86,15.11-10.14,32.1C78.36,192.94,195.91,215,214.46,173Z"/><path class="cls-2" d="M213.24,191.2c-64.88,12.1-119.75,14.7-185.51,9.27-11,14.21-13.51,19.61,4.46,28C53.47,228.19,224.77,206.53,213.24,191.2Z"/><path class="cls-3" d="M213.86,182.18c-67.36,2.17-134.22-7.73-201.34-11.56-13.78,13.89-18.69,19.85-1.7,33.74C70.07,204.5,171,236.63,213.86,182.18Z"/><path class="cls-4" d="M255.92,268.3c-8.15,15.62-17.48,23.42-33.76,20.55s3.8-15.24-9.86-19.19A110.54,110.54,0,0,1,209,287.55c-1.76,6.76-5.28,15.14-10,20.9-1.93,2.36-4.37,3.81-6.51,5.83a22.75,22.75,0,0,0,9.8,1,28.8,28.8,0,0,1-7.3,7.79c21.84,2.39,23-7.18,24.35-26.3,24.53.72,27.92-3.23,46.52-18.3C262.47,275,259.89,271.16,255.92,268.3Z"/><path class="cls-4" d="M210.46,257.59c-8.63,9.94-24.78,23.22-37.68,21.81s2.08-16.19-9.05-19.22c-.73,6.65-2.12,10.93-3.65,18.24s-3.46,17.76-8.37,24.44c-1.78,2.41-4,3.95-6,6a23.65,23.65,0,0,0,9.87.41,26.74,26.74,0,0,1-6.63,7.93c23.25,1.11,22.27-9.45,21.57-29.12,18.27-3,32.32-10.57,48.2-19.69C216,264.76,213.93,260.66,210.46,257.59Z"/><path class="cls-5" d="M151.31,304.26c1.16.39,2,4.47,3.64,5-2.15.83-7.22,1.29-8.75-.42C145.36,308,150.14,303.88,151.31,304.26Z"/><path class="cls-5" d="M152.48,308"/><path class="cls-5" d="M154.51,311.39a12.83,12.83,0,0,0,4.76,6.42,31.35,31.35,0,0,1-10.78-.83A22.27,22.27,0,0,0,154.51,311.39Z"/><path class="cls-5" d="M164.33,259.45c-.84,3.39-1.69,6.78-2.5,10.18,2,.13,4,.27,6,.31C167.45,266.56,167.68,261.31,164.33,259.45Z"/><path d="M168,2.27"/><path class="cls-6" d="M314.18,176.79c-17.24,18.62-54.33,39.94-54.37,67.5-151.9-29.33-17.68-125.5,61.44-137,9-24.31,14.3-49.65,32.66-69,8-8.47,15.81-13.71,28.42-15.81,34.07-5.66,64,6.8,65.91,46C404.36,80.87,346.31,143.47,314.18,176.79Z"/><path d="M407.69,22.51c-16.3,1.57-20.23,4.7-21.2,21.24C390.55,32.56,396.43,26.45,407.69,22.51Z"/><path d="M415.49,35.27c-12.9-4.45-22-3.11-28.9,9.19C394.82,36.36,404,33.28,415.49,35.27Z"/><path class="cls-6" d="M287.73,264.88c-6.48,9.42-20.79,25.2-31.89,12.4-8.32-9.6,3.56-24.66,10.34-32.12s22.26-23.65,32.11-14.72S293.8,256.06,287.73,264.88Z"/><path class="cls-6" d="M239.13,256.85c-7.29,8.68-22,22.69-32.19,9.64-7.6-9.78,4.79-23.26,11.84-30.55s22.93-21.35,32.56-11.92S246,248.72,239.13,256.85Z"/><path class="cls-5" d="M198.41,309.85c1.15.45,1.58,4.68,3.2,5.37-2.18.73-7.3.93-8.69-.91C192.15,313.3,197.26,309.4,198.41,309.85Z"/><path class="cls-5" d="M198.69,310.09"/><path class="cls-5" d="M201,317.35a12.76,12.76,0,0,0,4.19,6.85,30,30,0,0,1-10.68-1.44A23.63,23.63,0,0,0,201,317.35Z"/><path class="cls-5" d="M213,268.93q-1.12,4.95-2.24,9.91c2,0,4,.16,6,.34C216.2,275.86,216.29,270.69,213,268.93Z"/><path class="cls-6" d="M320.63,108C293,148.47,243,174.09,194.45,172.93c-30-.71-33.32-6.33-33.84-34.14-17.24-33.3-22.27-52.51-5.15-87.46C155.53,32.44,153.87,14,168.53,0,216.31,54.7,286.74,64.84,320.63,108Z"/><path class="cls-7" d="M257.65,245.18"/><path class="cls-7" d="M438.78,82.72"/><path class="cls-8" d="M392,162.74c21.64-24.48,58-72.82,43.84-107.13-60.07-50.39-83.46,7.31-88.31,61.31-7.67,33.8-102.05,109.79-90.44,127.77C318.54,259.5,362.93,211.14,392,162.74Z"/><path class="cls-9" d="M408.07,131a222.25,222.25,0,0,0,50.53,3.14c11.18,24.59,48.35,24.41,64.81,46.61C473.39,187.78,438,171.86,408.07,131Z"/><path class="cls-4" d="M403.21,131.09c24.79,7.23,56.79,12.56,81.33,4,45.39-5.26,91.35,10.4,122.07,44.63.61-125.57-62.75-105.49-157.06-118.9C444.64,91.23,430.45,116,403.21,131.09Z"/><path class="cls-10" d="M606.88,158.81c2.87-36.93-2.61-58.6-35.87-78.27C512,101.41,580.89,145.18,606.88,158.81Z"/><path class="cls-11" d="M417.42,142.11c13.3,13.25,28.7,29.3,48.76,22.58-11.07-21.09-22.7-25.06-44.57-31.17Q419.53,137.81,417.42,142.11Z"/><path class="cls-4" d="M523.39,180.69c-43.19,20.74-76.79,9-117.73-9.65,1.43-10.64,7.14-19.57,11.89-29C446.82,171.09,481.74,186.57,523.39,180.69Z"/><path class="cls-10" d="M450.06,60.35C446.3,94.74,403.64,145.29,407,171.81c-21.46-9-13.43-29.52-11.18-48.53,28.12-15.42,39.64-33,41.52-65.31C441.57,58.71,445.8,59.61,450.06,60.35Z"/><path class="cls-12" d="M362,100.05c7.25,17.23,25.15,14.45,39.69,4.55s27-23.91,17.59-43.33-25.2-16-39.38-5S354.78,82.83,362,100.05Z"/><path class="cls-13" d="M409.49,79.16c1,11.06-4.85,22.16-16.3,24.12S375,96.47,374.33,86s4.72-21.63,15.77-24S408.47,68.1,409.49,79.16Z"/><path d="M402.37,80.27c.55,6.61-2.93,13.21-9.73,14.57s-10.89-4-11.32-10.27S384.08,71.38,390.8,70,401.82,73.67,402.37,80.27Z"/><path class="cls-12" d="M395.64,102.93c.23,3.77-1.85,7.52-5.8,8.08s-6.24-2.13-6.42-5.87,1.88-7.36,5.74-8.23S395.41,99.16,395.64,102.93Z"/><path d="M217,140.37c-23.95,8.39-34.35,10.85-57.07-2.36a42.09,42.09,0,0,0,.74,15.05C181.91,156.53,198.66,150.73,217,140.37Z"/><path d="M183.46,112.24c-23.59-12.07-25-37.77-27.71-61.4a17,17,0,0,0-4,8.28C155.34,82.31,157.1,105.33,183.46,112.24Z"/><path d="M198.86,173.43c-1.21,0-2.43-.05-3.64,0a182.77,182.77,0,0,0,36-13.23A82.2,82.2,0,0,1,198.86,173.43Z"/></symbol><symbol id="f44" data-name="f44" viewBox="0 0 987.16 805.27"><use width="607.55" height="324.24" xlink:href="#f4"/><path class="cls-25" d="M109.58,554.52,955,490.07s16.3,15.28,15.22,22.06-8.95,8.22-3.59,26.24c0,0,.13,22.6,4.67,29.8,0,0,5.59,10.46-2.28,32.83l-12.45,4.3,3.94,9.75,12.7-1,.57,6-8.3,4.61,5.72,4.1-4.41,6,4.2,5.35,5.37-.4s5.07,9.82,2.11,13.44l-3.83,6.53,4.64,32.54s6.69,4.59,5.58,10.35l1.62,18-7.69.59s-1.31,4.07.43,5.64l4.83-.37s-1.87,10.91,1.53,12.92L128.66,804.73Z"/><polygon class="cls-15" points="114.66 621.21 338.05 604.17 328.14 612.68 114.66 621.21"/><path class="cls-15" d="M707.22,652c-.08-1.1,95.66-19.47,95.66-19.47l-12.72,13.15L579,679.47Z"/><polygon class="cls-26" points="455.34 577.51 900.45 543.57 923 548.5 742.23 573.36 455.34 577.51"/><polygon class="cls-27" points="651.78 712.22 206.64 745.89 184.1 740.95 364.89 716.2 651.78 712.22"/><ellipse class="cls-18" cx="580.64" cy="552.14" rx="22.64" ry="33.44" transform="translate(-40.29 45.74) rotate(-4.36)"/><ellipse class="cls-15" cx="581.12" cy="558.5" rx="15.79" ry="22.64" transform="translate(-40.78 45.79) rotate(-4.36)"/><ellipse class="cls-18" cx="581.32" cy="561.12" rx="10" ry="15.6" transform="translate(-40.97 45.82) rotate(-4.36)"/><ellipse class="cls-18" cx="204.65" cy="530.38" rx="20.56" ry="25.45" transform="matrix(1, -0.08, 0.08, 1, -39.73, 17.09)"/><ellipse class="cls-18" cx="205.68" cy="486.01" rx="20.56" ry="25.45" transform="translate(-36.35 17.04) rotate(-4.36)"/><ellipse class="cls-18" cx="350.55" cy="287.42" rx="20.56" ry="25.45" transform="translate(-20.84 27.48) rotate(-4.36)"/><ellipse class="cls-18" cx="323.9" cy="305.04" rx="20.56" ry="25.45" transform="translate(-22.25 25.51) rotate(-4.36)"/><ellipse class="cls-18" cx="304.87" cy="325.9" rx="20.56" ry="25.45" transform="translate(-23.89 24.12) rotate(-4.36)"/><ellipse class="cls-18" cx="286.31" cy="352.84" rx="20.56" ry="25.45" transform="translate(-25.99 22.79) rotate(-4.36)"/><ellipse class="cls-18" cx="259.39" cy="374.5" rx="20.56" ry="25.45" transform="translate(-27.72 20.8) rotate(-4.36)"/><ellipse class="cls-18" cx="236.53" cy="407.68" rx="20.56" ry="25.45" transform="translate(-30.31 19.16) rotate(-4.36)"/><ellipse class="cls-18" cx="218.75" cy="444.83" rx="20.56" ry="25.45" transform="translate(-33.18 17.92) rotate(-4.36)"/><ellipse class="cls-18" cx="207.06" cy="561.89" rx="20.56" ry="25.45" transform="translate(-42.12 17.37) rotate(-4.36)"/><ellipse class="cls-18" cx="512.68" cy="174.22" rx="20.56" ry="25.45" transform="translate(-11.76 39.48) rotate(-4.36)"/><ellipse class="cls-18" cx="478.79" cy="186.48" rx="20.56" ry="25.45" transform="translate(-12.79 36.94) rotate(-4.36)"/><ellipse class="cls-18" cx="451.87" cy="209.12" rx="20.56" ry="25.45" transform="translate(-20.99 53.18) rotate(-6.58)"/><ellipse class="cls-18" cx="419.39" cy="224.76" rx="20.56" ry="25.45" transform="translate(-15.87 32.53) rotate(-4.36)"/><ellipse class="cls-18" cx="394.37" cy="243.96" rx="20.56" ry="25.45" transform="translate(-17.41 30.69) rotate(-4.36)"/><ellipse class="cls-18" cx="375.43" cy="265.99" rx="20.56" ry="25.45" transform="translate(-19.13 29.31) rotate(-4.36)"/><ellipse class="cls-18" cx="859.25" cy="502.86" rx="20.56" ry="25.45" transform="translate(-20.61 37) rotate(-2.44)"/><ellipse class="cls-18" cx="853.32" cy="458.87" rx="20.56" ry="25.45" transform="translate(-18.74 36.71) rotate(-2.44)"/><ellipse class="cls-18" cx="687.34" cy="276.87" rx="20.56" ry="25.45" transform="matrix(1, -0.04, 0.04, 1, -11.15, 29.49)"/><ellipse class="cls-18" cx="715.78" cy="291.54" rx="20.56" ry="25.45" transform="translate(-11.75 30.71) rotate(-2.44)"/><ellipse class="cls-18" cx="737" cy="310.26" rx="20.56" ry="25.45" transform="translate(-12.53 31.63) rotate(-2.44)"/><ellipse class="cls-18" cx="758.44" cy="335.06" rx="20.56" ry="25.45" transform="translate(-13.56 32.56) rotate(-2.44)"/><ellipse class="cls-18" cx="787.59" cy="353.73" rx="20.56" ry="25.45" transform="translate(-14.33 33.82) rotate(-2.44)"/><ellipse class="cls-18" cx="813.99" cy="384.28" rx="20.56" ry="25.45" transform="translate(-15.61 34.97) rotate(-2.44)"/><ellipse class="cls-18" cx="835.77" cy="419.32" rx="20.56" ry="25.45" transform="translate(-17.08 35.93) rotate(-2.44)"/><ellipse class="cls-18" cx="548.69" cy="190.17" rx="20.56" ry="25.45" transform="translate(-7.59 23.51) rotate(-2.44)"/><ellipse class="cls-18" cx="578.02" cy="204.44" rx="20.56" ry="25.44" transform="translate(-0.75 2.14) rotate(-0.21)"/><ellipse class="cls-18" cx="611.97" cy="221.9" rx="20.56" ry="25.45" transform="translate(-8.88 26.23) rotate(-2.44)"/><ellipse class="cls-18" cx="638.97" cy="238.33" rx="20.56" ry="25.45" transform="translate(-9.56 27.39) rotate(-2.44)"/><ellipse class="cls-18" cx="660.23" cy="258.22" rx="20.56" ry="25.45" transform="translate(-10.39 28.32) rotate(-2.44)"/><path d="M167.45,734.81c-.1.43-.14.64-.24,1.06l-14.89,2,.24-1.06.81-.11a6.72,6.72,0,0,0,2.67-.85,3.45,3.45,0,0,0,1.39-1.34,19.23,19.23,0,0,0,.83-3c1.8-7.94,2.69-11.9,4.49-19.84a12.22,12.22,0,0,0,.47-2.85c-.13-1-1.31-1.43-3.55-1.13l-.94.12c.1-.42.15-.63.24-1.06l13.88-1.83L172.6,706l-.73.1a6.5,6.5,0,0,0-2.21.67,2.83,2.83,0,0,0-1.32,1.22,21.55,21.55,0,0,0-1,3.59c-1.74,7.64-2.61,11.46-4.36,19.1a11.86,11.86,0,0,0-.43,2.74,1.64,1.64,0,0,0,1.3,1.42,6.33,6.33,0,0,0,2.6.16Z"/><path d="M194.69,700.33l2.69-.35c1.56-.21,3.46-.48,5.68-.85s3.6-.59,4.46-.7a22,22,0,0,1,9.28.49,11.54,11.54,0,0,1,6.16,4.24,14.09,14.09,0,0,1,2.68,6.72,16.46,16.46,0,0,1-.76,7,18.23,18.23,0,0,1-3.64,6.47,19.5,19.5,0,0,1-5.51,4.44A23.24,23.24,0,0,1,210,730c-1.77.41-4.33.83-7.7,1.28l-15,2,.25-1.11,1.59-.21A7.16,7.16,0,0,0,192,731a3.68,3.68,0,0,0,1.46-1.42,17.56,17.56,0,0,0,.9-3.17c1.9-8.37,2.85-12.56,4.76-20.94a12.91,12.91,0,0,0,.47-3c-.14-1.1-1.39-1.49-3.75-1.18l-1.43.19C194.54,701,194.59,700.78,194.69,700.33Zm10.52-.49c-2.35,10.31-3.53,15.46-5.88,25.77a11.94,11.94,0,0,0-.43,2.81c.18,1.48,2.14,2,5.9,1.48q8.53-1.12,12.45-7.62a20.27,20.27,0,0,0,3.1-13.16,11.4,11.4,0,0,0-3.87-7.71q-3.27-2.74-9.14-2C206.73,699.52,206,699.65,205.21,699.84Z"/><path d="M258.84,715.71l1.21-.16c-.77,3.33-1.15,5-1.92,8.33L227,728c.1-.44.15-.67.26-1.11l.79-.11a7.16,7.16,0,0,0,2.81-.9,3.62,3.62,0,0,0,1.46-1.42,17.37,17.37,0,0,0,.9-3.16c1.9-8.38,2.85-12.57,4.76-20.94a13.65,13.65,0,0,0,.47-3c-.14-1.1-1.39-1.49-3.75-1.18l-1.1.15c.1-.45.16-.67.26-1.12l26.56-3.5,1,7.07-1.15.15a9.85,9.85,0,0,0-2.67-3.85,5.36,5.36,0,0,0-3-1.25,38.18,38.18,0,0,0-5.79.49l-4.84.64c-1.26,5.62-1.9,8.44-3.17,14.07l2.7-.36A14.9,14.9,0,0,0,249.2,707c1.25-.78,2.3-2.34,3.17-4.7l1.26-.17c-1.17,5.16-1.75,7.74-2.92,12.91l-1.26.16a10.15,10.15,0,0,0,0-2.4,4.61,4.61,0,0,0-.88-2.57,2.5,2.5,0,0,0-1.62-.74,19.42,19.42,0,0,0-3.37.25l-3.05.4-2.3,10.21a14.37,14.37,0,0,0-.48,2.92,1.79,1.79,0,0,0,1.49,1.59,13.62,13.62,0,0,0,4.5-.08l2.17-.28c3.77-.5,6.61-1.45,8.5-2.83A13.41,13.41,0,0,0,258.84,715.71Z"/><path d="M289.92,720l-1.29.17L275,694.91c-.76,4.74-1.14,7.1-1.91,11.83S271.69,715,271,717.56a12.6,12.6,0,0,1-2.89,5.71,7,7,0,0,1-4,2.1,5.63,5.63,0,0,1-3.5-.52,2.92,2.92,0,0,1-1.65-2.28c-.19-1.58.42-2.46,1.83-2.65a2.17,2.17,0,0,1,1.47.3,1.54,1.54,0,0,1,.75,1.2,2.67,2.67,0,0,1-.33,1.43,1.7,1.7,0,0,0-.18.78.74.74,0,0,0,.47.62,2.16,2.16,0,0,0,1.15.08q2.52-.33,4.25-3.34T272,706.16l1.6-10.26a28.43,28.43,0,0,0,.42-3,1.62,1.62,0,0,0-1-1.22c-.63-.3-2.13-.31-4.47,0,.06-.44.1-.66.17-1.11l8.6-1.13,12.54,23.22c.53-3.31.79-5,1.31-8.29q2-12.78,3.61-15.32a5.66,5.66,0,0,1,4-2.85,3.89,3.89,0,0,1,2.36.29,1.76,1.76,0,0,1,1,1.36,1.56,1.56,0,0,1-.49,1.36,2.41,2.41,0,0,1-1.41.68,2.36,2.36,0,0,1-2-.86,1.34,1.34,0,0,0-1.18-.5c-.75.1-1.45,1.07-2.09,2.91s-1.51,6.3-2.63,13.36C291.36,710.88,290.88,713.92,289.92,720Z"/><path d="M316.49,702.36q-.6-5,2.22-11.2a25.48,25.48,0,0,1,7.74-9.95,20.86,20.86,0,0,1,9.86-4.4,16.7,16.7,0,0,1,5.84.41,11.34,11.34,0,0,1,6,3.84,14.42,14.42,0,0,1,3.33,8q1,8.49-5,16.55t-14.14,9.14a14.36,14.36,0,0,1-10.56-2.39Q317.33,709.15,316.49,702.36Zm5.89,1.91a15.53,15.53,0,0,0,1.54,5.63,7.42,7.42,0,0,0,3.24,3,8.4,8.4,0,0,0,4.95.7,11.79,11.79,0,0,0,7.71-4.72,27.36,27.36,0,0,0,5-11,33.19,33.19,0,0,0,1.07-11.46q-.57-4.71-3.21-6.78a8.14,8.14,0,0,0-6.31-1.58,12.12,12.12,0,0,0-7.68,4.56,26.21,26.21,0,0,0-5.11,10.55A30.46,30.46,0,0,0,322.38,704.27Z"/><path d="M379.41,702.32,400.08,669l10.54-1.39c-.12.51-.18.76-.29,1.27a13,13,0,0,0-4.16,1,3,3,0,0,0-1.35,1.47,20.61,20.61,0,0,0-.8,3.84c-1.51,9.2-2.27,13.79-3.79,23a14.84,14.84,0,0,0-.35,3.09,2.06,2.06,0,0,0,1.61,1.81,7.36,7.36,0,0,0,3.21.21l1-.12c-.12.5-.18.75-.29,1.26l-17.63,2.32c.12-.5.18-.75.29-1.26l.75-.1a8.65,8.65,0,0,0,3.24-1,4,4,0,0,0,1.7-1.63,19.65,19.65,0,0,0,.91-3.78c1.73-10.32,2.6-15.48,4.34-25.8l-21.89,35-1.49.2q-3.86-14.21-7.7-28.39c-2.44,7.82-3.66,11.73-6.11,19.55q-1.59,5.09-1.45,6.27a2.68,2.68,0,0,0,1.56,2.38,9.24,9.24,0,0,0,4.19.22c-.11.5-.17.75-.28,1.26l-14.18,1.87c.12-.51.17-.76.29-1.27a8.61,8.61,0,0,0,3.83-1.46,7.22,7.22,0,0,0,2.37-2.89,67.29,67.29,0,0,0,2.3-6.51c2.34-7.4,3.51-11.09,5.86-18.49a14.09,14.09,0,0,0,.89-4.08,1.92,1.92,0,0,0-.94-1.54,5.84,5.84,0,0,0-3.21-.15l-1.81.23c.11-.5.16-.75.26-1.26l9.82-1.29Z"/><path d="M425.1,702.74l-2.49.33q-.81-15.5-1.63-31c0-.69-.05-1-.08-1.72a2.33,2.33,0,0,0-1.31-2.08c-.74-.3-2.28-.29-4.6,0,0-.49,0-.74,0-1.23l16.91-2.23c0,.49,0,.74,0,1.23a12.24,12.24,0,0,0-3.82,1,3.22,3.22,0,0,0-1.62,1.49,7.54,7.54,0,0,0-.2,3c.57,9.73.85,14.59,1.42,24.32q7.53-12.35,15.05-24.68,1.92-3.15,1.8-4.2a2,2,0,0,0-1.3-1.66,9.5,9.5,0,0,0-4.27-.22c.09-.5.14-.75.23-1.26l13.71-1.8c-.12.5-.18.75-.29,1.26a7.74,7.74,0,0,0-4,2,32.89,32.89,0,0,0-4.53,6.24Z"/><path d="M483.24,685.06l1.37-.19c-.87,3.77-1.3,5.66-2.17,9.43L447.16,699c.11-.51.17-.76.29-1.26l.9-.12a8.05,8.05,0,0,0,3.17-1,4.13,4.13,0,0,0,1.66-1.6,20.78,20.78,0,0,0,1-3.59c2.16-9.48,3.23-14.21,5.39-23.69a14.87,14.87,0,0,0,.53-3.43c-.15-1.24-1.57-1.68-4.24-1.33l-1.24.16c.11-.5.17-.75.29-1.26l30.06-4c.45,3.2.68,4.8,1.13,8l-1.31.17a10.87,10.87,0,0,0-3-4.36,6.11,6.11,0,0,0-3.35-1.42,44.65,44.65,0,0,0-6.55.56l-5.47.72c-1.44,6.37-2.15,9.55-3.59,15.92l3.05-.4a16.7,16.7,0,0,0,6.47-1.89c1.4-.88,2.6-2.65,3.58-5.32l1.43-.19c-1.32,5.84-2,8.76-3.31,14.6l-1.42.19a11.26,11.26,0,0,0,0-2.72,5.11,5.11,0,0,0-1-2.9,2.8,2.8,0,0,0-1.83-.84,22.24,22.24,0,0,0-3.81.28l-3.45.45c-1,4.63-1.57,6.94-2.61,11.56a16.22,16.22,0,0,0-.54,3.29,2,2,0,0,0,1.69,1.81,15.56,15.56,0,0,0,5.09-.09l2.45-.32q6.4-.86,9.63-3.2A15.16,15.16,0,0,0,483.24,685.06Z"/><path d="M518.42,689.9l-1.46.19-15.4-28.57-2.15,13.39A123.09,123.09,0,0,1,497,687.14a14.19,14.19,0,0,1-3.27,6.47,7.84,7.84,0,0,1-4.48,2.37,6.45,6.45,0,0,1-4-.58,3.3,3.3,0,0,1-1.86-2.59c-.22-1.79.47-2.78,2.07-3a2.42,2.42,0,0,1,1.66.34,1.8,1.8,0,0,1,.85,1.35,3.11,3.11,0,0,1-.37,1.62,1.74,1.74,0,0,0-.21.88.81.81,0,0,0,.53.7,2.48,2.48,0,0,0,1.3.1c1.91-.25,3.51-1.51,4.82-3.78s2.65-7.86,4.05-16.78l1.8-11.61a28.83,28.83,0,0,0,.47-3.37,1.81,1.81,0,0,0-1.17-1.37c-.72-.34-2.41-.36-5.06,0,.08-.5.12-.75.19-1.25l9.73-1.29q7.11,13.14,14.2,26.28c.59-3.75.89-5.63,1.48-9.38q2.28-14.47,4.09-17.33a6.36,6.36,0,0,1,4.58-3.23,4.35,4.35,0,0,1,2.66.33,2,2,0,0,1,1.14,1.54,1.74,1.74,0,0,1-.56,1.54,2.58,2.58,0,0,1-3.89-.21,1.53,1.53,0,0,0-1.33-.57q-1.28.16-2.37,3.3t-3,15.12Z"/><path d="M534,651.38l3-.41c1.77-.23,3.92-.54,6.43-1s4.07-.67,5-.8a24.8,24.8,0,0,1,10.5.56,13.11,13.11,0,0,1,7,4.79,16,16,0,0,1,3,7.61,18.36,18.36,0,0,1-.86,7.86,20.35,20.35,0,0,1-4.11,7.32,21.85,21.85,0,0,1-6.24,5,26.65,26.65,0,0,1-6.44,2.52c-2,.46-4.9.94-8.72,1.44l-16.94,2.23c.12-.5.18-.75.29-1.26l1.8-.24a8.22,8.22,0,0,0,3.18-1,4.17,4.17,0,0,0,1.65-1.61,20.3,20.3,0,0,0,1-3.58l5.38-23.7a14.24,14.24,0,0,0,.53-3.42c-.15-1.24-1.56-1.69-4.23-1.33l-1.62.21C533.86,652.13,533.91,651.88,534,651.38Zm11.9-.56q-3.31,14.58-6.64,29.16a13.29,13.29,0,0,0-.5,3.18c.21,1.68,2.43,2.24,6.68,1.68q9.66-1.27,14.09-8.63a23,23,0,0,0,3.51-14.89,13,13,0,0,0-4.38-8.72c-2.47-2.07-5.91-2.82-10.35-2.23C547.66,650.46,546.85,650.61,545.93,650.82Z"/><path d="M600.05,645q-3.15,13.86-6.31,27.73a14.07,14.07,0,0,0-.53,3.24,2,2,0,0,0,1.59,1.72,7.39,7.39,0,0,0,3.1.19l1.12-.15c-.12.51-.17.76-.29,1.27l-18.06,2.38c.12-.51.17-.76.29-1.26l.93-.13a8.93,8.93,0,0,0,3.28-1A4.36,4.36,0,0,0,587,677.3a19.19,19.19,0,0,0,1.17-3.81l6.42-28.12q-5.2.28-8.81.76a23.24,23.24,0,0,0-5.81,1.33c-1.26.53-1.85,1.17-1.76,1.9a3.55,3.55,0,0,0,.49,1.14,3,3,0,0,1,.44,1.06,1.56,1.56,0,0,1-.46,1.3,2.42,2.42,0,0,1-1.5.72,2.38,2.38,0,0,1-2-.54,2.64,2.64,0,0,1-.88-1.67q-.25-2.1,2.37-4t9.7-2.86c2.43-.32,7.07-.7,13.89-1.12,4.89-.29,8.56-.59,11-.91s3.55-1,3.67-2.06a1.26,1.26,0,0,1,1.17-1.27q1.49-.2,1.65,1.14c.23,1.91-2,3.17-6.83,3.8C608.59,644.37,605,644.66,600.05,645Z"/><path d="M648.4,663.27l1.37-.18-2.17,9.42-35.28,4.66c.11-.51.17-.76.29-1.27l.9-.12a8.22,8.22,0,0,0,3.17-1,4.14,4.14,0,0,0,1.66-1.61,20.3,20.3,0,0,0,1-3.58c2.15-9.48,3.23-14.22,5.39-23.7a14.81,14.81,0,0,0,.53-3.42c-.16-1.24-1.57-1.69-4.24-1.33l-1.24.16.28-1.26,30.06-4c.46,3.2.68,4.8,1.14,8l-1.31.18a11,11,0,0,0-3-4.36,6,6,0,0,0-3.35-1.42A43.22,43.22,0,0,0,637,639l-5.47.72c-1.44,6.37-2.15,9.55-3.59,15.92l3-.4a16.74,16.74,0,0,0,6.46-1.9c1.41-.87,2.61-2.65,3.59-5.32l1.43-.18c-1.32,5.84-2,8.76-3.31,14.6l-1.43.19a11.28,11.28,0,0,0,0-2.72,5.11,5.11,0,0,0-1-2.9,2.71,2.71,0,0,0-1.83-.84,20.44,20.44,0,0,0-3.82.28l-3.45.45-2.6,11.56a15.37,15.37,0,0,0-.54,3.29,2,2,0,0,0,1.69,1.8,15.21,15.21,0,0,0,5.09-.08l2.45-.33q6.4-.84,9.62-3.2A15.18,15.18,0,0,0,648.4,663.27Z"/><path d="M686.72,668.33l-2.78.37q-.91-17.28-1.82-34.57c0-.77,0-1.16-.09-1.92a2.58,2.58,0,0,0-1.47-2.32q-1.23-.51-5.12,0c0-.55,0-.82,0-1.37L694.36,626l-.05,1.37a13.61,13.61,0,0,0-4.27,1.12,3.67,3.67,0,0,0-1.81,1.66,8.87,8.87,0,0,0-.22,3.38c.63,10.85,1,16.28,1.58,27.14q8.42-13.77,16.81-27.55c1.43-2.34,2.1-3.91,2-4.69a2.27,2.27,0,0,0-1.44-1.85q-1.29-.58-4.77-.24l.25-1.4,15.3-2-.32,1.41a8.58,8.58,0,0,0-4.5,2.23,36.27,36.27,0,0,0-5.06,7Z"/><path d="M751.62,648.6l1.53-.21c-1,4.21-1.46,6.32-2.42,10.52l-39.39,5.2c.13-.57.19-.85.32-1.41l1-.14a9.11,9.11,0,0,0,3.55-1.13,4.71,4.71,0,0,0,1.84-1.79,22.34,22.34,0,0,0,1.13-4l6-26.45a16.78,16.78,0,0,0,.59-3.83c-.17-1.38-1.75-1.88-4.73-1.48l-1.39.18.32-1.41,33.56-4.43c.5,3.58.76,5.36,1.26,8.93l-1.46.2a12.34,12.34,0,0,0-3.37-4.87,6.71,6.71,0,0,0-3.74-1.58,49.09,49.09,0,0,0-7.31.62l-6.11.8-4,17.78,3.4-.45a18.79,18.79,0,0,0,7.22-2.11q2.35-1.47,4-5.94l1.59-.21-3.68,16.3-1.6.21a12.83,12.83,0,0,0,0-3,5.84,5.84,0,0,0-1.12-3.25,3.08,3.08,0,0,0-2-.93,24.13,24.13,0,0,0-4.26.31l-3.85.51-2.91,12.9a18.52,18.52,0,0,0-.61,3.67,2.24,2.24,0,0,0,1.89,2,16.87,16.87,0,0,0,5.68-.09l2.74-.36q7.16-.95,10.74-3.57A17,17,0,0,0,751.62,648.6Z"/><path d="M798.21,649.32l.93,1.27a14.65,14.65,0,0,1-7.57,3.5q-4.07.54-6.33-1.25c-1.5-1.19-2.44-3.28-2.81-6.29l-.25-2.4a14.49,14.49,0,0,0-1.54-5.66,4.4,4.4,0,0,0-2.6-2,14.28,14.28,0,0,0-4.86.05l-1.74.22c-1.11,4.81-1.66,7.22-2.76,12a16.5,16.5,0,0,0-.62,3.59,2.17,2.17,0,0,0,1.77,2,8.67,8.67,0,0,0,3.39.2l1-.13c-.13.56-.19.84-.32,1.41l-19,2.51c.13-.56.19-.84.32-1.41l.77-.1a9.16,9.16,0,0,0,3.56-1.14,4.45,4.45,0,0,0,1.84-1.79,24.26,24.26,0,0,0,1.12-4c2.4-10.58,3.61-15.87,6-26.45a15.58,15.58,0,0,0,.59-3.82,1.65,1.65,0,0,0-1.23-1.41,10.26,10.26,0,0,0-4.12,0c.13-.57.19-.85.32-1.41l12.32-1.63c3.42-.45,6-.72,7.71-.79a16,16,0,0,1,5.4.74,10.19,10.19,0,0,1,4.5,2.63,7.17,7.17,0,0,1,2,4.2q.55,4.57-3.49,8.19t-13.67,5.14q5.25.88,7.56,3.31a13.55,13.55,0,0,1,3.13,7.2,12.46,12.46,0,0,0,1.5,4.79,2.92,2.92,0,0,0,2.93.9A10,10,0,0,0,798.21,649.32Zm-26.44-13.85,1.39-.18q8.88-1.17,12.94-4.62a9.21,9.21,0,0,0,3.43-8.6,6,6,0,0,0-3.35-5.07c-1.94-1-4.7-1.21-8.29-.74-.55.08-1.15.17-1.8.3C774.36,624.12,773.5,627.91,771.77,635.47Z"/><path d="M806.82,611.2l3.4-.45c2-.26,4.37-.6,7.17-1.06s4.55-.75,5.64-.9a27.85,27.85,0,0,1,11.73.63,14.56,14.56,0,0,1,7.77,5.35,17.73,17.73,0,0,1,3.38,8.49A20.59,20.59,0,0,1,845,632a22.81,22.81,0,0,1-4.6,8.18,24.51,24.51,0,0,1-7,5.61,29.6,29.6,0,0,1-7.19,2.81q-3.35.76-9.73,1.61l-18.91,2.49c.13-.56.19-.84.32-1.41l2-.26a9,9,0,0,0,3.54-1.14,4.62,4.62,0,0,0,1.85-1.79,24.25,24.25,0,0,0,1.13-4c2.41-10.58,3.61-15.87,6-26.45a15.65,15.65,0,0,0,.59-3.82c-.17-1.39-1.74-1.88-4.73-1.49l-1.8.24Zm13.29-.63q-3.72,16.29-7.42,32.56a14.71,14.71,0,0,0-.55,3.55c.22,1.87,2.71,2.5,7.45,1.87q10.8-1.42,15.73-9.63a25.6,25.6,0,0,0,3.92-16.63,14.44,14.44,0,0,0-4.89-9.73q-4.12-3.46-11.55-2.49C822,610.17,821.14,610.34,820.11,610.57Z"/><path d="M887.85,630.63l1.53-.2c-1,4.2-1.45,6.31-2.42,10.51l-39.38,5.2c.12-.57.19-.85.32-1.41l1-.14a8.84,8.84,0,0,0,3.55-1.13,4.58,4.58,0,0,0,1.84-1.79,23,23,0,0,0,1.14-4c2.4-10.58,3.6-15.87,6-26.45a16.19,16.19,0,0,0,.59-3.83c-.17-1.38-1.74-1.88-4.73-1.48l-1.39.18c.13-.56.2-.85.32-1.41l33.56-4.42c.51,3.57.76,5.35,1.27,8.93l-1.46.19a12.24,12.24,0,0,0-3.38-4.86,6.78,6.78,0,0,0-3.74-1.59,49.19,49.19,0,0,0-7.31.62l-6.11.81-4,17.77,3.4-.45a18.73,18.73,0,0,0,7.22-2.11c1.57-1,2.91-3,4-5.94l1.6-.21c-1.48,6.52-2.22,9.78-3.69,16.3l-1.6.21a12.32,12.32,0,0,0,0-3,5.77,5.77,0,0,0-1.12-3.24,3,3,0,0,0-2-.94,24.28,24.28,0,0,0-4.27.31l-3.85.51-2.9,12.9a17.78,17.78,0,0,0-.61,3.68,2.24,2.24,0,0,0,1.88,2,17.23,17.23,0,0,0,5.68-.1l2.74-.36q7.15-.95,10.75-3.57A17,17,0,0,0,887.85,630.63Z"/><path d="M927.12,636l-1.63.22q-8.6-15.94-17.18-31.9c-1,6-1.45,9-2.41,14.95A137,137,0,0,1,903.21,633a15.73,15.73,0,0,1-3.65,7.21,8.73,8.73,0,0,1-5,2.66,7.24,7.24,0,0,1-4.42-.66,3.68,3.68,0,0,1-2.08-2.89q-.36-3,2.31-3.34a2.76,2.76,0,0,1,1.86.38,2,2,0,0,1,.94,1.51,3.38,3.38,0,0,1-.41,1.81,2.08,2.08,0,0,0-.23,1,.91.91,0,0,0,.59.78,2.75,2.75,0,0,0,1.46.1c2.12-.28,3.92-1.68,5.37-4.21s3-8.78,4.52-18.73c.81-5.19,1.21-7.78,2-13a34,34,0,0,0,.53-3.75,2,2,0,0,0-1.31-1.54q-1.2-.57-5.65,0c.09-.56.13-.84.22-1.4l10.86-1.43L927,626.77l1.65-10.47q2.54-16.15,4.57-19.35a7.09,7.09,0,0,1,5.11-3.6,4.85,4.85,0,0,1,3,.37,2.21,2.21,0,0,1,1.27,1.72,2,2,0,0,1-.62,1.71,3.06,3.06,0,0,1-1.78.86,3,3,0,0,1-2.57-1.08,1.67,1.67,0,0,0-1.48-.64q-1.43.18-2.64,3.68t-3.32,16.87C928.93,624.52,928.33,628.36,927.12,636Z"/></symbol></defs><title>fugl_spritesheet</title><g id="Layer_2" data-name="Layer 2"><g id="Layer_5" data-name="Layer 5"><use width="892.17" height="793.5" transform="translate(0 6.14)" xlink:href="#f11"/><use width="933.85" height="774.16" transform="translate(1162.37 15.64)" xlink:href="#f22"/><use width="870.63" height="763.22" transform="translate(2376.23 21.14)" xlink:href="#f33"/><use width="987.16" height="805.27" transform="matrix(1, 0.02, -0.02, 1, 3508.34, -2.63)" xlink:href="#f44"/></g></g></svg>
