<svg xmlns="http://www.w3.org/2000/svg" xmlns:xlink="http://www.w3.org/1999/xlink" viewBox="0 0 800 800"><defs><style>.cls-1{fill:#ff0;}.cls-1,.cls-12,.cls-13,.cls-14,.cls-2,.cls-4,.cls-5,.cls-6,.cls-7,.cls-8,.cls-9{stroke:#000;}.cls-1,.cls-11,.cls-12,.cls-13,.cls-14,.cls-16,.cls-17,.cls-19,.cls-2,.cls-20,.cls-21,.cls-22,.cls-23,.cls-24,.cls-25,.cls-3,.cls-4,.cls-5,.cls-6,.cls-7,.cls-8,.cls-9{stroke-miterlimit:10;}.cls-3{fill:#8e8e8e;stroke:#93918d;}.cls-4{fill:#fff35c;}.cls-5{fill:#9b7743;}.cls-19,.cls-21,.cls-23,.cls-6,.cls-8{fill:none;}.cls-7{fill:#a3874a;}.cls-8{stroke-width:0.75px;}.cls-9{fill:#c1a368;}.cls-10,.cls-11{fill:#ead3c9;}.cls-11{stroke:#d6c4bd;}.cls-12{fill:#8c6239;}.cls-13{fill:#8c6225;}.cls-14{fill:#8c7428;}.cls-15{fill:url(#linear-gradient);}.cls-16{fill:#f2ece9;stroke:#f2ece9;}.cls-17{fill:#3baeed;stroke:#3baeed;}.cls-18{fill:#5e391d;}.cls-19{stroke:#966b6b;}.cls-20{fill:#914e4e;}.cls-20,.cls-21{stroke:#914e4e;}.cls-22{fill:#070707;stroke:#070707;}.cls-23,.cls-24{stroke:#30251c;}.cls-24,.cls-26{fill:#30251c;}.cls-25{fill:#ceafa5;stroke:#ceafa5;}</style><linearGradient id="linear-gradient" x1="421.299" y1="284.1845" x2="421.299" y2="124.9977" gradientUnits="userSpaceOnUse"><stop offset="0" stop-color="#7f5800"/><stop offset="1" stop-color="#553b00"/></linearGradient></defs><title>mandibaad</title><g id="Layer_7_copy" data-name="Layer 7 copy"><path class="cls-1" d="M162.4189,509.992l-2.1395-5.4243c-30.2634-9.8626-66.1471.0565-107.9962,33.7464,1.3059,15.8406,7.3008,28.0751,18.2634,36.489C125.2461,561.2579,158.3922,538.9326,162.4189,509.992Z"/><path class="cls-2" d="M239.1738,462.9422l-80.7033,40.3111c-1.6078,3.5795,1.1223,5.9816,3.9484,6.7387l80.8672-41.2975C239.8885,468.5427,238.786,466.3914,239.1738,462.9422Z"/><path class="cls-3" d="M346.504,408.8107l-107.33,54.1315c-.9078,3.3137.1478,5.3953,5.2628,4.93L349.63,414.399Z"/><path class="cls-4" d="M59.8519,553.7645l97.33-50.13c.2664,3.13,2.0811,5.2052,5.2367,6.3571L62.0721,555.6541"/><path class="cls-2" d="M346.504,408.8107c.6895-3.2339-.82-7.301-3.1284-11.671,13.1373,5.8114,17.3606,14.8248,13.82,26.6269-2.0672-4.5718-4.412-8.2592-7.5662-9.3676A17.0454,17.0454,0,0,0,346.504,408.8107Z"/><g id="Layer_3_copy" data-name="Layer 3 copy"><path class="cls-5" d="M149.3075,466.1154c46.7218-44.1442,228.8138-52.7125,448.2279-68.7064.1292-1.0868,117.0938,12.8181,116.9646,13.9048-201.0649,47.9085-396.6011,85.7506-563.9656,54.8016"/><polyline class="cls-6" points="597.126 397 597.998 411.235 599.58 437.079"/></g><g id="Layer_4_copy" data-name="Layer 4 copy"><path class="cls-7" d="M254.0031,483.2921c15.289-23.6055,159.3582-43.0678,340.2606-61.3451l82.6114,9.8152C517.04,475.7294,366.4637,506.556,254.0031,483.2921Z"/><line class="cls-8" x1="553.776" y1="426.4456" x2="651.9281" y2="438.7146"/><line class="cls-8" x1="501.4282" y1="432.1712" x2="657.6536" y2="451.8016"/><line class="cls-8" x1="446.6266" y1="438.7146" x2="602.852" y2="458.3451"/><line class="cls-8" x1="386.9174" y1="446.894" x2="543.1428" y2="466.5244"/><line class="cls-8" x1="328.8441" y1="456.7092" x2="485.0695" y2="476.3396"/></g><g id="Layer_5_copy" data-name="Layer 5 copy"><polygon class="cls-9" points="375.875 433.353 375.875 425.9 422.974 420.311 569.317 444.531 540.455 450.563 524.741 453.846 375.875 433.353"/><line class="cls-6" x1="375.8753" y1="426.0367" x2="537.0083" y2="451.3926"/><polygon class="cls-9" points="536.19 414.313 536.19 408.86 573.232 404.77 688.326 422.492 665.627 426.906 653.269 429.308 536.19 414.313"/><line class="cls-6" x1="536.5993" y1="409.269" x2="663.2382" y2="426.695"/></g><path class="cls-10" d="M345.099,278.1337s-13.05-20.0919-22.8373-7.21c0,0-4.8937,7.5776,1.6313,18.1862,0,0,10.603,16.6706,11.4186,23.49,0,0,6.1871,12.983,14.1044,5.3549C349.416,317.9552,341.8366,293.6789,345.099,278.1337Z"/><path class="cls-10" d="M493.933,281.9225s13.0954-20.0918,22.9169-7.21c0,0,4.9107,7.5776-1.637,18.1862,0,0-10.64,16.6707-11.4584,23.49,0,0-6.2086,12.983-14.1535,5.3548C489.601,321.744,497.2069,297.4678,493.933,281.9225Z"/><path class="cls-10" d="M339.4369,427.2129c-3.7393-6.7835-7.2167-13.1249-13.1058-18.2914-5.5975-.4839-9.2162.9639-13.397,4.66,5.9844,10.0847,11.61,19.1106,20.9478,26.4508A117.3169,117.3169,0,0,0,339.4369,427.2129Z"/><path class="cls-10" d="M401.3963,377.8906c-13.7356,1.5509-19.34.5755-24.8642,16.5129-6.7807,19.5623-8.5631,43.9409-37.6885,31.3538-2.7045,4.5634-5.3631,8.423-6.9809,13.351,4.8134,4.8876,10.1057,7.0932,16.7792,8.3558,32.5569-3.5837,28.2072,1.14,35.1336-29.5427C384.2785,397.5555,383.0565,390.0283,401.3963,377.8906Z"/><path class="cls-10" d="M346.385,185.2972s-6.82,116.6945,0,125.7876c0,0,.7577,28.037,27.2792,40.9189l30.31,15.9129s22.7327,15.9129,43.95,0l27.2792-19.7017s15.9129-11.3663,18.1862-37.8878c0,0,8.7142-67.8193,4.9254-124.651,0,0-12.1241-43.1922-77.2912-37.8879C421.024,147.7882,364.95,140.2107,346.385,185.2972Z"/><path class="cls-11" d="M405.8689,369.0532v9.0931s-23.1116-4.9254-23.1116,35.9935c0,0-1.5155,37.8878,3.7888,51.5274,0,0,7.5776,18.1862,40.54,15.534,0,0,24.2482.7578,34.4779-15.534,0,0,7.5776-37.13,0-64.4093,0,0-1.8944-19.3228-18.9439-23.49l-.1012-6.47"/><g id="Layer_2_copy" data-name="Layer 2 copy"><path class="cls-12" d="M224.9664,529.5053c122.4837,16.7263,297.602-14.5811,448.2279-67.8885-.013-.0115,11.8471-13.5074,11.86-13.4959C566.4827,481.6391,383.1815,537.22,205.745,511.92,214.993,519.7171,221.16,526.2963,224.9664,529.5053Z"/><path class="cls-13" d="M685.0544,448.1209c.0329.0243,13.9378-18.7882,13.9049-18.8125-185.363,51.6653-366.319,80.4465-526.75,56.4375L205.745,511.92C332.4616,535.0343,496.3238,509.1313,685.0544,448.1209Z"/><path class="cls-14" d="M150.5344,465.7065,172.21,485.7459c143.9674,32.6593,330.42-1.5849,526.75-56.4375l14.7228-17.9946C498.5286,462.3381,306.1,493.5371,150.5344,465.7065Z"/></g><path class="cls-15" d="M343.3539,278.1337s-8.2341-11.2857-11.6946-11.5211c0,0-16.3424-64.6448-4.2182-85.1042,0,0,3.031-18.1862,28.7947-21.2172,0,0-2.6521-4.9254-5.6832-6.4409,0,0,4.5466,1.5155,6.82,3.7888,0,0,0-5.3043-4.5465-7.5776,0,0,3.7888,0,6.0621,4.5465,0,0-1.5156-8.3353-5.3043-9.8508,0,0,3.7887-.7578,7.5775,7.5776,0,0,13.64-28.7948,49.2542-27.2793l5.3043,2.2733-3.7888,3.031s20.4595-5.3043,35.6146,0c0,0-3.031,1.5155-3.7888,3.7888,0,0,8.3354-.7578,11.3664,0,0,0,16.6706,2.2733,21.2172,8.3353,0,0,12.8818,6.0621,15.1551,17.4284A33.8362,33.8362,0,0,1,507.4083,181.13s13.64,8.3354,11.3664,25.006c0,0,3.7887,13.64-4.5466,33.3413l-7.5219,30.9246-12.18,13.7831s0-72.7447.7578-75.7757c0,0-2.2733-16.6707-23.49-27.2793,0,0-15.1551.7578-18.9439-.7577,0,0,2.2733,4.5465,6.0621,4.5465,0,0-6.82,0-11.3664-4.5465,0,0-.7577,2.2732,4.5466,4.5465,0,0-3.0311,2.2733-9.8509-4.5465,0,0-41.6766,3.7888-53.8007-2.2733,0,0-13.64,4.5465-20.4595,3.031,0,0-3.031,20.4595-9.093,25.006,0,0-6.0621,6.0621-9.0931,6.82C349.7949,212.9553,349.0371,263.7475,343.3539,278.1337Z"/><path class="cls-16" d="M373.6642,265.6194a19.9421,19.9421,0,0,1,3.7888-25.006c7.7836-6.8358,19.0815-5.4816,25.7637,0,9.2769,7.61,9.3729,22.9411,3.0311,28.7948-2.2862,2.11-4.9844,2.597-7.5776,3.031C387.26,274.3489,377.5429,268.3543,373.6642,265.6194Z"/><path class="cls-16" d="M475.2987,267.1349A19.942,19.942,0,0,0,471.51,242.129c-7.7836-6.8359-19.0815-5.4817-25.7638,0-9.2768,7.61-9.3729,22.941-3.031,28.7947,2.2861,2.11,4.9844,2.597,7.5776,3.031C461.703,275.8644,471.42,269.87,475.2987,267.1349Z"/><path class="cls-17" d="M378.2108,254.2531a13.42,13.42,0,0,1,11.3663-12.1241,12.61,12.61,0,0,1,11.3664,4.5465,13.1179,13.1179,0,0,1-1.5155,17.4284c-5.4444,4.9646-13.9342,3.81-18.1862-.7578A12.4,12.4,0,0,1,378.2108,254.2531Z"/><path class="cls-17" d="M445.6511,255.7686a13.42,13.42,0,0,1,11.3664-12.1241,12.61,12.61,0,0,1,11.3663,4.5465,13.1178,13.1178,0,0,1-1.5155,17.4284c-5.4443,4.9646-13.9341,3.81-18.1862-.7577A12.4007,12.4007,0,0,1,445.6511,255.7686Z"/><path class="cls-18" d="M403.7733,215.4994s-15.0894-.5165-25.1056,3.06c0,0-7.54,6.82-9.85,9.8229,0,0-2.44-8.76,7.8162-17.1226,0,0,20.2958-7.62,28.0854-5.07C404.72,206.19,408.8231,215.2727,403.7733,215.4994Z"/><path class="cls-18" d="M444.1923,215.0264s15.0978-.1038,25.0125,3.7452c0,0,7.35,7.0234,9.5773,10.0886,0,0,2.6785-8.69-7.3452-17.33,0,0-20.08-8.1719-27.9363-5.8359C443.5006,205.6944,439.1506,214.6617,444.1923,215.0264Z"/><path class="cls-19" d="M413.8253,293.6564c-1.4242.6884,11.7453,10.23,21.2172,0"/><path class="cls-20" d="M382.3784,324.7244s39.6-10.3244,82.5955-.3788C464.9739,324.3456,421.7818,316.01,382.3784,324.7244Z"/><path class="cls-20" d="M385.41,326.6188s-1.5156-1.5155-6.0621-3.7887"/><path class="cls-20" d="M461.9429,326.6188s1.5155-1.5155,6.062-3.7887"/><path class="cls-21" d="M409.2788,329.271s13.2607-4.9254,25.7637,0"/><path class="cls-22" d="M452.4709,256.5263c-.1552-3.4455,3.9127-6.5116,7.5776-6.062a6.1346,6.1346,0,0,1,5.3043,4.5465c.6123,3.08-1.8141,6.0314-4.5465,6.82C457.0884,262.9033,452.6285,260.0224,452.4709,256.5263Z"/><path class="cls-22" d="M385.7883,256.5263c-.1552-3.4455,3.9127-6.5116,7.5776-6.062a6.1347,6.1347,0,0,1,5.3043,4.5465c.6122,3.08-1.8141,6.0315-4.5465,6.82C390.4058,262.9034,385.9459,260.0224,385.7883,256.5263Z"/><path class="cls-23" d="M356.2358,259.5574c1.7254-11.3824,7.8434-18.0517,10.6086-19.7017,9.8246-5.8625,32.9928-9.6,43.95,3.031,9.5511,11.01,7.2378,28.7334-2.2733,38.6456-13.2514,13.81-37.2567,9.104-46.9809-3.031C360.6983,277.4508,354.6962,269.7142,356.2358,259.5574Z"/><path class="cls-23" d="M488.644,261.0729c-1.7254-11.3824-7.8434-18.0517-10.6086-19.7017-9.8246-5.8625-32.9928-9.6-43.95,3.031-9.5511,11.01-7.2378,28.7334,2.2733,38.6456,13.2514,13.81,37.2567,9.104,46.9809-3.031C484.1815,278.9663,490.1836,271.23,488.644,261.0729Z"/><path class="cls-24" d="M415.225,250.42s6.1779-4.5026,15.0449,0l-1.127,3.0515s-6.9822-2.25-12.9959,0Z"/><polygon class="cls-24" points="357.68 253.472 347.593 254.394 347.142 258.684 356.236 258.8 357.68 253.472"/><polygon class="cls-24" points="485.811 251.693 495.241 252.616 495.663 256.905 487.707 256.905 485.811 251.693"/><path class="cls-23" d="M357.9891,259.68c1.6325-10.7691,7.4209-17.0791,10.0371-18.64,9.2952-5.5466,31.2152-9.0828,41.582,2.8677,9.0365,10.417,6.8479,27.1854-2.1508,36.5636-12.5375,13.0661-35.25,8.6134-44.45-2.8678C362.2112,276.6091,356.5325,269.2893,357.9891,259.68Z"/><path class="cls-23" d="M487.142,261.1953c-1.6324-10.7692-7.4208-17.0791-10.037-18.64-9.2953-5.5466-31.2153-9.0827-41.5821,2.8678-9.0364,10.4169-6.8478,27.1853,2.1508,36.5635,12.5375,13.0661,35.25,8.6134,44.45-2.8678C482.92,278.1246,488.5986,270.8049,487.142,261.1953Z"/><circle class="cls-25" cx="422.5395" cy="440.2824" r="1.5155"/><circle class="cls-25" cx="402.8379" cy="409.9721" r="1.5155"/><circle class="cls-25" cx="443.7567" cy="409.9721" r="1.5155"/><path class="cls-26" d="M356.9431,261.7873a1.5009,1.5009,0,0,0,0-3,1.5009,1.5009,0,0,0,0,3Z"/><path class="cls-26" d="M357.0334,263.0378a1.1257,1.1257,0,0,0,0-2.25,1.1257,1.1257,0,0,0,0,2.25Z"/><path class="cls-26" d="M355.7207,263.1775a32.7074,32.7074,0,0,0,1.8509,9.0593c.4856,1.3527,2.6606.7694,2.17-.5982a30.5626,30.5626,0,0,1-1.77-8.4611c-.0907-1.4382-2.3414-1.4484-2.25,0Z"/><path class="cls-26" d="M363.6456,277.9713a18.8772,18.8772,0,0,1-3.5079-5.8938c-.4981-1.3464-2.6736-.7641-2.17.5982a21.9134,21.9134,0,0,0,4.0865,6.8866c.9543,1.0926,2.54-.5042,1.591-1.591Z"/><path class="cls-26" d="M365.65,280.1155l-1.5028-1.5561-1.591,1.591c14.5,14.8324,42.569,13.9139,51.3451-6.519.5653-1.3161-1.3724-2.4636-1.9428-1.1356-8.2028,19.0982-34.2587,19.9268-47.8113,6.0636-1.0143-1.0376-2.5975.5487-1.591,1.591l1.5028,1.5561c1.0077,1.0436,2.5977-.5485,1.591-1.591Z"/><path class="cls-26" d="M413.9779,274.1183a6.0606,6.0606,0,0,0,.5834-1.0617,1.163,1.163,0,0,0-.4036-1.5392,1.1329,1.1329,0,0,0-1.5392.4036,6.0606,6.0606,0,0,1-.5834,1.0617,1.1252,1.1252,0,1,0,1.9428,1.1356Z"/><path class="cls-26" d="M414.9324,272.37a43.0666,43.0666,0,0,0,1.7844-5.1521,1.126,1.126,0,0,0-2.17-.5981,43.0783,43.0783,0,0,1-1.7843,5.1521c-.5587,1.3338,1.6176,1.9161,2.17.5981Z"/><path class="cls-26" d="M416.7066,266.7867a15.3881,15.3881,0,0,0,.6365-7.1765c-.1951-1.4282-2.3634-.82-2.17.5981a12.9378,12.9378,0,0,1-.6365,5.98c-.4684,1.3734,1.7042,1.9631,2.17.5981Z"/><path class="cls-26" d="M358.781,259.2452a26.7745,26.7745,0,0,1,2.7994-9.33c1.2963-2.472,3.065-5.93,5.5048-7.3529a1.5011,1.5011,0,0,0-1.5142-2.59c-2.96,1.7267-5.0391,5.4955-6.5811,8.4292a30.8357,30.8357,0,0,0-3.2089,10.8441c-.2271,1.9133,2.7749,1.8969,3,0Z"/><path class="cls-26" d="M366.8345,242.3561a1.5009,1.5009,0,0,0,0-3,1.5009,1.5009,0,0,0,0,3Z"/><path class="cls-26" d="M368.4186,241.1356a56.0665,56.0665,0,0,1,14.9107-4.2285c1.4278-.2022.82-2.3705-.5981-2.17a58.0658,58.0658,0,0,0-15.4482,4.4553c-1.3215.5846-.178,2.5239,1.1356,1.9428Z"/><path class="cls-26" d="M384.1934,236.5358a49.6323,49.6323,0,0,1,15.7708,1.628,1.1259,1.1259,0,0,0,.5981-2.17,51.5413,51.5413,0,0,0-16.3689-1.7084c-1.44.08-1.4491,2.3306,0,2.25Z"/><path class="cls-26" d="M400.7365,238.435a19.2877,19.2877,0,0,1,9.0432,5.6179l1.5909-1.591-2.976-2.4659c-1.0979-.91-2.6817.61-1.591,1.591a23.8385,23.8385,0,0,1,8.0975,17.9231,1.1257,1.1257,0,0,0,2.25,0,26.067,26.067,0,0,0-8.7565-19.5141l-1.591,1.591,2.9761,2.4659a1.1257,1.1257,0,0,0,1.5909-1.591,21.3939,21.3939,0,0,0-10.0359-6.1965,1.126,1.126,0,0,0-.5982,2.17Z"/><path class="cls-26" d="M429.6542,250.887a34.0167,34.0167,0,0,0,4.1135,30.385c.81,1.19,2.7607.0656,1.9428-1.1357a31.9063,31.9063,0,0,1-3.8866-28.6512c.4679-1.3736-1.7046-1.9633-2.17-.5981Z"/><path class="cls-26" d="M438.4737,285.3792a1.1257,1.1257,0,0,0,0-2.25,1.1257,1.1257,0,0,0,0,2.25Z"/><path class="cls-26" d="M441.4265,284.8419c-3.0853-1.3663-4.8291-4.1309-6.5076-6.922l-1.7669,1.3633c3.0758,3.9491,6.2048,8.6681,11.2985,10.0186a1.13,1.13,0,0,0,.8669-2.0562l-3.626-2.494c-1.196-.8226-2.3224,1.1265-1.1356,1.9428l3.626,2.494.8669-2.0563c-4.5683-1.2111-7.55-5.9016-10.3057-9.44-.793-1.0182-2.4127.2894-1.7669,1.3633,1.86,3.0935,3.8991,6.2166,7.3147,7.7292,1.3122.5811,2.4583-1.3571,1.1357-1.9428Z"/><path class="cls-26" d="M445.5916,289.6405c9.77,2.8734,19.3886,3.0794,28.5613-1.8781,9.422-5.0921,13.946-13.0165,15.2483-23.4579.1787-1.4333-2.0729-1.42-2.25,0-1.27,10.18-6.1007,17.6989-15.4719,22.1993-8.4,4.034-16.7687,3.5319-25.49.9671a1.1259,1.1259,0,0,0-.5981,2.17Z"/><path class="cls-26" d="M489.413,263.7775a16.525,16.525,0,0,0-1.9576-9.82c-.59-1.0964-2.5332-.3369-2.0562.8668a60.5643,60.5643,0,0,1,1.8042,5.9215c.3318,1.1773,2.3312,1.0025,2.21-.2991a23.2422,23.2422,0,0,0-2.8369-9.2622c-.7016-1.2671-2.6455-.1335-1.9428,1.1356a20.4716,20.4716,0,0,1,2.53,8.1266l2.21-.299a60.5285,60.5285,0,0,0-1.8042-5.9215l-2.0562.8669a14.5015,14.5015,0,0,1,1.65,8.6847c-.1566,1.4375,2.0946,1.4264,2.25,0Z"/><path class="cls-26" d="M487.3471,253.9433a23.8438,23.8438,0,0,0-14.0894-15.0175c-1.3459-.5343-1.93,1.6408-.5981,2.17a21.4313,21.4313,0,0,1,12.5178,13.446c.4408,1.3733,2.6139.7862,2.17-.5981Z"/><path class="cls-26" d="M431.9461,250.8311a2.87,2.87,0,0,1,.6695-1.6016l-2.0562-.2687.0385-.1009,1.9428,1.1356a19.9269,19.9269,0,0,1,3.5728-4.8913,1.1256,1.1256,0,0,0-1.591-1.591,21.9418,21.9418,0,0,0-3.9246,5.3467,1.1259,1.1259,0,0,0,1.9428,1.1356,1.6906,1.6906,0,0,0,.1883-1.6328,1.143,1.143,0,0,0-2.0562-.2688,4.9454,4.9454,0,0,0-.9767,2.7372c-.1112,1.444,2.1393,1.4368,2.25,0Z"/><path class="cls-26" d="M431.4782,251.6971a1.1257,1.1257,0,0,0,0-2.25,1.1257,1.1257,0,0,0,0,2.25Z"/><path class="cls-26" d="M436.9024,244.3448c4.9728-4.9134,12.1283-5.4738,18.69-6.5245,1.4259-.2283.8207-2.3968-.5981-2.17-7.0246,1.1248-14.385,1.8683-19.6831,7.1031-1.0316,1.0192.56,2.61,1.591,1.591Z"/><path class="cls-26" d="M455.7135,237.7307c2.695.21,5.4846.2434,8.148.7,1.8357.3151,7.1816,1.184,8.5224,2.3264,1.0963.9341,2.6953-.65,1.591-1.591-2.2173-1.8891-5.1654-1.8106-7.8809-2.5656-3.3114-.9208-6.9662-.8538-10.38-1.12-1.4439-.1127-1.4366,2.1379,0,2.25Z"/><circle class="cls-16" cx="396.3969" cy="252.7376" r="1.1366"/><circle class="cls-16" cx="453.9864" cy="253.4953" r="1.1366"/><path class="cls-19" d="M338.4285,284.1845s-4.5465-8.3354-9.0931-8.3354c0,0-5.3043,6.82,4.5466,12.8819,0,0,6.82,8.3353,4.5465,17.4284,0,0,1.5155,10.6086,8.3354,5.3043"/><path class="cls-19" d="M502.9512,287.2155s4.5465-8.3353,9.093-8.3353c0,0,5.3043,6.82-4.5465,12.8818,0,0-6.82,8.3354-4.5465,17.4284,0,0-1.5156,10.6086-8.3354,5.3043"/><path class="cls-1" d="M592.6638,574.19l-4.4558,3.761c.3282,31.8283,21.1967,62.659,66.4959,91.5439,14.5923-6.3007,24.2687-15.8917,28.7371-28.9686C653.1222,593.0259,621.3733,568.7549,592.6638,574.19Z"/><path class="cls-2" d="M523.5483,516.5008l63.9924,63.5844c3.9056.3793,5.3091-2.9754,5.1231-5.8952l-64.98-63.4245C528.6265,514.0335,526.9405,515.7657,523.5483,516.5008Z"/><path class="cls-3" d="M437.9494,432.1039l85.5989,84.3969c3.43-.199,5.065-1.8646,2.989-6.5625l-84.2919-82.5825Z"/><path class="cls-4" d="M666.9245,657.3847l-78.61-76.2008c2.88-1.2527,4.267-3.6357,4.35-6.9939l75.3416,80.487"/><path class="cls-2" d="M437.9494,432.1039c-3.2846.38-6.6559,3.11-10.0588,6.6948,1.3074-14.3057,8.4981-21.1884,20.8125-21.6065-3.6712,3.42-6.4157,6.8206-6.4577,10.1636A17.0458,17.0458,0,0,0,437.9494,432.1039Z"/><path class="cls-10" d="M474.4459,473.2448c5.2459-2.9967,7.8515-8.9709,9.294-14.6017,8.8763.781,14.9881,7.2575,19.4975,14.3454.007,5.6534-1.0856,16.9528-5.958,14.1691C488.8433,482.3379,481.9121,478.3235,474.4459,473.2448Z"/><path class="cls-10" d="M442.5655,378.0764c9.8983-1.21,16.8231,3.367,22.9687,10.6978,6.3185,14.3135,11.3836,30.9493,12.4111,46.5362.0466,9.6375-3.452,18.0229,6.6717,23.6072,1.05,6.3345-5.459,11.1739-9.7169,14.3909-4.3122-2.0321-7.4623-4.9459-9.0954-9.4607-5.1945-9.4921-3.0946-19.2547-2.1138-29.4579-1.2182-13.5106-3.2747-27.7775-6.9414-40.8153C456.3305,386.1111,448.1467,381.301,442.5655,378.0764Z"/></g></svg>
