<svg id="flod_sprite" xmlns="http://www.w3.org/2000/svg" xmlns:xlink="http://www.w3.org/1999/xlink" viewBox="0 0 8000 900"><defs><style>.cls-1{fill:#62a2e8;stroke:#62a2e8;}.cls-1,.cls-2,.cls-3,.cls-4{stroke-miterlimit:10;}.cls-2{fill:#105089;stroke:#032f4f;}.cls-3{fill:#ced6dd;stroke:#ced6dd;}.cls-4{fill:#4483b2;stroke:#4483b2;}.cls-5{fill:none;}</style><symbol id="flod1" data-name="flod1" viewBox="0 0 1603.226 900.789"><path class="cls-1" d="M1.3889,368.2145S79.2684,418.285,176.28,565.3668c0,0,123.6113,134.5642,226.8816,145.5171,0,0,145.5171,59.4586,250.352,32.8587,0,0,109.529-14.0823,178.3759-82.9291,0,0,145.5171-70.4115,134.5642-278.5167,0,0-1.5647-46.941-61.0233-86.0585,0,0-203.4111-308.2459,201.8463-253.4814,0,0,126.7407,29.7293,273.8226,168.9876,0,0,98.5761,115.7878,134.5642,125.176,0,0,85.7256,48.5057,85.7256,35.9881V898.8079h-1600Z"/><path class="cls-2" d="M886.3132,268.4848s71.43.998,88.824,28.9192c0,0,55.5958,31.3928,33.2783,193.0466,0,0-53.8492,142.3623-99.3324,153.5556,0,0,137.4233-175.1019,52.93-301.69Z"/><path class="cls-2" d="M812.8249,206.585s155.1109,49.1715,205.411,138.2426c0,0,48.5038,89.3343,0,206.4493l-71.8573,133.475s77.2466-18.1778,123.9539-47.2622l102.3967,161.7821s414.5913,36.5062,429.9853-370.1047l-46.2851-24.2662S1567.9447,642.943,1524.83,642.943c0,0-88.0253,125.4266-168.8648,127.2444,0,0,244.315-163.6,156.29-274.4843L1492.936,349.8115s-13.4762,310.6369-88.4668,338.5759c0,0-176.0505,99.9777-202.997,85.4355,0,0,210.7817-103.7912,258.0877-459.0776,0,0-153.8946,388.1843-286.8307,429.9932,0,0,261.5983-369.0809,252.0584-469.0225,0,0-279.0049,458.1158-304.1549,410.8536,0,0,343.5411-391.3307,206.801-496.5074,0,0,73.4426,94.7788-208.5975,458.3341,0,0,225.3-423.1654,81.2125-538.7825,0,0,76.8737,171.8549-66.841,441.6631,0,0,113.0188-436.059-39.6-482.1274,0,0,122.2358,152.0693,25.2283,432.0069,0,0,44.9109-444.1073-149.104-432.0069,0,0,185.0327,55.7271,109.5825,519.26,0,0,73.2057-482.522-229.2694-484.8431,0,0,270.5874,72.2078,193.3407,535.7408C1043.386,639.3074,1117.601,110.1512,812.8249,206.585Z"/><path class="cls-2" d="M335.2626,689.29S64.3862,583.1357,1.3889,489.5171c0,0,155.7119,207.56,412.7382,246.4654,0,0-319.1716-59.2281-412.7382-164.31,0,0,75.46,203.8538,504.4463,185.3267,0,0-393.6844,45.8541-504.4463-40.1222,0,0,172.0045,179.5949,575.1379,103.1715,0,0-452.9125,114.6351-575.1379,34.3906,0,0,10.8922,52.1084,611.439,44.3691l13.528-150.1016S452.5634,741.2016,335.2626,689.29Z"/><path class="cls-3" d="M1575.1219,352.5675c-34.82-15.9447-46.8337-37.4172-71.9762-61.0233-39.1636-36.7706-50.2733-22.47-82.9291-54.7645-35.5152-35.1226-21.1817-50.8578-51.6351-84.4938-31.3546-34.6315-51.46-23.3752-142.3877-70.4115-55.3143-28.6138-56.6777-37.3335-90.7527-46.941-46.4043-13.0839-86.0989-8.8172-107.9643-6.2588-27.4592,3.2129-65.2471-1.5091-125.176,20.3411C842.7936,70.7121,841.6124,93.683,835.0187,103.78c-20.7345,31.7515.9056,62.5448-18.7764,79.8-20.4821,17.9564-49.3534-10.6252-90.7527,3.1294-33.0465,10.9795-67.458,46.7365-65.7174,89.1879,1.3017,31.7478,18.8023,33.7874,18.7764,66.2255-.0177,22.2492-15.8994,24.626-10.9529,40.1741,6.4132,20.1582,66.5357,44.7534,89.1879,32.8588,30.3244-15.9232,15.953-71.5919,42.2469-81.3644,19.0759-7.09,30.8914,20.63,62.588,21.9057,38.7032,1.5575,81.795-37.329,97.0115-78.235,10.9575-29.4564,3.0823-48.1908,23.4705-81.3644,7.0637-11.4934,16.6721-26.6721,31.294-28.1646,17.4552-1.7818,21.6126,18.0273,45.3763,25.0352,32.5388,9.5957,62.8611-16.3035,70.4115-6.2588,5.3953,7.1777-9.2063,21.5748-3.1294,29.7293,7.2315,9.7038,31.7489-5.53,45.3764,6.2588,10.4743,9.0608,5.8,26.5469,12.5175,28.1646,7.9231,1.9081,16.3346-21.9585,23.4705-20.3411,6.6769,1.5134,11.8229,25.244,3.1294,40.6822-12.67,22.5-56.65-4.3754-78.235,17.2117-16.0279,16.0293-3.4894,39.5684-20.3411,50.07-15.3469,9.5642-33.1312-5.3562-46.941,6.2588-9.4087,7.9134-3.657,16.9446-12.5176,26.6-16.3042,17.7666-47.5886.0574-57.8939,14.0822-8.6287,11.7432,1.4336,40.3143,18.7764,48.5058,15.2348,7.1958,30.7955-3.8349,35.9881,3.1294,6.0719,8.1435-14.4909,24.1836-9.3881,39.1175,5.2661,15.412,36.2471,24.9032,56.3291,15.647,12.5856-5.8011,9.24-13.5956,32.8587-32.8587,8.0838-6.5929,33.4507-24.94,25.0352-18.7764,0,0,21.2215-3.1578,23.4706,1.5647,2.33,4.892-18.46,12.4444-29.7294,32.8587-9.6967,17.5649-12.1765,44.3459,0,56.3292,11.7229,11.5368,31.3115,3.73,35.9881,14.0823,3.8184,8.4525-8.1436,16.084-4.694,26.6,3.5435,10.8025,20.5148,16.0054,32.8586,15.647,15.901-.4617,31.4193-10.364,39.1175-23.4705,7.8215-13.3164,3.132-22.3838,14.0823-37.5528,1.5679-2.1719,10.387-14.3885,15.647-12.5176,7.1694,2.55-3.725,27.1985,6.2589,45.3763,13.0145,23.6958,61.0732,35.6061,89.1879,15.647,28.1258-19.967,25.4211-64.1114,25.0351-70.4115-1.9264-31.4426-18.4464-46.9728-9.3882-59.4586,7.5885-10.46,28.7552-12.7552,35.9882-4.6941,11.7985,13.1491-21.8285,44.546-9.3882,68.8468,8.5368,16.6756,36.3338,25.2581,56.3292,18.7764,27.7128-8.9834,32.42-44.3037,48.5057-42.2469,8.7287,1.1161,16.43,12.6786,15.6471,21.9058-1.2609,14.855-24.5293,23.8445-43.8117,31.294-37.5444,14.5048-52.6943,8.3718-62.588,21.9058-13.1968,18.0525.29,47.3872,1.5647,50.07,16.5354,34.8176,59.06,42.9164,71.9762,45.3763,5.5792,1.0626,95.3566,30.6655,95.1138-17.2117-.6725-132.6,0-171.3852,0-276.9519C1601.3889,353.3816,1589.6417,359.2163,1575.1219,352.5675Z"/><path class="cls-3" d="M1601.3889,670.7858c0-36.5891-86.1612,71.8317-167.09,57.8939-22.1149-3.8087-24.5264-11.3276-62.588-18.7764-58.5581-11.46-69.5674,3.0659-97.0115-12.5176-30.9591-17.5794-34.69-46.1381-64.1527-48.5057-11.6245-.9341-19.4517,2.8359-29.7293-3.1294-12.0946-7.02-10.42-17.56-21.9057-31.294-13.5126-16.1568-22.9469-10.0777-40.6823-25.0352-24.1056-20.33-17.2567-40.4833-34.4234-46.941-16.0363-6.0325-22.5421,11.3549-56.3292,14.0823-23.88,1.9277-32.4689-5.8024-45.3763,1.5647-13.3415,7.6147-15.0041,22.06-20.3411,34.4234C945.7,629.7547,906.2742,625.1746,839.7128,664.527c-52.5056,31.0424-45.8911,44.4861-89.3228,62.6678-31.404,13.1467-51.4476,13.0611-93.6186,19.1059-76.4622,10.96-126.075,16.4525-145.2045,32.48C370.1837,897.2369,90.5609,643.1936,1.3889,702.5963V897.2369c450.2484,5.7846,884.8729,1.571,1600,1.571Z"/><path class="cls-3" d="M1.3889,330.9386c22.5669-19.2613,73.8838,3.13,101.3129,28.6587,15.0691,14.0252,12.284,19.09,28.6588,32.48,25.705,21.0188,43.5972,17.5553,70.6916,32.48,20.4442,11.2614,31.4616,25.34,53.4964,53.4964,40.0956,51.2352,38.8331,78.3966,68.781,89.7975,20.39,7.7623,26.4294-2.7524,47.7646,3.8211,49.7438,15.3266,53.0226,128.7577,38.4454,142.06C398,725.1743,307.1344,688.2179,255.6357,637.6906c-77.5095-76.0475-89.2454-51.7492-131.9175-94.6772-32.7717-32.9682-30.88-61.8655-78.3339-95.5292C27.072,434.4936,1.42,431.5682,1.3889,409.2725,1.3733,398.1846,1.3889,330.9386,1.3889,330.9386Z"/><path class="cls-4" d="M783.1036,214.9339s-21.7661-15.5472-55.97,0c0,0,59.08,7.2554,36.2769,31.0945,0,0,63.2256,8.6374,46.6418-19.0022C810.0522,227.0262,814.2028,209.0248,783.1036,214.9339Z"/><path class="cls-2" d="M997.7216,82.2639c7.0828,2.1231-40.4886-48.7147-74.6926,17.62C923.029,99.8842,940.8968,65.2307,997.7216,82.2639Z"/><path class="cls-4" d="M941.3151,152.5335s-51.4536-1.8616-58.709,66.5464c0,0,40.3943,24.7516,3.6134,42.9521,0,0,76.5665-26.157,65.8311-67.8278C952.0506,194.2042,918.0227,187.4621,941.3151,152.5335Z"/><path class="cls-4" d="M1028.75,124.76s12.4378,90.778,87.0647,27.7687C1115.8151,152.5285,1050.2026,199.8788,1028.75,124.76Z"/><path class="cls-4" d="M1196.6608,89.179s-42.4958-52.52-124.3781-38.01C1072.2827,51.1694,1141.7272,47.3792,1196.6608,89.179Z"/><path class="cls-2" d="M1143.8,174.7877s8.2791,19.908,0,32.4926c0,0,46.6418-13.5258,44.5689,20.3848,0,0,21.083-12.169,21.3467-26.4387C1209.7157,201.2264,1189.2212,221.2873,1143.8,174.7877Z"/><path class="cls-4" d="M673.2363,286.4513s25.9121,38.0393,18.6567,69.8074C691.893,356.2587,712.6227,335.1661,673.2363,286.4513Z"/><path class="cls-2" d="M685.29,375.589s-9.2164,9.3431,0,19.6932c0,0,22.15-4.146,22.15-9.8466,0,0-7.2554,21.2479,5.1824,21.2479,0,0,3.1094-19.6932,14.5108-15.5473,0,0,13.3988,4.1487,11.4013,15.5473,0,0,23.5023,24.8756,31.4444-24.8756,0,0-17.97,0-19.0066,12.4378,0,0-7.24-28.5033-25.3859-18.6567C725.5867,375.589,678.6879,394.9193,685.29,375.589Z"/><path class="cls-4" d="M1272.3556,149.7737s83.5358-9.1754,103.9946,57.5066C1376.35,207.28,1313.809,151.5158,1272.3556,149.7737Z"/><path class="cls-4" d="M1263.9465,236.9626s31.6237,94.8854-37,95.8628C1226.9469,332.8254,1304.5148,353.5721,1263.9465,236.9626Z"/><path class="cls-4" d="M1196.6608,295.6859s-73.7222-21.2321-53.1548,38.5685C1143.506,334.2544,1159.6476,287.1371,1196.6608,295.6859Z"/><path class="cls-4" d="M1101.6365,356.2587s-34.3375-9.3155-29.3538,17.2617c0,0-33.6942,32.9865-50.5158,19.691,0,0-40.7707,3.8653,0,19.691,0,0,40.7546-14.144,40.7688,0C1062.5357,412.9024,1116.8956,371.8742,1101.6365,356.2587Z"/><path class="cls-4" d="M1062.352,440.4656s-2.6316,84.4964,53.4631,9.3957C1115.8151,449.8613,1050.8012,553.1513,1062.352,440.4656Z"/><path class="cls-4" d="M1217.1927,416.8611s29.3427,23.62,41.1017-36.9527C1258.2944,379.9084,1259.3564,453.8138,1217.1927,416.8611Z"/><path class="cls-4" d="M1515.59,332.1291c-4.005-6,6.1084,50.8926,60.5945,45.1281C1576.1846,377.2572,1547.7212,380.2688,1515.59,332.1291Z"/><path class="cls-4" d="M1184.9043,566.9346s88.9173,22.1145,58.0768-70.558C1242.9811,496.3766,1262.6223,574.87,1184.9043,566.9346Z"/><path class="cls-4" d="M1376.6273,533.0508s15.9219-21.4936.9694-55.9617c0,0-8.2775,58.9451-31.7182,35.733,0,0-9.731,63.0664,18.1916,46.9639C1364.07,559.786,1381.9969,564.2477,1376.6273,533.0508Z"/><path class="cls-2" d="M1375.6225,295.0448s-47.8059,19.1189-26.7587,84.6117c0,0,46.9552,6.2886,20.6853,37.8161,0,0,59.4329-54.9032,32.7531-88.6655C1402.3022,328.8071,1368.4566,336.4114,1375.6225,295.0448Z"/><path class="cls-4" d="M1491.5516,630.0985s33.4757-12.05,14.1572-30.9707c0,0,8.6995-46.3435,30.1045-45.0921,0,0,31.1914-26.5384-11.2876-16.1346,0,0-25.286,34.9515-33.4056,23.37C1491.12,561.2713,1470.0971,626.05,1491.5516,630.0985Z"/><path class="cls-4" d="M524.5348,801.5159s25.0913-54.7445,182.4818-47.9015c0,0,124.5338-9.127,147.8052-53.6054,0,0-21.31-54.284,105.9076-69.9105,0,0,52.6133-41.3326,36.9922-60.8557,0,0,67.6348,39.9858,31.0288,60.8557,0,0-38.1389,82.8319-96.9709,55.2809,0,0-25.7344,61.392-65.9421,59.111,0,0-121.1393,66.15-168.4928,47.9014C697.3446,792.3918,635.1708,748.5959,524.5348,801.5159Z"/><path class="cls-4" d="M960.7294,751.3334s162.28-21.77,143.6086-93.0017C1104.338,658.3317,1139.9983,761.4389,960.7294,751.3334Z"/><path class="cls-4" d="M1075.3627,528.0144s1.3092-22.8965,42.8667,52.9994c0,0,45.9692,6.2074,62.588,56.3292,0,0,61.4022-10.19,68.6638,30.23,0,0,12.0012,28.4239,94.0292,29.86,0,0,55.3381,1.126,74.3857,18.3889,0,0,48.8981,28.0177,158.2885-50.3524,0,0,15.3107-10.9651,25.2043-3.0918v42.8029s-55.4788,63.4152-119.4858,37.0282c0,0-85.5444,20.5292-141.6662-4.562,0,0-101.623-4.2316-130.5212-52.2679,0,0-45.11-66.8845-75.2439-46.9661,0,0-27.7528-69.0555-55.3868-55.6224,0,0-65.1581,9.0538-55.3575-37.5648Z"/><path class="cls-4" d="M1139.391,785.27c-5.805,4.58,63.1318-5.1791,28.46-71.2706C1167.8507,713.9992,1185.9637,748.5252,1139.391,785.27Z"/><path class="cls-2" d="M1474.5305,814.8136s15.9219-21.4937.9693-55.9618c0,0-8.2775,58.9451-31.7181,35.733,0,0-9.7311,63.0665,18.1916,46.9639C1461.9733,841.5487,1479.9,846.01,1474.5305,814.8136Z"/><path class="cls-2" d="M795.1812,877.5729c-3.8457-10.8123,85.54-68.6464,131.1475-41.53,14.5138,8.6293,12.84,18.8731,26.23,24.0437,42.2189,16.3031,100.6767-69.39,115.847-59.0164,8.9393,6.1131,3.746,46.199-21.8579,65.5737-29.5642,22.3716-61.3934-1.7489-139.8907-2.1857C833.97,864.0536,797.6028,884.3812,795.1812,877.5729Z"/><path class="cls-4" d="M220.3178,785.77c.86-3.96,96.1019,2.28,98.3607,24.0437,1.9881,19.1558-68.8328,42.8656-72.1312,37.1585-2.1568-3.7318,26.2334-17.1437,24.0437-32.7869C267.8535,794.6279,219.7025,788.6032,220.3178,785.77Z"/><path class="cls-2" d="M1.3889,330.9386c.9364-4.9219,43.38-7.22,82.7008,13.8576,16.279,8.7262,37.6172,20.1643,40.2042,40.886,3.2255,25.8364-24.4925,51.7422-32.9378,48.1749-7.5659-3.1959,6.2715-27.5387-4.3716-52.4591C69.1624,339.6686.1848,337.2664,1.3889,330.9386Z"/><path class="cls-4" d="M167.8588,464.4581c-3.5038,2.43,9.9972,28.8433,26.2994,52.0064,16.5968,23.5817,26.0069,36.952,37.0886,35.4253,14.9417-2.0584,27.3688-30.4342,19.6721-41.53-4.577-6.5984-13.5367-3.145-28.4153-6.5574C187.5286,495.781,171.7869,461.7335,167.8588,464.4581Z"/><path class="cls-2" d="M23.5965,704.8953c-7.9.2917-31.9612,85.5636,6.5574,111.4754,25.2742,17.0022,68.7011,2.5339,69.9453-8.7431,1.0276-9.3136-27.3813-10.4308-50.2732-37.1585C23.902,740.2011,28.7074,704.7066,23.5965,704.8953Z"/><path class="cls-4" d="M377.0362,660.29c-3.2937,7.2557,81.6485-44.6073-33.9784-73.0922C343.0578,587.198,403.4614,602.0782,377.0362,660.29Z"/><path class="cls-4" d="M418.1122,860.3855s64.2861,20.7745,124.9422-36.1122C543.0544,824.2733,486.9593,865.3858,418.1122,860.3855Z"/><path class="cls-1" d="M2.0439,783.4042S48.8716,661.1025,171.6714,665.4705c0,0,130.9865-4.368,270.16,82.99,0,0,135.08,82.99,249.693,4.3679,0,0,45.0266-65.7473,110.52-87.4726,0,0,102.3332-9.8334,171.92,60.6592,0,0,53.2132,72.6654,139.1731,60.6592,0,0,65.4932-73.4974,139.1731-60.2235,0,0,106.4266-8.0821,151.4532,61.5628s151.4531,21.5978,143.2665-17.7134l55.0143-26.1624V900h-1600Z"/><path class="cls-3" d="M2.2066,690.2726c2.4482-4.0911,32.4152-52.0183,83.1836-35.3283a1.1252,1.1252,0,0,0,.629.024c5.2318-1.3443,76.4912-17.4655,159.15,77.9682a1.0846,1.0846,0,0,0,.4371.3074c5.9864,2.2631,115.6891,42.7465,161.2572-12.1965a63.8488,63.8488,0,0,1,42.3229-23.0341c32.6419-3.4421,80.0468.8033,90.7746,51.192a1.1272,1.1272,0,0,0,.5824.7694c7.25,3.7274,96.3316,47.44,159.5212-21.0068a.767.767,0,0,1,.0717-.0691c1.9413-1.6419,80.4741-67.5172,133.811-24.38a1.0949,1.0949,0,0,0,1.0195.2009c9.1533-2.8754,128.4421-38.597,138.9966,49.2337,9.6042,79.9233,115.3391,59.3415,127.43,27.3451,5.3386-14.1282,15.2281-26.0516,28.6731-32.9321,27.1624-13.9,68.6238-27.0934,105.8828-5.9505a39.889,39.889,0,0,0,35.1031,2.3591c25.3282-10.5944,72.8865-22.6509,121.0872,6.5806a.8832.8832,0,0,1,.091.0625c2.0619,1.6169,83.0507,64.4247,145.7792,4.178a1.0476,1.0476,0,0,0,.21-.2789c1.7291-3.35,31.9676-60.5415,63.5316-25.117a1.1639,1.1639,0,0,1,.293.769V836.5275a1.1384,1.1384,0,0,1-.5083.9484c-4.9253,3.2879-44.9339,28.1608-88.8486-.0633a1.0824,1.0824,0,0,0-.923-.1262c-7.8188,2.53-108.56,33.86-152.4277-16.429a38.2236,38.2236,0,0,0-15.5556-10.5913c-22.4787-8.3532-74.4834-22.9939-99.8954,8.4887,0,0-79.7527,38.651-157.342,16.4155a1.1594,1.1594,0,0,0-.7269.0494c-6.644,2.5074-107.02,38.7586-170.7754-34.5694a1.1312,1.1312,0,0,0-1.5668-.143c-8.3516,6.7551-76.5723,59.2568-110.651.6752a1.3174,1.3174,0,0,0-1.9725-.3781c-10.6108,8.6267-90.4138,69.5474-175.777,24.2362a1.07,1.07,0,0,0-.6354-.12c-8.7184,1.071-186.7572,22.3877-255.29-14.2894a56.302,56.302,0,0,0-37.7913-5.6366c-43.8915,8.919-142.8034,23.6149-219.19-4.9641a1.0949,1.0949,0,0,0-1.0564.1536c-6.7484,5.1766-83.1758,61.4582-109.0161-24.1326a1.1857,1.1857,0,0,1-.05-.34V690.8593A1.14,1.14,0,0,1,2.2066,690.2726Z"/><path class="cls-2" d="M54.2993,664.8883S6.4933,684.0071,27.5405,749.5c0,0,46.9553,6.2887,20.6854,37.8161,0,0,59.4328-54.9031,32.7531-88.6654C80.979,698.6506,47.1333,706.2549,54.2993,664.8883Z"/><path class="cls-2" d="M504.75,819.4877c-3.1193-7.6072,69.3817-48.2976,106.3738-29.2193,11.7722,6.0713,10.4142,13.2785,21.2748,16.9164,34.2437,11.47,81.6589-48.8211,93.9636-41.5222,7.2507,4.301,3.0383,32.5043-17.729,46.1358-23.98,15.74-49.7963-1.2305-113.4654-1.5379C536.2114,809.9759,506.7143,824.2778,504.75,819.4877Z"/><path class="cls-2" d="M1392.2305,751.4177s85.7442,71.4211,145.9888,3.8991C1538.2193,755.3168,1572.65,889.193,1392.2305,751.4177Z"/><path class="cls-3" d="M802.0439,665.3562s96.1419-15.6429,134.0308,36.4769C936.0747,701.8331,892.8061,677.3455,802.0439,665.3562Z"/><path class="cls-4" d="M216.8079,682.4942S265.81,753.46,358.0768,718.3778C358.0768,718.3778,273.689,780.6947,216.8079,682.4942Z"/><path class="cls-4" d="M1243.8853,818.7548"/><path class="cls-4" d="M787.9234,689.9763s44.22-8.459,46.0242,14.5421c0,0,64.2382-26.8675,102.1271-2.6853,0,0-53.1252-6.28-74.0756,24.2691C861.9991,726.1022,801.0058,739.8273,787.9234,689.9763Z"/><path class="cls-4" d="M376.5482,742.3946S495.76,627.8827,539.9613,749.2053C539.9613,749.2053,523.8732,668.0962,376.5482,742.3946Z"/><path class="cls-2" d="M928.7021,764.7154s15.9219-21.4937.9694-55.9618c0,0-8.2775,58.9451-31.7182,35.733,0,0-9.731,63.0665,18.1916,46.9639C916.1449,791.4505,934.0717,795.9122,928.7021,764.7154Z"/><path class="cls-4" d="M160.1734,765.07s49.0022,70.9653,141.269,35.8837C301.4424,800.9533,217.0546,863.27,160.1734,765.07Z"/><rect class="cls-5" x="2.0439" width="1600" height="900"/></symbol><symbol id="flod2" data-name="flod2" viewBox="0 0 1603.305 900.789"><path class="cls-1" d="M1.4643,464.1576s77.88,41.0417,174.8909,161.602c0,0,123.6113,110.3,226.8815,119.2777,0,0,145.5172,48.7371,250.3521,26.9336,0,0,109.529-11.543,178.3758-67.9754,0,0,145.5172-57.715,134.5643-228.2949,0,0-1.5647-38.4767-61.0233-70.5406,0,0-203.4111-252.6635,201.8463-207.774,0,0,126.7407,24.3685,273.8226,138.516,0,0,98.5761,94.9091,134.5642,102.6044,0,0,85.7256,39.7593,85.7256,29.4988v431.07h-1600Z"/><path class="cls-2" d="M886.3886,382.4109s71.43.8181,88.824,23.7045c0,0,55.5958,25.7322,33.2783,158.2368,0,0-53.8492,116.6917-99.3324,125.8667,0,0,137.4233-143.5278,52.9295-247.29Z"/><path class="cls-2" d="M812.9,331.6728s155.1109,40.305,205.411,113.3149c0,0,48.5038,73.2257,0,169.2227L946.454,723.6173s77.2466-14.9,123.9539-38.74l102.3967,132.61s414.5913,29.9234,429.9853-303.3679l-46.2851-19.8906s11.5153,195.1186-31.5991,195.1186c0,0-88.0253,102.81-168.8648,104.3,0,0,244.315-134.1,156.29-224.99l-19.3192-119.5846s-13.4762,254.6233-88.4668,277.5244c0,0-176.0505,81.95-202.997,70.03,0,0,210.7817-85.0758,258.0877-376.2974,0,0-153.8946,318.1875-286.8307,352.4574,0,0,261.5983-302.5287,252.0584-384.449,0,0-279.0049,375.509-304.1549,336.7691,0,0,343.5411-320.7665,206.801-406.9779,0,0,73.4426,77.6884-208.5975,375.6879,0,0,225.3-346.8608,81.2124-441.63,0,0,76.8738,140.8663-66.8409,362.0231,0,0,113.0188-357.43-39.6-395.1909,0,0,122.2358,124.6484,25.2283,354.108,0,0,44.9109-364.0265-149.104-354.108,0,0,185.0327,45.6785,109.5825,425.6279,0,0,73.2057-395.5143-229.2694-397.4168,0,0,270.5874,59.1873,193.3407,439.1368C1043.4614,686.3674,1117.6764,252.6278,812.9,331.6728Z"/><path class="cls-2" d="M335.338,727.337S64.4616,640.3245,1.4643,563.587c0,0,155.7119,170.1334,412.7382,202.0231,0,0-319.1716-48.5482-412.7382-134.6821,0,0,75.46,167.0952,504.4463,151.9089,0,0-393.6844,37.5857-504.4463-32.8875,0,0,172.0045,147.2106,575.1379,84.5678,0,0-452.9125,93.9643-575.1379,28.1893,0,0,10.8922,42.7123,611.439,36.3685L626.4313,776.04S452.6388,769.8881,335.338,727.337Z"/><path class="cls-3" d="M1575.1973,451.332c-34.82-13.07-46.8338-30.67-71.9762-50.02-39.1636-30.14-50.2733-18.4181-82.9291-44.8894-35.5152-28.7894-21.1818-41.6872-51.6351-69.258-31.3546-28.3868-51.46-19.16-142.3877-57.715-55.3143-23.4542-56.6777-30.6016-90.7527-38.4767-46.4043-10.7246-86.0989-7.2273-107.9644-5.13-27.4591,2.6335-65.247-1.237-125.1759,16.6732-59.5072,17.7841-60.6884,36.613-67.2821,44.8894-20.7345,26.0262.9056,51.2668-18.7765,65.41-20.482,14.7185-49.3533-8.7093-90.7526,2.5651-33.0465,9-67.458,38.309-65.7174,73.1057,1.3017,26.023,18.8023,27.6949,18.7764,54.2837-.0178,18.2373-15.8994,20.1855-10.9529,32.93,6.4132,16.5232,66.5356,36.6834,89.1879,26.9336,30.3244-13.0519,15.953-58.6825,42.2469-66.6929,19.0759-5.8114,30.8914,16.91,62.588,17.9558,38.7032,1.2766,81.795-30.5979,97.0115-64.1278,10.9575-24.1448,3.0823-39.5011,23.47-66.6929,7.0637-9.4209,16.6721-21.8626,31.294-23.086,17.4552-1.4605,21.6126,14.7767,45.3763,20.5209,32.5388,7.8654,62.8611-13.3636,70.4115-5.13,5.3953,5.8834-9.2063,17.6844-3.1294,24.3686,7.2315,7.9539,31.7489-4.5325,45.3764,5.13,10.4743,7.4269,5.8,21.76,12.5175,23.086,7.9231,1.564,16.3346-17.999,23.47-16.6733,6.6769,1.24,11.8229,20.6921,3.1294,33.3465-12.67,18.4428-56.65-3.5864-78.235,14.1081-16.0279,13.1389-3.4894,32.4335-20.3411,41.0418-15.3469,7.84-33.1312-4.39-46.941,5.13-9.4087,6.4864-3.657,13.8891-12.5176,21.8035-16.3042,14.563-47.5886.0471-57.8939,11.543-8.6287,9.6256,1.4336,33.0448,18.7764,39.7592,15.2348,5.8983,30.7955-3.1433,35.9881,2.5651,6.0719,6.6751-14.4909,19.8229-9.3882,32.0639,5.2662,12.633,36.2472,20.4128,56.3291,12.8256,12.5857-4.7551,9.24-11.1441,32.8588-26.9337,8.0838-5.4041,33.4507-20.443,25.0352-15.3907,0,0,21.2215-2.5884,23.4705,1.2826,2.33,4.01-18.46,10.2005-29.7293,26.9337-9.6967,14.3976-12.1765,36.35,0,46.172,11.7229,9.4565,31.3115,3.0572,35.9881,11.543,3.8184,6.9283-8.1436,13.1837-4.6941,21.8034,3.5436,8.8546,20.5149,13.1194,32.8587,12.8256,15.901-.3785,31.4193-8.4952,39.1175-19.2384,7.8215-10.9151,3.132-18.3476,14.0823-30.7813,1.5679-1.78,10.387-11.794,15.647-10.26,7.1694,2.09-3.725,22.2942,6.2589,37.1942,13.0145,19.423,61.0732,29.1856,89.1879,12.8255,28.1258-16.3666,25.4211-52.5509,25.0351-57.715-1.9264-25.7729-18.4464-38.5027-9.3882-48.7371,7.5885-8.5739,28.7552-10.4552,35.9882-3.8477,11.7985,10.7781-21.8285,36.5136-9.3882,56.4325,8.5368,13.6686,36.3338,20.7036,56.3292,15.3906,27.7128-7.3635,32.42-36.3149,48.5057-34.629,8.7287.9149,16.43,10.3925,15.647,17.9558-1.2608,12.1764-24.5292,19.5449-43.8116,25.6511-37.5444,11.8894-52.6943,6.8622-62.588,17.9558-13.1968,14.7974.29,38.8424,1.5647,41.0418,16.5354,28.5393,59.06,35.1778,71.9762,37.1941,5.5792.871,95.3566,25.136,95.1138-14.1081-.6725-108.69,0-140.4812,0-227.0123C1601.4643,451.9992,1589.7171,456.7819,1575.1973,451.332Z"/><path class="cls-3" d="M1601.4643,712.17c0-29.9915-86.1612,58.8791-167.09,47.4546-22.1149-3.122-24.5264-9.2851-62.588-15.3907-58.5581-9.3935-69.5674,2.513-97.0115-10.2605-30.9591-14.4095-34.69-37.8186-64.1527-39.7592-11.6245-.7657-19.4517,2.3246-29.7293-2.5651-12.0946-5.7542-10.42-14.3939-21.9057-25.6511-13.5126-13.2434-22.9469-8.26-40.6823-20.5209-24.1056-16.6642-17.2567-33.1834-34.4234-38.4767-16.0363-4.9447-22.5421,9.3074-56.3293,11.543-23.88,1.58-32.4688-4.7561-45.3762,1.2826-13.3415,6.2416-15.0041,18.0818-20.3411,28.2162-16.0594,30.4954-55.4852,26.7411-122.0466,58.9976-52.5056,25.4448-45.8911,36.4644-89.3228,51.3676-31.404,10.7761-51.4476,10.7059-93.6186,15.6607-76.4622,8.9838-126.075,13.4858-145.2045,26.6232C370.2591,897.7873,90.6363,689.5528,1.4643,738.2441V897.7873c450.2484,4.7415,884.8729,1.2877,1600,1.2877Z"/><path class="cls-3" d="M1.4643,433.6031c22.5669-15.788,73.8838,2.5655,101.3129,23.4911,15.0691,11.4961,12.284,15.648,28.6588,26.6232,25.705,17.2287,43.5972,14.39,70.6916,26.6232,20.4442,9.2307,31.4616,20.77,53.4964,43.85,40.0956,41.9965,38.8331,64.26,68.781,73.6053,20.39,6.3627,26.4294-2.2561,47.7646,3.1321,49.7438,12.5629,53.0226,105.54,38.4454,116.4437-12.5392,9.3791-103.4052-20.9134-154.9039-62.33-77.5095-62.3347-89.2454-42.4178-131.9175-77.605-32.7717-27.0235-30.88-50.71-78.3339-78.3036C27.1474,518.4853,1.4956,516.0874,1.4643,497.812,1.4487,488.7234,1.4643,433.6031,1.4643,433.6031Z"/><path class="cls-4" d="M783.179,338.5163s-21.7662-12.7438-55.97,0c0,0,59.08,5.9471,36.2769,25.4876,0,0,63.2256,7.08,46.6418-15.5758C810.1276,348.4281,814.2782,333.6727,783.179,338.5163Z"/><path class="cls-2" d="M997.797,229.7692c7.0828,1.74-40.4886-39.9306-74.6926,14.4429C923.1044,244.2121,940.9722,215.8073,997.797,229.7692Z"/><path class="cls-4" d="M941.3905,287.3678s-51.4536-1.5259-58.709,54.5468c0,0,40.3943,20.2885,3.6134,35.2071,0,0,76.5665-21.44,65.831-55.5972C952.1259,321.5245,918.0981,315.9981,941.3905,287.3678Z"/><path class="cls-4" d="M1028.8258,264.6022s12.4378,74.409,87.0647,22.7616C1115.8905,287.3638,1050.2779,326.1759,1028.8258,264.6022Z"/><path class="cls-4" d="M1196.7362,235.4373s-42.4958-43.05-124.3781-31.1557C1072.3581,204.2816,1141.8026,201.1748,1196.7362,235.4373Z"/><path class="cls-2" d="M1143.8755,305.6092s8.2791,16.3182,0,26.6335c0,0,46.6418-11.0868,44.5689,16.7091,0,0,21.083-9.9747,21.3467-21.6713C1209.7911,327.2805,1189.2966,343.724,1143.8755,305.6092Z"/><path class="cls-4" d="M673.3117,397.1378s25.9121,31.18,18.6567,57.22C691.9684,454.3576,712.6981,437.0684,673.3117,397.1378Z"/><path class="cls-2" d="M685.3658,470.2022s-9.2164,7.6584,0,16.1422c0,0,22.15-3.3984,22.15-8.0711,0,0-7.2554,17.4165,5.1824,17.4165,0,0,3.1094-16.1421,14.5108-12.7438,0,0,13.3988,3.4006,11.4013,12.7438,0,0,23.5023,20.39,31.4444-20.39,0,0-17.97,0-19.0066,10.195,0,0-7.24-23.3636-25.3859-15.2926C725.6621,470.2022,678.7633,486.0469,685.3658,470.2022Z"/><path class="cls-4" d="M1272.431,285.1057s83.5358-7.521,103.9946,47.137C1376.4256,332.2427,1313.8844,286.5337,1272.431,285.1057Z"/><path class="cls-4" d="M1264.0219,356.5728s31.6237,77.7758-37,78.5769C1227.0223,435.15,1304.59,452.1554,1264.0219,356.5728Z"/><path class="cls-4" d="M1196.7362,404.7072s-73.7223-17.4036-53.1548,31.6138C1143.5814,436.321,1159.723,397.7,1196.7362,404.7072Z"/><path class="cls-4" d="M1101.7119,454.3576s-34.3375-7.6357-29.3538,14.149c0,0-33.6942,27.0385-50.5158,16.14,0,0-40.7707,3.1683,0,16.14,0,0,40.7546-11.5936,40.7688,0C1062.6111,500.7874,1116.971,467.1573,1101.7119,454.3576Z"/><path class="cls-4" d="M1062.4274,523.38s-2.6316,69.26,53.4631,7.7015C1115.8905,531.0819,1050.8766,615.7468,1062.4274,523.38Z"/><path class="cls-4" d="M1217.2681,504.0322s29.3427,19.361,41.1017-30.2894C1258.37,473.7428,1259.4318,534.3217,1217.2681,504.0322Z"/><path class="cls-4" d="M1515.6655,434.579c-4.005-4.9184,6.1084,41.7157,60.5945,36.9907C1576.26,471.57,1547.7966,474.0382,1515.6655,434.579Z"/><path class="cls-4" d="M1184.98,627.0447s88.9174,18.1268,58.0769-57.8351C1243.0565,569.21,1262.6976,633.55,1184.98,627.0447Z"/><path class="cls-4" d="M1376.7027,599.2708s15.9219-17.618.9694-45.8708c0,0-8.2775,48.3162-31.7182,29.29,0,0-9.731,51.6945,18.1916,38.4955C1364.1455,621.1851,1382.0723,624.8422,1376.7027,599.2708Z"/><path class="cls-2" d="M1375.6979,404.1817s-47.8059,15.6714-26.7587,69.3546c0,0,46.9552,5.1547,20.6853,30.9971,0,0,59.4329-45.0031,32.7531-72.6774C1402.3776,431.856,1368.532,438.0891,1375.6979,404.1817Z"/><path class="cls-4" d="M1491.627,678.819s33.4757-9.8776,14.1571-25.3861c0,0,8.7-37.987,30.1046-36.9612,0,0,31.1914-21.753-11.2876-13.2252,0,0-25.286,28.649-33.4056,19.156C1491.1955,622.4025,1470.1724,675.5008,1491.627,678.819Z"/><path class="cls-4" d="M524.61,819.3266s25.0913-44.8731,182.4818-39.2639c0,0,124.5338-7.4813,147.8052-43.9394,0,0-21.31-44.4956,105.9076-57.3043,0,0,52.6133-33.88,36.9922-49.8823,0,0,67.6348,32.7756,31.0288,49.8823,0,0-38.1389,67.8957-96.9709,45.3127,0,0-25.7344,50.3218-65.9421,48.4521,0,0-121.1393,54.2217-168.4928,39.264C697.42,811.8478,635.2462,775.949,524.61,819.3266Z"/><path class="cls-4" d="M960.8048,778.193s162.28-17.8444,143.6086-76.2318C1104.4134,701.9612,1140.0737,786.4763,960.8048,778.193Z"/><path class="cls-4" d="M1075.4381,595.1426s1.3092-18.7679,42.8667,43.4425c0,0,45.9692,5.0881,62.588,46.172,0,0,61.4022-8.3528,68.6638,24.7793,0,0,12.0012,23.2985,94.0292,24.4758,0,0,55.3381.9229,74.3857,15.073,0,0,48.8981,22.9657,158.2885-41.2729,0,0,15.3107-8.9879,25.2043-2.5343v35.0848s-55.4788,51.98-119.4858,30.3513c0,0-85.5444,16.8274-141.6662-3.7394,0,0-101.623-3.4685-130.5212-42.843,0,0-45.11-54.824-75.2439-38.4973,0,0-27.7528-56.6035-55.3868-45.5926,0,0-65.1581,7.4212-55.3575-30.7911Z"/><path class="cls-4" d="M1139.4664,806.01c-5.805,3.7541,63.1318-4.2453,28.46-58.4192C1167.9261,747.5908,1186.0391,775.8911,1139.4664,806.01Z"/><path class="cls-2" d="M1474.6059,830.2265s15.9219-17.618.9693-45.8708c0,0-8.2775,48.3162-31.7181,29.29,0,0-9.7311,51.6944,18.1916,38.4955C1462.0487,852.1408,1479.9755,855.7979,1474.6059,830.2265Z"/><path class="cls-2" d="M795.2566,881.6691c-3.8457-8.8626,85.54-56.2681,131.1475-34.0414,14.5138,7.0733,12.84,15.47,26.23,19.7082,42.2189,13.3634,100.6767-56.878,115.847-48.3746,8.9393,5.0108,3.746,37.8684-21.8579,53.75-29.5642,18.3375-61.3934-1.4336-139.8907-1.7917C834.0449,870.5876,797.6782,887.25,795.2566,881.6691Z"/><path class="cls-4" d="M220.3932,806.42c.86-3.246,96.1018,1.8688,98.3607,19.7082,1.9881,15.7016-68.8328,35.136-72.1312,30.4581-2.1568-3.059,26.2334-14.0524,24.0437-26.8748C267.9289,813.6807,219.7779,808.7423,220.3932,806.42Z"/><path class="cls-2" d="M1.4643,433.6031c.9364-4.0343,43.38-5.918,82.7008,11.3589,16.279,7.1527,37.6172,16.5283,40.2042,33.5135,3.2255,21.1776-24.4925,42.4121-32.9378,39.488-7.5659-2.6195,6.2715-22.5729-4.3716-43C69.2378,440.759.26,438.79,1.4643,433.6031Z"/><path class="cls-4" d="M167.9342,543.0466c-3.5038,1.9922,9.9972,23.6424,26.2994,42.6287,16.5968,19.3294,26.0069,30.2889,37.0886,29.0375,14.9416-1.6873,27.3688-24.9464,19.6721-34.0414-4.577-5.4086-13.5367-2.5779-28.4153-5.375C187.604,568.7214,171.8622,540.8133,167.9342,543.0466Z"/><path class="cls-2" d="M23.6719,740.1285c-7.9.2391-31.9612,70.1349,6.5574,91.3743,25.2742,13.9364,68.7011,2.077,69.9453-7.1666,1.0276-7.6341-27.3813-8.55-50.2732-30.4581C23.9774,769.068,28.7828,739.9738,23.6719,740.1285Z"/><path class="cls-4" d="M377.1116,703.5666c-3.2937,5.9473,81.6485-36.5638-33.9784-59.9123C343.1332,643.6543,403.5368,655.8513,377.1116,703.5666Z"/><path class="cls-4" d="M418.1876,867.5809S482.4737,884.6094,543.13,837.98C543.13,837.98,487.0347,871.68,418.1876,867.5809Z"/><path class="cls-1" d="M2.1193,754.1982s46.8276-152.937,169.6275-147.475c0,0,130.9865-5.462,270.16,103.7787,0,0,135.08,103.7787,249.693,5.462,0,0,45.0266-82.2163,110.52-109.3836,0,0,102.3332-12.2965,171.92,75.8537,0,0,53.2133,90.8674,139.1732,75.8538,0,0,65.4932-91.9079,139.1731-75.3089,0,0,106.4266-10.1066,151.4532,76.9836s151.4531,27.0079,143.2664-22.15l55.0144-32.7159V900h-1600Z"/><path class="cls-3" d="M2.282,637.738C4.73,632.6222,34.6972,572.69,85.4656,593.56a.9109.9109,0,0,0,.629.03c5.2318-1.6811,76.4912-21.8405,159.15,97.4983a1.121,1.121,0,0,0,.4371.3845c5.9864,2.83,115.6891,53.4541,161.2572-15.2516,10.6537-16.0632,25.7263-26.6154,42.3229-28.8039,32.6419-4.3043,80.0468,1.0045,90.7746,64.0151a1.4136,1.4136,0,0,0,.5824.962c7.25,4.6612,96.3316,59.3236,159.5212-26.2687a.8764.8764,0,0,1,.0717-.0864c1.9412-2.0532,80.4741-84.43,133.811-30.4874a.93.93,0,0,0,1.0195.2512c9.1532-3.5957,128.4421-48.2651,138.9965,61.5662,9.6043,99.9433,115.3392,74.2059,127.43,34.1948,5.3386-17.6671,15.2281-32.5773,28.6731-41.1813,27.1624-17.3822,68.6238-33.88,105.8827-7.441,10.763,7.6374,23.6866,8.9216,35.1032,2.95,25.3282-13.2482,72.8865-28.3247,121.0872,8.229a.9123.9123,0,0,1,.091.0781c2.0619,2.022,83.0507,80.5625,145.7792,5.2247a1.33,1.33,0,0,0,.21-.3488c1.7291-4.19,31.9676-75.7065,63.5315-31.4086a1.6785,1.6785,0,0,1,.2931.9616v132a1.5446,1.5446,0,0,1-.5083,1.1859c-4.9253,4.1115-44.9339,35.2148-88.8486-.0791a.902.902,0,0,0-.923-.1579c-7.8188,3.1632-108.56,42.3417-152.4277-20.5442a39.157,39.157,0,0,0-15.5556-13.2443c-22.4787-10.4456-74.4834-28.7536-99.8954,10.615,0,0-79.7527,48.3327-157.342,20.5274a.9438.9438,0,0,0-.7269.0618c-6.644,3.1354-107.02,48.4673-170.7754-43.2287a.9811.9811,0,0,0-1.5668-.1788c-8.3516,8.4472-76.5723,74.1-110.651.8444a1.18,1.18,0,0,0-1.9725-.4728c-10.6108,10.7875-90.4138,86.9683-175.777,30.3071a.89.89,0,0,0-.6354-.15c-8.7184,1.3393-186.7572,27.9956-255.29-17.8687-11.5813-7.7506-24.9189-10.32-37.7913-7.0486-43.8915,11.1532-142.8034,29.53-219.19-6.2075a.92.92,0,0,0-1.0564.1921C104.4374,781.6543,28.01,852.0338,2.17,745.0034a1.8291,1.8291,0,0,1-.05-.4256V638.4717A1.7046,1.7046,0,0,1,2.282,637.738Z"/><path class="cls-2" d="M54.3747,605.9952s-47.806,23.908-26.7588,105.806c0,0,46.9553,7.8639,20.6854,47.2887,0,0,59.4328-68.6559,32.7531-110.8753C81.0544,648.2146,47.2087,657.7237,54.3747,605.9952Z"/><path class="cls-2" d="M504.8256,799.32c-3.1193-9.5128,69.3817-60.3957,106.3738-36.5385,11.7722,7.5922,10.4142,16.6047,21.2748,21.1539,34.2437,14.3436,81.6589-61.05,93.9636-51.9231,7.2507,5.3783,3.0383,40.6463-17.729,57.6923-23.98,19.6826-49.7963-1.5387-113.4654-1.9231C536.2868,787.4258,506.79,805.31,504.8256,799.32Z"/><path class="cls-2" d="M1392.3059,714.1993s85.7442,89.3114,145.9888,4.8759C1538.2947,719.0752,1572.725,886.486,1392.3059,714.1993Z"/><path class="cls-3" d="M802.1193,606.58S898.2612,587.019,936.15,652.1944C936.15,652.1944,892.8814,621.5728,802.1193,606.58Z"/><path class="cls-4" d="M216.8833,628.0112s49.0022,88.7414,141.2689,44.8721C358.1522,672.8833,273.7644,750.81,216.8833,628.0112Z"/><path class="cls-4" d="M1243.9607,798.4037"/><path class="cls-4" d="M787.9988,637.3676s44.22-10.5779,46.0242,18.1847c0,0,64.2382-33.5976,102.1271-3.3579,0,0-53.1252-7.8526-74.0756,30.3482C862.0745,682.5426,801.0812,699.7057,787.9988,637.3676Z"/><path class="cls-4" d="M376.6236,702.9161S495.835,559.72,540.0367,711.4328C540.0367,711.4328,523.9486,610.0067,376.6236,702.9161Z"/><path class="cls-2" d="M928.7775,730.8279s15.9219-26.8775.9694-69.98c0,0-8.2775,73.71-31.7182,44.6838,0,0-9.731,78.864,18.1916,58.7278C916.22,764.26,934.1471,769.8393,928.7775,730.8279Z"/><path class="cls-4" d="M160.2488,731.2709s49.0022,88.7414,141.269,44.8722C301.5178,776.1431,217.13,854.07,160.2488,731.2709Z"/><rect class="cls-5" x="2.1193" width="1600" height="900"/></symbol><symbol id="flod4" data-name="flod4" viewBox="0 0 1603.526 900"><path class="cls-1" d="M1.6686,590.8991s77.88,28.9782,174.891,114.1016c0,0,123.6113,77.8788,226.8815,84.2178,0,0,145.5172,34.4116,250.3521,19.017,0,0,109.529-8.15,178.3758-47.9952,0,0,145.5172-40.7505,134.5643-161.1911,0,0-1.5647-27.167-61.0234-49.8062,0,0-203.411-178.397,201.8464-146.7021,0,0,126.7407,17.2058,273.8225,97.8014,0,0,98.5762,67.012,134.5643,72.4454,0,0,85.7255,28.0727,85.7255,20.8281V897.9793h-1600Z"/><path class="cls-2" d="M886.593,533.1807s71.43.5776,88.824,16.7369c0,0,55.5957,18.1685,33.2782,111.7255,0,0-53.8491,82.3919-99.3323,88.87,0,0,137.4233-101.34,52.93-174.6027Z"/><path class="cls-2" d="M813.1046,559.517s155.111,23.3082,205.4111,65.53c0,0,48.5037,42.3461,0,97.8607l-71.8573,63.27s77.2466-8.6166,123.9539-22.4031l102.3967,76.6877S1587.6,857.7661,1602.9942,665.025l-46.2851-11.5026s11.5153,112.8363-31.5991,112.8363c0,0-88.0252,59.4546-168.8647,60.3162,0,0,244.3149-77.5493,156.29-130.1106l-19.3192-69.1553S1479.74,774.6566,1404.749,787.9c0,0-176.0505,47.3913-202.997,40.498,0,0,210.7817-49.1989,258.0877-217.6112,0,0-153.8946,184.0065-286.8307,203.8247,0,0,261.5983-174.9512,252.0584-222.3253,0,0-279.0049,217.1553-304.155,194.7522,0,0,343.5412-185.498,206.8011-235.3537,0,0,73.4426,44.9269-208.5975,217.2588,0,0,225.3-200.5882,81.2124-255.3928,0,0,76.8738,81.4624-66.8409,209.3564,0,0,113.0188-206.7-39.6-228.5372,0,0,122.2357,72.0836,25.2283,204.7792,0,0,44.9108-210.5151-149.104-204.7792,0,0,185.0327,26.4156,109.5825,246.1389,0,0,73.2056-228.7244-229.2694-229.8246,0,0,270.5873,34.2278,193.3407,253.951C1043.6658,764.6354,1117.8808,513.8056,813.1046,559.517Z"/><path class="cls-2" d="M335.5424,776.721S64.666,715.2844,1.6686,661.1028c0,0,155.712,120.1253,412.7383,142.6415,0,0-319.1716-34.2782-412.7383-95.0943,0,0,75.46,117.98,504.4463,107.2575,0,0-393.6843,26.538-504.4463-23.2207,0,0,172.0046,103.94,575.138,59.71,0,0-452.9125,66.3449-575.138,19.9035,0,0,10.8922,30.1577,611.4391,25.6786l13.5279-86.8711S452.8432,806.7648,335.5424,776.721Z"/><path class="cls-3" d="M1575.4017,581.8434c-34.82-9.228-46.8338-21.6551-71.9762-35.3171-39.1636-21.281-50.2733-13.0044-82.9291-31.6949-35.5153-20.3272-21.1818-29.4339-51.6351-48.9007-31.3547-20.0429-51.46-13.5284-142.3877-40.7506-55.3144-16.56-56.6778-21.6067-90.7527-27.167-46.4043-7.5723-86.0989-5.103-107.9644-3.6223-27.4591,1.8595-65.2471-.8733-125.176,11.7724-59.5072,12.5568-60.6884,25.8512-67.282,31.6949-20.7345,18.3761.9055,36.1977-18.7765,46.184-20.482,10.3922-49.3534-6.1494-90.7526,1.8111-33.0466,6.3544-67.458,27.0487-65.7174,51.6174,1.3017,18.3739,18.8023,19.5544,18.7764,38.3279-.0178,12.8767-15.8994,14.2523-10.9529,23.2507,6.4131,11.6665,66.5356,25.9009,89.1879,19.017,30.3244-9.2156,15.953-41.4338,42.2469-47.09,19.0759-4.1032,30.8914,11.94,62.588,12.6779,38.7031.9014,81.7949-21.6041,97.0115-45.2783,10.9574-17.0479,3.0823-27.89,23.47-47.09,7.0638-6.6518,16.6722-15.4365,31.294-16.3,17.4552-1.0312,21.6127,10.4333,45.3764,14.4891,32.5388,5.5535,62.8611-9.4356,70.4115-3.6223,5.3953,4.1541-9.2063,12.4864-3.1294,17.2058,7.2314,5.616,31.7489-3.2,45.3763,3.6223,10.4744,5.2439,5.8,15.3639,12.5176,16.3,7.9231,1.1043,16.3346-12.7085,23.4705-11.7724,6.6769.8759,11.8228,14.61,3.1294,23.5448-12.67,13.0218-56.65-2.5323-78.235,9.9612-16.028,9.277-3.4894,22.9-20.3411,28.9782-15.3469,5.5352-33.1312-3.1-46.941,3.6223-9.4087,4.58-3.657,9.8066-12.5176,15.3946-16.3042,10.2825-47.5886.0333-57.8939,8.15-8.6287,6.7964,1.4336,23.3319,18.7763,28.0727,15.2349,4.1646,30.7956-2.2194,35.9882,1.8111,6.0719,4.713-14.491,13.9962-9.3882,22.6392,5.2661,8.92,36.2472,14.4127,56.3291,9.0557,12.5857-3.3574,9.24-7.8684,32.8588-19.017,8.0837-3.8156,33.4507-14.434,25.0351-10.8668,0,0,21.2216-1.8275,23.4706.9056,2.33,2.8313-18.46,7.2022-29.7293,19.0169-9.6967,10.1657-12.1766,25.6652,0,32.6005,11.7229,6.6769,31.3115,2.1586,35.9881,8.15,3.8184,4.8919-8.1437,9.3086-4.6941,15.3947,3.5436,6.2519,20.5149,9.2631,32.8587,9.0556,15.901-.2672,31.4193-5.9981,39.1175-13.5835,7.8214-7.7068,3.132-12.9546,14.0823-21.7336,1.5679-1.257,10.387-8.3273,15.647-7.2446,7.1694,1.4759-3.725,15.7412,6.2589,26.2615,13.0145,13.7139,61.0732,20.607,89.1878,9.0557,28.1259-11.5559,25.4212-37.1044,25.0352-40.7506-1.9264-18.1973-18.4464-27.1854-9.3882-34.4116,7.5885-6.0537,28.7551-7.382,35.9882-2.7167,11.7984,7.61-21.8285,25.781-9.3882,39.845,8.5367,9.651,36.3337,14.6181,56.3292,10.8669,27.7128-5.1992,32.42-25.6407,48.5056-24.45,8.7288.6459,16.43,7.3378,15.6471,12.678-1.2608,8.5973-24.5293,13.8-43.8116,18.1113-37.5445,8.3947-52.6944,4.8452-62.588,12.678-13.1968,10.4479.29,27.4253,1.5647,28.9782,16.5354,20.1506,59.06,24.8378,71.9762,26.2614,5.5792.615,95.3565,17.7477,95.1137-9.9612-.6724-76.7422,0-99.1889,0-160.2856C1601.6686,582.3145,1589.9214,585.6914,1575.4017,581.8434Z"/><path class="cls-3" d="M1601.6686,766.0118c0-21.1759-86.1611,41.5725-167.09,33.506-22.1149-2.2042-24.5264-6.5558-62.588-10.8668-58.5582-6.6324-69.5674,1.7744-97.0115-7.2445-30.9591-10.1741-34.69-26.7024-64.1527-28.0727-11.6245-.5406-19.4517,1.6413-29.7293-1.8111-12.0946-4.0628-10.42-10.163-21.9057-18.1114-13.5126-9.3507-22.9469-5.8324-40.6823-14.4891-24.1056-11.7659-17.2567-23.43-34.4235-27.167-16.0362-3.4913-22.5421,6.5716-56.3292,8.15-23.88,1.1157-32.4688-3.3581-45.3763.9056-13.3415,4.407-15.004,12.7669-20.341,19.9225-16.0594,21.5317-55.4853,18.881-122.0467,41.6561-52.5056,17.9658-45.8911,25.7463-89.3227,36.269-31.404,7.6086-51.4476,7.559-93.6187,11.0574-76.4621,6.3432-126.0749,9.5219-145.2044,18.7978C370.4634,897.07,90.8407,750.0428,1.6686,784.4221V897.07c450.2484,3.3479,884.873.9093,1600,.9093Z"/><path class="cls-3" d="M1.6686,569.3257c22.567-11.1474,73.8838,1.8114,101.313,16.5862,15.0691,8.117,12.284,11.0485,28.6588,18.7977,25.705,12.1646,43.5972,10.16,70.6916,18.7977,20.4441,6.5175,31.4615,14.6654,53.4964,30.961,40.0956,29.6523,38.8331,45.3719,68.781,51.97,20.39,4.4924,26.4294-1.593,47.7646,2.2115,49.7438,8.87,53.0226,74.5183,38.4454,82.2168C398.28,797.489,307.4141,776.1006,255.9155,746.858c-77.5095-44.0124-89.2455-29.95-131.9175-54.7943-32.7717-19.08-30.88-35.8046-78.334-55.2874C27.3517,629.258,1.7,627.5649,1.6686,614.6614,1.6531,608.2442,1.6686,569.3257,1.6686,569.3257Z"/><path class="cls-4" d="M783.3834,502.1882s-21.7662-8.998-55.97,0c0,0,59.08,4.199,36.277,17.9959,0,0,63.2255,4.9988,46.6418-10.9975C810.332,509.1866,814.4825,498.7683,783.3834,502.1882Z"/><path class="cls-2" d="M998.0014,425.4056c7.0828,1.2287-40.4887-28.1936-74.6926,10.1977C923.3088,435.6033,941.1766,415.5476,998.0014,425.4056Z"/><path class="cls-4" d="M941.5949,466.074s-51.4536-1.0774-58.709,38.5136c0,0,40.3943,14.325,3.6134,24.8585,0,0,76.5665-15.1383,65.831-39.2552C952.33,490.1909,918.3024,486.2889,941.5949,466.074Z"/><path class="cls-4" d="M1029.03,450s12.4378,52.5376,87.0646,16.0711C1116.0948,466.0711,1050.4823,493.475,1029.03,450Z"/><path class="cls-4" d="M1196.9406,429.4076s-42.4959-30.396-124.3781-21.9979C1072.5625,407.41,1142.0069,405.2161,1196.9406,429.4076Z"/><path class="cls-2" d="M1144.08,478.9536s8.2791,11.5217,0,18.805c0,0,46.6418-7.828,44.5688,11.7977,0,0,21.083-7.0428,21.3467-15.3014C1209.9954,494.2549,1189.501,505.8652,1144.08,478.9536Z"/><path class="cls-4" d="M673.5161,543.5788s25.9121,22.0151,18.6567,40.4009C692.1728,583.98,712.9025,571.7724,673.5161,543.5788Z"/><path class="cls-2" d="M685.57,595.167s-9.2165,5.4073,0,11.3975c0,0,22.15-2.3995,22.15-5.6988,0,0-7.2553,12.2973,5.1825,12.2973,0,0,3.1094-11.3975,14.5107-8.998,0,0,13.3989,2.401,11.4014,8.998,0,0,23.5023,14.3967,31.4443-14.3968,0,0-17.97,0-19.0065,7.1984,0,0-7.24-16.4963-25.3859-10.7976C725.8665,595.167,678.9677,606.3544,685.57,595.167Z"/><path class="cls-4" d="M1272.6353,464.4768s83.5359-5.31,103.9947,33.2818C1376.63,497.7586,1314.0887,465.485,1272.6353,464.4768Z"/><path class="cls-4" d="M1264.2263,514.9372s31.6236,54.9148-37,55.4805C1227.2267,570.4177,1304.7946,582.4248,1264.2263,514.9372Z"/><path class="cls-4" d="M1196.9406,548.9233s-73.7223-12.2881-53.1548,22.3214C1143.7858,571.2447,1159.9273,543.9756,1196.9406,548.9233Z"/><path class="cls-4" d="M1101.9163,583.98s-34.3375-5.3913-29.3538,9.99c0,0-33.6942,19.091-50.5158,11.3962,0,0-40.7707,2.237,0,11.3961,0,0,40.7545-8.1858,40.7688,0C1062.8155,616.7621,1117.1754,593.0171,1101.9163,583.98Z"/><path class="cls-4" d="M1062.6318,632.7143s-2.6316,48.9022,53.463,5.4377C1116.0948,638.152,1051.081,697.931,1062.6318,632.7143Z"/><path class="cls-4" d="M1217.4725,619.0532s29.3427,13.67,41.1017-21.3863C1258.5742,597.6669,1259.6362,640.44,1217.4725,619.0532Z"/><path class="cls-4" d="M1515.87,570.0147c-4.0049-3.4727,6.1084,29.454,60.5946,26.1178C1576.4644,596.1325,1548.001,597.8755,1515.87,570.0147Z"/><path class="cls-4" d="M1185.184,705.9081s88.9173,12.7987,58.0769-40.8354C1243.2609,665.0727,1262.902,710.5009,1185.184,705.9081Z"/><path class="cls-4" d="M1376.9071,686.2979s15.9219-12.4394.9693-32.3878c0,0-8.2774,34.1144-31.7181,20.68,0,0-9.731,36.5,18.1916,27.18C1364.35,701.7708,1382.2767,704.353,1376.9071,686.2979Z"/><path class="cls-2" d="M1375.9023,548.5522s-47.8059,11.065-26.7588,48.9689c0,0,46.9553,3.6395,20.6854,21.886,0,0,59.4328-31.7751,32.7531-51.315C1402.582,568.0921,1368.7364,572.4931,1375.9023,548.5522Z"/><path class="cls-4" d="M1491.8314,742.4641s33.4757-6.9742,14.1571-17.9242c0,0,8.7-26.8213,30.1046-26.097,0,0,31.1913-15.3591-11.2877-9.3379,0,0-25.2859,20.2281-33.4055,13.5254C1491.4,702.63,1470.3768,740.1212,1491.8314,742.4641Z"/><path class="cls-4" d="M524.8146,841.6717s25.0913-31.6834,182.4818-27.7229c0,0,124.5337-5.2823,147.8052-31.0241,0,0-21.31-31.4168,105.9075-40.4606,0,0,52.6134-23.9212,36.9923-35.22,0,0,67.6348,23.1418,31.0288,35.22,0,0-38.1389,47.9388-96.9709,31.9937,0,0-25.7344,35.53-65.9421,34.21,0,0-121.1393,38.284-168.4928,27.7229C697.6244,836.3911,635.4506,811.0443,524.8146,841.6717Z"/><path class="cls-4" d="M961.0091,812.6286s162.2805-12.5993,143.6087-53.8246C1104.6178,758.804,1140.2781,818.4772,961.0091,812.6286Z"/><path class="cls-4" d="M1075.6425,683.3831s1.3092-13.2514,42.8667,30.6733c0,0,45.9692,3.5925,62.588,32.6,0,0,61.4022-5.8976,68.6638,17.4958,0,0,12.0011,16.45,94.0292,17.2815,0,0,55.3381.6517,74.3856,10.6425,0,0,48.8982,16.2153,158.2886-29.1413,0,0,15.3107-6.3461,25.2042-1.7894V785.918s-55.4787,36.7015-119.4857,21.43c0,0-85.5444,11.8812-141.6662-2.64,0,0-101.623-2.449-130.5213-30.25,0,0-45.11-38.7093-75.2439-27.1816,0,0-27.7527-39.9657-55.3868-32.1913,0,0-65.158,5.24-55.3574-21.7406Z"/><path class="cls-4" d="M1139.6707,832.2692c-5.8049,2.6507,63.1319-2.9974,28.46-41.2477C1168.1305,791.0215,1186.2435,811.0033,1139.6707,832.2692Z"/><path class="cls-2" d="M1474.81,849.3677s15.9219-12.4394.9693-32.3878c0,0-8.2775,34.1144-31.7181,20.68,0,0-9.7311,36.5,18.1915,27.18C1462.253,864.8406,1480.18,867.4228,1474.81,849.3677Z"/><path class="cls-2" d="M795.461,885.69c-3.8457-6.2576,85.54-39.729,131.1475-24.0354,14.5138,4.9942,12.84,10.9228,26.2295,13.9152,42.2189,9.4355,100.6767-40.16,115.847-34.1556,8.9393,3.538,3.746,26.7376-21.8579,37.9507-29.5642,12.9475-61.3935-1.0121-139.8907-1.265C834.2493,877.8653,797.8826,889.63,795.461,885.69Z"/><path class="cls-4" d="M220.5976,832.5585c.86-2.2918,96.1018,1.32,98.3606,13.9153,1.9882,11.0863-68.8328,24.8084-72.1311,21.5054-2.1568-2.16,26.2334-9.9219,24.0437-18.9754C268.1333,837.6853,219.9823,834.1985,220.5976,832.5585Z"/><path class="cls-2" d="M1.6686,569.3257c.9365-2.8486,43.38-4.1785,82.7009,8.02,16.279,5.05,37.6172,11.67,40.2042,23.6627,3.2255,14.9528-24.4925,29.9457-32.9379,27.8811-7.5658-1.85,6.2716-15.938-4.3715-30.3606C69.4422,574.3782.4646,572.9879,1.6686,569.3257Z"/><path class="cls-4" d="M168.1386,646.6c-3.5038,1.4065,9.9972,16.693,26.2994,30.0986,16.5968,13.6478,26.0069,21.3859,37.0886,20.5023,14.9416-1.1913,27.3688-17.6137,19.6721-24.0354-4.577-3.8188-13.5367-1.82-28.4153-3.7951C187.8084,664.728,172.0666,645.0231,168.1386,646.6Z"/><path class="cls-2" d="M23.8763,785.7526c-7.9.1688-31.9612,49.52,6.5574,64.5163,25.2742,9.84,68.7011,1.4664,69.9453-5.06,1.0276-5.39-27.3813-6.0368-50.2732-21.5054C24.1817,806.1858,28.9872,785.6434,23.8763,785.7526Z"/><path class="cls-4" d="M377.316,759.9375c-3.2937,4.1992,81.6485-25.8164-33.9784-42.302C343.3376,717.6355,403.7412,726.2474,377.316,759.9375Z"/><path class="cls-4" d="M418.392,875.7423s64.2861,12.0233,124.9422-20.9C543.3342,854.8425,487.2391,878.6362,418.392,875.7423Z"/><path class="cls-1" d="M2.3237,731.6894S49.1513,556.666,171.9512,562.9168c0,0,130.9864-6.2508,270.16,118.7659,0,0,135.08,118.766,249.693,6.2509,0,0,45.0266-94.09,110.52-125.18,0,0,102.3331-14.0724,171.92,86.8082,0,0,53.2133,103.99,139.1732,86.8081,0,0,65.4932-105.1807,139.1731-86.1846,0,0,106.4265-11.5662,151.4531,88.1013s151.4532,30.9082,143.2665-25.3494l55.0144-37.4405V898.5473h-1600Z"/><path class="cls-3" d="M2.4864,598.4107c2.4481-5.8547,32.4152-74.4424,83.1836-50.5576a.8046.8046,0,0,0,.6289.0344c5.2318-1.9239,76.4913-24.9947,159.15,111.5785a1.1844,1.1844,0,0,0,.4372.44c5.9864,3.2388,115.6891,61.1737,161.2572-17.4542,10.6537-18.383,25.7263-30.459,42.3229-32.9636,32.6419-4.9259,80.0468,1.15,90.7746,73.26a1.6654,1.6654,0,0,0,.5824,1.1011c7.25,5.3342,96.3316,67.8907,159.5211-30.0624a1.01,1.01,0,0,1,.0718-.0989c1.9412-2.35,80.4741-96.6225,133.811-34.89a.8525.8525,0,0,0,1.0195.2876C844.4,614.97,963.689,563.85,974.2434,689.5423c9.6042,114.3767,115.3392,84.9225,127.43,39.1331,5.3387-20.2185,15.2282-37.282,28.6731-47.1285,27.1625-19.8925,68.6238-38.7727,105.8828-8.5156,10.763,8.74,23.6866,10.21,35.1032,3.3761,25.3282-15.1615,72.8865-32.4153,121.0872,9.4174a.943.943,0,0,1,.0909.0893c2.062,2.314,83.0508,92.197,145.7793,5.9792a1.5792,1.5792,0,0,0,.21-.3992c1.7291-4.7947,31.9676-86.64,63.5315-35.9444a2.1212,2.1212,0,0,1,.293,1.1v151.063a1.8945,1.8945,0,0,1-.5083,1.3572c-4.9253,4.7052-44.9339,40.3-88.8486-.0905a.8147.8147,0,0,0-.923-.1808c-7.8188,3.62-108.56,48.4565-152.4277-23.5111a41.0768,41.0768,0,0,0-15.5556-15.1569c-22.4788-11.9542-74.4834-32.9061-99.8954,12.1479,0,0-79.7527,55.3127-157.342,23.4919a.8373.8373,0,0,0-.7269.0707c-6.644,3.5882-107.02,55.4667-170.7754-49.4715a.9143.9143,0,0,0-1.5668-.2047c-8.3516,9.6671-76.5723,84.8012-110.651.9663-.41-1.0085-1.34-1.2771-1.9725-.5411-10.6108,12.3454-90.4138,99.5279-175.7771,34.6839a.8045.8045,0,0,0-.6353-.1721C616,792.635,437.9609,823.141,369.4282,770.6531c-11.5813-8.87-24.9189-11.81-37.7914-8.0665-43.8914,12.764-142.8033,33.7949-219.19-7.1039a.8374.8374,0,0,0-1.0564.22c-6.7485,7.4081-83.1759,87.9516-109.0161-34.5357a2.3819,2.3819,0,0,1-.05-.487V599.25A2.1881,2.1881,0,0,1,2.4864,598.4107Z"/><path class="cls-2" d="M54.579,562.0837S6.7731,589.4443,27.82,683.17c0,0,46.9553,9,20.6853,54.1179,0,0,59.4329-78.5708,32.7532-126.8874C81.2588,610.4,47.4131,621.2825,54.579,562.0837Z"/><path class="cls-2" d="M505.03,783.3278c-3.1192-10.8866,69.3817-69.1178,106.3739-41.8152,11.7721,8.6885,10.4142,19.0026,21.2748,24.2088,34.2437,16.415,81.6589-69.8669,93.9635-59.4216,7.2507,6.155,3.0384,46.5162-17.7289,66.024-23.98,22.5251-49.7963-1.7609-113.4655-2.2008C536.4912,769.7156,506.9941,790.1828,505.03,783.3278Z"/><path class="cls-2" d="M1392.51,685.9141s85.7443,102.2093,145.9889,5.58C1538.4991,691.4941,1572.9294,883.0817,1392.51,685.9141Z"/><path class="cls-3" d="M802.3237,562.7533s96.1419-22.3862,134.0308,52.2014C936.3545,614.9547,893.0858,579.9109,802.3237,562.7533Z"/><path class="cls-4" d="M217.0877,587.2791S266.09,688.8362,358.3566,638.6315C358.3566,638.6315,273.9688,727.8118,217.0877,587.2791Z"/><path class="cls-4" d="M1244.1651,782.2789"/><path class="cls-4" d="M788.2032,597.9867s44.22-12.1055,46.0242,20.8108c0,0,64.2382-38.45,102.1271-3.8428,0,0-53.1253-8.9866-74.0757,34.7309C862.2788,649.6856,801.2856,669.3273,788.2032,597.9867Z"/><path class="cls-4" d="M376.828,673.0014s119.2114-163.8757,163.4131,9.7466C540.2411,682.748,524.153,566.6745,376.828,673.0014Z"/><path class="cls-2" d="M928.9819,704.9442s15.9219-30.7591.9693-80.0857c0,0-8.2775,84.3551-31.7181,51.1367,0,0-9.7311,90.2531,18.1916,67.2091C916.4247,743.2043,934.3515,749.5893,928.9819,704.9442Z"/><path class="cls-4" d="M160.4532,705.4511s49.0022,101.5571,141.2689,51.3524C301.7221,756.8035,217.3344,845.9839,160.4532,705.4511Z"/><rect class="cls-5" x="2.3237" width="1600" height="900"/></symbol><symbol id="flod5" data-name="flod5" viewBox="0 0 1603.703 900"><path class="cls-1" d="M4.9227,576.4671C70.1034,602.4647,126.59,647.457,178.5664,693.703c67.5465,42.76,144.85,77.8124,225.2908,84.8746,81.0024,19.7156,165.5158,34.2275,249.04,25.3988,62.5559-3.3862,125.7493-16.1426,180.81-47.0906C912.12,733.3705,974.27,672.4733,970.3542,586.25c-5.4636-27.3792-37.4575-41.4446-60.6906-51.1277C740.5517,378.1148,1012.9084,376.6056,1110.728,383.6885c96.5357,15.0427,187.0715,57.52,271.7295,104.7235,40.7908,28.6472,84.2156,63.9964,134.0264,74.6686,15.3252,5.1656,73.0168,26.6985,85.456,21.5464q-.3229,156.174-1.0136,312.3467c-532.939-.769-1065.2334-4.0408-1598.1358.0613C2.5934,790.1688,3.8866,683.3261,4.9227,576.4671Z"/><path class="cls-2" d="M890.5488,518.6979c28.999.2628,63.4827-.9946,88.5064,15.9225,44.7529,17.5164,40.5295,79.0107,32.7019,117.57-22.2793,35.3659-57.5547,84.6272-100.3811,94.7374,54.093-42.6321,117.8618-121.5713,54.571-184.8138Q928.2354,540.4279,890.5488,518.6979Z"/><path class="cls-2" d="M816.9043,482.0447c66.1094,12.759,156.1882,31.9292,204.9912,81.128,30.8533,37.9124,23.7554,87.0027-.6633,126.2912q-36.2652,41.3327-72.9717,82.2746c42.2707-6.3507,84.2348-14.9015,124.4062-29.7858q50.364,48.81,101.344,96.9738c157.3033,4.976,404.0755-26.8919,429.1431-220.8868q-23.064-7.25-46.1279-14.5023c2.239,30.2957,7.9887,134.7266-31.9676,141.3295-47.6233,39.6067-105.342,72.4936-168.5034,75.48,44.3081-18.059,230.0816-97.1713,156.231-162.9666q-9.51-43.3444-19.0032-86.6924c-4.7437,58.7462-23.1238,180.6392-88.783,200.96-50.5661,17.1841-151.2356,61.7726-202.2285,51.6558C1328.67,782.232,1427.43,678.181,1460.5476,549.7873c-65.1392,96.119-169.0129,226.8007-286.31,256.2989,56.1731-48.47,251.2879-209.2378,251.6948-279.5756-37.0683,35.8923-273.3708,259.0329-303.3815,244.9751,53.5791-37.7256,322.9013-226.7168,206.507-296.45,59.2359,57.2659-164.38,238.326-208.136,273.2425,59.1773-68.5674,201.117-251.49,81.8025-323.4022,56.87,83.9169-11.0395,198.1348-67.12,264.3223,34.9438-83.3911,87.3447-257.65-38.5166-289.8987,83.4421,66.1735,69.9983,174.9009,24.3779,259.3914,18.197-115.34-1.5151-258.559-147.978-258.8908,143.3037,28.9772,136.1169,201.2962,108.3637,312.1744,41.6448-177.8894-48.2524-284.9067-228.2551-290.6266,172.189,30.0408,232.4168,160.0107,192.1629,321.9344C1086.051,561.1088,1010.4053,453.1228,816.9043,482.0447Z"/><path class="cls-2" d="M336.5151,765.8453C231.8078,741.7731,88.5057,718.8047,4.1769,649.5053,119.5555,740.2482,270.9175,778.08,414.4184,793.6783,284.12,778.0523,116.88,769.4569,3.6362,699.0646,79.5608,809.2208,380.4392,807.4652,505.16,807.626c-150.7734,7.6417-361.2753,37.1077-502.2677-20.6022,151.5523,89.9392,400.5629,73.4831,571.6235,60.7018-166.5042,20.1408-412.0522,75.31-571.7911,22.6768,29.0367,21.845,525.8094,23.6386,606.77,26.0857q7.9977-45.1716,16.0822-90.3277C528.3948,800.2738,431.1382,789.4256,336.5151,765.8453Z"/><path class="cls-3" d="M1570.3174,577.8742c-19.8089-6.7078-46.0279-24.8158-64.4583-36.1892-28.709-17.7162-55.771-20.982-83.987-38.3318-30.6863-18.8689-29.6045-34.7057-69.0562-58.2937-40.6191-24.286-126.9216-35.2524-178.8423-45.98-31.5845-6.5256-69.053-23.8061-95.6575-29.3771-36.23-7.5867-52.788-7.0114-88.6489-9.6935-45.0346-3.3682-115.2778,8.6639-156.7688,11.9693s-105.6672,25.33-125.3423,36.0775c-61.87,33.7957-59.1865,62.6357-110.6486,95.0092-53.5538,33.6891-140.9666,19.3746-197.9507,34.167C353.47,549.04,300.5,566.3912,289.2805,609.4478c-8.39,32.2,23.0464,12.9479,23.57,38.0612.3591,17.2251-26.5044,11.7618-6.9644,26.2158,25.3338,18.74,86.94,12.3047,117.7764,1.1724,41.28-14.9026,47.4985-49.191,100.7278-57.1137,38.6174-5.7478,82.5317-1.06,127.1472-13.2115,54.4783-14.8382,127.2412-41.0159,172.2412-74.9153,32.4048-24.4111,43.9431-41.2421,75.8125-62.0546,11.0415-7.2107,33.7461-17.28,47.1257-19.1764,15.9724-2.2634,23.4012,9.0812,36.5735,10.7213,18.0366,2.2458,40.4832-11.5606,55.7583-4.9026,10.9151,4.7575-18.8848,6.8361-4.9807,13.0875,16.5452,7.4388,39.9417,2.7066,55.6436,7.2123,12.0683,3.4631,10.69,14.6228,21.4326,16.1944,12.6709,1.8537,24.3635-8.528,36.63-6.7586,11.4778,1.6558,25.0579,12.9532,17.9807,24.9593-10.3142,17.4976-50.4529,4.3835-67.7085,14.9029-12.8132,7.8111-6.7617,22.8061-20.36,29.2335-12.3843,5.8537-30.0366.7726-42.6377,6.2869-8.5849,3.7568-6.0088,11.3191-14.5525,15.7891-15.7209,8.2249-39.0869-1.4307-53.4311,11.9711-12.0108,11.2217,6.0744,23.74,17.7529,26.1993,10.2593,2.1609,24.4568-4.36,33.44,2.535,10.5044,8.062-16.8362,8.2566-4.2571,22.4528,12.982,14.6507,34.4024,13.5536,53.2258,7.748,11.7972-3.6384,20.0245-13.4059,33.3506-20.6459,4.5608-2.4779,30.58-16.7942,22.0555-11.0587,4.913-.4762,20.2192-6.0174,21.8459.612s-21.1916,13.2124-26.4507,21.6211c-4.5254,7.2351-9.553,24.37,1.75,30.3718,10.8811,5.7776,25.9043,1.9784,35.2578,9.9507,7.6374,6.51-7.9988,8.194-1.2449,16.0281s21.0908,9.4073,31.6406,8.8753c13.59-.6852,28.8272-4.8635,38.73-12.8589s8.7505-15.9614,19.7531-23.5618c1.5755-1.0882,10.8726-10.7364,16.0162-4.5929,7.01,8.3732.6611,15.2566,11.0866,28.7726,13.59,17.6188,66.26,14.3788,85.0589,12.902s28.6662-29.7265,29.447-33.8147c3.897-20.4032-12.1189-30.98-2.282-42.6945,8.2407-9.8136,27.9639-8.8983,35.885-.2267,12.9214,14.1454-18.7263,16.1193-6.2917,38.5768,8.5329,15.4108,36.9521,16.3416,51.227,13.54,19.7839-3.8829,33.155-19.11,51.0618-21.3149,9.717-1.1963,16.83,4.0163,14.2348,12.6349-4.1777,13.8755-30.9262,16.3265-41.424,16.3005-20.44-.0507-46.0662,5.9192-61.4258,8.6934-20.4878,3.7-8.3252,24.57-6.4419,26.939,24.4385,30.7382,42.5105,25.568,75.0359,35.9565,14.0491,4.4872,89.249,14.7651,91.9087-5.3564,7.3657-55.7285,9.6692-110.5466,11.7124-166.5324C1598.8894,580.6275,1578.5771,580.6712,1570.3174,577.8742Z"/><path class="cls-3" d="M1599.8511,758.768c-4.1517-39.38-131.6609,36.7939-167.29,36.9656-9.7361.0469-44.1887-10.119-61.32-11.4368-26.357-2.0275-68.2024,1.4449-92.6021-6.831-27.5249-9.336-39.9519-25.8045-66.4316-29.1812-10.4478-1.3323-19.7146,1.2839-29.01-2.1331-10.9385-4.021-13.4261-12.5757-22.7842-18.6938-11.009-7.1974-27.718-9.523-39.1931-15.09-15.5972-7.5662-17.782-23.8758-35.8428-27.7633-16.8716-3.6314-37.0523,6.7669-55.5308,7.8682-13.0608.7784-31.3156-2.6967-43.8205,1.6212-12.9253,4.4631-12.7632,11.4769-21.3179,20.9184-25.7417,28.41-87.9917,32.314-124.9831,45.0536-29.18,10.0494-58.1128,28.8773-90.4827,36.37-23.4048,5.4178-68.7451,10.2927-90.2031,9.0682-38.9063-2.22-115.8821,2.3349-141.7259,12.864C326.3061,896.187,170.594,724.5527,1.6935,778.834c2.5711,38.639.2241,78.1866,1.1179,117.1493,532.8253.2946,1065.3243-.4805,1598.4762,1.5692C1598.5181,851.3455,1604.7077,804.8362,1599.8511,758.768Z"/><path class="cls-3" d="M5.3171,554.4717c30.9933-13.6886,72.8668,2.2514,99.6021,16.1361,14.6877,7.6279,16.7348,13.6543,30.4682,20.0132,21.5585,9.9821,47.0956,11.9675,70.0956,19.1455,17.3546,5.4162,39.2667,20.1888,51.7643,30.3425,22.7412,18.4763,41.8284,45.45,67.7876,52.61,17.6741,4.8747,35.1885,1.0091,47.8669,3.4062,29.56,5.5892,69.8892,62.4264,37.0157,81.975-28.2774,16.8154-125.0791-28.0065-152.922-42.908-41.906-22.428-90.3395-31.0042-130.2112-54.2776C96.163,663.0408,80.765,638.6883,47.4184,623.7722c-12.8684-5.7561-37.67-2.4465-42.0874-24.5955C3.134,588.1616,5.6737,567.0837,5.3171,554.4717Z"/><path class="cls-4" d="M787.259,486.98c-19.042-5.7172-36.7114-4.1092-55.977-.2954,12.2578.9549,46.7112-.275,36.5515,19.0474,12.5815,1.0136,48.1064,7.5526,46.4573-11.5009C812.67,483.22,795.519,486.3311,787.259,486.98Z"/><path class="cls-2" d="M1008.687,401.925c4.5342-1.4955-52.7947-8.4279-84.8911,18.8259C953.31,395.1721,972.31,413.9233,1008.687,401.925Z"/><path class="cls-4" d="M945.1533,449.3979c-29.3237,1.1841-49.1672,10.68-58.4665,39.9415,20.1347,8.514,27.6008,13.3584,3.7529,25.5128,19.8352-4.4418,67.2451-14.6907,65.4971-41.002C936.46,470.1986,932.55,466.35,945.1533,449.3979Z"/><path class="cls-4" d="M1032.4631,432.204c13.6389,41.784,55.43,30.4094,86.5759,16.9163C1086.5578,461.4618,1053.8288,464.6422,1032.4631,432.204Z"/><path class="cls-4" d="M1199.4067,412.6257c-35.0149-24.9209-82.0542-27.5359-123.5246-24.0812C1118.3755,387.7181,1160.5046,395.2982,1199.4067,412.6257Z"/><path class="cls-2" d="M1146.7724,462.81c3.8467,6.9748,4.3331,12.5427-.0551,19.3688,17.8842-2.3353,35.2278-6.3638,44.1867,12.8789,8.939-3.23,16.793-6.5244,21.2312-15.3917C1189.7771,487.8786,1165.7471,473.84,1146.7724,462.81Z"/><path class="cls-4" d="M678.302,536.6466c13.1675,12.506,20.053,23.7518,18.8686,42.299C710.698,559.9658,692.4993,548.1075,678.302,536.6466Z"/><path class="cls-2" d="M690.5535,591.371c-4.5372,4.0932-4.6336,7.4351-.07,11.549,7.9183-1.6726,16.0423-2.61,22.1556-8.35-2.858,6.4871-2.4942,10.5918,4.9458,12.16,4.1694-6.8857,6.2356-9.9892,15.5817-10.0533,2.952-.02,12.1873,2.1409,10.08,8.1053,19.38,7.3145,23.7922.6783,31.6662-16.2834-7.6941.5195-14.44,1.4989-19.0022,8.2589-6.2255-10.069-13.9467-11.6683-25.164-9.485C721.615,590.3021,696.5664,601.1424,690.5535,591.371Z"/><path class="cls-4" d="M1274.4087,450.1706c36.8066-1.1229,80.6482,2.4909,103.3191,35.5775C1345.1958,468.6724,1311.3642,453.6926,1274.4087,450.1706Z"/><path class="cls-4" d="M1265.906,501.8964c18.0132,37.9331,1.9363,53.4439-36.8689,56.4962C1277.6841,564.7076,1285.7417,542.8792,1265.906,501.8964Z"/><path class="cls-4" d="M1199.0315,535.7635c-19.97-3.384-63.2725-11.9317-52.7857,22.3436C1159.907,540.0829,1177.064,535.4113,1199.0315,535.7635Z"/><path class="cls-4" d="M1104.675,570.7977c-12.4165-1.8231-25.9675-5.4854-29.16,10.1914-16.4058,8.7756-31.3889,14.4134-50.17,11.5384-21.5581,1.6675-26.0486,3.515-.0515,12.01,12.7068-2.6012,28.9524-7.7,40.4907.2114C1079.6614,598.4086,1107.1186,589.075,1104.675,570.7977Z"/><path class="cls-4" d="M1065.5359,621.5c1.7776,41.5346,32.5317,20.87,53.0688,6.0378C1095.7141,648.61,1061.2341,677.0909,1065.5359,621.5Z"/><path class="cls-4" d="M1219.2576,608.5519c23.8852,7.4165,30.3269-1.2664,40.8466-21.6446C1256.8642,617.6409,1245.7749,617.7864,1219.2576,608.5519Z"/><path class="cls-4" d="M1508.71,560.9167c-4.2868-1.222,34.9334,27.9607,71.1177,25.97C1544.4748,587.9679,1543.1055,570.7211,1508.71,560.9167Z"/><path class="cls-4" d="M1186.9407,698.6793c33.2236,4.1673,76.8618,4.8757,57.8159-42.2421C1256.5654,696.19,1215.634,699.024,1186.9407,698.6793Z"/><path class="cls-4" d="M1377.55,679.1073c9.5544-10.9929,7.2492-21.055,1.051-33.2787-6.1135,19.1252-10.43,26.4984-31.6072,21.0762-3.7036,19.0407-4.9963,29.1323,18.0342,28.0327C1375.9221,694.9581,1378.4319,689.2523,1377.55,679.1073Z"/><path class="cls-2" d="M1376.8638,537.8179c-27.9947,8.4054-37.0455,21.5935-26.7464,49.936,16.5408,1.9726,36.8162,2.005,20.5423,22.6142,17.95-10.262,50.9-28.573,32.7507-52.3989C1385.2629,558.98,1376.949,558.2141,1376.8638,537.8179Z"/><path class="cls-4" d="M1491.8869,737.1823c11.5076-2.7918,26.44-4.5761,14.179-18.3738,6.165-14.7353,14.3-23.156,30.1128-26.7349,23.594-14.1676,3.8547-10.9965-11.23-9.6043-10.1341,8.0249-19.7852,15.9689-33.3645,13.8254C1483.9038,711.3541,1474.7458,725.4182,1491.8869,737.1823Z"/><path class="cls-4" d="M523.0349,834.9841c29.5117-31.7473,141.105-25.5185,183.5127-23.5962,41.0227-.9633,118.3039-1.9491,149.6255-30.367-13.7256-31.88,87.7717-41,107.0676-42.7959,15.4858-7.6882,40.6538-16.9932,37.4282-37.6069,14.4883,5.3936,58.5752,19.3171,30.5484,37.1432-24.5049,29.55-59.9993,42.0325-97.6118,34.4084-16.9168,21.7265-39.3926,34.3022-66.981,36.06-50.7446,16.1585-117.2607,37.3911-170.4731,26.4173C642.6147,811.9512,577.7429,821.5149,523.0349,834.9841Z"/><path class="cls-4" d="M962.0268,812.3962c27.7442-2.49,154.6809-15.5633,144.4168-57.9654C1133.7285,812.1494,992.988,812.9676,962.0268,812.3962Z"/><path class="cls-4" d="M1078.1968,675.0329c8.6318-1.4525,36.1767,25.9823,42.417,32.27,25.2309,3.0283,46.95,13.0009,62.12,33.9276,21.9319-1.9392,55.209-4.39,67.23,17.959,26.2978,18.4054,65.3625,17.1952,100.876,17.8754,8.1391.1559,56.5722-.3542,66.0088,10.9839,51.0766,13.5211,113.2336-11.1069,160.6823-30.1848,2.5169-1.0119,19.6368-6.6893,23.2713-1.0977,1.1142,8.24.2827,16.8107.52,25.1938-35.7517,22.6962-77.8325,29.8753-119.2739,21.8109-46.8506,6.3459-94.7666,8.294-141.0686-2.8236-39.9141-1.1629-98.1153-4.0608-129.698-30.9316-21.0027-17.9263-45.9881-34.3653-74.7327-27.9042-13.3989-18.982-30.071-35.5785-54.9006-33.5737-19.2847,1.3362-55.5108,4.8876-54.919-22.8189Q1052.45,680.3114,1078.1968,675.0329Z"/><path class="cls-4" d="M1143.6636,832.5628c-.8907,1.4562,39.778-32.519,24.9047-45.63C1183.615,811.1822,1150.81,820.88,1143.6636,832.5628Z"/><path class="cls-2" d="M1474.5513,846.8917c9.5573-10.9854,7.2961-21.0219,1.0786-33.2432-6.1392,19.1286-10.4771,26.5186-31.68,21.1989-3.7356,19.056-5.0317,29.116,18.03,27.9186C1472.8708,862.736,1475.427,857.06,1474.5513,846.8917Z"/><path class="cls-2" d="M796.2026,886.2336c-6.5847-13.2185,108.9805-31.2538,131.1345-21.5856,7.05,3.0768,15.4778,10.328,27.3726,13.2928,37.5039,9.3478,89.9-47.69,113.488-32.562,13.8995,8.9141-6.52,30.5371-25.87,38.91-22.3423,9.6679-104.2375.6489-129.5271-3.0342C889.3826,877.844,800.3491,894.5569,796.2026,886.2336Z"/><path class="cls-4" d="M227.2623,825.7651c.0267-7.9791,90.7411,2.16,89.924,12.82-.7193,9.3825-60.4894,28.2208-67.387,21.1991-4.51-4.5915,21.7971-6.0644,19.8618-18.6015C267.2417,825.5089,227.2433,831.4745,227.2623,825.7651Z"/><path class="cls-2" d="M9.4513,553.4391c4.8226-6.107,67.5462,3.5864,80.8054,9.6609,5.4893,2.5148,36.2617,10.5474,36.6742,22.9331.5144,15.443-17.0167,31.2033-30.3235,28.1378-11.9209-2.7463,2.1826-18.51-8.0372-31.636C71.4569,560.5544,3.251,561.2908,9.4513,553.4391Z"/><path class="cls-4" d="M173.9346,635.9669c-8.9341,3.3629,19.3667,24.3176,24.5036,29.9212s24.39,20.1154,33.8943,18.9055c12.8146-1.6315,28.044-11.1155,20.3931-23.74-4.55-7.5075-20.7388-3.6-27.31-4.5C209.9684,654.4375,183.9508,632.1966,173.9346,635.9669Z"/><path class="cls-2" d="M22.7952,782.3264c-22.2762,6.731-10.8786,55.9526,7.9232,64.2624,12.337,5.4527,62.1656,7.6136,66.9605-4.9127,3.96-10.3453-39.68-17.14-48.1709-22.9708C39.8928,812.1017,37.2069,777.9717,22.7952,782.3264Z"/><path class="cls-4" d="M379.5742,750.2726c-1.6519,4.2286-23.821-40.6712-34.6973-46.0637C373.58,711.9755,392.8264,716.3466,379.5742,750.2726Z"/><path class="cls-4" d="M416.7436,868.5405c42.4117,7.9517,85.95-.2789,124.3587-19.2833C501.5246,864.777,459.07,870.1242,416.7436,868.5405Z"/><path class="cls-1" d="M7.4125,690.3984C17.1179,616.3505,93.128,537.195,171.3042,525.7916c81.2812-28.62,212.1689,65.647,274.344,112.85,71.2375,73.2438,174.3039,82.9013,250.1833,10.6865,26.4219-55.1619,56.3311-117.9822,110.5108-150.94,72.65-9.7289,135.6259,42.5254,171.4753,101.0434,7.0432,66.764,79.7439,95.6607,137.8474,104.119,24.4763-48.3466,76.8059-114.0274,137.66-103.2161,81.937,6.5516,120.9876,34.6612,154.4,112.8924s149.8684,58.5678,138.5686-38.72c21.3757-9.8734,37.0769-27.726,56.1694-40.94-.2456,86.4609-.5781,173.1775-.7934,259.5839-533.33.26-1065.4917-5.37-1598.9772,1.3284C7.7821,823.3739-2.293,764.4464,7.4125,690.3984Z"/><path class="cls-3" d="M6.2976,537.3669c14.45-35.2329,46.2975-54.5729,83.5526-58.9251.1364-.0159-1.7076.7758.905-.1867,66.14-24.3653,132.4434,82.1665,158.1475,130.6642.0371.07-1.428-.24.189.6861C306.01,642.22,370.5185,654.8526,412.2632,590.0749c9.76-15.1449,17.3071-31.5454,43.42-31.2822,51.3572.5177,81.3968,40.9132,88.3936,89.6644.0459.3193-.2227.895.9487.8741,62.7852-1.1231,103.9861-7.5371,159.8882-38.4919.02-.0108-.0771.4006.345-.1816,30.7927-42.4687,84.1672-104.3958,133.688-46.3847.2671.3128-1.3284.9487.7776-.04,54.6057-25.6406,108.8313,45.8726,138.5537,84.1637,25.5107,32.8656,84.4631,90.2385,125.3655,45.4546,7.5847-20.11,11.9575-40.7183,29.3667-55.4558,35.1713-29.7737,65.3125-40.7756,106.12-9.7284,11.7881,8.9687,16.9429,15.2828,35.2949,3.2338,40.7159-26.7315,83.7234-23.324,118.42,13.199.0237.0251-.1406-.7843.5044.0416,43.68,55.9326,100.0388,73.4024,145.1472,7.1744.0615-.09.0354.2777.324-.6126,9.1609-28.26,31.0789-89.9638,63.3162-41.3838a1.96,1.96,0,0,1,.3977,1.2362c-.3191,58.6679-.2564,117.2179-.6875,176.0575-.0064.8518,1.0112.008-.8841,1.9067-29.385,29.4374-58.2392,27.4605-88.4023-.7657-.19-.1775,1.187-1.02-1.0259.0916-55.373,27.8082-116.4685,32.6705-151.8833-28.5666-3.3794-5.8435-6.7722-12.26-16.3262-17.9229-35.9792-21.3266-74.1535-29.4254-97.8217,15.1479-44.263,34.5519-103.6917,51.6017-157.3038,29.02-.165-.07,1.5484-1.2408-.95.3084-71.2715,44.195-133.5452,10.5857-169.77-58.4771-.2278-.4344.3093-2.5714-1.7835.2-36.7737,48.701-83.3137,75.0806-110.6281.2949-.3287-.9.4316-3.7931-2.3016-.2354-45.8418,59.6761-112.7316,94.7337-177.4274,37.13-.1487-.1324,1.2414-.4332-.6939-.1075-76.45,12.8638-189.4526,22.7361-254.9924-28.2526-11.0752-8.6164-18.3638-15.1907-38.232-8.5892-67.7443,22.509-151.811,33.226-217.24-6.2769-.3067-.1851.81-2.337-1.7669.8736C55.0549,794.8629,18.396,757.4,4.4912,682.661a2.6839,2.6839,0,0,1-.0085-.4534c.5372-47.8516.9167-95.5812,1.53-143.5591C6.0185,538.18,5.67,538.8981,6.2976,537.3669Z"/><path class="cls-2" d="M58.4577,495.1179C19.5326,524.3028,23.59,594.8286,30.3878,637.78,64.1709,648.72,61.6463,673.445,50.36,701.6423c26.4767-42.0113,53.4417-99.8655,34.2614-149.734C53.5848,557.8276,57.088,515.21,58.4577,495.1179Z"/><path class="cls-2" d="M507.5886,749.6387c-4.5591-25.1534,81.4656-66.6411,105.5952-42.4458,7.6787,7.7,9.15,20.9348,21.5772,27.5554,39.1831,20.8753,76.605-80.7943,95.2636-61.5714,10.9949,11.3273-7.4875,61.2033-22.0092,74.4191-16.7681,15.26-86.8221-1.1741-107.2618-7.5588C581.8269,734.1249,510.4592,765.4772,507.5886,749.6387Z"/><path class="cls-2" d="M1393.17,645.002c42.9937,58.4135,98.4053,65.716,145.5342,6.9675C1563.9385,836.49,1443.4448,708.1919,1393.17,645.002Z"/><path class="cls-3" d="M806.34,498.3871c61.0383-9.7294,134.5445.8032,151.1445,71.0206C918.8247,526.7826,862.9519,503.7818,806.34,498.3871Z"/><path class="cls-4" d="M220.8376,524.5293c26.5727,62.12,76.7669,95.7783,141.2295,59.8806C296.4031,659.35,245.36,591.86,220.8376,524.5293Z"/><path class="cls-4" d="M1245.322,757.4162"/><path class="cls-4" d="M792.6772,540.2477c26.8106-6.7033,38.0625-3.8946,45.92,23.9923,32.0346-21.5933,69.25-33.29,101.55-5.3428-35.2666-4.6448-58.085,10.7649-73.74,41.7065C820.2407,615.3,801.1382,579.4346,792.6772,540.2477Z"/><path class="cls-4" d="M380.168,624.7816c67.2675-99.0947,127.7292-91.8243,164.0683,23.6337C528.5264,554.8987,433.95,584.0818,380.168,624.7816Z"/><path class="cls-2" d="M932.2536,666.4227c11.9241-31.0116,8.577-63.9561,1.5228-95.7094-1.2,13.56-5.6839,91.583-31.7627,61.0908-1.2259,12.8606-12.3191,98.5993,17.0412,80.6889C937.3362,710.4194,933.0466,680.3755,932.2536,666.4227Z"/><path class="cls-4" d="M162.7639,663.1414c26.5791,62.3211,76.6488,95.2813,140.7642,58.445C237.9851,797.2946,187.3911,731.28,162.7639,663.1414Z"/><rect class="cls-5" x="3.5067" width="1600" height="900"/></symbol><symbol id="flod6" data-name="flod6" viewBox="0 0 1601 900.5"><path class="cls-1" d="M.5,656.1535S28.0752,480.7149,166.6158,445.1118c0,0,81.1464-39.0021,273.6713,137.9618,0,0,135.08,173.5648,249.693,9.1349,0,0,45.0267-137.5028,110.52-182.9388,0,0,102.3332-20.5654,171.92,126.8617,0,0,23.4974,61.6973,139.1731,126.8617,0,0,65.4933-153.7114,139.1732-125.9505,0,0,106.4265-16.9028,151.4531,128.7515s151.4531,45.1693,143.2665-37.0456L1600.5,574.0328V900H.5Z"/><path class="cls-3" d="M.6628,461.38c2.4481-8.556,19.9805-68.404,83.1836-73.885.2312-.02.4223.1613.6289.05,5.2318-2.8115,76.4912-36.5272,159.15,163.0613a1.583,1.583,0,0,0,.4371.643c5.9864,4.7331,115.6892,89.3994,161.2572-25.5076,10.6538-26.865,25.7263-44.513,42.3229-48.1732,32.6419-7.1987,74.3747-33.6031,85.1025,71.7791.07.69,46.2766-46.3069,52.5311-9.4148,3.5642,21.0232,18.5185,49.3248,113.2446,2.3737.0463-.0229.0452-.0975.0718-.1445,1.9412-3.4339,80.474-141.2044,133.8109-50.9888.2877.4865.6666.6522,1.0195.42C842.5765,485.58,881.34,449.0289,972.42,594.56c78.1739,124.9094,90.9711-4.2186,90.9711-4.2186,5.3386-29.5475,51.6867,6.9238,65.1316-7.4659,27.1624-29.0711,68.6238-56.6626,105.8828-12.4447,10.7629,12.7732,23.6865,14.9209,35.1031,4.9337,25.3282-22.157,72.8865-47.3718,121.0872,13.7626a1.2707,1.2707,0,0,1,.091.1306c2.0619,3.3816,83.0507,134.7369,145.7792,8.7379a2.79,2.79,0,0,0,.21-.5833c1.7291-7.007,31.9676-126.6155,63.5316-52.5293a4.25,4.25,0,0,1,.293,1.6082V767.2547a3.57,3.57,0,0,1-.5083,1.9834c-4.9252,6.8762-44.9338,58.895-88.8486-.1323-.2762-.3712-.6106-.4754-.9229-.2641-7.8189,5.29-108.56,70.8144-152.4278-34.3593-4.186-10.0361-9.5864-17.5113-15.5556-22.15-22.4787-17.47-74.4834-48.089-99.8954,17.7531,0,0-79.7526,80.8341-157.342,34.331a.6134.6134,0,0,0-.7269.1035c-6.6439,5.2438-107.02,81.0591-170.7753-72.2979-.4011-.9646-1.0917-1.103-1.5669-.2992-8.3516,14.1276-76.5723,123.9288-110.651,1.4122-.41-1.4738-1.34-1.8663-1.9724-.7907-10.6109,18.0416-90.4139,145.45-175.7771,50.6872a.6348.6348,0,0,0-.6353-.2515c-8.7184,2.24-186.7573,46.8213-255.29-29.8845-11.5812-12.9625-24.9189-17.259-37.7913-11.7885C285.9217,719.96,187.01,750.6946,110.6229,690.925c-.3578-.28-.7532-.1651-1.0563.3212C102.8181,702.0725,26.3907,819.7789.55,640.7756a5.0355,5.0355,0,0,1-.05-.7117V462.6066A4.5152,4.5152,0,0,1,.6628,461.38Z"/><path class="cls-2" d="M52.7554,408.2912S4.95,448.276,25.9966,585.2466c0,0,46.9553,13.1519,20.6854,79.088,0,0,59.4328-114.8236,32.7531-185.4335C79.4351,478.9011,45.5894,494.8045,52.7554,408.2912Z"/><path class="cls-2" d="M503.2063,731.6179C500.087,715.7082,572.588,630.609,609.58,670.509c11.7722,12.6975,10.4143,27.7706,21.2748,35.3788,34.2438,23.989,81.659-102.1036,93.9636-86.8389,7.2507,8.9951,3.0383,67.979-17.729,96.4877-23.98,32.9183-49.7962-2.5734-113.4654-3.2163C534.6675,711.7251,505.17,741.6358,503.2063,731.6179Z"/><path class="cls-2" d="M1390.6866,589.2573s74.3081,130.2117,145.9888,8.1546C1536.6754,597.4119,1571.1057,877.3985,1390.6866,589.2573Z"/><path class="cls-3" d="M800.5,409.27s134.0308-29.1283,151.4782,89.4877C951.9782,498.7574,894.7679,417.5918,800.5,409.27Z"/><path class="cls-4" d="M215.264,445.1118s49.0022,148.4158,141.2689,75.0465C356.5329,520.1583,272.1452,650.4867,215.264,445.1118Z"/><path class="cls-4" d="M1242.3414,730.0851"/><path class="cls-4" d="M786.38,460.76s44.22-17.691,46.0242,30.413c0,0,64.2382-56.19,102.1271-5.6159,0,0-53.1252-13.133-74.0756,50.7559C860.4552,536.3129,799.4619,565.0173,786.38,460.76Z"/><path class="cls-4" d="M375.0044,570.3866S494.2157,330.8982,538.4174,584.63C538.4174,584.63,522.3293,415,375.0044,570.3866Z"/><path class="cls-2" d="M927.1582,617.0679s15.9219-44.9515.9694-117.0375c0,0-8.2775,123.2768-31.7182,74.7314,0,0-9.731,131.8962,18.1916,98.22C914.601,672.9813,932.5278,682.3124,927.1582,617.0679Z"/><path class="cls-4" d="M158.63,617.8087s49.0022,148.4158,141.2689,75.0465C299.8985,692.8552,215.5107,823.1837,158.63,617.8087Z"/><rect class="cls-5" x="0.5" width="1600" height="900"/></symbol></defs><title>blgen</title><use width="1603.226" height="900.7894" transform="translate(1.4946 -9.8815)" xlink:href="#flod1"/><use width="1603.3053" height="900.7894" transform="translate(1599.5465 -9.8814)" xlink:href="#flod2"/><use width="1603.5264" height="900" transform="translate(3197.5275 -9.092)" xlink:href="#flod4"/><use width="1603.7034" height="900" transform="translate(4795.5305 -9.092)" xlink:href="#flod5"/><use width="1601" height="900.5" transform="translate(6394.974 -9.592)" xlink:href="#flod6"/></svg>
