<svg id="sprite" xmlns="http://www.w3.org/2000/svg" xmlns:xlink="http://www.w3.org/1999/xlink" viewBox="0 0 500 550"><defs><style>.cls-1,.cls-3{fill:#e2b291;}.cls-15,.cls-19,.cls-2,.cls-4,.cls-6{fill:none;}.cls-2,.cls-4{stroke:#9b755c;}.cls-12,.cls-15,.cls-17,.cls-18,.cls-19,.cls-2,.cls-20,.cls-21,.cls-3,.cls-4,.cls-5,.cls-6,.cls-7,.cls-8,.cls-9{stroke-miterlimit:10;}.cls-2,.cls-3,.cls-6{stroke-width:0.5px;}.cls-3{stroke:#7c6c61;}.cls-15,.cls-17,.cls-18,.cls-19,.cls-20,.cls-21,.cls-4,.cls-5,.cls-7,.cls-8,.cls-9{stroke-width:0.25px;}.cls-5{fill:#703509;stroke:#703509;}.cls-6{stroke:#6b5e55;}.cls-7{fill:#875353;stroke:#875353;}.cls-8{fill:#704343;stroke:#704343;}.cls-9{fill:#f2eeeb;stroke:#49260e;}.cls-10{fill:#1b6d42;}.cls-11{fill:#0a0a0a;}.cls-12{fill:#351c0b;stroke:#351c0b;}.cls-13{fill:#0f0f0f;}.cls-14{fill:#dce2de;}.cls-15{stroke:#827b67;}.cls-16{fill:#f27979;}.cls-17,.cls-18,.cls-19,.cls-20,.cls-21{stroke:#1e4c0c;}.cls-17{fill:url(#linear-gradient);}.cls-18{fill:url(#linear-gradient-2);}.cls-20{fill:url(#linear-gradient-3);}.cls-21{fill:url(#linear-gradient-4);}</style><linearGradient id="linear-gradient" x1="248.14" y1="158.22" x2="270.7" y2="158.22" gradientTransform="translate(84.62 -145.38) rotate(18.53)" gradientUnits="userSpaceOnUse"><stop offset="0" stop-color="#7eff38"/><stop offset="0.41" stop-color="#15d400"/><stop offset="1" stop-color="#00780d"/></linearGradient><linearGradient id="linear-gradient-2" x1="247.99" y1="158.22" x2="268.52" y2="158.22" xlink:href="#linear-gradient"/><linearGradient id="linear-gradient-3" x1="292.04" y1="72.34" x2="307.54" y2="72.34" gradientTransform="translate(-5.02 238.98) rotate(-43.02)" xlink:href="#linear-gradient"/><linearGradient id="linear-gradient-4" x1="291.96" y1="72.34" x2="306.23" y2="72.34" gradientTransform="translate(-5.02 238.98) rotate(-43.02)" xlink:href="#linear-gradient"/></defs><title>Eva</title><path class="cls-1" d="M289.31,147.94c-.87,17.89-14.36,28-29,35.54C241.13,198.73,220,179.85,206.57,167c-11.37-12.43-12.9-21.77-14.41-41.53-.68-8.82-3.28-44.63,13.16-50.67,8.14,7.45,17.54,14.54,27.92,19.49,11.62,4.07,24.55,9.1,37,7.73C271.72,116.25,273.69,143.56,289.31,147.94Z"/><path class="cls-1" d="M268.12,179.1c-.3,7.81-1.67,18.44,2.69,25.27,6.4.75,12.91,1.71,19.35,1.56-1.21,16.33-2.58,32.71-2,49.12,0,.53-.14-.64,0,0,.31,1.47.41,2.21.69,4a110.06,110.06,0,0,1,.8,24.64c-.29,3.59-1.5,6.8-1.33,10.39,3.71,9.11,7.63,18.25,10.58,27.65-24.77,8.08-54.62,13.32-78.82,1.41-2-15.63-4.21-32.13-.7-47.63-13-1.7-15-7.87-11.19-19.86,0-.13-.2.26.39-.68,9.5-14.9,13.87-31.16,10.89-49.06,7.34-.22,15.81-.15,22.2-4.1q-.1-6.66-.2-13.32C250.28,190,260.91,182.9,268.12,179.1Z"/><path class="cls-1" d="M290.17,205.94a58.92,58.92,0,0,1,10.7,1C312.17,223.74,319,251.5,324.94,271a26.57,26.57,0,0,1,.06,4.78c-.31,10.63-3.38,22.3-4.36,33.8-.94,11-1.91,25.12-2.49,36s-.29,19.46-.76,29.86c-2.38,7.43-6.49,13.36-13.74,16.66-5.31,2.3-10.44,2.83-15.67.15,2.57-5.26,6.88-12.54,7.08-18.1.08-2.41-1-2.15-1.05-4.14-1.87,5.39-4.64,10-10.75,9.27,2-3.59,4.46-7.53,4.77-11.71.72-3.6,1.45-7.2,2.16-10.81l11.34-10.07c1.81-20.88,4.83-43.57,1-64.29-5.7-12.35-10.5-24.58-15.36-37.55a7.86,7.86,0,0,1-.4-3.42C287.91,229.92,289,217.63,290.17,205.94Z"/><path class="cls-2" d="M281,261.42c-.21,1.32-2,4.76-2.21,5.84-1,5-8.35,8.46-10.75,9-8.1,1.79-13.06.11-16.89-5.56s-.34-13.77,2.11-17.46,1.81-2.21,3.08-5.44"/><path class="cls-1" d="M219.49,205.9c-19.09,14.87-39,29.11-54.68,47.69-3.82,4.53-5.1,8.43-1.19,15.53,5,9.15,17.18,21.86,25.72,29.9,6.71,6.81,13.08,13.25,19.67,19.92-.52,7.3-1.4,15.39,1,22.43,1.17,4.62,3.3,8.45,8.26,9.35.25-8.65,1.69-19.08,1.65-27.32s-1.58-14.26-1.91-22.08c-1.48.11-2.84.06-4.29.11C205.15,288.69,196.37,276,188,263.21c8.92-9.64,22.58-19.42,30.38-29s4.65-18.58,1.11-28.3"/><path class="cls-1" d="M298.83,320.7c2.63,8.68,3,15.77,2.65,25.07s-.35,6.21,0,0c-3.69,3-7.5,6.62-11.23,9.87a.24.24,0,0,0-.09.17c-.51,3.49-1,7-1.54,10.49,0,0,0,0,0,.05-1.32,3.9-2.84,7.86-4.06,11.73,0,.13-.48.26.1.39,5,1.17,7.24-4.44,9.56-10,2.6-6.23,2.31-5.62,0,0,2.63,6.81-2.26,15.42-6.75,23.66s-5.35,9.65,0,0c4.05.45,6.93,2.36,10.7,1s2-.73,0,0c-.92,9.18-1.71,17.77-1.18,26.92.24,4.18,0-6.78,0,2.42s-.39,40.85-2.51,54.59a5.79,5.79,0,0,0,.05,2.37c1.16,5.53,2.38,12.55,5,17.75.26.5.56.08.42.75-1.29,6.49,6.58,12.13-2.05,18.42-9.1,6.63-33.52,6.26-46,2.71a3.49,3.49,0,0,1-3-2.84c-1.54-5.84-1-11.17,4.91-15a.27.27,0,0,1,.12-.06c5.31-.78,10.62-1.6,15.89-2.6.11,0,.12-.07.2-.14,5.5-4.44,5.49-11.78,4.65-18.36,0,0,0,.21,0-.08-1.15-13.16-2.47-24.21-4.73-38a263,263,0,0,1-3.48-46c0-.25,0,.06,0-.26-1.11-11-3.59-22.35-5.46-33.15-.1-.54-.09-.4-.44-.19a9.81,9.81,0,0,1-6.89,1.43c-.13,0-.25-.3-.34.26-2.33,14.35-4.6,40.28-12.43,52.13,1.28-.39,5.66,13.85,6.25,55.35h0c.65,10,1.8,22.44-3.35,31.37,0,0,.34,0-.14,0-18,2-35.21-3.61-51.1-12.58a3.76,3.76,0,0,1-1.77-4.52c1.39-5.07,5.76-8.33,11.72-8.26l.05,0c5.19.75,10.44,1.38,15.56,2.57.09,0,.09,0,.24,0,2.76-.7,11.27-3.5,11.26-6.35s-.49,0,.33.17c-2.65-13.48-7.47-25.83-12.52-39.09-.18-.47-.73-5-.84-6.1a226.57,226.57,0,0,1-.55-42.94c0-.05,0,.2,0-.12,1.19-20.71,1.32-42.55,4-62.91.1-.77-.75-1,.53-.16,21.28,14.19,55.85,4.9,78.18-2"/><path class="cls-3" d="M301.51,345.63l-11.34,10.08c-1.19,7.32-2.74,14.9-5.68,21.62-.23.53-.43,1,.48.84,4.89-.7,7.5-4.49,9-9.16,2.51,7.11-3.06,16.28-6,22.22,16.17,6.95,23.22-1.79,29.46-15.88q.38-13.23.74-26.45"/><path class="cls-4" d="M307.5,390.65c2.57-5.2,6.61-11.73,6.09-17.67"/><path class="cls-4" d="M302,393c2.9-6.25,6.27-13,6.65-19.94"/><path class="cls-4" d="M294.73,393.21c3.06-6.31,6.73-13.06,7.43-20.11"/><path class="cls-5" d="M324.27,189.81c8.33.72,9.34,7.27,8.36,14.35,6.09,3.83,9.82,8.71,7.95,16,7.56,1.39,8.78,8.18,8.73,14.79-3.72,11.29-9.23,12.48-19,6.37-1.06,3.43-1.31,5.38-3.87,8.54-3.14,3.86-10.17,2.35-11.46-2.73-2.63-10.34-9.35-32.45-13.6-39.53-5.57-9.26-1.53-1.93,0,0,2.19-5.66,5.87-8.27,8.64-12.74,4.78-1.64,9.5-3.38,14.26-5.05"/><path class="cls-4" d="M210,341.37c.16-5.43-.22-12,2.16-17"/><path class="cls-6" d="M218.26,350.67c.2-8.64,1.64-19.51,1.59-27.73s-1.54-13.89-1.87-21.62c-1.48.12-2.85.06-4.29.11"/><path class="cls-4" d="M212.46,347.23c.42-6.6-.16-15,2.56-21.13"/><path class="cls-4" d="M216.09,350.39c0-7.47-.72-16,1.69-23.11"/><path class="cls-2" d="M219.34,275.55c8.55.33,14.52-3.1,18.39-10.65"/><path class="cls-5" d="M205.53,74.76c7.37,10.41,16.14,21.65,29.39,24.59.12,0-.1-.25.34.18,7.48,7.22,15.4,9,24.38,2.85.18-.13.48-.45.7.23,2,5.89,4.92,11.06,11.32,13,.2.06.4-.36.38.51-.23,14.18.83,27.73,16.77,31.9.23.06.59-.41.38.59-2.67,13-9.22,23.23-20.91,30.46-.08,0-.11-.18-.23.33-1.87,8.2-3.57,17.23-.87,25.6.06.18.3-.07-.06.49-5,7.94-7.43,16.25-2.55,25,0,.06.06,0,.09.24.62,5.6,1.24,15.59,7.84,17,.31.07.52-.1.33-.59-1.62-4.16-4.08-9.79-1.92-14.23.1-.21.18-.2,0-.52-1.43-3.6-6.14-10.52-2.67-14.14s7.41-6,7.57-11.72c0-.23-.37-.39.5-.44a174.11,174.11,0,0,1,24.37.8c.07,0,0,.13.33-.11,3.77-3,7.52-6.51,8.7-11.5.05-.24-.71-.25.49-.46,19-3.33,25.32-12.66,25.24-32.11,0-.05-.11.19.05-.25,3.25-8.82,2.29-16.42-5.44-22.49-.16-.13-.49-.24-.07-.7,3.65-4,6.85-8.43,5.44-14.26,0-.17-.38.3.13-.58,4.08-7.06-13.39-30.35-17-35.35,0,0-.05.5-.07-.33-.62-24.27-10.61-42.71-35-50.4-.07,0,.4.47-.32-.23-13.94-13.48-41.56-6.7-58-3.25,0,0,.22,0-.11,0-18.2,2-34.93,5.57-35.23,27,0,.16.58-.09-.3.53-9.13,6.43-7.16,20.84-5.75,30.6,0,0,.32-.17-.06.23C174.4,102.93,170.27,104.63,172,120c0,.09,0-.15-.15.31-2.5,8.6-7.53,20,3.59,24,.21.07.65-.17.05.71-7.23,10.6-7.72,23-5.35,35.6a.11.11,0,0,0,0,0c1.63,4.45,3.31,8.82,4.92,13.33,0,.13.14-.11,0,.35-2.26,6.59-2.24,12.84,2,18.81.09.12.31,0,.05.54-2.62,4.89-4.43,10.26-3.29,16a.15.15,0,0,1,0,.07c.6,3.81,1.11,7.75,1.74,11.52.07.43.24.58.83.11,11.86-9.27,30.79-28.75,42.13-34.3s14.25,1,23-5.21c.24-.17.12-.06.11-.26-.09-4.27.09-8.46-.27-12.68,0-.3.81-.33-.56-.45-17.62-1.44-31.33-17.83-41.07-30.38-3.82-6.61,4.81,8.37-1.74-3s-8.45-50.21-1.88-67.31c0,0-.27-.29-.21-.45,1.83-4.87,3.94-10.63,9.21-12.81C205.24,74.47,205.12,74.18,205.53,74.76Z"/><path class="cls-5" d="M333.32,198.35c11.29-2.57,14.89-8.19,15.23-21.56.08-3.38-4.35-15.57-13-13.75-5.39,8.47-10.65,18-16,26.83C324.13,192.74,328.7,195.35,333.32,198.35Z"/><path class="cls-5" d="M290.65,254.14c-.27,1.64-1.26,1.7-2.54.89q-.09-3.71-.17-7.41Z"/><path class="cls-5" d="M196,255.66c1.89,4.93,5.06,7.14,10.22,5.57-.58-3.61,4.43-9.75,6-12.4A96.73,96.73,0,0,0,218,235.07C210.77,242,203.62,249.14,196,255.66Z"/><path class="cls-5" d="M276.2,206.12c-2.16,6.92-5.79,17.33.35,22.84-.83,6-2.38,15.61,4.25,18.49.56,4.56,1.78,10.66,7.31,7.58,1.88-4.74,1-9.15-1.38-13.51,2.95-4.89,4.63-10,2.08-15.35,3.41-4.7,4-9.33.77-14.23l5.6-6.11Z"/><path class="cls-5" d="M235.53,202.39c3.47,5.72,4.66,11.45,1.56,17.55,3.61,4.54,2.45,8.81-1.11,12.92.33,4.9-.52,9.33-5,11.85.51-3.24.45-6.61-2.9-8a17.09,17.09,0,0,1-2.12-13c-4.29-3.69-2.25-10.34-.92-14.82-.63-1.69-1.25-3.39-1.87-5.08Z"/><path class="cls-5" d="M193.21,103.62c2.24,8.75,4.74,18.25,2.83,27.23,2.57,7,5.66,14.62,5,22.13l.39,7.53C187.52,144.15,189.19,123.25,193.21,103.62Z"/><path class="cls-2" d="M249.46,360c1.45,1.43,2,2.81,4.13,3.67s5.55,0,7.36-1.5,2.71-2.48,3.13-4.71"/><path class="cls-7" d="M205.86,264.85c.11.81.56,2.37,1.6,2.21s1-1.77.91-2.58-.56-2.36-1.61-2.21S205.74,264.05,205.86,264.85Z"/><path class="cls-7" d="M254.71,266.68c.16,1.1.93,2.3,2.17,2.12s1.63-1.56,1.47-2.66-.93-2.3-2.17-2.12S254.55,265.58,254.71,266.68Z"/><path class="cls-8" d="M255.26,266.48a.85.85,0,0,0,.88.86.87.87,0,0,0,.87-.89.86.86,0,0,0-.89-.85A.85.85,0,0,0,255.26,266.48Z"/><path class="cls-8" d="M205.63,264.8a.63.63,0,1,0,.61-.63A.62.62,0,0,0,205.63,264.8Z"/><path class="cls-8" d="M250,312.66c0,.54.27,1.24.9,1.23s.87-.72.86-1.26-.28-1.25-.9-1.23S250,312.12,250,312.66Z"/><path class="cls-9" d="M272.49,126.81c-11.34,10.67-19.85,9-30.69-1.24,1.67-8.51,11.5-10.29,18.56-11.42l7.29-.12c.52,1.18,3.11,1.57,4.1,1.85C272,119.52,272.24,123.16,272.49,126.81Z"/><path class="cls-9" d="M196.45,116.76c11.79-2.76,22.08-1.09,31.11,7.13-1.07,6.93-9.85,9.26-15.36,10.89a25.7,25.7,0,0,1-15.59-6A78.32,78.32,0,0,0,196.45,116.76Z"/><path class="cls-10" d="M199.68,126.18a7.87,7.87,0,1,0,7.75-8A7.7,7.7,0,0,0,199.68,126.18Z"/><path class="cls-10" d="M249.72,125.79a7.88,7.88,0,1,0,7.75-8.35A7.87,7.87,0,0,0,249.72,125.79Z"/><path class="cls-11" d="M242,125.58c8.62-6.47,18.85-8.86,30-9.69-4.12-.78.83-1-5.44-1.93S244.62,115.09,242,125.58Z"/><path class="cls-11" d="M227.56,123.89c-9.9-4.86-20.07-6.23-31-4.93l-.15-2.2C208.16,114.25,219.07,114.86,227.56,123.89Z"/><path class="cls-12" d="M240.17,103.37c-2.43,1.17-4,2.63-.64,3.84,1.87-.21,6.74.24,7.88-.56S240.62,104.4,240.17,103.37Z"/><path class="cls-12" d="M227.33,107.37c-7.1-1.26-13.8-2.68-21.26-2.18a32.12,32.12,0,0,0-10.92,2.72c-.79-2.38,7-5.35,8-5.86,7.91-.11,15.88-.37,23.5,2.56C227.58,105,228.55,106.35,227.33,107.37Z"/><path class="cls-13" d="M201.79,127.56a4.36,4.36,0,1,0,4.3-4.44A4.26,4.26,0,0,0,201.79,127.56Z"/><path class="cls-13" d="M252.5,126.73a4.36,4.36,0,1,0,4.3-4.44A4.27,4.27,0,0,0,252.5,126.73Z"/><path class="cls-14" d="M260.31,125.19a1,1,0,1,0,.95-1A.94.94,0,0,0,260.31,125.19Z"/><path class="cls-14" d="M202.64,131a1,1,0,1,0,1-1A.94.94,0,0,0,202.64,131Z"/><path class="cls-14" d="M253.52,130.18a1,1,0,1,0,.95-1A.94.94,0,0,0,253.52,130.18Z"/><path class="cls-14" d="M209.6,126a1,1,0,1,0,1-1A.94.94,0,0,0,209.6,126Z"/><path class="cls-15" d="M241.31,146.55c-6.67,3.37-11.86,2-15.89-4.22"/><path class="cls-16" d="M246.25,163.76a21.87,21.87,0,0,0-6.78-1.9c-1,.84-3.87,2.54-4.07,3.85a27.81,27.81,0,0,0-4.87-2.75,9,9,0,0,0-4.83,2.68c3.37,2.09,4.82,4.12,9.56,4.14A14.12,14.12,0,0,0,246.25,163.76Z"/><path class="cls-15" d="M253,159.67c0,.52,0,1.05,0,1.57"/><path class="cls-15" d="M217.78,165.52,219,165c11.46,1.12,23.28,1.39,33.9-3.79l2,.36"/><path class="cls-15" d="M218.85,163.65c.05.46.11.92.16,1.38"/><path class="cls-17" d="M264.1,100l30.34-26.41C294.7,94.3,282.64,98.94,264.1,100Z"/><path class="cls-18" d="M264.1,100l30.34-26.41C275.34,72.17,268.73,83.27,264.1,100Z"/><path class="cls-19" d="M284.36,82.32a7.26,7.26,0,0,1-1.44-5.4"/><path class="cls-19" d="M280.58,85.77c-1.58-1.79-3-3.8-2.89-6.27"/><path class="cls-19" d="M276.57,89.17c-1.58-1.8-3-3.81-2.89-6.28"/><path class="cls-19" d="M272.23,93.07c-1.58-1.8-3-3.81-2.89-6.28"/><path class="cls-19" d="M287.81,79.24c-1.11-1.14-2.19-2.45-2.12-4.11"/><path class="cls-19" d="M291.13,76.35c-.67-.48-1.54-1.11-1.52-2"/><path class="cls-19" d="M288.62,78.43a6.68,6.68,0,0,0,4.61,1.76"/><path class="cls-19" d="M291.77,75.84a2,2,0,0,0,1.74.37"/><path class="cls-19" d="M281,85c2.56,1.77,5.32,3.17,8.49,2.89"/><path class="cls-19" d="M277.35,88.4c2.59,1.55,5.4,2.84,8.44,2.16"/><path class="cls-19" d="M285.3,81.47c2.29,1.39,4.74,2.51,7.44,2"/><path class="cls-19" d="M273.92,91.41c2.59,1.87,5.37,3.33,8.61,3.21"/><path class="cls-19" d="M270.33,94.67c2,1.34,4.15,2.49,6.58,2.06"/><path class="cls-19" d="M266.45,97.74a4.34,4.34,0,0,0,3.34,1"/><path class="cls-20" d="M266.09,101.46Q263,87.78,260,74.11C271.89,80.36,271.26,90.55,266.09,101.46Z"/><path class="cls-21" d="M266.09,101.46Q263,87.78,260,74.11C253.25,84.64,257.92,93.6,266.09,101.46Z"/><path class="cls-19" d="M262,83.2a5,5,0,0,1-3.78-.91"/><path class="cls-19" d="M262.87,86.66a6.37,6.37,0,0,1-4.8-.31"/><path class="cls-19" d="M263.62,90.24a6.4,6.4,0,0,1-4.81-.31"/><path class="cls-19" d="M264.57,94.2a6.35,6.35,0,0,1-4.81-.32"/><path class="cls-19" d="M265.22,97.38a3.74,3.74,0,0,1-3,0"/><path class="cls-19" d="M261.27,80.06a4,4,0,0,1-3.22-.06"/><path class="cls-19" d="M260.61,77.07c-.52.25-1.2.58-1.74.27"/><path class="cls-19" d="M261.05,79.3a4.73,4.73,0,0,0,2.61-2.24"/><path class="cls-19" d="M260.5,76.51c.36-.22.77-.5.81-.94"/><path class="cls-19" d="M262.56,86.17a9.07,9.07,0,0,0,4.59-4.25"/><path class="cls-19" d="M263.41,89.51c1.81-1.07,3.53-2.37,4.13-4.46"/><path class="cls-19" d="M261.81,82.34c1.6-.94,3.11-2.07,3.68-3.9"/><path class="cls-19" d="M264.12,92.61a9.65,9.65,0,0,0,4.82-4.21"/><path class="cls-19" d="M264.92,95.89a6.33,6.33,0,0,0,3.45-3.35"/><path class="cls-19" d="M265.51,99.28a3,3,0,0,0,1.7-1.72"/></svg>
