<svg xmlns="http://www.w3.org/2000/svg" xmlns:xlink="http://www.w3.org/1999/xlink" viewBox="0 0 900 900"><defs><style>.cls-1{fill:#2c8909;stroke:#2c8909;}.cls-1,.cls-10,.cls-11,.cls-2,.cls-3,.cls-4,.cls-5,.cls-7,.cls-8,.cls-9{stroke-miterlimit:10;}.cls-2{fill:#367720;stroke:#367720;}.cls-3{fill:#47af0b;stroke:#47af0b;}.cls-4{fill:#36540a;stroke:#36540a;}.cls-5{fill:#266d09;stroke:#266d09;}.cls-6{fill:url(#linear-gradient);}.cls-7{fill:#4c3008;stroke:#4c3008;}.cls-8{fill:#3d2406;stroke:#3d2406;}.cls-9{fill:#191003;stroke:#191003;}.cls-10{fill:#a00a0a;stroke:#a00a0a;}.cls-11,.cls-12{fill:#4f2a02;}.cls-11{stroke:#4f2a02;}</style><linearGradient id="linear-gradient" x1="525.67" y1="567.74" x2="752.6" y2="567.74" gradientUnits="userSpaceOnUse"><stop offset="0.14" stop-color="#7f4e15"/><stop offset="0.51" stop-color="#6a4110"/></linearGradient></defs><title>forgrund</title><g id="artboard2"><rect class="cls-1" x="159.54" y="772.91" width="290.55" height="166.59" rx="68.56" ry="68.56"/><ellipse class="cls-1" cx="201.88" cy="776.47" rx="9.62" ry="8.91"/><ellipse class="cls-1" cx="415.46" cy="785.38" rx="9.62" ry="8.91"/><ellipse class="cls-1" cx="394.29" cy="776.47" rx="9.62" ry="8.91"/><ellipse class="cls-1" cx="370.24" cy="776.47" rx="9.62" ry="8.91"/><ellipse class="cls-1" cx="353.89" cy="779.14" rx="6.73" ry="15.14"/><ellipse class="cls-1" cx="326.95" cy="772.91" rx="9.62" ry="8.91"/><ellipse class="cls-1" cx="288.46" cy="776.47" rx="9.62" ry="8.91"/><ellipse class="cls-1" cx="269.22" cy="776.47" rx="9.62" ry="8.91"/><ellipse class="cls-1" cx="254.79" cy="772.91" rx="4.78" ry="8.97" transform="translate(-233.17 121.6) rotate(-18.6)"/><ellipse class="cls-1" cx="221.12" cy="776.47" rx="9.62" ry="8.91"/><ellipse class="cls-1" cx="443.36" cy="813.89" rx="4.81" ry="8.91"/><ellipse class="cls-1" cx="438.99" cy="800.3" rx="5.37" ry="14.1" transform="translate(-415.61 1121) rotate(-81.82)"/><ellipse class="cls-1" cx="431.82" cy="794.29" rx="9.52" ry="4.5" transform="translate(-253.48 204.6) rotate(-20.76)"/><ellipse class="cls-1" cx="429.89" cy="787.16" rx="9.21" ry="4.65" transform="translate(-439.56 566.97) rotate(-47.15)"/><ellipse class="cls-1" cx="403.92" cy="779.14" rx="9.1" ry="4.71" transform="translate(-468.99 688.29) rotate(-56.66)"/><ellipse class="cls-1" cx="379.86" cy="772.91" rx="9.1" ry="4.71" transform="translate(-474.61 665.39) rotate(-56.66)"/><ellipse class="cls-1" cx="341.38" cy="772.91" rx="8.99" ry="4.77" transform="translate(-502.42 816.77) rotate(-69.15)"/><ellipse class="cls-1" cx="312.52" cy="772.91" rx="4.81" ry="8.91"/><ellipse class="cls-1" cx="302.9" cy="776.47" rx="4.81" ry="8.91"/><ellipse class="cls-1" cx="160.03" cy="851.3" rx="8.12" ry="4.49" transform="translate(-234.34 80.07) rotate(-16.44)"/><ellipse class="cls-1" cx="166.76" cy="873.13" rx="12.03" ry="6.68"/><ellipse class="cls-1" cx="166.76" cy="899.86" rx="12.03" ry="6.68"/><ellipse class="cls-1" cx="162.61" cy="889.13" rx="4.92" ry="12.01" transform="translate(-740.58 924.33) rotate(-81.87)"/><ellipse class="cls-1" cx="166.76" cy="881.15" rx="12.03" ry="3.12"/><ellipse class="cls-1" cx="160" cy="862.49" rx="6.63" ry="12.02" transform="translate(-712.05 957.42) rotate(-85.7)"/><ellipse class="cls-1" cx="162.91" cy="840.17" rx="12.03" ry="6.68"/><ellipse class="cls-1" cx="171.57" cy="808.99" rx="12.03" ry="6.68"/><ellipse class="cls-1" cx="178.31" cy="788.5" rx="6.8" ry="11.82" transform="translate(-607.78 599.83) rotate(-63.76)"/><ellipse class="cls-1" cx="443.84" cy="900.75" rx="12.03" ry="6.68"/><ellipse class="cls-1" cx="448.65" cy="866.89" rx="6.83" ry="11.77" transform="translate(-526.49 823.45) rotate(-60.09)"/><ellipse class="cls-1" cx="448.65" cy="843.73" rx="6.76" ry="11.89" transform="translate(-500.42 955.26) rotate(-68.7)"/><ellipse class="cls-1" cx="443.84" cy="822.35" rx="12.03" ry="6.68"/><ellipse class="cls-1" cx="162.91" cy="828.14" rx="8.18" ry="4.45"/><ellipse class="cls-1" cx="162.91" cy="818.34" rx="8.18" ry="4.45"/><ellipse class="cls-1" cx="171.57" cy="797.85" rx="8.18" ry="4.45"/><ellipse class="cls-1" cx="186.15" cy="779.51" rx="4.38" ry="8.32" transform="translate(-595.23 601.37) rotate(-63.73)"/><ellipse class="cls-1" cx="449.62" cy="880.7" rx="8.18" ry="4.45"/><ellipse class="cls-1" cx="450.58" cy="889.61" rx="8.18" ry="4.45" transform="translate(-34.12 18.12) rotate(-2.22)"/><ellipse class="cls-1" cx="450.58" cy="855.76" rx="8.18" ry="4.45"/><ellipse class="cls-1" cx="448.65" cy="832.6" rx="8.18" ry="4.45"/><ellipse class="cls-2" cx="293.28" cy="876.25" rx="1.92" ry="6.24"/><ellipse class="cls-2" cx="293.28" cy="801.86" rx="2.83" ry="9.55" transform="translate(-383.2 280.93) rotate(-32.31)"/><ellipse class="cls-3" cx="238.44" cy="872.69" rx="1.92" ry="6.24"/><ellipse class="cls-4" cx="230.74" cy="798.74" rx="1.92" ry="6.24"/><ellipse class="cls-4" cx="347.15" cy="841.51" rx="1.92" ry="6.24"/><ellipse class="cls-2" cx="405.84" cy="804.98" rx="1.92" ry="6.24"/><ellipse class="cls-4" cx="223.04" cy="894.07" rx="1.92" ry="6.24"/><ellipse class="cls-4" cx="381.79" cy="899.41" rx="1.92" ry="6.24"/><ellipse class="cls-3" cx="170.13" cy="863.78" rx="1.92" ry="6.24"/><ellipse class="cls-4" cx="271.15" cy="878.03" rx="1.92" ry="6.24"/><ellipse class="cls-4" cx="396.22" cy="872.69" rx="1.92" ry="6.24"/><ellipse class="cls-4" cx="379.86" cy="825.47" rx="1.92" ry="6.24"/><ellipse class="cls-4" cx="325.02" cy="860.21" rx="1.92" ry="6.24"/><ellipse class="cls-4" cx="317.33" cy="798.74" rx="1.92" ry="6.24"/><ellipse class="cls-4" cx="221.12" cy="828.14" rx="1.92" ry="6.24"/><ellipse class="cls-3" cx="201.4" cy="804.53" rx="9.55" ry="2.36" transform="translate(-586.75 546.35) rotate(-57.81)"/><ellipse class="cls-3" cx="287.98" cy="855.31" rx="9.55" ry="2.36" transform="translate(-589.27 643.35) rotate(-57.81)"/><ellipse class="cls-3" cx="361.1" cy="801.86" rx="9.55" ry="2.36" transform="translate(-509.87 680.26) rotate(-57.81)"/><ellipse class="cls-4" cx="336.09" cy="906.98" rx="9.55" ry="2.36" transform="translate(-610.52 708.2) rotate(-57.81)"/><ellipse class="cls-4" cx="175.42" cy="833.93" rx="9.55" ry="2.36" transform="translate(-623.77 538.1) rotate(-57.81)"/><ellipse class="cls-4" cx="191.77" cy="889.17" rx="9.55" ry="2.36" transform="translate(-662.87 577.75) rotate(-57.81)"/><ellipse class="cls-4" cx="249.5" cy="889.17" rx="9.55" ry="2.36" transform="translate(-635.9 626.6) rotate(-57.81)"/><ellipse class="cls-4" cx="268.74" cy="825.02" rx="9.55" ry="2.36" transform="translate(-572.62 612.92) rotate(-57.81)"/><ellipse class="cls-4" cx="318.77" cy="880.26" rx="9.55" ry="2.36" transform="translate(-595.99 681.06) rotate(-57.81)"/><ellipse class="cls-3" cx="379.38" cy="855.31" rx="9.55" ry="2.36" transform="translate(-546.56 720.7) rotate(-57.81)"/><ellipse class="cls-4" cx="310.11" cy="821.46" rx="9.55" ry="2.36" transform="translate(-550.28 646.26) rotate(-57.81)"/><ellipse class="cls-4" cx="220.64" cy="850.86" rx="9.55" ry="2.36" transform="translate(-616.96 584.28) rotate(-57.81)"/><ellipse class="cls-2" cx="246.13" cy="818.79" rx="2.83" ry="9.55" transform="translate(-399.55 258.35) rotate(-32.31)"/><ellipse class="cls-4" cx="423.16" cy="827.7" rx="2.83" ry="9.55" transform="matrix(0.85, -0.53, 0.53, 0.85, -376.9, 354.35)"/><ellipse class="cls-2" cx="191.29" cy="855.31" rx="2.83" ry="9.55" transform="translate(-427.56 234.69) rotate(-32.31)"/><ellipse class="cls-4" cx="429.89" cy="890.06" rx="2.83" ry="9.55" transform="translate(-409.19 367.61) rotate(-32.31)"/><ellipse class="cls-4" cx="268.26" cy="900.75" rx="2.83" ry="9.55" transform="translate(-439.93 282.87) rotate(-32.31)"/><ellipse class="cls-4" cx="351.96" cy="883.82" rx="2.83" ry="9.55" transform="translate(-417.92 324.99) rotate(-32.31)"/><ellipse class="cls-4" cx="260.75" cy="796.79" rx="1.53" ry="9.55" transform="matrix(0.85, -0.53, 0.53, 0.85, -383.04, 259.75)"/><ellipse class="cls-2" cx="394.29" cy="843.73" rx="2.83" ry="9.55" transform="translate(-389.94 341.41) rotate(-32.31)"/><ellipse class="cls-4" cx="326.95" cy="812.55" rx="2.83" ry="9.55" transform="translate(-383.7 300.58) rotate(-32.31)"/><ellipse class="cls-4" cx="240.36" cy="840.17" rx="2.83" ry="9.55" transform="translate(-411.87 258.57) rotate(-32.31)"/><path class="cls-5" d="M583.56,477.7s-88.39,64.62-90.41-44.62c-4.95,19.49-94.53,18.65-43.76-51.3,0,0-88.09-17.38-93.89-81.71,0,0,24.05-51.87,73.31-63.47,0,0-71.28-43.46-1.73-115.33,0,0,111.27-102.58,182-9.85,0,0-18.55-88.67,51.58-97.95,0,0,46.94-1.74,46.94,43.47,0,0,28.4-51,56.8-22.6,0,0,56.8,46.94,0,105.48,0,0,64.91-54.48,100.27,0,0,0,19.12,54.48,0,81.14,0,0,82.29-7.54,71.28,63.17,0,0,20.87,85.19-92.15,96.79,0,0,101.13-11.31,105.19,30.42,0,0,5.22,74.77-126.34,51.58,0,0-62,102-144.89,29.56"/><path class="cls-6" d="M526.51,895.34c11.77-8.48,45.75-28.65,48.06-51.56,0,0,8.7-120.44,5.22-187.41L582,492.82a24.25,24.25,0,0,0-1.88-9.69c-6.86-16.39-30-72.37-39.66-103.15a3.17,3.17,0,0,1,5.71-2.67c9.4,15.32,23.67,37.64,34.31,50.29a6.27,6.27,0,0,0,11-5.08c-4.6-30.32-14.78-101.7-14.18-135.95a2.89,2.89,0,0,1,5.74-.42c5.17,31.57,17.43,96.86,33.66,120.14a11.07,11.07,0,0,0,19.54-2.66C646.1,376.49,672.6,300,681.35,240.82a5,5,0,0,1,9.86-.28c6.91,34.17,12.91,108.88-5.4,169.68a5.13,5.13,0,0,0,6.13,6.5c12.64-3.26,36.14-9.41,54-14.59a5.25,5.25,0,0,1,5.65,8.13c-12.56,17.7-36,46.46-69.25,70.2a19.22,19.22,0,0,0-8,15.32c-.19,9.76-1,28.56-3.56,63.65,0,0-7.53,248.51,32.46,300.21,0,0,21,24.61,38.69,35.17a2.25,2.25,0,0,1-1.12,4.19H527.66A2,2,0,0,1,526.51,895.34Z"/><ellipse class="cls-7" cx="612.39" cy="553.77" rx="13.47" ry="21.01"/><ellipse class="cls-8" cx="612.76" cy="554.11" rx="10.2" ry="17.28"/><ellipse class="cls-9" cx="612.39" cy="555.8" rx="6.92" ry="13.55"/><ellipse class="cls-4" cx="480.79" cy="247.63" rx="12.95" ry="3.49" transform="translate(-26.52 435.02) rotate(-47.52)"/><ellipse class="cls-4" cx="457.51" cy="152.74" rx="3.21" ry="7.5"/><ellipse class="cls-2" cx="555.45" cy="108.79" rx="3.21" ry="7.5"/><ellipse class="cls-4" cx="515.31" cy="222.43" rx="3.21" ry="7.5"/><ellipse class="cls-4" cx="387.55" cy="291.11" rx="3.21" ry="7.5"/><ellipse class="cls-4" cx="512.1" cy="133.44" rx="3.21" ry="7.5"/><ellipse class="cls-3" cx="480.79" cy="105.03" rx="12.95" ry="3.49" transform="translate(78.65 388.72) rotate(-47.52)"/><ellipse class="cls-3" cx="489.85" cy="179.21" rx="12.95" ry="3.49" transform="translate(26.88 419.49) rotate(-47.52)"/><ellipse class="cls-4" cx="584.35" cy="136.12" rx="4.18" ry="12.99" transform="translate(65.52 437.47) rotate(-43.26)"/><ellipse class="cls-3" cx="552.24" cy="242.27" rx="4.18" ry="12.99" transform="translate(-15.95 444.31) rotate(-43.26)"/><ellipse class="cls-4" cx="595.59" cy="211.17" rx="4.18" ry="12.99" transform="translate(17.14 465.57) rotate(-43.26)"/><ellipse class="cls-4" cx="442.93" cy="203.67" rx="4.18" ry="12.99" transform="matrix(0.73, -0.69, 0.69, 0.73, -19.21, 358.91)"/><ellipse class="cls-2" cx="545.46" cy="169.33" rx="4.18" ry="12.99" transform="translate(32.19 419.84) rotate(-43.26)"/><ellipse class="cls-4" cx="656.4" cy="207.64" rx="12.95" ry="3.49" transform="translate(60 551.56) rotate(-47.52)"/><ellipse class="cls-4" cx="633.11" cy="112.75" rx="3.21" ry="7.5"/><ellipse class="cls-2" cx="731.06" cy="68.8" rx="3.21" ry="7.5"/><ellipse class="cls-4" cx="743.66" cy="171.43" rx="3.21" ry="7.5"/><ellipse class="cls-4" cx="786.29" cy="150.28" rx="3.21" ry="7.5"/><ellipse class="cls-4" cx="687.71" cy="93.45" rx="3.21" ry="7.5"/><ellipse class="cls-3" cx="656.4" cy="65.04" rx="12.95" ry="3.49" transform="translate(165.17 505.25) rotate(-47.52)"/><ellipse class="cls-3" cx="686.9" cy="129.37" rx="12.95" ry="3.49" transform="translate(127.63 548.64) rotate(-47.52)"/><ellipse class="cls-4" cx="759.96" cy="96.13" rx="4.18" ry="12.99" transform="translate(140.65 546.95) rotate(-43.26)"/><ellipse class="cls-3" cx="727.85" cy="202.28" rx="4.18" ry="12.99" transform="translate(59.18 553.79) rotate(-43.26)"/><ellipse class="cls-4" cx="834.95" cy="171.18" rx="4.18" ry="12.99" transform="translate(109.6 618.74) rotate(-43.26)"/><ellipse class="cls-4" cx="641.14" cy="163.68" rx="4.18" ry="12.99" transform="translate(62.07 483.88) rotate(-43.26)"/><ellipse class="cls-2" cx="737.29" cy="122.39" rx="4.18" ry="12.99" transform="translate(116.5 538.55) rotate(-43.26)"/><ellipse class="cls-4" cx="740.43" cy="371.07" rx="12.95" ry="3.49" transform="translate(-33.26 666.61) rotate(-47.52)"/><ellipse class="cls-4" cx="740.33" cy="289.52" rx="3.21" ry="7.5"/><ellipse class="cls-2" cx="838.28" cy="245.56" rx="3.21" ry="7.5"/><ellipse class="cls-4" cx="822.48" cy="406.15" rx="3.21" ry="7.5"/><ellipse class="cls-4" cx="819.32" cy="357.18" rx="3.21" ry="7.5"/><ellipse class="cls-4" cx="794.93" cy="270.22" rx="3.21" ry="7.5"/><ellipse class="cls-3" cx="763.62" cy="241.81" rx="12.95" ry="3.49" transform="translate(69.61 641.73) rotate(-47.52)"/><ellipse class="cls-3" cx="769.2" cy="452.19" rx="12.95" ry="3.49" transform="translate(-83.74 714.17) rotate(-47.52)"/><ellipse class="cls-4" cx="867.18" cy="272.9" rx="4.18" ry="12.99" transform="translate(48.65 668.47) rotate(-43.26)"/><ellipse class="cls-3" cx="887.81" cy="410.92" rx="4.18" ry="12.99" transform="translate(-40.34 720.12) rotate(-43.26)"/><ellipse class="cls-4" cx="878.42" cy="347.95" rx="4.18" ry="12.99" transform="translate(0.27 696.57) rotate(-43.26)"/><ellipse class="cls-4" cx="778.5" cy="327.7" rx="4.18" ry="12.99" transform="translate(-13.01 622.59) rotate(-43.26)"/><ellipse class="cls-2" cx="819.01" cy="292.2" rx="4.18" ry="12.99" transform="translate(22.33 640.71) rotate(-43.26)"/><ellipse class="cls-4" cx="508.61" cy="420.92" rx="12.95" ry="3.49" transform="translate(-145.3 511.81) rotate(-47.52)"/><ellipse class="cls-4" cx="401.29" cy="344" rx="3.21" ry="7.5"/><ellipse class="cls-2" cx="499.23" cy="300.04" rx="3.21" ry="7.5"/><ellipse class="cls-4" cx="459.09" cy="413.69" rx="3.21" ry="7.5"/><ellipse class="cls-4" cx="483.18" cy="381.52" rx="3.21" ry="7.5"/><ellipse class="cls-4" cx="455.88" cy="324.7" rx="3.21" ry="7.5"/><ellipse class="cls-3" cx="424.57" cy="296.29" rx="12.95" ry="3.49" transform="translate(-80.66 409.36) rotate(-47.52)"/><ellipse class="cls-3" cx="623.15" cy="347.87" rx="12.95" ry="3.49" transform="matrix(0.68, -0.74, 0.74, 0.68, -54.22, 572.57)"/><ellipse class="cls-4" cx="528.14" cy="327.38" rx="4.18" ry="12.99" transform="translate(-80.83 450.92) rotate(-43.26)"/><ellipse class="cls-3" cx="548.76" cy="458.44" rx="4.18" ry="12.99" transform="translate(-165.05 500.68) rotate(-43.26)"/><ellipse class="cls-4" cx="539.38" cy="402.43" rx="4.18" ry="12.99" transform="translate(-129.21 479.02) rotate(-43.26)"/><ellipse class="cls-4" cx="619.12" cy="272.64" rx="4.18" ry="12.99" transform="translate(-18.59 498.4) rotate(-43.26)"/><ellipse class="cls-2" cx="641.09" cy="313.06" rx="4.18" ry="12.99" transform="translate(-40.32 524.44) rotate(-43.26)"/><ellipse class="cls-10" cx="453.25" cy="341.39" rx="16.75" ry="16.61"/><ellipse class="cls-10" cx="591.25" cy="212.39" rx="16.75" ry="16.61"/><ellipse class="cls-10" cx="420" cy="175.14" rx="15.5" ry="15.36"/><ellipse class="cls-10" cx="837.5" cy="322.64" rx="16" ry="15.86"/><ellipse class="cls-10" cx="743.5" cy="177.64" rx="14" ry="13.86"/><path class="cls-11" d="M744.59,405.79C740,416.74,718.36,442.67,669,478.06a5.37,5.37,0,0,0-2.24,3.86C664.43,504.79,650,655,659.84,688.47a5.81,5.81,0,0,1,.2,1.09c.69,10.05,10.88,152.5,36,181.44a120.77,120.77,0,0,0,45.5,23.5s-41-29-50-60c0,0-24.23-189.77-21.14-252.89v-.31c-.1-4.28-1.9-97.32,24.23-110.32.38-.18-6.41,5.79-6.09,5.52,5.27-4.44,59.7-50.76,62.85-65a5.05,5.05,0,0,1,.75-1.79c1-1.5,2.69-4.76-.53-6.53A4.94,4.94,0,0,0,744.59,405.79Z"/><path class="cls-12" d="M684.55,240.32c2.48,1.07,5.88,6.84,5.45,35.68,0,.5.07,2,.16,2.69.84,6.31,10.61,53.07-11.42,140.86a6.05,6.05,0,0,0-.1,2.61c.41,2,2,4,7.71-6.15a6.18,6.18,0,0,0,.7-1.91c1.8-9.54,14.71-80.84,12-97.1-.1-.59,0-4.4,0-5-.09-8.67-1.93-65.93-7.5-71.5,0,0-3.74-9.73-8-3.29A2.12,2.12,0,0,0,684.55,240.32Z"/><rect class="cls-1" x="430.17" y="710.36" width="255.9" height="231.14" rx="68.56" ry="68.56"/><ellipse class="cls-1" cx="467.45" cy="715.3" rx="8.47" ry="12.36"/><ellipse class="cls-1" cx="655.57" cy="727.66" rx="8.47" ry="12.36"/><ellipse class="cls-1" cx="636.92" cy="715.3" rx="8.47" ry="12.36"/><ellipse class="cls-1" cx="615.74" cy="715.3" rx="8.47" ry="12.36"/><ellipse class="cls-1" cx="601.34" cy="719.01" rx="5.93" ry="21.01"/><ellipse class="cls-1" cx="577.61" cy="710.36" rx="8.47" ry="12.36"/><ellipse class="cls-1" cx="543.71" cy="715.3" rx="8.47" ry="12.36"/><ellipse class="cls-1" cx="526.77" cy="715.3" rx="8.47" ry="12.36"/><ellipse class="cls-1" cx="514.06" cy="710.36" rx="4.32" ry="12.13" transform="translate(-111.99 96.41) rotate(-9.67)"/><ellipse class="cls-1" cx="501.35" cy="715.3" rx="8.47" ry="12.36"/><ellipse class="cls-1" cx="484.4" cy="715.3" rx="8.47" ry="12.36"/><ellipse class="cls-1" cx="680.14" cy="767.22" rx="4.24" ry="12.36"/><ellipse class="cls-1" cx="676.29" cy="748.36" rx="7.31" ry="12.66" transform="translate(-234.07 1182.7) rotate(-73.4)"/><ellipse class="cls-1" cx="669.97" cy="740.03" rx="9.4" ry="5.57" transform="translate(-321.78 626.31) rotate(-41.3)"/><ellipse class="cls-1" cx="668.28" cy="730.14" rx="11.16" ry="4.69" transform="translate(-272.48 1037.81) rotate(-65.64)"/><ellipse class="cls-1" cx="645.4" cy="719.01" rx="11.63" ry="4.5" transform="translate(-238.77 1108.57) rotate(-71.87)"/><ellipse class="cls-1" cx="624.21" cy="710.36" rx="11.63" ry="4.5" transform="translate(-245.14 1082.48) rotate(-71.87)"/><ellipse class="cls-1" cx="590.32" cy="710.36" rx="12.08" ry="4.34" transform="translate(-218.83 1155.74) rotate(-79.1)"/><ellipse class="cls-1" cx="564.9" cy="710.36" rx="4.24" ry="12.36"/><ellipse class="cls-1" cx="430.59" cy="819.13" rx="7.89" ry="5.64" transform="translate(-441.07 508.33) rotate(-42.65)"/><ellipse class="cls-1" cx="436.52" cy="849.41" rx="10.59" ry="9.27"/><ellipse class="cls-1" cx="443.3" cy="903.18" rx="13.11" ry="3.99" transform="translate(-551.29 751.36) rotate(-55.18)"/><ellipse class="cls-1" cx="439.91" cy="897" rx="11.57" ry="4.53" transform="translate(-435.03 414.7) rotate(-35.01)"/><ellipse class="cls-1" cx="436.52" cy="886.5" rx="10.59" ry="9.27"/><ellipse class="cls-1" cx="432.87" cy="871.61" rx="6.7" ry="10.79" transform="translate(-528.53 1022.57) rotate(-72.51)"/><ellipse class="cls-1" cx="436.52" cy="860.54" rx="10.59" ry="4.33"/><ellipse class="cls-1" cx="430.57" cy="834.65" rx="9.1" ry="10.7" transform="translate(-495.35 991.81) rotate(-72.35)"/><ellipse class="cls-1" cx="433.13" cy="803.68" rx="10.59" ry="9.27"/><ellipse class="cls-1" cx="440.76" cy="760.42" rx="10.59" ry="9.27"/><ellipse class="cls-1" cx="446.69" cy="731.99" rx="7.84" ry="12.53" transform="translate(-344.25 400.7) rotate(-35.88)"/><ellipse class="cls-1" cx="680.56" cy="887.73" rx="10.59" ry="9.27"/><ellipse class="cls-1" cx="684.8" cy="840.76" rx="7.64" ry="12.85" transform="translate(-346.34 505.24) rotate(-32.81)"/><ellipse class="cls-1" cx="684.8" cy="808.63" rx="8.12" ry="12.09" transform="translate(-361.2 639.18) rotate(-40.54)"/><ellipse class="cls-1" cx="680.56" cy="778.96" rx="10.59" ry="9.27"/><ellipse class="cls-1" cx="433.13" cy="786.99" rx="7.2" ry="6.18"/><ellipse class="cls-1" cx="433.13" cy="773.4" rx="7.2" ry="6.18"/><ellipse class="cls-1" cx="440.76" cy="744.97" rx="7.2" ry="6.18"/><ellipse class="cls-1" cx="453.41" cy="719.37" rx="5.99" ry="13.13" transform="translate(-120.83 92.21) rotate(-10.25)"/><ellipse class="cls-1" cx="678.02" cy="903.18" rx="7.2" ry="6.18"/><ellipse class="cls-1" cx="685.65" cy="859.92" rx="7.2" ry="6.18"/><ellipse class="cls-1" cx="686.49" cy="872.28" rx="7.22" ry="6.16" transform="translate(-129.8 120.08) rotate(-9.14)"/><ellipse class="cls-1" cx="686.49" cy="825.31" rx="7.2" ry="6.18"/><ellipse class="cls-1" cx="684.8" cy="793.18" rx="7.2" ry="6.18"/><ellipse class="cls-1" cx="672.94" cy="909.36" rx="4.07" ry="12.86" transform="translate(-415.05 599.4) rotate(-37.6)"/><ellipse class="cls-2" cx="547.95" cy="853.74" rx="1.69" ry="8.65"/><ellipse class="cls-2" cx="547.95" cy="750.53" rx="2.72" ry="12.12" transform="translate(-228.76 240.37) rotate(-20.57)"/><ellipse class="cls-3" cx="499.65" cy="848.8" rx="1.69" ry="8.65"/><ellipse class="cls-4" cx="492.87" cy="746.21" rx="1.69" ry="8.65"/><ellipse class="cls-4" cx="595.4" cy="805.54" rx="1.69" ry="8.65"/><ellipse class="cls-2" cx="647.09" cy="754.86" rx="1.69" ry="8.65"/><ellipse class="cls-4" cx="486.09" cy="878.46" rx="1.69" ry="8.65"/><ellipse class="cls-4" cx="625.91" cy="885.88" rx="1.69" ry="8.65"/><ellipse class="cls-3" cx="439.49" cy="836.44" rx="1.69" ry="8.65"/><ellipse class="cls-4" cx="528.46" cy="856.21" rx="1.69" ry="8.65"/><ellipse class="cls-4" cx="638.62" cy="848.8" rx="1.69" ry="8.65"/><ellipse class="cls-4" cx="624.21" cy="783.29" rx="1.69" ry="8.65"/><ellipse class="cls-4" cx="575.91" cy="831.49" rx="1.69" ry="8.65"/><ellipse class="cls-4" cx="569.14" cy="746.21" rx="1.69" ry="8.65"/><ellipse class="cls-4" cx="484.4" cy="786.99" rx="1.69" ry="8.65"/><ellipse class="cls-3" cx="467.03" cy="754.24" rx="12.11" ry="2.27" transform="translate(-404.17 921.59) rotate(-69.11)"/><ellipse class="cls-3" cx="543.29" cy="824.69" rx="12.11" ry="2.27" transform="translate(-420.93 1038.16) rotate(-69.11)"/><ellipse class="cls-3" cx="607.69" cy="750.53" rx="12.11" ry="2.27" transform="translate(-310.21 1050.61) rotate(-69.11)"/><ellipse class="cls-4" cx="585.66" cy="896.38" rx="12.11" ry="2.27" transform="translate(-460.65 1123.87) rotate(-69.11)"/><ellipse class="cls-4" cx="444.15" cy="795.03" rx="12.11" ry="2.27" transform="translate(-457 926.45) rotate(-69.11)"/><ellipse class="cls-4" cx="458.55" cy="871.66" rx="12.11" ry="2.27" transform="translate(-519.33 989.22) rotate(-69.11)"/><ellipse class="cls-4" cx="509.4" cy="871.66" rx="12.11" ry="2.27" transform="translate(-486.62 1036.72) rotate(-69.11)"/><ellipse class="cls-4" cx="526.34" cy="782.67" rx="12.11" ry="2.27" transform="translate(-392.57 995.29) rotate(-69.11)"/><ellipse class="cls-4" cx="570.41" cy="859.3" rx="12.11" ry="2.27" transform="translate(-435.82 1085.76) rotate(-69.11)"/><ellipse class="cls-3" cx="623.79" cy="824.69" rx="12.11" ry="2.27" transform="translate(-369.14 1113.37) rotate(-69.11)"/><ellipse class="cls-4" cx="562.78" cy="777.72" rx="12.11" ry="2.27" transform="matrix(0.36, -0.93, 0.93, 0.36, -364.51, 1026.15)"/><ellipse class="cls-4" cx="483.98" cy="818.51" rx="12.11" ry="2.27" transform="translate(-453.32 978.77) rotate(-69.11)"/><ellipse class="cls-2" cx="506.43" cy="774.02" rx="2.72" ry="12.12" transform="translate(-239.66 227.28) rotate(-20.57)"/><ellipse class="cls-4" cx="662.35" cy="786.38" rx="2.72" ry="12.12" transform="translate(-234.06 282.85) rotate(-20.57)"/><ellipse class="cls-2" cx="555.58" cy="902.56" rx="2.72" ry="12.12" transform="translate(-281.69 252.74) rotate(-20.57)"/><ellipse class="cls-3" cx="645.4" cy="908.74" rx="2.72" ry="12.12" transform="translate(-278.14 284.7) rotate(-20.57)"/><ellipse class="cls-2" cx="458.13" cy="824.69" rx="2.72" ry="12.12" transform="matrix(0.94, -0.35, 0.35, 0.94, -260.55, 213.54)"/><ellipse class="cls-4" cx="668.28" cy="872.9" rx="2.72" ry="12.12" transform="translate(-264.09 290.45) rotate(-20.57)"/><ellipse class="cls-4" cx="467.45" cy="902.56" rx="2.72" ry="12.12" transform="translate(-287.31 221.78) rotate(-20.57)"/><ellipse class="cls-4" cx="525.92" cy="887.73" rx="2.72" ry="12.12" transform="translate(-278.37 241.38) rotate(-20.57)"/><ellipse class="cls-4" cx="599.64" cy="864.25" rx="2.72" ry="12.12" transform="translate(-265.42 265.78) rotate(-20.57)"/><ellipse class="cls-4" cx="519.3" cy="743.5" rx="1.48" ry="12.1" transform="translate(-234.63 239.46) rotate(-21.3)"/><ellipse class="cls-2" cx="636.92" cy="808.63" rx="2.72" ry="12.12" transform="translate(-243.5 275.34) rotate(-20.57)"/><ellipse class="cls-4" cx="577.61" cy="765.36" rx="2.72" ry="12.12" transform="translate(-232.08 251.74) rotate(-20.57)"/><ellipse class="cls-4" cx="501.35" cy="803.68" rx="2.72" ry="12.12" transform="translate(-250.41 227.39) rotate(-20.57)"/></g></svg>
