<svg xmlns="http://www.w3.org/2000/svg" viewBox="0 0 600 400"><defs><style>.cls-1{fill:#7c6e62;}.cls-2{fill:#332824;}.cls-3{fill:#534741;}.cls-4{fill:#f7931e;}.cls-5{fill:#42210b;}.cls-6{fill:#2b2522;}.cls-7{fill:#f2c6f4;}.cls-8{fill:#e05a83;}.cls-9{fill:#c1272d;}.cls-10{fill:#ed96af;}.cls-11{fill:#fff;}.cls-12{fill:#47c0ea;}</style></defs><title>fugl</title><g id="Layer_2" data-name="Layer 2"><path class="cls-1" d="M201,178c-38.09-1-89.27.42-147,3-6.52,11.79-6.9,23.49,4,35C118.84,205.67,196.5,198.33,201,178Z"/><path class="cls-2" d="M201,194,52,236c-7,15.66-4.07,24.18,11,24C139.71,231.21,214.7,202.79,201,194Z"/><path class="cls-3" d="M201,186,28,212c-10.53,16.09-8.53,27.28,10,32C107.54,224.53,189.56,205,201,186Z"/><path class="cls-4" d="M243.81,269.12c-11.55,18.8-34.92,45.76-34.1,45.52s-16.48-13.41-17.86-11.22l8.9,15.67c4.93,9.42,10.95,18.73,10.71,24.77.22,3.63-.4,6-.51,8.35a18.24,18.24,0,0,0,7.62-6.24c1.21,2.87.87,6.47.42,10.29,12.83-7,16.88-17.29-3.93-36.68,8-11.62,22.5-26,38.57-41.05Z"/><path class="cls-4" d="M200.74,262c-13.22,17.68-38.93,42.42-38.09,42.26s-15.2-14.86-16.77-12.8l7.45,16.42c4,9.82,9.21,19.64,8.42,25.63-.1,3.64-.94,6-1.26,8.28a18.27,18.27,0,0,0,8.15-5.53c1,3,.28,6.52-.51,10.28,13.41-5.84,18.38-15.68-.59-36.88,9-10.85,24.75-23.86,42.12-37.39Z"/><path class="cls-5" d="M161.72,334.2c-.11.3,6.51,2.76,6.62,2.46-1.36,2.66-7.63,5.43-8,5.54C160.33,342.42,162,334,161.72,334.2Z"/><path class="cls-5" d="M169.07,338.6c-.15.5,7.54,2.81,7.69,2.31a23.54,23.54,0,0,1-9.13,5.73A17,17,0,0,0,169.07,338.6Z"/><path class="cls-5" d="M145.63,291l4.08,9.43,5-3.82C149.77,292.16,146.4,289.85,145.63,291Z"/><path class="cls-6" d="M302,177c-24.63,27.5-58.73,41.32-54,67-143-23.28-21.29-138.57,59-133,9.75-25.69,21.31-45.46,36-55,8.12-6.5,18.84-9.91,30-10.57,30.16-1.79,63.42,16.49,56.5,48.07C384.79,109.1,343,137.66,302,177Z"/><path d="M398,26c-15.34-2-22.57,5-23,19.31C379,34.19,386.44,27.47,398,26Z"/><path d="M403.89,40.26c-14.09-8-23.46-5.51-28.89,5.74C382.73,38.82,392.24,36.58,403.89,40.26Z"/><path class="cls-6" d="M275.69,263.27c-10.67,16.85-25.62,23.8-33,16.18-5.54-5.71-1-20.88,11.21-35s27-21.39,33-16.19S285.68,247.48,275.69,263.27Z"/><path class="cls-6" d="M229.69,257.27c-10.67,16.85-25.62,23.8-33,16.18-5.54-5.71-1-20.88,11.21-35s27-21.39,33-16.19S239.68,241.48,229.69,257.27Z"/><path class="cls-5" d="M211.49,344.52c-.08.31,6.73,2.16,6.81,1.85-1.11,2.78-7.11,6.1-7.47,6.25C210.85,352.83,211.69,344.24,211.49,344.52Z"/><path class="cls-5" d="M219.21,348.23c-.11.52,7.76,2.12,7.86,1.61a23.73,23.73,0,0,1-8.57,6.54A17.14,17.14,0,0,0,219.21,348.23Z"/><path class="cls-5" d="M191.55,302.94l4.92,9,4.66-4.25C195.78,303.73,192.22,301.74,191.55,302.94Z"/><path class="cls-6" d="M306.5,111.5c-30.59,41.51-88.14,65.06-126,69.72C157.15,184.11,141.3,179.77,144,168c-23.56,7.31-36,.26-43-14-17.18.78-28.75-3.42-32-15C169.55,91.31,267,53.16,306.5,111.5Z"/><path class="cls-7" d="M373.5,170.5c28.05-32.44,58.29-64.79,46.5-87.5-42-39.61-82.9-19.74-87,41-7.13,53.72-110.88,92.26-87.5,120.5C287.61,257.21,330.17,239.16,373.5,170.5Z"/><path class="cls-8" d="M389,144c17.35,6.05,33.22,9,47,8,5.16,35,48.8,24.16,58,59C444.3,211.17,412.5,183.94,389,144Z"/><path class="cls-4" d="M384.5,143.5c19.87,8.9,44,12.93,74,9,48.51-3.82,88.51,9.8,118,45,1.41-95-23.67-115.36-145-111C424.94,115.94,410.66,136.53,384.5,143.5Z"/><path class="cls-9" d="M576.65,176.54C580.27,141.45,573,114.6,540.47,98,492.46,109.9,527.3,152.46,576.65,176.54Z"/><path class="cls-10" d="M397,155c15.05,19.29,29.93,36.37,43,30-2.58-19.05-17.44-30.07-38.6-37Z"/><path class="cls-4" d="M494,210.91c-33.64,11.74-70,3.73-110-29.88.28-5.3,6.19-15.27,13.12-26.08C425.61,190.09,457.46,211.84,494,210.91Z"/><path class="cls-9" d="M432,86c-3.32,31.56-50.51,83-47,96-10-2.16-12.87-16.65-7-46,24.79-6.17,39.85-21.68,43-51Z"/><ellipse class="cls-11" cx="375.57" cy="100.17" rx="32.22" ry="23.77" transform="translate(-10.29 147.09) rotate(-21.87)"/><circle class="cls-12" cx="376.5" cy="102.5" r="17.5"/><circle cx="376.5" cy="102.5" r="10.5"/><circle class="cls-11" cx="373" cy="96" r="6"/><path d="M201,150c-19.87,9.86-39.4,17.28-58,18.25.55,3,1.33,5.22,2.7,5.75C163.27,173.31,181.86,164,201,150Z"/><path d="M156.6,137.85c-19,8.12-37.74,14.41-55.78,15.89.63,2.18,1.46,3.82,2.8,4.15C120.67,156.65,138.44,149,156.6,137.85Z"/><path d="M185.75,180.48l-3.58.53A186.66,186.66,0,0,0,217,165C207.75,172.37,197.5,177.83,185.75,180.48Z"/></g></svg>
