<svg id="artboard3" xmlns="http://www.w3.org/2000/svg" xmlns:xlink="http://www.w3.org/1999/xlink" viewBox="0 0 100 200"><defs><style>.cls-1{fill:url(#linear-gradient);}.cls-2{fill:url(#linear-gradient-2);}.cls-3{fill:url(#linear-gradient-3);}.cls-4{fill:url(#linear-gradient-4);}.cls-5{fill:url(#linear-gradient-5);}.cls-6{fill:#dfe0e1;}.cls-7{fill:url(#linear-gradient-6);}.cls-8,.cls-9{stroke:#bcbbbb;stroke-miterlimit:10;stroke-width:0.25px;}.cls-8{fill:url(#radial-gradient);}.cls-11,.cls-9{fill:#fff;}.cls-10{fill:#231f20;}.cls-12{fill:#f6b7d2;}.cls-13{fill:url(#linear-gradient-7);}.cls-14{fill:url(#linear-gradient-8);}.cls-15{fill:url(#linear-gradient-9);}.cls-16{fill:url(#linear-gradient-10);}.cls-17{fill:url(#linear-gradient-11);}.cls-18{fill:url(#linear-gradient-12);}.cls-19{fill:#bcbbbb;}</style><linearGradient id="linear-gradient" x1="19.65" y1="111.11" x2="63.32" y2="161.85" gradientUnits="userSpaceOnUse"><stop offset="0" stop-color="#d7d8da"/><stop offset="1" stop-color="#404041"/></linearGradient><linearGradient id="linear-gradient-2" x1="52.94" y1="160.47" x2="49.38" y2="119.51" gradientUnits="userSpaceOnUse"><stop offset="0" stop-color="#d7d8da"/><stop offset="1" stop-color="#fff"/></linearGradient><linearGradient id="linear-gradient-3" x1="-56.46" y1="380.82" x2="-53.86" y2="415.41" gradientTransform="translate(22.97 -312.59) rotate(-11.1)" xlink:href="#linear-gradient-2"/><linearGradient id="linear-gradient-4" x1="50.46" y1="96.84" x2="40.45" y2="80.83" gradientUnits="userSpaceOnUse"><stop offset="0" stop-color="#f09bc1"/><stop offset="1" stop-color="#dd83ac"/></linearGradient><linearGradient id="linear-gradient-5" x1="17.76" y1="102.05" x2="65.82" y2="51.32" xlink:href="#linear-gradient-2"/><linearGradient id="linear-gradient-6" x1="57.87" y1="95.64" x2="77.09" y2="61.2" xlink:href="#linear-gradient-4"/><radialGradient id="radial-gradient" cx="47.42" cy="107.69" r="41.14" gradientUnits="userSpaceOnUse"><stop offset="0" stop-color="#fff"/><stop offset="1" stop-color="#d7d8da"/></radialGradient><linearGradient id="linear-gradient-7" x1="13.23" y1="291.5" x2="2.97" y2="263.61" gradientTransform="translate(12.32 -118.69) rotate(-4.23)" xlink:href="#linear-gradient-2"/><linearGradient id="linear-gradient-8" x1="36.78" y1="163.12" x2="38.78" y2="168.81" xlink:href="#linear-gradient-2"/><linearGradient id="linear-gradient-9" x1="-282.12" y1="835.86" x2="-280.11" y2="841.57" gradientTransform="translate(-63.49 -711.94) rotate(-25.62)" xlink:href="#linear-gradient-2"/><linearGradient id="linear-gradient-10" x1="-23.7" y1="453.52" x2="-33.96" y2="425.63" gradientTransform="translate(13.99 -279.41) rotate(-9.97)" xlink:href="#linear-gradient-2"/><linearGradient id="linear-gradient-11" x1="-159.67" y1="691.24" x2="-157.67" y2="696.93" gradientTransform="translate(-18.07 -540.29) rotate(-19.37)" xlink:href="#linear-gradient-2"/><linearGradient id="linear-gradient-12" x1="-423.77" y1="1021.95" x2="-421.77" y2="1027.64" gradientTransform="translate(-148.61 -921.11) rotate(-33.68)" xlink:href="#linear-gradient-2"/></defs><title>kanin</title><path class="cls-1" d="M90.3,149.58c0,5.8-16.81,10.51-37.54,10.51s-37.55-4.71-37.55-10.51S32,139.06,52.76,139.06,90.3,143.77,90.3,149.58Z"/><path class="cls-2" d="M37.57,135.22s-7.7,6.91-7.28,22.68c0,0,23.34,4.19,44.5.06,0,0,1.41-14.44-8.67-24.4Z"/><path class="cls-3" d="M49.92,69.65c1.91,22.59,2.93,39-1.77,40S35.13,95.55,32.89,73c-.49-5,2.82-3.41,7.52-4.34S49.42,63.65,49.92,69.65Z"/><path class="cls-4" d="M35.54,74.66c3.24,14.82,8.15,35.34,11.38,34.71,3-.6,1.82-24.58-.33-38.38Z"/><path class="cls-5" d="M29.57,99.36c-5-4.68,2.33-24.7,4-29.37,0,0,1.67-2,5-1s9-4.34,9.68-2.34S38.19,107.41,29.57,99.36Z"/><path class="cls-6" d="M74.89,80.6c-6.81,21.63-16,38-20.62,36.55S51.53,97,58.34,75.39s16-38,20.61-36.55S81.71,59,74.89,80.6Z"/><path class="cls-7" d="M70.08,86.3c-4.39,13.94-10.34,24.49-13.29,23.56s-1.78-13,2.62-26.93S73,48.37,76,49.29,74.48,72.35,70.08,86.3Z"/><path class="cls-8" d="M79.27,122.16c0,12.22-11.65,22.13-26,22.13s-26-9.91-26-22.13S38.86,100,53.24,100,79.27,109.93,79.27,122.16Z"/><polygon class="cls-9" points="50 128.46 50.14 131.28 55.17 131.39 56 128.57 52.97 125.64 50 128.46"/><path class="cls-10" d="M68.45,121.33a3.09,3.09,0,1,1-3.09-3.08A3.08,3.08,0,0,1,68.45,121.33Z"/><path class="cls-11" d="M65.53,120.52a1.46,1.46,0,1,1-1.47-1.46A1.46,1.46,0,0,1,65.53,120.52Z"/><path class="cls-10" d="M43.52,121.33a3.09,3.09,0,1,1-3.08-3.08A3.08,3.08,0,0,1,43.52,121.33Z"/><path class="cls-11" d="M40.6,120.52a1.46,1.46,0,1,1-1.46-1.46A1.46,1.46,0,0,1,40.6,120.52Z"/><path class="cls-12" d="M55.76,124c0,1.36-1.91,2.68-3.19,2.65s-3.14-1.29-3.14-2.65h0a2.46,2.46,0,0,1,2.46-2.46H53.3A2.46,2.46,0,0,1,55.76,124Z"/><path class="cls-13" d="M49.49,158.56c-.27,4.62-4,5.36-8.73,5.08s-8.58-1.47-8.31-6.09a8.54,8.54,0,0,1,17,1Z"/><polygon class="cls-14" points="36.05 162.72 36.74 162.03 37.43 163.28 36.05 162.72"/><polygon class="cls-15" points="42.71 163.69 43.03 162.78 44.2 163.61 42.71 163.69"/><path class="cls-16" d="M70.42,158.69c.19,4.62-3.47,5.74-8.18,5.93s-8.68-.6-8.87-5.23a8.53,8.53,0,0,1,17.05-.7Z"/><polygon class="cls-17" points="59.76 164.66 60.18 163.78 61.24 164.73 59.76 164.66"/><polygon class="cls-18" points="64.71 164.35 64.91 163.4 66.17 164.06 64.71 164.35"/><path class="cls-19" d="M52.52,126.83l.06,4.21a.38.38,0,0,0,.75,0l-.06-4.21a.38.38,0,0,0-.75,0Z"/></svg>
