<svg xmlns="http://www.w3.org/2000/svg" xmlns:xlink="http://www.w3.org/1999/xlink" viewBox="0 0 3200 800"><defs><style>.cls-1{fill:#f2edeb;stroke:#bfbbba;stroke-width:0.5px;}.cls-1,.cls-10,.cls-11,.cls-12,.cls-13,.cls-14,.cls-16,.cls-3,.cls-6,.cls-7,.cls-9{stroke-miterlimit:10;}.cls-2,.cls-3{fill:#ead3c9;}.cls-3{stroke:#ead3c9;}.cls-10,.cls-12,.cls-4,.cls-9{fill:none;}.cls-5{fill:url(#linear-gradient);}.cls-6{fill:#f2ece9;stroke:#f2ece9;}.cls-7{fill:#3baeed;stroke:#3baeed;}.cls-8{fill:#5e391d;}.cls-9{stroke:#966b6b;}.cls-10{stroke:#914e4e;}.cls-11{fill:#070707;stroke:#070707;}.cls-12,.cls-13{stroke:#30251c;}.cls-13,.cls-15{fill:#30251c;}.cls-14{fill:#ceafa5;stroke:#ceafa5;}.cls-16{fill:#fcfcfc;stroke:#7f4949;}.cls-17{fill:url(#linear-gradient-2);}.cls-18{fill:url(#linear-gradient-3);}.cls-19{fill:url(#linear-gradient-4);}.cls-20{fill:url(#linear-gradient-5);}.cls-21{fill:url(#linear-gradient-6);}</style><linearGradient id="linear-gradient" x1="-1039.0967" y1="2320.2678" x2="-1039.0967" y2="2110.1916" gradientTransform="translate(1879.6817 -1800.9603) rotate(11.3713)" gradientUnits="userSpaceOnUse"><stop offset="0" stop-color="#7f5800"/><stop offset="1" stop-color="#553b00"/></linearGradient><linearGradient id="linear-gradient-2" x1="-1121.9595" y1="2346.2678" x2="-1082.9595" y2="2346.2678" gradientTransform="translate(2682.5268 1384.3425) rotate(90)" gradientUnits="userSpaceOnUse"><stop offset="0" stop-color="#ffbcd5" stop-opacity="0.2"/><stop offset="0.4458" stop-color="#f8b6f8" stop-opacity="0.59"/><stop offset="0.8041" stop-color="#d46cc9" stop-opacity="0.2"/></linearGradient><linearGradient id="linear-gradient-3" x1="-1003.9595" y1="2346.2678" x2="-964.9595" y2="2346.2678" gradientTransform="translate(2798.2105 1289.6081) rotate(90)" xlink:href="#linear-gradient-2"/><linearGradient id="linear-gradient-4" x1="-1038.7051" y1="2319.6791" x2="-1038.7051" y2="2109.6028" xlink:href="#linear-gradient"/><linearGradient id="linear-gradient-5" x1="-1121.5679" y1="2345.6791" x2="-1082.5679" y2="2345.6791" gradientTransform="translate(2682.438 1383.4509) rotate(90)" xlink:href="#linear-gradient-2"/><linearGradient id="linear-gradient-6" x1="-1003.5679" y1="2345.6791" x2="-964.5679" y2="2345.6791" gradientTransform="translate(2798.1217 1288.7165) rotate(90)" xlink:href="#linear-gradient-2"/><symbol id="pse1" data-name="pse1" viewBox="0 0 800 800"><path class="cls-1" d="M347.9159,405.4951S277.819,352.075,224.94,356.0463c0,0-37.5929.13-47.6674,24.7872,0,0-15.1281,47.6571,19.1795,35.5429,0,0-17.6979,42.1056,21.705,28.711,0,0,4.22,39.2236,27.8026,19.14,0,0-2.24,35.8856,29.6109,22.3289,0,0,11.2872,41.7957,42.2372,15.0055C317.8082,501.5616,355.73,410.5186,347.9159,405.4951Z"/><path class="cls-1" d="M182.4343,372.4368s8.1013,23.3458,27.154,13.0812c0,0,4.1087,29.287,25.8815,15.5137,0,0,4.5656,33.0706,27.6994,18.7343,0,0,5.9227,27.7422,24.9734,15.0948,0,0,1.3807,23.2647,25.88,13.1309,0,0,5.2109,27.1941,20.9825,9.5709"/><path class="cls-1" d="M176.0349,387.5012s7.7034,20.6274,24.0359,13.8715c0,0,5.9227,27.7422,24.9754,17.4776,0,0,3.6556,30.2689,23.6144,18.0405,0,0,8.6448,26.6162,29.0585,15.7886,0,0,2.2906,26.0664,24.52,16.0767,0,0,5.5388,29.21,24.7766,9.872"/><path class="cls-1" d="M206.749,358.6773s1.9195,12.1251,13.2629,9.0221c0,0,1.8337,22.2828,16.8052,16.09,0,0,7.28,22.4136,21.7944,12.4372,0,0,4.1027,22.1387,19.98,13.982,0,0,9.5489,22.2695,27.6935,11.586,0,0,.9218,17.0983,15.8933,10.9055,0,0,8.6,18.2631,19.2742,6.5128"/><path class="cls-1" d="M402.1849,408.0841s76.9324-42.9962,128.7219-31.6044c0,0,37.1984,5.4328,43.6935,31.2643,0,0,8.2532,49.3148-24.0021,32.4815,0,0,11.58,44.1813-25.5386,25.3617,0,0-9.7112,38.2359-30.2248,15.0259,0,0-2.8456,35.8426-32.4649,17.928,0,0-17.0709,39.7851-43.9318,8.8964C418.4381,507.4375,393.7407,411.9551,402.1849,408.0841Z"/><path class="cls-1" d="M570.6752,398.7032s-11.3139,21.9692-28.7279,9.1193c0,0-8.1994,28.4145-27.8113,11.7071,0,0-9.1856,32.0958-30.0655,14.6391,0,0-9.7774,26.629-26.8532,11.42,0,0-4.6491,22.8373-27.4732,9.3485,0,0-8.9954,26.1869-22.1229,6.5149"/><path class="cls-1" d="M574.8853,414.52s-10.5365,19.3342-25.7525,10.3417c0,0-9.7774,26.6291-27.1914,13.7792,0,0-7.8895,29.45-25.9233,14.5285,0,0-12.3135,25.13-30.9954,11.531,0,0-5.9453,25.4825-26.5433,12.4565,0,0-9.6045,28.1367-25.9215,6.2777"/><path class="cls-1" d="M548.545,381.6509s-3.611,11.733-14.4031,7.0607c0,0-4.9591,21.8012-18.9071,13.558,0,0-10.3692,21.1624-23.3311,9.238,0,0-7.1851,21.3384-21.7531,11.0233,0,0-12.5952,20.7-29.0511,7.563,0,0-3.3248,16.7973-17.2729,8.5542,0,0-11.09,16.8671-20,3.7284"/><path class="cls-2" d="M306.4928,241.231s-11.6558-29.39-27.67-15.27c0,0-8.303,8.53-2.6215,23.9533,0,0,9.38,24.327,8.661,33.3626,0,0,4.6266,18.407,16.8547,10.5979C301.7166,293.8745,298.2271,260.4942,306.4928,241.231Z"/><path class="cls-2" d="M498.0653,284.859s22.17-22.587,31.5254-3.3652c0,0,4.3817,11.0815-6.85,23.103,0,0-18.1034,18.8-20.9368,27.41,0,0-11.4108,15.1817-19.7049,3.2453C482.0992,335.2521,498.2561,305.823,498.0653,284.859Z"/><path class="cls-2" d="M332.3123,121.4557s-39.1869,149.2025-32.7295,162.7414c0,0-6.3148,36.4709,24.6463,60.038L359.3034,372.71s25.2706,26.5027,56.8615,11.4356l40.42-18.3916s23.5453-10.5651,33.3872-44.2866c0,0,28.9206-85.4757,38.8062-159.9893,0,0-4.4474-59.0357-90.1394-69.1294C438.6385,92.3482,368.0628,67.9542,332.3123,121.4557Z"/><path class="cls-3" d="M361.4586,374.6729l-2.366,11.7645s-28.62-12.386-39.2667,40.554c0,0-8.6395,44.4818-5.3259,63.5086,0,0,1.8922,29.6429,45.2284,34.7884,0,0,23.2975,7.6278,40.7716-10.7884,0,0,27.342-46.4046,24.6363-83.67,0,0,2.5768-25.4924-18.3972-35.3207l1.5526-8.3972"/><path class="cls-4" d="M643.0023,265.5416"/><path class="cls-5" d="M304.2351,240.7769s-7.7167-16.7437-12.1326-17.9486c0,0-4.323-87.8883,16.6864-111.2036,0,0,8.6535-22.74,42.7747-19.9581,0,0-2.15-7.0625-5.6769-9.8119,0,0,5.4879,3.1437,7.8375,6.6764,0,0,1.38-6.8626-3.9105-10.9867,0,0,4.9018.9858,6.66,7.46,0,0,.208-11.1784-4.3-14.125,0,0,5.099.0055,7.8321,11.7754,0,0,25.1389-33.7051,70.822-22.4775l6.2711,4.3212-5.69,2.9357s27.85-1.5391,46.0774,9.2668c0,0-4.3158,1.1721-5.8877,3.916,0,0,10.9812,1.1885,14.7055,2.9575,0,0,20.9767,7.2788,25.2816,16.3047,0,0,15.0889,11.1948,15.0726,26.4919a44.6527,44.6527,0,0,1,15.0671,31.5908s15.4778,14.3331,8.1991,35.31c0,0,1.3528,18.6325-14.5576,41.9533l-17.7781,38.0524L498.2445,287.94s18.9279-94.1155,20.697-97.84c0,0,1.3965-22.16-23.2935-41.4055,0,0-19.8046-2.963-24.3121-5.91,0,0,1.7581,6.4737,6.66,7.4595,0,0-8.8234-1.7745-13.5226-8.84,0,0-1.5719,2.744,4.6992,7.0652,0,0-4.5129,2.1525-11.5618-8.4453,0,0-54.9062-5.9423-69.0148-16.94,0,0-18.83,2.3332-27.2586-1.402,0,0-9.245,25.6813-18.2709,29.9862,0,0-9.42,6.2656-13.539,6.4573C329.5274,158.1264,315.3311,223.6432,304.2351,240.7769Z"/><path class="cls-6" d="M346.706,232.4729a26.3174,26.3174,0,0,1,11.4084-31.3664c11.8489-6.8189,26.1135-2.1271,33.3326,6.7036,10.0221,12.26,6.1572,32.1194-3.5709,38.0428-3.5068,2.1352-7.1243,2.063-10.5923,1.95C362.0245,247.3045,351.0126,237.02,346.706,232.4729Z"/><path class="cls-6" d="M477.8042,260.8786a26.3172,26.3172,0,0,0,1.6047-33.3381c-8.2916-10.8693-23.2609-12.0569-33.3326-6.7036-13.9824,7.4319-18.0956,27.2418-11.4138,36.4654,2.4087,3.3249,5.7729,4.6569,9.015,5.8931C457.943,268.6351,472.0745,263.4077,477.8042,260.8786Z"/><path class="cls-7" d="M355.5458,218.95c2.0843-7.4141,9.5685-13.3428,17.86-12.7284a16.6412,16.6412,0,0,1,13.5225,8.84,17.3114,17.3114,0,0,1-6.4955,22.1542c-8.3356,5.0065-19.019,1.303-23.3318-5.7124C353.682,225.9415,355.27,219.93,355.5458,218.95Z"/><path class="cls-7" d="M442.4044,238.4588c2.0843-7.414,9.5685-13.3428,17.86-12.7284a16.6412,16.6412,0,0,1,13.5225,8.84,17.3114,17.3114,0,0,1-6.4955,22.1542c-8.3356,5.0065-19.019,1.303-23.3317-5.7124C440.5406,245.45,442.1289,239.4385,442.4044,238.4588Z"/><path class="cls-8" d="M395.3846,190.7726s-18.4017-7.6405-32.4354-7.87c0,0-12.4793,4.9263-16.7266,7.5646,0,0,1.0507-11.954,17.6021-17.5262,0,0,28.6095.005,37.05,6.77C400.8743,179.7108,401.7283,192.8359,395.3846,190.7726Z"/><path class="cls-8" d="M444.07,200.6205s19.9047.8973,32.7077,6.6491c0,0,9.206,9.76,11.9309,13.9518,0,0,4.1252-11.2686-8.4932-23.3423,0,0-25.9037-12.1451-36.4178-9.6047C443.7972,188.2744,437.45,199.7946,444.07,200.6205Z"/><path class="cls-9" d="M391.3705,279.1964c-2.0217.52,12.534,16.291,27.45,5.5206"/><path class="cls-10" d="M376.3786,348.6687s13.9089-3.8959,24.5093,4.9291"/><path class="cls-11" d="M451.0305,241.2137c.6957-4.4982,6.7564-7.4065,11.3811-5.8713,2.8013.93,5.6875,3.6933,5.68,7.2624-.0094,4.1443-3.9165,7.3313-7.6568,7.64C455.3453,250.6656,450.3247,245.7779,451.0305,241.2137Z"/><path class="cls-11" d="M364.758,223.8631c.6957-4.4982,6.7564-7.4065,11.381-5.8713,2.8013.93,5.6875,3.6933,5.68,7.2624-.0093,4.1442-3.9164,7.3313-7.6567,7.64C369.0727,233.315,364.0521,228.4273,364.758,223.8631Z"/><path class="cls-12" d="M325.7349,220.0951c5.1939-14.2774,14.8446-21.314,18.8515-22.7293,14.2362-5.0284,45.1832-3.8357,56.0728,15.3571,9.4921,16.73,1.8878,39.0579-12.9966,49.4074-20.7378,14.4194-50.5708,2.0844-59.9943-16.1458C326.8525,244.4063,321.1,232.8352,325.7349,220.0951Z"/><path class="cls-12" d="M496.6475,256.508c.7294-15.1752-5.4507-25.3957-8.5989-28.25-11.1854-10.1411-40.1874-21.0049-57.65-7.5142-15.2218,11.76-16.8405,35.2915-7.1144,50.59,13.551,21.3154,45.8332,21.4726,61.5716,8.3028C486.2182,278.4971,495.9966,270.0493,496.6475,256.508Z"/><path class="cls-13" d="M404.4313,223.6226s9.1644-4.2179,19.4648,3.9146l-2.2521,3.6547s-8.4481-4.7274-16.8138-3.3815Z"/><polygon class="cls-13" points="329.187 212.597 315.897 211.166 314.197 216.598 325.932 219.115 329.187 212.597"/><polygon class="cls-13" points="495.423 243.636 507.383 247.283 506.813 252.942 496.519 250.872 495.423 243.636"/><path class="cls-12" d="M327.9714,220.71c4.9141-13.5081,14.0449-20.1657,17.8359-21.5047,13.4692-4.7575,42.7489-3.629,53.0518,14.53,8.9807,15.8285,1.786,36.9536-12.2964,46.7455-19.62,13.6425-47.8462,1.9721-56.762-15.2759C329.0288,243.7111,323.5865,232.7633,327.9714,220.71Z"/><path class="cls-12" d="M494.6724,256.2756c.69-14.3577-5.157-24.0275-8.1356-26.728-10.5828-9.5947-38.0223-19.8732-54.5441-7.1093-14.4017,11.126-15.9332,33.39-6.7311,47.8647,12.821,20.167,43.3638,20.3158,58.2544,7.8555C484.8051,277.08,494.0566,269.0873,494.6724,256.2756Z"/><circle class="cls-14" cx="364.4931" cy="471.1654" r="2"/><circle class="cls-14" cx="346.8902" cy="426.8243" r="2"/><circle class="cls-14" cx="399.8301" cy="437.4712" r="2"/><path class="cls-15" d="M326.46,222.7235a1.5009,1.5009,0,0,0,0-3,1.5009,1.5009,0,0,0,0,3Z"/><path class="cls-15" d="M326.1539,224.475a1.1257,1.1257,0,0,0,0-2.25,1.1257,1.1257,0,0,0,0,2.25Z"/><path class="cls-15" d="M324.4971,224.6383a43.8959,43.8959,0,0,0,.0633,12.4031c.209,1.4274,2.3774.82,2.17-.5981a40.0266,40.0266,0,0,1-.0633-11.2068c.1918-1.416-1.9759-2.0287-2.17-.5982Z"/><path class="cls-15" d="M330.2654,246.1011a26.2309,26.2309,0,0,1-3.1366-8.9868c-.2263-1.4261-2.3948-.8207-2.17.5981a27.9645,27.9645,0,0,0,3.3634,9.5243,1.1258,1.1258,0,0,0,1.9428-1.1356Z"/><path class="cls-15" d="M332.3012,249.3968l-1.5394-2.4043c-.7784-1.2157-2.7266-.0887-1.9428,1.1356,7.441,11.6251,20.7019,18.799,34.3261,20.4379,13.3394,1.6046,25.9375-4.7027,33.3969-15.6773.8161-1.2007-1.1326-2.3276-1.9428-1.1356a32.9677,32.9677,0,0,1-33.5327,14.2111c-12.1744-2.3716-23.526-8.3813-30.3047-18.9717l-1.9428,1.1356,1.5393,2.4044c.7784,1.2157,2.7267.0886,1.9429-1.1357Z"/><path class="cls-15" d="M396.3382,253.7662a9.1856,9.1856,0,0,0,1.2069-1.45,1.1252,1.1252,0,1,0-1.9428-1.1356,6.3416,6.3416,0,0,1-.8551.9941c-1.0443,1.0071.5479,2.597,1.591,1.591Z"/><path class="cls-15" d="M397.9873,251.8426a56.3264,56.3264,0,0,0,3.6491-6.2014c.6517-1.2892-1.2887-2.43-1.9428-1.1356a56.3357,56.3357,0,0,1-3.6491,6.2014c-.8146,1.2018,1.134,2.3289,1.9428,1.1356Z"/><path class="cls-15" d="M401.7353,245.0812a19.9021,19.9021,0,0,0,2.6888-8.9132c.089-1.4461-2.1613-1.4408-2.25,0a17.3428,17.3428,0,0,1-2.3816,7.7776,1.1258,1.1258,0,0,0,1.9428,1.1356Z"/><path class="cls-15" d="M328.6148,220.3619a36.27,36.27,0,0,1,6.2145-11.7164c2.2476-2.7776,5.6437-6.952,9.1206-8.1416,1.8163-.6214,1.0362-3.52-.7975-2.8929-4.2025,1.4379-7.7018,5.5772-10.4444,8.9132a39.5807,39.5807,0,0,0-6.9861,13.04c-.5988,1.84,2.297,2.6285,2.8929.7975Z"/><path class="cls-15" d="M344.3132,200.1576a1.5009,1.5009,0,0,0,0-3,1.5009,1.5009,0,0,0,0,3Z"/><path class="cls-15" d="M346.1072,199.1116a74.9067,74.9067,0,0,1,20.47-1.6276c1.4467.0815,1.4421-2.1688,0-2.25a77.1912,77.1912,0,0,0-21.0677,1.7079c-1.4135.311-.8153,2.4806.5982,2.17Z"/><path class="cls-15" d="M367.89,197.2141a65.489,65.489,0,0,1,20.088,6.2261c1.2924.6431,2.4335-1.297,1.1356-1.9428a67.4072,67.4072,0,0,0-20.6254-6.4529c-1.4163-.2026-2.0281,1.965-.5982,2.17Z"/><path class="cls-15" d="M388.9063,203.9921a25.0314,25.0314,0,0,1,10.4015,9.7211l1.7669-1.3633-3.2087-3.9646c-.7949-.9821-2.5346.3392-1.7669,1.3633a31.64,31.64,0,0,1,5.9186,25.5435c-.2781,1.4144,1.89,2.02,2.17.5981a33.9019,33.9019,0,0,0-6.1455-27.2772l-1.7669,1.3633,3.2087,3.9646c.8128,1.0044,2.4117-.2876,1.7669-1.3633a27.37,27.37,0,0,0-11.2086-10.5283c-1.2855-.6612-2.4251,1.28-1.1357,1.9428Z"/><path class="cls-15" d="M423.3324,228.0821a44.42,44.42,0,0,0-2.5053,40.3664c.5692,1.3268,2.5081.182,1.9428-1.1356a42.0723,42.0723,0,0,1,2.5053-38.0952,1.1258,1.1258,0,0,0-1.9428-1.1356Z"/><path class="cls-15" d="M425.7065,274.5705a1.1257,1.1257,0,0,0,0-2.25,1.1257,1.1257,0,0,0,0,2.25Z"/><path class="cls-15" d="M428.9542,275.1117c-3.56-2.53-5.1027-6.6413-6.5183-10.6037l-2.0562.8669c2.9073,5.8206,5.6966,12.7725,11.8475,15.8018a1.13,1.13,0,0,0,1.3633-1.7669l-4.0423-4.17c-1.01-1.0416-2.6.55-1.591,1.591l4.0423,4.17,1.3633-1.7669c-5.6907-2.8026-8.3478-9.6039-11.04-14.9946-.5632-1.1275-2.4874-.34-2.0563.8669,1.6369,4.5816,3.46,9.04,7.5524,11.9483,1.1824.84,2.3074-1.11,1.1356-1.9428Z"/><path class="cls-15" d="M433.6154,281.9118c12.1137,6.395,24.8333,9.1576,38.1676,4.7185,12.8743-4.286,20.4817-13.0356,24.6326-25.7379.4508-1.38-1.7211-1.9707-2.17-.5981-4.0575,12.4166-11.7792,20.8664-24.4965,24.6167-12.37,3.648-23.852.9423-34.9984-4.942-1.28-.6755-2.418,1.2659-1.1356,1.9428Z"/><path class="cls-15" d="M496.568,260.2136a21.6889,21.6889,0,0,0,.0735-13.0382,1.126,1.126,0,0,0-2.17.5981,76.9837,76.9837,0,0,1,.7532,7.8315,1.1257,1.1257,0,0,0,2.25,0,29.8206,29.8206,0,0,0-1.25-12.246c-.4334-1.3763-2.6063-.7885-2.17.5981a28.35,28.35,0,0,1,1.1691,11.6479h2.25a82.6657,82.6657,0,0,0-.8336-8.43l-2.17.5981a19.5426,19.5426,0,0,1-.0736,11.842c-.435,1.3846,1.7364,1.977,2.17.5981Z"/><path class="cls-15" d="M496.4683,247.0511a31.1957,31.1957,0,0,0-14.066-22.8457c-1.2144-.7964-2.343,1.1511-1.1357,1.9428a28.7744,28.7744,0,0,1,12.9517,20.9029c.1658,1.4212,2.4178,1.4379,2.25,0Z"/><path class="cls-15" d="M425.5872,228.5111a4.02,4.02,0,0,1,1.34-2.096l-1.88-.4964-.0069-.1231,1.591,1.591a26.3511,26.3511,0,0,1,5.9543-5.4716c1.2-.7985.0744-2.7481-1.1356-1.9428a28.2524,28.2524,0,0,0-6.41,5.8234c-.8895,1.1056.5189,2.6145,1.591,1.591a2.0479,2.0479,0,0,0,.5855-2.0661c-.1372-.9069-1.315-.9878-1.88-.4964a6.1065,6.1065,0,0,0-1.9186,3.0889,1.1259,1.1259,0,0,0,2.17.5981Z"/><path class="cls-15" d="M425.42,229.173a1.1257,1.1257,0,0,0,0-2.25,1.1257,1.1257,0,0,0,0,2.25Z"/><path class="cls-15" d="M433.8034,221.1378c7.7905-5.1142,17.1691-4.0214,26.0285-3.67,1.4479.0575,1.4454-2.1927,0-2.25-9.2884-.3689-19.0194-1.37-27.1641,3.9768-1.2055.7914-.08,2.74,1.1356,1.9428Z"/><path class="cls-15" d="M460.11,217.3693c3.8426,1.09,8.02,1.8671,11.6547,3.5264,2.8968,1.3225,7.6854,2.6729,9.5725,5.0713.8948,1.1371,2.4771-.4649,1.591-1.591-2.1976-2.7929-6.3255-3.6881-9.4216-5.1826-3.9713-1.917-8.5648-2.7929-12.7985-3.9937a1.1259,1.1259,0,0,0-.5981,2.17Z"/><circle class="cls-6" cx="379.469" cy="221.7216" r="1.5"/><circle class="cls-6" cx="453.7799" cy="237.6865" r="1.5"/><path class="cls-9" d="M296.2883,247.3237s-3.7134-11.9671-9.5956-13.15c0,0-8.6371,7.4432,2.53,17.8493,0,0,6.6546,12.5586,1.3475,23.7315,0,0-.8,14.12,9.4039,9.0315"/><path class="cls-9" d="M508.3556,294.0535s8.051-9.6011,13.9332-8.4181c0,0,5.0881,10.2035-9.234,15.4833,0,0-10.9922,9.01-10.417,21.3655,0,0-4.7211,13.3309-12.1643,4.6938"/><path class="cls-16" d="M348.0016,304.645c5.7453,5.7463,51.16,24.5693,95.293,18.1448C443.2946,322.79,383.6182,376.07,348.0016,304.645Z"/><path class="cls-16" d="M354.86,316.4965s52.9838,18.0679,75.7071,15.2257"/><ellipse class="cls-17" cx="336.259" cy="281.883" rx="9.5" ry="19.5" transform="translate(-6.3895 555.9635) rotate(-78.6287)"/><ellipse class="cls-18" cx="451.9426" cy="305.1486" rx="9.5" ry="19.5" transform="translate(63.6764 688.0547) rotate(-78.6287)"/><path class="cls-3" d="M321.5924,500.0377s7.3006,58.117,1.9815,78.2616c0,0-27.3619,69.8638-37.4784,82.3443l16.411,6.65s38.1819-63.78,44.1484-87.1438c0,0,8.2612-54.0237,1.613-64.9224Z"/><path class="cls-3" d="M363.0827,516.5319s7.4033,55.4359,2.3077,74.6137c0,0-26.3729,66.4681-36.1875,78.317l16.05,6.4177s36.9629-60.6168,42.675-82.86c0,0,9.5974-60.2047,3.0564-70.6258Z"/><path class="cls-3" d="M291.5058,651.8719l9.2366,14.557s13.9005,22.176,12.3232,30.019c0,0-6.6873,18.0355-19.8155,7.2351,0,0-13.2981-35.3152-7.6021-43.35Z"/><path class="cls-3" d="M335.6224,660.7444l9.2366,14.557s13.9005,22.176,12.3232,30.019c0,0-6.6872,18.0355-19.8155,7.235,0,0-13.2981-35.3151-7.6021-43.35Z"/><path class="cls-2" d="M425,429.34s69.5669-7.1869,88.172-23.2865c0,0,26.6942-21.2223,27.2205-38.0538H552s-21.8408,36.59-41.2548,50.4944c0,0-31.8043,16.3651-85.7452,20.4493"/><path class="cls-2" d="M324,417.07s-65.7325-7.3894-83.3121-23.943c0,0-25.2229-21.8205-25.72-39.1265H204s20.6369,37.6217,38.9809,51.9179c0,0,30.0514,16.8265,81.0191,21.0258"/><ellipse class="cls-3" cx="547" cy="363" rx="9.5" ry="7.5"/><ellipse class="cls-3" cx="535" cy="360.5" rx="1.5" ry="4" transform="translate(-98.2141 483.8901) rotate(-45)"/><ellipse class="cls-3" cx="547" cy="353.5" rx="1.5" ry="4"/><ellipse class="cls-3" cx="552" cy="354.5" rx="4" ry="1.5" transform="translate(58.0405 786.2155) rotate(-73.8621)"/><ellipse class="cls-3" cx="557" cy="357.5" rx="4" ry="1.5" transform="translate(-45.8931 630.5845) rotate(-57.0621)"/><ellipse class="cls-3" cx="541" cy="354.5" rx="1.5" ry="4" transform="translate(-74.5101 155.7574) rotate(-15.3407)"/><ellipse class="cls-3" cx="209.4918" cy="351" rx="9.5" ry="7.5"/><ellipse class="cls-3" cx="221.4918" cy="348.5" rx="4" ry="1.5" transform="translate(-181.5533 258.6917) rotate(-45)"/><ellipse class="cls-3" cx="209.4918" cy="341.5" rx="1.5" ry="4"/><ellipse class="cls-3" cx="204.4918" cy="342.5" rx="1.5" ry="4" transform="translate(-87.14 70.3345) rotate(-16.1379)"/><ellipse class="cls-3" cx="199.4918" cy="345.5" rx="1.5" ry="4" transform="translate(-155.7924 164.0053) rotate(-32.9379)"/><ellipse class="cls-3" cx="215.4918" cy="342.5" rx="4" ry="1.5" transform="translate(-171.815 459.7023) rotate(-74.6593)"/><path class="cls-3" d="M353.5,519.5s-1.2,10.1974,1.0467,17.5839a2.8247,2.8247,0,0,0,5.3788.1374A55.025,55.025,0,0,0,362.5,519.5"/><rect class="cls-4" width="800" height="800"/></symbol><symbol id="pse2" data-name="pse2" viewBox="0 0 800 800"><path class="cls-1" d="M339.0734,395.7932s-82.0322-32.2179-131.81-13.9393c0,0-36.1246,10.4043-39.0733,36.8761,0,0-1.5209,49.9775,28.167,28.9443,0,0-5.5105,45.34,28.7283,21.6821,0,0,14.7837,36.5751,31.9765,10.8084,0,0,7.6579,35.13,34.5879,13.3816,0,0,22.2851,37.1166,44.7305,2.8848C336.38,496.4312,347.9628,398.4888,339.0734,395.7932Z"/><path class="cls-1" d="M170.8589,409.2421s14.176,20.241,29.696,5.158c0,0,11.96,27.0475,29.1371,7.8458,0,0,13.434,30.562,31.7664,10.4466,0,0,13.2825,25.0655,28.149,7.6911,0,0,7.6893,22.0006,28.4837,5.5543,0,0,12.4479,24.733,22.8,3.4689"/><path class="cls-1" d="M168.8224,425.4822s13.05,17.735,26.9128,6.7708c0,0,13.2826,25.0655,28.8025,9.9825,0,0,11.7928,28.1159,27.6473,10.8962,0,0,15.593,23.2382,32.2682,7.2415,0,0,9.3307,24.4468,27.9818,8.76,0,0,13.3147,26.5827,26.5317,2.7211"/><path class="cls-1" d="M190.4848,389.3586s5.1617,11.1382,15.2243,5.0518c0,0,7.8566,20.9323,20.5643,10.8818,0,0,13.1309,19.5689,24.3645,6.004,0,0,10,20.1732,23.042,7.986,0,0,15.2741,18.81,29.8062,3.5723,0,0,5.5618,16.1947,18.2694,6.1442,0,0,13.2656,15.2157,20.3206.9945"/><path class="cls-1" d="M410.0271,402.34s86.0286-19.14,132.38,6.618c0,0,34.08,15.8672,32.8987,42.4766,0,0-6.2285,49.6111-32.3054,24.2387,0,0-1.5694,45.6468-31.7365,16.9772,0,0-20.2635,33.8479-33.2635,5.7319,0,0-13,33.523-36.2415,7.87,0,0-27.7585,33.2226-44.6384-4.0693C397.12,502.1827,400.8277,403.6276,410.0271,402.34Z"/><path class="cls-1" d="M574.1364,441.6475S557,459.452,544,442.15c0,0-16,24.8719-30,3.2441,0,0-18,28.1161-33,5.407,0,0-17,22.7091-29,3.2441,0,0-11,20.5464-29,1.0814,0,0-16.124,22.51-23.062-.1"/><path class="cls-1" d="M573.6362,458.0072S558,473.51,546,460.5333c0,0-17,22.7092-30,5.407,0,0-16,25.9533-29,6.4883,0,0-19,20.5463-33,2.1628,0,0-13,22.7091-29,4.3255,0,0-17.2665,24.2032-26.6332-1.4157"/><path class="cls-1" d="M557.8226,418.9674S551,429.1731,542,421.6034c0,0-11,19.465-22,7.57,0,0-16,17.3022-25,2.1628,0,0-13,18.3836-24,4.3255,0,0-18,16.2208-30-1.0813,0,0-8,15.1394-19,3.2441,0,0-15.46,12.9805-20.23-2.1608"/><path class="cls-2" d="M306.9928,240.731s-11.6558-29.39-27.67-15.27c0,0-8.303,8.53-2.6215,23.9533,0,0,9.38,24.327,8.661,33.3626,0,0,4.6266,18.407,16.8547,10.5979C302.2166,293.3745,298.7271,259.9942,306.9928,240.731Z"/><path class="cls-2" d="M498.5653,284.359s22.17-22.587,31.5254-3.3652c0,0,4.3817,11.0815-6.85,23.103,0,0-18.1034,18.8-20.9368,27.41,0,0-11.4108,15.1817-19.7049,3.2453C482.5992,334.7521,498.7561,305.323,498.5653,284.359Z"/><path class="cls-2" d="M332.8123,120.9557s-39.1869,149.2025-32.7295,162.7414c0,0-6.3148,36.4709,24.6463,60.038L359.8034,372.21s25.2706,26.5027,56.8615,11.4356l40.42-18.3916s23.5453-10.5651,33.3872-44.2866c0,0,28.9206-85.4757,38.8062-159.9893,0,0-4.4474-59.0357-90.1394-69.1294C439.1385,91.8482,368.5628,67.4542,332.8123,120.9557Z"/><path class="cls-3" d="M361.9586,374.1729l-2.366,11.7645s-28.62-12.386-39.2667,40.554c0,0-8.6395,44.4818-5.3259,63.5086,0,0,1.8922,29.6429,45.2284,34.7884,0,0,23.2975,7.6278,40.7716-10.7884,0,0,27.342-46.4046,24.6363-83.67,0,0,2.5768-25.4924-18.3972-35.3207l1.5526-8.3972"/><path class="cls-4" d="M643.5023,265.0416"/><path class="cls-19" d="M304.7351,240.2769s-7.7167-16.7437-12.1326-17.9486c0,0-4.323-87.8883,16.6864-111.2036,0,0,8.6535-22.74,42.7747-19.9581,0,0-2.15-7.0625-5.6769-9.8119,0,0,5.4879,3.1437,7.8375,6.6764,0,0,1.38-6.8626-3.9105-10.9867,0,0,4.9018.9858,6.66,7.46,0,0,.208-11.1784-4.3-14.125,0,0,5.099.0055,7.8321,11.7754,0,0,25.1389-33.7051,70.822-22.4775l6.2711,4.3212-5.69,2.9357s27.85-1.5391,46.0774,9.2668c0,0-4.3158,1.1721-5.8877,3.916,0,0,10.9812,1.1885,14.7055,2.9575,0,0,20.9767,7.2788,25.2816,16.3047,0,0,15.0889,11.1948,15.0726,26.4919a44.6527,44.6527,0,0,1,15.0671,31.5908s15.4778,14.3331,8.1991,35.31c0,0,1.3528,18.6325-14.5576,41.9533l-17.7781,38.0524L498.7445,287.44s18.9279-94.1155,20.697-97.84c0,0,1.3965-22.16-23.2935-41.4055,0,0-19.8046-2.963-24.3121-5.91,0,0,1.7581,6.4737,6.66,7.4595,0,0-8.8234-1.7745-13.5226-8.84,0,0-1.5719,2.744,4.6992,7.0652,0,0-4.5129,2.1525-11.5618-8.4453,0,0-54.9062-5.9423-69.0148-16.94,0,0-18.83,2.3332-27.2586-1.402,0,0-9.245,25.6813-18.2709,29.9862,0,0-9.42,6.2656-13.539,6.4573C330.0274,157.6264,315.8311,223.1432,304.7351,240.2769Z"/><path class="cls-6" d="M347.206,231.9729a26.3174,26.3174,0,0,1,11.4084-31.3664c11.8489-6.8189,26.1135-2.1271,33.3326,6.7036,10.0221,12.26,6.1572,32.1194-3.5709,38.0428-3.5068,2.1352-7.1243,2.063-10.5923,1.95C362.5245,246.8045,351.5126,236.52,347.206,231.9729Z"/><path class="cls-6" d="M478.3042,260.3786a26.3172,26.3172,0,0,0,1.6047-33.3381c-8.2916-10.8693-23.2609-12.0569-33.3326-6.7036-13.9824,7.4319-18.0956,27.2418-11.4138,36.4654,2.4087,3.3249,5.7729,4.6569,9.015,5.8931C458.443,268.1351,472.5745,262.9077,478.3042,260.3786Z"/><path class="cls-7" d="M356.0458,218.45c2.0843-7.4141,9.5685-13.3428,17.86-12.7284a16.6412,16.6412,0,0,1,13.5225,8.84,17.3114,17.3114,0,0,1-6.4955,22.1542c-8.3356,5.0065-19.019,1.303-23.3318-5.7124C354.182,225.4415,355.77,219.43,356.0458,218.45Z"/><path class="cls-7" d="M442.9044,237.9588c2.0843-7.414,9.5685-13.3428,17.86-12.7284a16.6412,16.6412,0,0,1,13.5225,8.84,17.3114,17.3114,0,0,1-6.4955,22.1542c-8.3356,5.0065-19.019,1.303-23.3317-5.7124C441.0406,244.95,442.6289,238.9385,442.9044,237.9588Z"/><path class="cls-8" d="M395.8846,190.2726s-18.4017-7.6405-32.4354-7.87c0,0-12.4793,4.9263-16.7266,7.5646,0,0,1.0507-11.954,17.6021-17.5262,0,0,28.6095.005,37.05,6.77C401.3743,179.2108,402.2283,192.3359,395.8846,190.2726Z"/><path class="cls-8" d="M444.57,200.1205s19.9047.8973,32.7077,6.6491c0,0,9.206,9.76,11.9309,13.9518,0,0,4.1252-11.2686-8.4932-23.3423,0,0-25.9037-12.1451-36.4178-9.6047C444.2972,187.7744,437.95,199.2946,444.57,200.1205Z"/><path class="cls-9" d="M391.8705,278.6964c-2.0217.52,12.534,16.291,27.45,5.5206"/><path class="cls-10" d="M376.8786,348.1687s13.9089-3.8959,24.5093,4.9291"/><path class="cls-11" d="M451.5305,240.7137c.6957-4.4982,6.7564-7.4065,11.3811-5.8713,2.8013.93,5.6875,3.6933,5.68,7.2624-.0094,4.1443-3.9165,7.3313-7.6568,7.64C455.8453,250.1656,450.8247,245.2779,451.5305,240.7137Z"/><path class="cls-11" d="M365.258,223.3631c.6957-4.4982,6.7564-7.4065,11.381-5.8713,2.8013.93,5.6875,3.6933,5.68,7.2624-.0093,4.1442-3.9164,7.3313-7.6567,7.64C369.5727,232.815,364.5521,227.9273,365.258,223.3631Z"/><path class="cls-12" d="M326.2349,219.5951c5.1939-14.2774,14.8446-21.314,18.8515-22.7293,14.2362-5.0284,45.1832-3.8357,56.0728,15.3571,9.4921,16.73,1.8878,39.0579-12.9966,49.4074-20.7378,14.4194-50.5708,2.0844-59.9943-16.1458C327.3525,243.9063,321.6,232.3352,326.2349,219.5951Z"/><path class="cls-12" d="M497.1475,256.008c.7294-15.1752-5.4507-25.3957-8.5989-28.25-11.1854-10.1411-40.1874-21.0049-57.65-7.5142-15.2218,11.76-16.8405,35.2915-7.1144,50.59,13.551,21.3154,45.8332,21.4726,61.5716,8.3028C486.7182,277.9971,496.4966,269.5493,497.1475,256.008Z"/><path class="cls-13" d="M404.9313,223.1226s9.1644-4.2179,19.4648,3.9146l-2.2521,3.6547s-8.4481-4.7274-16.8138-3.3815Z"/><polygon class="cls-13" points="329.687 212.097 316.397 210.666 314.697 216.098 326.432 218.615 329.687 212.097"/><polygon class="cls-13" points="495.923 243.136 507.883 246.783 507.313 252.442 497.019 250.372 495.923 243.136"/><path class="cls-12" d="M328.4714,220.21c4.9141-13.5081,14.0449-20.1657,17.8359-21.5047,13.4692-4.7575,42.7489-3.629,53.0518,14.53,8.9807,15.8285,1.786,36.9536-12.2964,46.7455-19.62,13.6425-47.8462,1.9721-56.762-15.2759C329.5288,243.2111,324.0865,232.2633,328.4714,220.21Z"/><path class="cls-12" d="M495.1724,255.7756c.69-14.3577-5.157-24.0275-8.1356-26.728-10.5828-9.5947-38.0223-19.8732-54.5441-7.1093-14.4017,11.126-15.9332,33.39-6.7311,47.8647,12.821,20.167,43.3638,20.3158,58.2544,7.8555C485.3051,276.58,494.5566,268.5873,495.1724,255.7756Z"/><circle class="cls-14" cx="364.9931" cy="470.6654" r="2"/><circle class="cls-14" cx="347.3902" cy="426.3243" r="2"/><circle class="cls-14" cx="400.3301" cy="436.9712" r="2"/><path class="cls-15" d="M326.96,222.2235a1.5009,1.5009,0,0,0,0-3,1.5009,1.5009,0,0,0,0,3Z"/><path class="cls-15" d="M326.6539,223.975a1.1257,1.1257,0,0,0,0-2.25,1.1257,1.1257,0,0,0,0,2.25Z"/><path class="cls-15" d="M324.9971,224.1383a43.8959,43.8959,0,0,0,.0633,12.4031c.209,1.4274,2.3774.82,2.17-.5981a40.0266,40.0266,0,0,1-.0633-11.2068c.1918-1.416-1.9759-2.0287-2.17-.5982Z"/><path class="cls-15" d="M330.7654,245.6011a26.2309,26.2309,0,0,1-3.1366-8.9868c-.2263-1.4261-2.3948-.8207-2.17.5981a27.9645,27.9645,0,0,0,3.3634,9.5243,1.1258,1.1258,0,0,0,1.9428-1.1356Z"/><path class="cls-15" d="M332.8012,248.8968l-1.5394-2.4043c-.7784-1.2157-2.7266-.0887-1.9428,1.1356,7.441,11.6251,20.7019,18.799,34.3261,20.4379,13.3394,1.6046,25.9375-4.7027,33.3969-15.6773.8161-1.2007-1.1326-2.3276-1.9428-1.1356a32.9677,32.9677,0,0,1-33.5327,14.2111c-12.1744-2.3716-23.526-8.3813-30.3047-18.9717l-1.9428,1.1356,1.5393,2.4044c.7784,1.2157,2.7267.0886,1.9429-1.1357Z"/><path class="cls-15" d="M396.8382,253.2662a9.1856,9.1856,0,0,0,1.2069-1.45,1.1252,1.1252,0,1,0-1.9428-1.1356,6.3416,6.3416,0,0,1-.8551.9941c-1.0443,1.0071.5479,2.597,1.591,1.591Z"/><path class="cls-15" d="M398.4873,251.3426a56.3264,56.3264,0,0,0,3.6491-6.2014c.6517-1.2892-1.2887-2.43-1.9428-1.1356a56.3357,56.3357,0,0,1-3.6491,6.2014c-.8146,1.2018,1.134,2.3289,1.9428,1.1356Z"/><path class="cls-15" d="M402.2353,244.5812a19.9021,19.9021,0,0,0,2.6888-8.9132c.089-1.4461-2.1613-1.4408-2.25,0a17.3428,17.3428,0,0,1-2.3816,7.7776,1.1258,1.1258,0,0,0,1.9428,1.1356Z"/><path class="cls-15" d="M329.1148,219.8619a36.27,36.27,0,0,1,6.2145-11.7164c2.2476-2.7776,5.6437-6.952,9.1206-8.1416,1.8163-.6214,1.0362-3.52-.7975-2.8929-4.2025,1.4379-7.7018,5.5772-10.4444,8.9132a39.5807,39.5807,0,0,0-6.9861,13.04c-.5988,1.84,2.297,2.6285,2.8929.7975Z"/><path class="cls-15" d="M344.8132,199.6576a1.5009,1.5009,0,0,0,0-3,1.5009,1.5009,0,0,0,0,3Z"/><path class="cls-15" d="M346.6072,198.6116a74.9067,74.9067,0,0,1,20.47-1.6276c1.4467.0815,1.4421-2.1688,0-2.25a77.1912,77.1912,0,0,0-21.0677,1.7079c-1.4135.311-.8153,2.4806.5982,2.17Z"/><path class="cls-15" d="M368.39,196.7141a65.489,65.489,0,0,1,20.088,6.2261c1.2924.6431,2.4335-1.297,1.1356-1.9428a67.4072,67.4072,0,0,0-20.6254-6.4529c-1.4163-.2026-2.0281,1.965-.5982,2.17Z"/><path class="cls-15" d="M389.4063,203.4921a25.0314,25.0314,0,0,1,10.4015,9.7211l1.7669-1.3633-3.2087-3.9646c-.7949-.9821-2.5346.3392-1.7669,1.3633a31.64,31.64,0,0,1,5.9186,25.5435c-.2781,1.4144,1.89,2.02,2.17.5981a33.9019,33.9019,0,0,0-6.1455-27.2772l-1.7669,1.3633,3.2087,3.9646c.8128,1.0044,2.4117-.2876,1.7669-1.3633a27.37,27.37,0,0,0-11.2086-10.5283c-1.2855-.6612-2.4251,1.28-1.1357,1.9428Z"/><path class="cls-15" d="M423.8324,227.5821a44.42,44.42,0,0,0-2.5053,40.3664c.5692,1.3268,2.5081.182,1.9428-1.1356a42.0723,42.0723,0,0,1,2.5053-38.0952,1.1258,1.1258,0,0,0-1.9428-1.1356Z"/><path class="cls-15" d="M426.2065,274.0705a1.1257,1.1257,0,0,0,0-2.25,1.1257,1.1257,0,0,0,0,2.25Z"/><path class="cls-15" d="M429.4542,274.6117c-3.56-2.53-5.1027-6.6413-6.5183-10.6037l-2.0562.8669c2.9073,5.8206,5.6966,12.7725,11.8475,15.8018a1.13,1.13,0,0,0,1.3633-1.7669l-4.0423-4.17c-1.01-1.0416-2.6.55-1.591,1.591l4.0423,4.17,1.3633-1.7669c-5.6907-2.8026-8.3478-9.6039-11.04-14.9946-.5632-1.1275-2.4874-.34-2.0563.8669,1.6369,4.5816,3.46,9.04,7.5524,11.9483,1.1824.84,2.3074-1.11,1.1356-1.9428Z"/><path class="cls-15" d="M434.1154,281.4118c12.1137,6.395,24.8333,9.1576,38.1676,4.7185,12.8743-4.286,20.4817-13.0356,24.6326-25.7379.4508-1.38-1.7211-1.9707-2.17-.5981-4.0575,12.4166-11.7792,20.8664-24.4965,24.6167-12.37,3.648-23.852.9423-34.9984-4.942-1.28-.6755-2.418,1.2659-1.1356,1.9428Z"/><path class="cls-15" d="M497.068,259.7136a21.6889,21.6889,0,0,0,.0735-13.0382,1.126,1.126,0,0,0-2.17.5981,76.9837,76.9837,0,0,1,.7532,7.8315,1.1257,1.1257,0,0,0,2.25,0,29.8206,29.8206,0,0,0-1.25-12.246c-.4334-1.3763-2.6063-.7885-2.17.5981a28.35,28.35,0,0,1,1.1691,11.6479h2.25a82.6657,82.6657,0,0,0-.8336-8.43l-2.17.5981a19.5426,19.5426,0,0,1-.0736,11.842c-.435,1.3846,1.7364,1.977,2.17.5981Z"/><path class="cls-15" d="M496.9683,246.5511a31.1957,31.1957,0,0,0-14.066-22.8457c-1.2144-.7964-2.343,1.1511-1.1357,1.9428a28.7744,28.7744,0,0,1,12.9517,20.9029c.1658,1.4212,2.4178,1.4379,2.25,0Z"/><path class="cls-15" d="M426.0872,228.0111a4.02,4.02,0,0,1,1.34-2.096l-1.88-.4964-.0069-.1231,1.591,1.591a26.3511,26.3511,0,0,1,5.9543-5.4716c1.2-.7985.0744-2.7481-1.1356-1.9428a28.2524,28.2524,0,0,0-6.41,5.8234c-.8895,1.1056.5189,2.6145,1.591,1.591a2.0479,2.0479,0,0,0,.5855-2.0661c-.1372-.9069-1.315-.9878-1.88-.4964a6.1065,6.1065,0,0,0-1.9186,3.0889,1.1259,1.1259,0,0,0,2.17.5981Z"/><path class="cls-15" d="M425.92,228.673a1.1257,1.1257,0,0,0,0-2.25,1.1257,1.1257,0,0,0,0,2.25Z"/><path class="cls-15" d="M434.3034,220.6378c7.7905-5.1142,17.1691-4.0214,26.0285-3.67,1.4479.0575,1.4454-2.1927,0-2.25-9.2884-.3689-19.0194-1.37-27.1641,3.9768-1.2055.7914-.08,2.74,1.1356,1.9428Z"/><path class="cls-15" d="M460.61,216.8693c3.8426,1.09,8.02,1.8671,11.6547,3.5264,2.8968,1.3225,7.6854,2.6729,9.5725,5.0713.8948,1.1371,2.4771-.4649,1.591-1.591-2.1976-2.7929-6.3255-3.6881-9.4216-5.1826-3.9713-1.917-8.5648-2.7929-12.7985-3.9937a1.1259,1.1259,0,0,0-.5981,2.17Z"/><circle class="cls-6" cx="379.969" cy="221.2216" r="1.5"/><circle class="cls-6" cx="454.2799" cy="237.1865" r="1.5"/><path class="cls-9" d="M296.7883,246.8237s-3.7134-11.9671-9.5956-13.15c0,0-8.6371,7.4432,2.53,17.8493,0,0,6.6546,12.5586,1.3475,23.7315,0,0-.8,14.12,9.4039,9.0315"/><path class="cls-9" d="M508.8556,293.5535s8.051-9.6011,13.9332-8.4181c0,0,5.0881,10.2035-9.234,15.4833,0,0-10.9922,9.01-10.417,21.3655,0,0-4.7211,13.3309-12.1643,4.6938"/><path class="cls-16" d="M348.5016,304.145c5.7453,5.7463,51.16,24.5693,95.293,18.1448C443.7946,322.29,384.1182,375.57,348.5016,304.145Z"/><path class="cls-16" d="M355.36,315.9965s52.9838,18.0679,75.7071,15.2257"/><ellipse class="cls-20" cx="336.759" cy="281.383" rx="9.5" ry="19.5" transform="translate(-5.4979 556.0522) rotate(-78.6287)"/><ellipse class="cls-21" cx="452.4426" cy="304.6486" rx="9.5" ry="19.5" transform="translate(64.568 688.1435) rotate(-78.6287)"/><path class="cls-3" d="M322.0924,499.5377s7.3006,58.117,1.9815,78.2616c0,0-27.3619,69.8638-37.4784,82.3443l16.411,6.65s38.1819-63.78,44.1484-87.1438c0,0,8.2612-54.0237,1.613-64.9224Z"/><path class="cls-3" d="M363.5827,516.0319s7.4033,55.4359,2.3077,74.6137c0,0-26.3729,66.4681-36.1875,78.317l16.05,6.4177s36.9629-60.6168,42.675-82.86c0,0,9.5974-60.2047,3.0564-70.6258Z"/><path class="cls-3" d="M292.0058,651.3719l9.2366,14.557s13.9005,22.176,12.3232,30.019c0,0-6.6873,18.0355-19.8155,7.2351,0,0-13.2981-35.3152-7.6021-43.35Z"/><path class="cls-3" d="M336.1224,660.2444l9.2366,14.557s13.9005,22.176,12.3232,30.019c0,0-6.6872,18.0355-19.8155,7.235,0,0-13.2981-35.3151-7.6021-43.35Z"/><path class="cls-2" d="M425.5,428.84s69.5669-7.1869,88.172-23.2865c0,0,26.6942-21.2223,27.2205-38.0538H552.5s-21.8408,36.59-41.2548,50.4944c0,0-31.8043,16.3651-85.7452,20.4493"/><path class="cls-2" d="M324.5,416.57s-65.7325-7.3894-83.3121-23.943c0,0-25.2229-21.8205-25.72-39.1265H204.5s20.6369,37.6217,38.9809,51.9179c0,0,30.0514,16.8265,81.0191,21.0258"/><ellipse class="cls-3" cx="547.5" cy="362.5" rx="9.5" ry="7.5"/><ellipse class="cls-3" cx="535.5" cy="360" rx="1.5" ry="4" transform="translate(-97.7141 484.0972) rotate(-45)"/><ellipse class="cls-3" cx="547.5" cy="353" rx="1.5" ry="4"/><ellipse class="cls-3" cx="552.5" cy="354" rx="4" ry="1.5" transform="matrix(0.2779, -0.9606, 0.9606, 0.2779, 58.8818, 786.3348)"/><ellipse class="cls-3" cx="557.5" cy="357" rx="4" ry="1.5" transform="translate(-45.2453 630.776) rotate(-57.0621)"/><ellipse class="cls-3" cx="541.5" cy="354" rx="1.5" ry="4" transform="translate(-74.36 155.8719) rotate(-15.3407)"/><ellipse class="cls-3" cx="209.9918" cy="350.5" rx="9.5" ry="7.5"/><ellipse class="cls-3" cx="221.9918" cy="348" rx="4" ry="1.5" transform="translate(-181.0533 258.8988) rotate(-45)"/><ellipse class="cls-3" cx="209.9918" cy="341" rx="1.5" ry="4"/><ellipse class="cls-3" cx="204.9918" cy="342" rx="1.5" ry="4" transform="translate(-86.9813 70.4538) rotate(-16.1379)"/><ellipse class="cls-3" cx="199.9918" cy="345" rx="1.5" ry="4" transform="translate(-155.4402 164.1968) rotate(-32.9379)"/><ellipse class="cls-3" cx="215.9918" cy="342" rx="4" ry="1.5" transform="translate(-170.9651 459.8168) rotate(-74.6593)"/><path class="cls-3" d="M354,519s-1.2,10.1974,1.0467,17.5839a2.8247,2.8247,0,0,0,5.3788.1374A55.025,55.025,0,0,0,363,519"/><rect class="cls-4" width="800" height="800"/></symbol></defs><title>pse</title><g id="Layer_8" data-name="Layer 8"><use width="800" height="800" transform="translate(2) scale(1 0.9888)" xlink:href="#pse1"/><use width="800" height="800" transform="translate(798.6667) scale(1 0.9888)" xlink:href="#pse2"/><use width="800" height="800" transform="translate(1595.3333) scale(1 0.9888)" xlink:href="#pse1"/><use width="800" height="800" transform="translate(2392) scale(1 0.9888)" xlink:href="#pse2"/></g></svg>
