<svg xmlns="http://www.w3.org/2000/svg" xmlns:xlink="http://www.w3.org/1999/xlink" viewBox="0 0 7558 876"><defs><style>.cls-1,.cls-5,.cls-6{fill:none;}.cls-1,.cls-3,.cls-5,.cls-8,.cls-9{stroke:#000;}.cls-1,.cls-3,.cls-5,.cls-6,.cls-8,.cls-9{stroke-miterlimit:10;}.cls-1,.cls-3{stroke-width:3px;}.cls-2{fill:#008427;}.cls-3,.cls-7{fill:#fff;}.cls-4{fill:#d9e021;}.cls-5,.cls-6,.cls-9{stroke-width:2px;}.cls-6{stroke:#1c280a;}.cls-8{stroke-width:0.25px;}.cls-9{fill:#c1272d;}</style><symbol id="slange1" data-name="slange1" viewBox="0 0 911.53 849.92"><path class="cls-1" d="M112.42,249.51"/><path class="cls-1" d="M738.87,687.87"/><path class="cls-2" d="M179.16,280c26.72-15.44,33.84-55.66,42-59.78,35.13,35.68,22.3,68.35.25,95.34C146.9,411.73,83.68,459.65,34.51,565.22-23,721.29,100.4,840.83,255.4,747.78c55.39-42.1,120-103.92,148.18-82.23,7.08-2.23,5,24.75-1.3,65.11C400.82,808,477,837.75,564.56,783c42.23-31.9,95.69-83.3,99.24-48.1-15,98.65,60.2,135.34,119.06,77.94,51-46.51,144.37-79.58,126.41-86C882.82,711,806,763.5,771.83,775.84c-46.38,4.68-23.07-37-27.61-67.47-12.43-105.56-143-86.51-185.75-35.21-29,32.55-45.89,44.4-48.77,32.14-7.78-3.58,2.19-26.91,4.63-56.81-4.57-95.91-105-142-233.21-56.14-116.6,88.63-145.76,70.71-136-5.07,36.79-132,179.2-184.07,207.58-392.43,17.87-58.16.63-96.15-64.55-106.6-43.54-69.34-96.45-119.7-147.19-65.17-25.45-3.74-34.81,3.58-31.69,19.49C90.87,66.3,92.55,89,117.74,110.48c-64.42,14-91.62,41.42-73.18,85.34,12.25,63.31,55,75.72,75.06,39.23C118.63,236.35,178.17,281.34,179.16,280Z"/><ellipse class="cls-3" cx="123.69" cy="74.35" rx="36.5" ry="30" transform="translate(39.54 191.59) rotate(-85.34)"/><ellipse class="cls-3" cx="182.68" cy="64.61" rx="41" ry="39" transform="translate(103.44 241.43) rotate(-85.34)"/><path class="cls-4" d="M163.89,282.8c31.25,5,60.49-52.83,58.56-50.66-2.17,2.43,6.94,60.44-24.83,103.32-55.1,56.42-112.29,130-172.13,225.39C-43.25,663.34,29.71,852.61,212.14,772c40.28-21.06,61.44-32.43,113.16-74.27,42-27.3,68.29-35.88,66.28,2.59-6.83,51.76-4.26,82.5,7.87,89.37,41.11,63.47,124,33.78,215.76-47.61,25.1-18,35.19-11.11,31,19.27-1.32,60.74,23.69,89.31,64.38,88.51,22.92-.69,50.64-9.22,74.08-33,28-20.64,62.31-50.55,97.39-68.49-26,3.59-72.78,29.66-124.23,63.45-52.59,18.94-58.35-48.72-74.64-81.33-28.36-41.84-76.94-12.27-127.67,27.71-71,48.87-127.37,20-109.62-46.06,8-27.73,7.84-50.81-13-62.26C387.36,621,316,651,253.26,712.49,180,784.64,35.32,744.81,75.33,593.63c5.08-25.17,17.94-78,122.74-188.65,63.77-71.48,80.27-94.37,99.35-172.49,18.78-20,30.88-44,20.7-81.59-50.33-89.16-158.61-24.19-175-7.24-48.91.44-89-9.57-103.7,6.79-8.87,13.46,4.44,36.4,5.64,51.39,10.66,56.89,55,72.35,74.06,39.19C93.29,259.59,125.93,293.13,163.89,282.8Z"/><path class="cls-5" d="M181.07,232c4.18-18.15-15.29-49.77-39-87.46"/><path class="cls-6" d="M210.14,213.83"/><path class="cls-6" d="M229,136.61"/><path class="cls-5" d="M220.79,132.43c11.57,8.83,31.31,11.87,44.46-9.92"/><path class="cls-6" d="M254.1,111.57"/><path class="cls-5" d="M123.53,236.37c67.4,5.32,112-6.93,111.35-98.28"/><path class="cls-5" d="M254.1,111.57s13.41,20.08,28.72,16.85S307.72,143,307.72,143"/><path class="cls-5" d="M123.62,149.09c17.92,3,15.56,15.82,4.44,19.42"/><path class="cls-5" d="M49.32,162.09c16.13-1,16.52,11.28,5.27,21.5"/><path class="cls-6" d="M54,338.06"/><path class="cls-6" d="M125.6,235.54"/><path class="cls-6" d="M222.18,232.37"/><path class="cls-5" d="M222.72,231.92c25.54-9.64,44.61-21.45,53.16-36.81"/><path class="cls-5" d="M221.54,271c13.51,1.5,29.39-1.8,49.22-13"/><path class="cls-5" d="M211.31,310.25q18.9,8.22,39.44-3.81"/><path class="cls-5" d="M190.61,342.67c16.72,11.94,27.9,9.13,37.87,3.09"/><path class="cls-5" d="M159.78,376.28q14.31,13,36.55,7"/><path class="cls-5" d="M132.93,410.21q14.32,13,36.55,7"/><path class="cls-5" d="M99.45,451.62q14.33,13,36.56,7"/><path class="cls-5" d="M76.84,482.89c8.8,7,20.21,7.29,32.73,4.68"/><path class="cls-5" d="M51.74,520c10.72,7.51,24.29,8.8,39.63,6.24"/><path class="cls-5" d="M17.21,574.35q25.15,11.34,52.31-1.76"/><path class="cls-5" d="M3.26,622.37c15.65,5.9,34,6.18,53.9,3.39"/><path class="cls-5" d="M.68,666.31c17.25,5.37,35.74,4.81,55.23-.52"/><path class="cls-5" d="M17.14,722.83C30.65,721,56.2,713.12,65.8,698.21"/><path class="cls-5" d="M58.42,770.34c10.54-5.59,22.24-11.08,27.35-27.86"/><path class="cls-5" d="M116.92,791.17c8.52-9.24,14.46-19.1,17.47-29.68"/><path class="cls-5" d="M184.83,782.66c3.24-4.55,5.1-10.34,1.71-20.93"/><path class="cls-5" d="M245.41,753.48c1.82-5.87,5.16-16.13.33-22.54"/><path class="cls-5" d="M304.8,714.18c.93-6.95,4.15-17.72,1-25"/><path class="cls-5" d="M388.78,730.06q21,1,42.76-7.55"/><path class="cls-5" d="M398.94,790.08c16.7-1.07,30.36-4.43,40-10.78"/><path class="cls-5" d="M475.57,822.42c11.59-8.84,21.36-17.79,22.29-27.28"/><path class="cls-5" d="M531.34,802.88c7.36-4.79,11.48-13.33,12.83-22"/><path class="cls-5" d="M584.34,768.08c4.28-6.49,6.94-12.79,5.53-18.62"/><path class="cls-5" d="M391.28,687.12q19.92-4.39,25.89-9.93"/><path class="cls-5" d="M647,750.11c4.68,0,11.59-2.73,16.76-8.67"/><path class="cls-5" d="M646.32,783.16q10.74,3.72,22.33-3.19"/><path class="cls-5" d="M660.85,826.49q17.67-2.88,25.38-16"/><path class="cls-5" d="M720.18,849.38c4.76-7.46,8.34-15.11,7.93-23.43"/><path class="cls-5" d="M157.53,23.15c20.08-12.49,37.93-16.74,51.31-4.51"/><path class="cls-5" d="M95.79,30.7c13.79-10.61,31.05-8.95,49.84-1.93"/><ellipse cx="172.86" cy="74.34" rx="13" ry="11.5" transform="translate(84.71 240.59) rotate(-85.34)"/><ellipse cx="129.43" cy="77.82" rx="11.5" ry="13" transform="translate(-3.63 6.38) rotate(-2.78)"/><path class="cls-7" d="M171.2,67.8c-6.41-.52-7.24,9.45-.81,10S177.62,68.33,171.2,67.8Z"/><path class="cls-7" d="M128.84,68.76c-6.42-.52-7.24,9.45-.82,10S135.26,69.29,128.84,68.76Z"/><path class="cls-8" d="M113,248.06c-10.19,6.35-16.77,9.75-17.75,8.58,11.53-6,20.31-15.4,28.86-21.73-5.62,9.91-13.75,21-11.79,27.64C110.48,258.47,110.81,253.6,113,248.06Z"/><path class="cls-9" d="M107.56,264.25C85,306.59,93.61,381.47,158,402.33c-25.08,9.4-45.2-.4-58.55-36.25-2.8,13.71-2.72,32.89-1.72,53.86-8.32-15.28-10.38-37.55-5.89-67.17-12.2-54.88-4.59-84.58,12.46-100.54C117.29,240.65,115.72,247.19,107.56,264.25Z"/></symbol><symbol id="Slange2" data-name="Slange2" viewBox="0 0 939 855.83"><path class="cls-1" d="M160.52,236.68"/><path class="cls-1" d="M733.63,651.31"/><path class="cls-2" d="M223,275.69c27.47-13.48,31-41.28,50-52.83,25.94,36.94,18.62,63.95-12.67,93.52-75.25,72-156.77,128-213.39,217.77-69.36,143,33.29,289.83,187.85,201.6,23.67-19.08,101.13-107.18,132.52-83.3,10,.69,1.88,66.09.94,75.21,4.13,116.85,109,92.24,173.68,38,14-13.95,105.47-122.24,116.49-62-2.23,83,44.38,212.87,133.77,104.87,38.94-47.14,192.44-109.15,133.58-125.72-46.21-14.08-112.6,64.82-148.25,87.77-50.8,7-32.22-60.86-36.78-94.12C720.19,563.05,600.61,560.83,538,641c-5.1,6.52-49.78,70.69-58.75,52.66-9.33-6.6-2.23-47.88-1.78-59.21-17.58-132.86-144.3-122-227.6-53.36-45.4,43.46-126.89,105.56-97.34-11,62.59-139.3,202.69-182.55,255-352.62,26.85-57.81,11.86-94.38-49-114.86C333.93,49.31,288.42-36.11,220.08,16.48c-17.5-4.11-33.05-7.87-34.25,15C163.16,55.26,164,74.92,184.64,99.89c-46.09,4-98.19,16.65-84.21,74.75,3,36.44,30.12,96.37,69.13,48.75C176.09,234.68,211.53,269.32,223,275.69Z"/><path class="cls-3" d="M224.74,71.34c-3.93,17.22-18.31,32.67-37,28.54S162.89,75.71,166.8,58.52s18.13-32.74,36.84-28.6S228.67,54.11,224.74,71.34Z"/><path class="cls-3" d="M293.91,72.11c-5.09,23-23.5,36-46.87,30.71S212.92,77.93,218.15,55s23.35-36.16,46.7-30.91S299,49.16,293.91,72.11Z"/><path class="cls-4" d="M208,274.64c12.68,19.32,68.61-41.76,61.78-32.56-7.64,10.27-6,64.39-35.37,89.41-74.41,59-137.16,124.66-196,197.32-95.3,116.38-2,285,154.76,228.94,39.85-18.33,73.26-42.25,104.67-72.93,26.6-20.51,58.09-46.18,58.59,7.86-1.81,20.75-8.81,83.16,11.15,97.8,69.47,99.69,183.41-35.09,233.57-84.66,40.41-26.91,40.24.82,41.94,36.95,2.62,48.42,13.75,116,74.74,113,34.37-1.7,55.19-19.87,76.7-43.26,34.58-36.65,60.25-76.39,103.34-104.39-49.15,13.13-94.55,71.51-132.6,104.42-61.18,30.56-71.23-73.37-86.57-112.29-42-75.84-108.78,1-146.48,39.69-53.78,49-140,74.9-120.68-32.82,7-27.68,4.49-51.4-13.84-73.81C323.12,607.94,288,644.44,225.87,706.93,153.18,780.09,32,688.38,85.45,565.8,105,499.28,171.62,443.68,225.63,400.5c58.91-50,91.84-82.5,121.73-154.4,26.61-21.45,35.45-42.46,32.5-76.78-29-69.72-119.26-73.86-174.66-33.11C181.08,132.88,122,114.36,101.56,129c-9.24,16.16-2,34.16-1.44,51.66,2.73,34.06,31.72,90.4,68.13,48.67C133,251.46,181.41,280.11,208,274.64Z"/><path class="cls-5" d="M231.22,228.77C238.62,204,214.06,159.36,204,137"/><path class="cls-6" d="M262.79,215"/><path class="cls-6" d="M292.52,141.55"/><path class="cls-5" d="M284.85,136.18C302.4,150.8,315,148.6,331,133.13"/><path class="cls-6" d="M321.29,120.57"/><path class="cls-5" d="M173.26,225.21c75.83,15.84,113.07.37,125-81.3"/><path class="cls-5" d="M321.34,120.59c5.46,11,14.26,19.48,26.35,21.07s18.27,7.7,23.07,18.39"/><path class="cls-5" d="M185,138.94c12.62,5.52,17.92,14.47,1.72,19.84"/><path class="cls-5" d="M109.75,141.86c17.82,3.48,13.33,12.82,2.26,22"/><path class="cls-6" d="M91.35,315.84"/><path class="cls-6" d="M175.43,224.66"/><path class="cls-6" d="M272.3,234.92"/><path class="cls-5" d="M272.9,234.54c21.3-4.85,43.6-11.16,58.41-28.23"/><path class="cls-5" d="M266.38,272.7c17.85,3.58,33.82.19,50.83-5.66"/><path class="cls-5" d="M251,309.75c13.54,7,25.41,6.75,39.66,1.86"/><path class="cls-5" d="M226.19,338.57c12.06,9.86,22.17,13.75,37.12,8.3"/><path class="cls-5" d="M191.43,367.16c10.25,10.19,21.13,12.77,35.32,11.79"/><path class="cls-5" d="M160.82,396.55c10.29,10.12,21.15,12.67,35.32,11.71"/><path class="cls-5" d="M123.47,431.84c10.16,10.21,20.88,12.85,35.05,11.91"/><path class="cls-5" d="M97.75,459.19c9.38,8.09,19.52,9.46,31.6,9"/><path class="cls-5" d="M68.93,492.07c11.59,9,23.83,11.3,38.29,11.35"/><path class="cls-5" d="M28.78,540.9c17.41,9.17,32.95,10.14,51.83,5"/><path class="cls-5" d="M9.51,586.37c17.06,7.82,34.27,9.9,52.9,10.09"/><path class="cls-5" d="M1.89,629.31c18.18,7.17,35.46,8.41,54.8,6.32"/><path class="cls-5" d="M11.47,687.17c19-1,37-5.1,51.19-18.32"/><path class="cls-5" d="M46.09,739.75C59.78,734.55,69,729,76,715.71"/><path class="cls-5" d="M100.53,767.88c8.5-8,15-16.49,19.75-27.2"/><path class="cls-5" d="M166.63,766.49c4.67-6.4,4.34-12.94,2.92-20.48"/><path class="cls-5" d="M225.28,741.1c2.44-7.68,4.25-14.82.5-22.36"/><path class="cls-5" d="M280.1,702c.94-8.52,2.22-16.84-.52-25.14"/><path class="cls-5" d="M354.58,726.94a106.61,106.61,0,0,0,42.84-8"/><path class="cls-5" d="M367.11,790.9c14.14-.84,27.38-2.63,39.88-9.62"/><path class="cls-5" d="M445.94,823.65c10-7.95,19.6-15.95,22.34-28.94"/><path class="cls-5" d="M504.76,796c8.09-7.6,12.2-16.73,14.37-27.51"/><path class="cls-5" d="M564.57,743.3c4-7.21,7.91-14.52,7-23"/><path class="cls-5" d="M356.05,676.69c8.92-2.2,18.13-4.09,25.09-10.46"/><path class="cls-5" d="M642.18,724.84c7.77-.53,12.57-5.33,16.85-11.49"/><path class="cls-5" d="M645.52,774.38c8.26,3.42,15.68,2.1,23-2.87"/><path class="cls-5" d="M664.79,829.88c12-1.4,19.58-5.27,25.14-16.23"/><path class="cls-5" d="M728.45,855.17c4.28-7.36,7-14.26,6.61-22.89"/><path class="cls-5" d="M236.66,18.88c19.68-7.76,34.86-13.16,51.78,2.74"/><path class="cls-5" d="M174.2,17.86c17.84-8,32.91-3.43,49.78,4.92"/><path d="M256,74.23c-1.47,6.53-7.15,11.49-14,10s-9.83-8.44-8.34-15,7.15-11.49,14-10S257.42,67.71,256,74.23Z"/><path d="M212.27,70.14c-.62,6.64-5.58,12.32-12.56,11.71S189,74.76,189.6,68.13s5.52-12.34,12.5-11.72S212.89,63.51,212.27,70.14Z"/><path class="cls-7" d="M244,65.28c-6.15-1.38-8.27,7.82-2.11,9.2S250.13,66.66,244,65.28Z"/><path class="cls-7" d="M201.55,60.34c-6.13-1.37-8.25,7.86-2.12,9.22S207.68,61.71,201.55,60.34Z"/><path class="cls-8" d="M161.32,235.33c-4,1.75-14.13,8.16-18.75,6.11,11.28-4.62,21-11.49,31.5-17.58-5.89,7.48-14.83,15.59-15.3,25.64C157.54,244.29,158.9,240,161.32,235.33Z"/><path class="cls-9" d="M153.78,250.54c-33.5,48.57-21.44,114.65,32.75,141.72-33.24,5.85-45.91-13.32-53.78-42.9-5.25,17.26-7.14,35.07-8.81,53-7.38-22.11-3-45.13,3-67.06-2.62-32.78-3.91-74.82,25.15-97C172.19,225.88,158.24,243.54,153.78,250.54Z"/></symbol><symbol id="Slange3" data-name="Slange3" viewBox="0 0 1018.68 876.28"><path class="cls-1" d="M137.66,228.1"/><path class="cls-1" d="M766.24,667.68"/><path class="cls-2" d="M194.28,278.19c25.61-12.53,31.72-36.27,54.57-48.93,16.63,43.89,14.92,64.31-22.51,97C135.78,405.49,75.62,483.07,32.11,598.12-9.12,762.94,92.92,882.28,255.27,789.8,283.76,765.34,352.81,690,394,708.94c9,3.67,14.77,59.14,16.48,71C445,887.19,532,850.74,589.57,787.38c13.52-18.49,85.94-120.12,105.66-63.59C695,817.46,741.4,925.06,831,832.21c39.06-40.5,217.55-70.6,183.42-106.36-49.25-24.33-148.54,39-191.28,62.79-56.42,4.45-40.8-58.07-47.5-95.68-31.83-109.09-146.82-110.52-207.45-22.42-4.93,7.17-39.91,71.11-52.83,58.52-14.58-9.14-11.1-34.11-11.74-49.15-36.94-127-151.34-102.35-237.72-39.21-59.79,51.65-125.77,99.8-124.57-22.42C172.65,445.92,314.53,392.52,378.22,245c32.15-56.27,19.79-90.78-34.82-123.17-14.51-57.05-45.53-155-123.61-110.57-18-6.59-29.27-12.17-35.26,10.59-25.12,22.74-25.19,39.24-7.25,67-48-1.65-97.88,5.69-91.75,66.35.11,37.86,15.42,105,62.88,59.25C157.57,235.1,177.44,263.05,194.28,278.19Z"/><path class="cls-3" d="M218.73,66.32c-6,18-19,28.94-38.2,22.2s-23-23.92-17.06-41.94S182.64,16.36,202,23.23,224.71,48.31,218.73,66.32Z"/><path class="cls-3" d="M285.53,78.08c-7.85,23.68-24.25,32.77-47.41,22.69S207,73.07,214.78,49.48,239,16.69,263,25.47,293.38,54.41,285.53,78.08Z"/><path class="cls-4" d="M180,275.17c16.5,25.27,77.53-46.7,62.52-25-16.76,24.24-12.24,62.52-41.67,89.33-87.34,70.43-128.42,156.78-178,254.63C-47.81,740.66,53.41,880.27,214.24,813.87,252,792.87,286.29,768,319.13,740c32-21.65,55.95-39.81,71,8.54,4.37,25.73,10.76,77.82,34.8,91.8,89.78,77.88,160.72-55.13,212.81-112.59,39.51-24.42,40.93.94,43.36,36.2,3.27,47.25,12.11,112.15,73.56,111.73,34.63-.24,57.77-20.84,81.71-42.77,40.4-39.24,87.42-71.64,141.66-88.07C910,746.27,855.74,792,805.51,832.45c-64.41,27.37-72.72-72.09-90.63-112.11-47.52-70.05-107.12.09-139.11,43.92-43.6,50.77-118.89,92.25-126.68-10.35,1.47-27.79-8.87-45.13-24.5-67.48-92.82-7.93-114,9.58-184.54,79.77C157.48,848.38,48.31,736.5,75.76,624.67,82.27,550.36,134,465,190,414.79c50.66-48.33,93.43-86.93,127.07-149.46,28.39-18.28,37.3-37,38.25-70.46C332.79,125.12,261,91.67,194.54,126.72c-27.45-7.81-75.9-30.42-103-17.88-9.27,16.78-6.37,33.95-6.91,52.4.16,34.63,17.67,100.14,61.71,59.5C109.93,244.76,150.67,276.59,180,275.17Z"/><path class="cls-5" d="M208,228.54c9.64-29.21-4.58-73.09-14.69-101.25"/><path class="cls-6" d="M239.86,219.37"/><path class="cls-6" d="M276.54,149.79"/><path class="cls-5" d="M270,142.58c15.69,17.88,23.4,20,43.37,6.56"/><path class="cls-6" d="M305.86,134.06"/><path class="cls-5" d="M151.83,216.8c73.74,25.87,108.84,16.27,129.77-63.33"/><path class="cls-5" d="M305.94,134.12c4,11.92,10.24,22,21.85,27.13s15.83,11.71,19.63,23.33"/><path class="cls-5" d="M174.37,126.73c12.28,8.08,16.62,14.32-.29,20.06"/><path class="cls-5" d="M98.37,122.64c17.49,7,12.16,13.2,0,22.51"/><path class="cls-6" d="M60.58,314.36"/><path class="cls-6" d="M154.05,216.46"/><path class="cls-6" d="M246.54,241.92"/><path class="cls-5" d="M247.15,241.64c21.29-1.6,41.22-4,58.27-18"/><path class="cls-5" d="M236.77,280.53c17.11,5.06,32,4.51,49.44,1.2"/><path class="cls-5" d="M218.42,317.77c12.88,8,23.87,8.71,38.55,5.88"/><path class="cls-5" d="M192.27,347c11.15,10.75,20.65,14.42,35.9,10.83"/><path class="cls-5" d="M156.89,377.53c10.16,10.89,19.67,14.31,34.45,13.59"/><path class="cls-5" d="M126.32,412.51c10.45,10.53,20.42,14,35.11,12.48"/><path class="cls-5" d="M92.47,464c11.24,9.06,21,9.85,34.81,7.11"/><path class="cls-5" d="M70.63,502c10.42,6.42,19.75,6.13,31.38,3.39"/><path class="cls-5" d="M47.29,546.68c12.79,6.55,24.46,6.81,38.4,4.17"/><path class="cls-5" d="M15.28,609.39c18.82,5.51,33.9,3.37,51.52-4.92"/><path class="cls-5" d="M3.07,661.63c18.34,4.71,35.42,4.32,54.05,1.53"/><path class="cls-5" d="M1.88,707.85c19.35,3.88,36.78,2.72,55.82-2.15"/><path class="cls-5" d="M19.64,765.31C39.08,760.69,55,753.86,68.72,739"/><path class="cls-5" d="M61.65,812.66c12.59-7.32,21.28-14.95,27.24-28.44"/><path class="cls-5" d="M120.55,833.36a98.79,98.79,0,0,0,16.91-29.66"/><path class="cls-5" d="M187.85,824.74c3.6-7.1,3-13.15.94-20.65"/><path class="cls-5" d="M245.83,795.38c2-7.83,2.73-14.27-1-21.66"/><path class="cls-5" d="M300.72,756.14c.65-8.24,1.24-15.87-1.34-23.85"/><path class="cls-5" d="M396.79,781.38a124.23,124.23,0,0,0,40.9-14.3"/><path class="cls-5" d="M424.51,840.8c14-3.73,26.38-8.29,37.95-17.13"/><path class="cls-5" d="M509.59,857.72c8.35-10.12,14.81-19.29,16-32.66"/><path class="cls-5" d="M560.41,820.8c5.78-8.87,7.87-17.51,8.09-28"/><path class="cls-5" d="M607.4,764.37c2.81-7.38,4.79-14,3.25-21.85"/><path class="cls-5" d="M385.93,733.19c9.07-3,17.24-5.86,24.32-12.46"/><path class="cls-5" d="M679.61,746.08c7.7-1.44,12-5.57,16.27-11.93"/><path class="cls-5" d="M683.62,794c8.65,2.84,15.37,1.74,23.15-2.85"/><path class="cls-5" d="M701.83,848.63c11.85-1.6,19.31-5.41,25.76-15.66"/><path class="cls-5" d="M765.65,875.78c4.4-7.42,6.93-14.35,7.25-23"/><path class="cls-5" d="M235.88,15.77c22.61-5.23,33-8.2,50.55,9.59"/><path class="cls-5" d="M174.11,7.28C193.18,2.47,206.83,7.82,223,18"/><path d="M249.08,74c-2.12,6.42-7.76,10.06-14.29,7.53s-8.76-9.46-6.63-15.84S236,55.42,242.55,58,251.2,67.58,249.08,74Z"/><path d="M206.89,63.41c-1.24,6.57-6.33,10.91-13.1,9.44s-10-7.82-8.72-14.38,6.43-11.37,13.26-9.86S208.12,56.84,206.89,63.41Z"/><path class="cls-7" d="M238.37,63.43c-5.68-2.15-8.37,6.26-2.67,8.42S244.06,65.59,238.37,63.43Z"/><path class="cls-7" d="M197.36,52.42c-5.67-2.06-8.48,6.29-2.69,8.32S203,54.47,197.36,52.42Z"/><path class="cls-8" d="M138.64,226.67c-6,2.48-12.8,6.9-19.39,4.83,11.69-4.35,22.42-10.53,33.56-16.08-7.87,8.24-15.55,15.47-18.53,26.8C134.06,236.33,135.71,231.72,138.64,226.67Z"/><path class="cls-9" d="M129.19,242.85c-36.75,50-34.92,129.44,22.48,164-37.56,6.58-46-21.83-52.54-52.72-5.22,17.83-8.36,35.78-10.79,54.18-6.08-23.88-.94-46.9,5.62-70.13-.12-38.41,1.83-83.88,35.12-109.16C151.27,218.61,135.16,235,129.19,242.85Z"/></symbol><symbol id="Slange4" data-name="Slange4" viewBox="0 0 868.74 828.04"><path class="cls-1" d="M82.31,249.64"/><path class="cls-1" d="M642.34,609.69"/><path class="cls-2" d="M152.61,276.77c17.11-16.13,20.92-41.63,35.95-57.92,31,30.28,31.68,59.11,9.71,91.53C145.11,388.82,88.43,459.2,45.05,540.48,7.05,654.13,88.76,833.3,220,733.16c14.81-24.18,41.84-103.86,79-84.27,13.88,13.88,16.79,62.7,19.2,82.72,31,108.16,116.27,92.25,171.46,12.91,12.16-22.47,57.79-129.58,88.9-73.71,4.55,79.92,69.32,211.69,142.23,113,31.81-43,169.83-91.31,144.88-128.66-56.81-10.46-114.62,50.68-155.42,82.16C659,739.13,664,670.44,654.71,634.87c-43.18-100-154.91-110.13-202.47-7.75-3.87,8.33-20.64,69.45-35.94,54.48-12.32-19-12.24-40.89-14.78-62.84-42.84-103.69-149-131.95-213.22-30.19-38.25,78.11-51.59,60.19-36.59-22.5,44.88-130.79,144.81-223.15,166.77-366.71,15.65-63.81-6.58-90.39-67.89-107.21C217.26,39.3,160.46-40.33,96.22,24c-20.55-.61-29.65-2.64-31.1,21.14-16.88,29.71-14,43.67,11.69,65.77-45.44,13.71-91.38,34.69-68.09,90.6C21.46,237.66,55.8,287.66,88,234.62A230.5,230.5,0,0,0,152.61,276.77Z"/><path class="cls-3" d="M110.22,76.33c-.85,20.08-8.9,33-30.35,32.68S51.38,95.31,52.11,75.29s8.46-34.16,30.24-33.74S111.08,56.25,110.22,76.33Z"/><path class="cls-3" d="M179.29,66.92c-1,25.89-13.76,37.41-39.9,35.28s-37.83-14.1-36.85-40.46,13.34-38.21,39.74-37.21S180.29,41,179.29,66.92Z"/><path class="cls-4" d="M138.18,277.79c19,11.46,57.64-62.42,51-37.52-7.4,27.82,6.49,59.47-11.87,88.54C126.53,393.85,82.45,467.64,36,536-33.7,648,56.43,814.42,192,755.72c27.28-18,46.9-44.94,60.92-74,24-36.4,33.68-29.61,45.51,12.57,3.79,29.95,7.82,84.11,33,103.78,92,85,157.42-53,193.42-119.33,36.41-28.24,38.53,5.63,44.9,38.86,8.54,44.55,25.47,116.74,86.29,110,34.28-3.83,52.7-24.31,73.43-48.34,28.64-39.11,61.45-75.89,104.87-98.92C775.83,692,740,740.46,700.71,781c-60.56,30.9-83.48-76.75-103.61-113.84-58.51-70.43-95.94,3.48-122.6,54.15-47,72.83-107.07,83.28-119.28-17.74-.41-31.14-13.76-54-30.29-80.15-86.2-4.58-84.09,16.22-123,89.27-45.58,85.53-143.84-64-114.16-146.46,10.77-59.92,58.78-124.43,98.38-170.68,38.64-47.6,66-102,79.23-161.83,21.85-25.29,25-43.35,17.48-75.58-44.44-63-123.5-70.75-178.83-16.88C70.92,142.7,28.42,134.52.57,156.81c-2.47,18.31,3.6,33.4,9.09,50.57,12.2,33.91,47.42,80.09,78.41,33.45C62.4,276,113.39,284.89,138.18,277.79Z"/><path class="cls-5" d="M149.52,229.41C147.33,195.7,122.33,168,103,142.23"/><path class="cls-6" d="M177.07,211.85"/><path class="cls-6" d="M191.58,136.76"/><path class="cls-5" d="M183,132c21.79,11.64,27.8,11.95,45.4-6.05"/><path class="cls-6" d="M216.46,113.72"/><path class="cls-5" d="M92.05,235.68c77.32-.1,107-14.81,105.66-96.93"/><path class="cls-5" d="M216.59,113.77c7.83,10.24,17.08,17.1,29.61,19.68s18.69,7.17,26.19,17.09"/><path class="cls-5" d="M84.63,147.75c14.53,4.49,19,7.51,5.62,18.84"/><path class="cls-5" d="M11.1,167.62c18.69,2.26,15.65,7.67,6.76,20.84"/><path class="cls-6" d="M35.77,338.78"/><path class="cls-6" d="M94.05,234.7"/><path class="cls-6" d="M190.68,230.54"/><path class="cls-5" d="M191.18,230.11C211,222.62,228.42,214.5,242,197.73"/><path class="cls-5" d="M193.5,268.05c17-.33,31.65-4.24,47.15-11.22"/><path class="cls-5" d="M187.46,305.79c13.86,3.53,24.83,2.22,37.95-3.28"/><path class="cls-5" d="M171.28,337.19c12.85,6.31,23.2,8.07,36.68,2.59"/><path class="cls-5" d="M145.79,369.85c11.93,6.11,22.92,8,36.14,5.7"/><path class="cls-5" d="M124.87,401.53c11.84,6.37,23.1,7.44,36.33,5.86"/><path class="cls-5" d="M101.16,438.09c11.52,6.42,21.81,8.37,34.88,6.67"/><path class="cls-5" d="M83,466.25c10.39,5.12,19.87,5.94,31.28,4.73"/><path class="cls-5" d="M61.23,499.27c12.66,5.81,24.5,7.69,38.37,7"/><path class="cls-5" d="M27.9,547.89c18.13,5.58,33.56,5.76,51.87.9"/><path class="cls-5" d="M13.64,592.72c17.74,5.12,35,6.62,53.39,6.2"/><path class="cls-5" d="M10.48,634.81a150,150,0,0,0,55.18,2.63"/><path class="cls-5" d="M26.29,690.9c18.76-3.11,33.93-8.64,48.58-21"/><path class="cls-5" d="M64.22,741.43c11.57-6.1,19.87-13,25.74-24.86"/><path class="cls-5" d="M116.11,767.81a88.41,88.41,0,0,0,14.34-27"/><path class="cls-5" d="M171.71,764.94c2-7,1.07-12.92-1-19.76"/><path class="cls-5" d="M213.66,738.48c.23-7.89-1-14-4.85-20.94"/><path class="cls-5" d="M245.07,698.85a110.7,110.7,0,0,0-7.68-23.28"/><path class="cls-5" d="M304.85,732.86c14.27-2.89,27.22-7.36,39.79-14.79"/><path class="cls-5" d="M331,798.58c13.82-3.4,26.08-7.82,37.76-16.11"/><path class="cls-5" d="M415.32,817.68c8.34-10,14.05-19.21,16-32.29"/><path class="cls-5" d="M464.51,779.75A56,56,0,0,0,470.76,751"/><path class="cls-5" d="M503.7,719.53c1.42-7.94,1.76-15-.43-22.86"/><path class="cls-5" d="M294.46,675.92c8.18-3.18,15.08-6.72,21.05-13.28"/><path class="cls-5" d="M565.44,697c7.36-2.58,11.09-7.09,14.55-13.92"/><path class="cls-5" d="M576.44,748.87c8.91,1.9,15.24.49,22.66-4.76"/><path class="cls-5" d="M601.76,805.27c11.39-3,18.11-7.67,23.63-18.18"/><path class="cls-5" d="M667.43,826.93a52.72,52.72,0,0,0,4.75-23.32"/><path class="cls-5" d="M113.14,23.23c21.28-12.27,28.5-16.84,52.09-6.4"/><path class="cls-5" d="M51.08,34.62c17-9.17,31.59-9.31,50.19-5.27"/><path d="M142.42,74c-.26,6.79-4.79,11.69-11.74,11.36s-11.11-5.81-10.84-12.59,4.72-11.95,11.73-11.6S142.67,67.25,142.42,74Z"/><path d="M98.17,77.4c.63,6.64-3,12.18-9.88,12.92s-11.57-4-12.22-10.67S79,67.05,86,66.32,97.55,70.75,98.17,77.4Z"/><path class="cls-7" d="M129,67.7c-6-.22-6.13,8.06-.17,8.28S135,67.92,129,67.7Z"/><path class="cls-7" d="M86.06,70.26a4.14,4.14,0,1,0-.26,8.26A4.14,4.14,0,1,0,86.06,70.26Z"/><path class="cls-8" d="M82.77,248.14c-5.32,4.38-9.81,8.75-16.89,9.68,9.49-7.23,18-15.41,26.64-23.65-4.67,9.37-8.87,17.82-8.73,28.49A25.24,25.24,0,0,1,82.77,248.14Z"/><path class="cls-9" d="M79.18,264.73C59.13,323.87,90.37,375.79,148,394c-33.71,8.4-47.83-3.08-64.26-31.06-.37,17.29,0,34.52,1.15,51.78-9.27-20.23-10.69-42-10.15-64-10.47-32.47-21.34-67.29-.3-98C93.38,239,82.38,255.31,79.18,264.73Z"/></symbol><symbol id="Slange5" data-name="Slange5" viewBox="0 0 1005.56 854.64"><path class="cls-1" d="M153.28,238.17"/><path class="cls-1" d="M763.76,625.57"/><path class="cls-2" d="M216.06,276.84c19.87-15,29.93-37.93,48.62-54.25,24.09,36.59,19.54,63.56-10.8,95C180.45,393.66,102.29,462.27,44.53,552.53c-63.62,154.92,43.66,279.08,202.83,196,29.7-29,100.71-106,146.26-84.61,14.68,13.29,18.35,61.34,21.87,81.5,40.15,107.47,125.65,81.16,181.08,4.85,15.12-27.38,67.49-123.53,100.62-65.85,3.85,66.68,58.9,226.85,141.63,131.94,36.08-41.39,168.77-17.55,166.72-63C958,720.92,880,742.14,833.42,767.6c-54-9-49-73.21-57.76-114.74C731.24,544.53,628.35,529,564.74,633.67c-5.18,8.51-29.24,71.89-46.57,60.63C503.38,677.37,505.41,663.54,506,642c-40.4-134.82-134-122.9-232.83-50.34-44.67,37.21-141.13,112.42-119.31-9.27,59-136.63,194-215.72,243.29-362.47,24.34-59.94,8.4-93.74-50.78-117.23C319.75,46.93,277.07-34.92,205,16.05c-20.88-4.29-27.2-7.4-33.7,15.62-21,27.62-19.74,40.55,1.59,67.47C124,104.91,80.05,115.22,91.6,175.83,98.66,215.1,117.9,269.71,162,224,177.14,244.79,194.7,262.46,216.06,276.84Z"/><path class="cls-3" d="M210.71,70.34c-4,20.55-12.37,31.39-34.38,27s-25.87-17.49-22-38S166.4,27.37,188.7,31.74,214.68,49.78,210.71,70.34Z"/><path class="cls-3" d="M279.82,70.65c-5,25.85-17.57,35.07-43.87,29.32S201.11,81.31,206,54.75,223.44,19.11,250,24.31,284.79,44.79,279.82,70.65Z"/><path class="cls-4" d="M201.77,275.32c14.62,12.73,67-49.62,57.93-28.6-10.16,23.48-9.1,62.62-30.88,86.82C156.61,399.79,95.58,470.9,35.6,547.57c-94.92,136.92,12.82,275,171.77,224.15,39-20.59,72.32-48.78,106.29-76.56,42.21-28,58.88-39.15,79.29,13.36,6.4,35,10.77,79.43,42,102,102.28,74,154-54.38,202.31-123.94,44.5-22.64,44.83,12,51.55,47.45,9,47.56,23.58,120.79,85.64,119.56,35-.7,49-19.74,72.64-41.14,32.83-37.62,71.07-49.63,120.26-49.18-61.17-18.8-104.23,5.93-147.24,47.16-61.29,23.76-85.34-89.35-103.63-128C658.17,608.29,614.54,671.7,580.76,728c-44.53,63.15-110.51,93.79-127.95-9.57-1-28.07-13.55-52-23.61-77.66-99.33-10.08-129.12,15.64-198.94,86.39C148.52,810,49.12,665.84,86.52,580.77c20.35-72,79.6-129.09,135.13-176.35,49.44-44.2,90.51-95.78,116.68-157,26.42-23.55,32.3-40.91,30.66-75.87-34.75-70-112.82-80.09-173.89-37.35-34.59-4.45-70.2-20.66-104.06-4.4-4.2,17.69-2,34.29.47,52.08,7,36.78,27.35,88,69.26,48.39C130.47,263.2,172.62,278.9,201.77,275.32Z"/><path class="cls-5" d="M223.53,228.34c3.72-34.53-13.76-64.08-29.62-93.33"/><path class="cls-6" d="M254.5,214.21"/><path class="cls-6" d="M282.28,140.52"/><path class="cls-5" d="M274.55,134.92c21.07,13.9,25.39,13.68,45.6-1.64"/><path class="cls-6" d="M310.08,120.23"/><path class="cls-5" d="M165.71,225.79c75.64,12.72,110.92-2.64,122.31-82.69"/><path class="cls-5" d="M310.24,120.31c6.5,10.5,14.79,17.76,26.22,22s17.19,9.76,23.49,19.86"/><path class="cls-5" d="M175.06,137.11c13.55,7.63,17.35,10.26,2.38,19.81"/><path class="cls-5" d="M99.65,142.57c17.38,6.73,14.35,10.06,3.12,22.06"/><path class="cls-6" d="M88,322.56"/><path class="cls-6" d="M167.87,225.15"/><path class="cls-6" d="M264.29,234.73"/><path class="cls-5" d="M264.88,234.35c21.45-5.51,40.13-12.57,57.12-27.14"/><path class="cls-5" d="M259,273.41c17.32,1.33,33.19-.73,49.87-5.43"/><path class="cls-5" d="M244.31,311.35c13.51,5,25.2,4.95,39.13,1.66"/><path class="cls-5" d="M220.56,341.71c12.16,8.05,22.3,10.38,36.66,7.39"/><path class="cls-5" d="M187.1,372.45c11.13,7.9,21.41,10.83,35,10.56"/><path class="cls-5" d="M157.92,403.76c10.88,8.1,21.69,10.38,35.1,10.46"/><path class="cls-5" d="M121.19,443.13c11.73,7.24,22.64,9.3,36.31,9"/><path class="cls-5" d="M95.89,473.25c10.64,5.53,20.68,6.64,32.54,6.22"/><path class="cls-5" d="M67,508.57c12.86,6,25.32,8.4,39.49,8.44"/><path class="cls-5" d="M25.81,560.13c18.52,5.68,35.07,5.92,54,2"/><path class="cls-5" d="M7.05,607.2c18,5.46,35.72,7.7,54.53,7.82"/><path class="cls-5" d="M.81,651.07a170.13,170.13,0,0,0,56,4.39"/><path class="cls-5" d="M14,709.09c19.17-3,35-8.94,51-20.12"/><path class="cls-5" d="M54.15,759.79c12.34-6.32,21.78-13.47,29.48-25.13"/><path class="cls-5" d="M113.68,785.09a111,111,0,0,0,18.87-27.67"/><path class="cls-5" d="M181.14,781.21a35.72,35.72,0,0,0,2.35-20.52"/><path class="cls-5" d="M238.1,754c1.71-7.76,2.6-14.49.43-22.24"/><path class="cls-5" d="M293,713c1.51-8.45,2.65-16.68,2-25.27"/><path class="cls-5" d="M401.71,746.8c14.2-3.19,27.69-7.6,40.55-14.47"/><path class="cls-5" d="M434.52,811c13.9-4,26.37-9.34,38.23-17.72"/><path class="cls-5" d="M523.67,825.45c7.46-10.31,12.43-20.16,14.17-32.87"/><path class="cls-5" d="M571.59,785.61A61.21,61.21,0,0,0,577,757.13"/><path class="cls-5" d="M611.49,725.83c1.61-7.59,2.21-14.67.88-22.35"/><path class="cls-5" d="M386.79,690.21c9.22-2.85,17.45-6,25.32-11.7"/><path class="cls-5" d="M683.9,711.42c7.26-2.57,11.2-6.92,14.83-13.59"/><path class="cls-5" d="M695.54,767c8.73,2.2,15.25,1.42,23.06-3.07"/><path class="cls-5" d="M720.35,826.91c11.21-2.4,18.25-6.73,24.57-16.37"/><path class="cls-5" d="M786,854.22a58.48,58.48,0,0,0,5.65-23.09"/><path class="cls-5" d="M221.76,18c23.06-8.94,29.86-11.07,52,1.76"/><path class="cls-5" d="M159.14,18.59c18-4.79,32.76-2.77,50.07,3.65"/><path d="M242.84,72.93c-1.24,6.6-6.25,10.77-13,9.41S219.9,75,221.14,68.43s6.22-11,13.05-9.64S244.08,66.32,242.84,72.93Z"/><path d="M198.83,69.56c-.39,6.61-4.7,11.42-11.51,11.06s-10.63-6-10.26-12.6,4.63-11.82,11.57-11.38S199.23,63,198.83,69.56Z"/><path class="cls-7" d="M230.71,64.89c-5.61-1-6.88,6.74-1.28,7.78S236.31,65.93,230.71,64.89Z"/><path class="cls-7" d="M188.1,60.62a4,4,0,1,0-1.41,7.78A4,4,0,1,0,188.1,60.62Z"/><path class="cls-8" d="M154,236.74c-6,3.47-11.27,6.55-18.31,6.76,10.64-5.78,20.7-12.4,30.76-19.13-6.46,8.58-11.9,16.69-14.59,27.2A31.36,31.36,0,0,1,154,236.74Z"/><path class="cls-9" d="M147.19,252.72c-29.42,52.39-19.65,116,35.74,145.81-37.19,3.73-42.26-11.1-53.5-42.94A373.75,373.75,0,0,0,123,408.41c-6.43-22.37-4.49-44.27-.05-66.88-3.13-36.63-4.21-72.71,22-101.5C167.35,229.8,151.87,244.37,147.19,252.72Z"/></symbol><symbol id="Slange6" data-name="Slange6" viewBox="0 0 873.71 826.93"><path class="cls-1" d="M121.84,239.67"/><path class="cls-1" d="M636.75,600.62"/><path class="cls-2" d="M186.33,276.28c18.19-15.56,28.94-37.93,46-54.19,25.07,35.4,21.5,62.27-6.41,93.33C158.35,390.58,88.81,460.65,38.06,548.16-2.89,673,75.86,838.68,218.42,740.07c16.34-26.75,47.88-108.16,88.23-92.2,15.45,17.26,14.43,57.7,16.94,80.2,33.84,103.46,121,84.67,169.24,4.31,9.5-22,43.71-128.21,79.6-74.49-6.56,73.18,16.36,210.58,112.72,141.85,42-30,185.45-31,188.56-74.94C817.79,696.05,744,728.69,690.14,749,641.34,732.31,656,668.62,649,627.57,604.84,525.25,496,510.83,447.9,619.38c-3.91,8.84-12.84,65.16-28.83,55.69-8.85-18.42-8.86-35.82-9.07-56.13C369.66,507.1,269,492.05,199.35,587.41c-31.45,51.69-71.87,103.91-54.52-11.36C200.41,444,320.08,354,364.13,218.69c22.46-61,5.07-91.65-53.45-116.3C283,45.38,240.37-35.17,167,16.66c-21.56-3.83-26.33-6.23-33.42,16.61C113.69,62,115,73.66,137,100.37c-49.44,7.71-91.46,19.18-79.46,79.6,9,39.86,28.21,90.7,72.47,45.35A237.8,237.8,0,0,0,186.33,276.28Z"/><path class="cls-3" d="M173.84,70.53C170.26,92,163.35,101.7,140.41,98s-26.38-15.16-23-36.59,10.27-31.88,33.43-28.13S177.42,49.07,173.84,70.53Z"/><path class="cls-3" d="M243,69.81c-4.53,27.06-15.71,34.93-42.75,29.49s-35.23-16.72-30.87-44,15.38-35.83,42.86-31S247.52,42.75,243,69.81Z"/><path class="cls-4" d="M172.2,274.67c13.14,10.61,61.64-45.9,55.26-26.66-7.12,21.5-7.86,61.89-25.57,83.69C136.57,396.65,82.2,468.87,29.06,543.4-44.32,666.49,42,820.66,188.79,763.83c29.32-21.09,49-48.5,67.6-79,24.79-33.18,33.78-40.48,48.18,7.24,3.5,34.34,4.77,78.16,35.15,100.82C439.26,867.15,491,741.3,520.35,667.22c38.38-24.19,37.08,2.43,37.49,35.65.56,44.54-6.39,111.45,55.23,120.64,34.72,5.18,56.18-11.13,84.37-28.55,41.06-31.2,85.39-51.37,136.81-57C770,727,721.33,757.6,668.74,789.44,602.17,799.7,607.35,699,590.3,656.31c-56.65-73.45-92.87,5.88-114.43,54.17-39.72,71.46-102.07,85.65-116-10.88-.49-28.16-12-52.13-23.13-77.93C243.66,623.53,244.9,647,199,721.45,145.14,808.64,53.14,649.16,80.82,574.86,96.53,505.17,147.44,449.11,199,401.59c45.69-44.57,83.4-96.16,107.45-155.44,25.15-23.7,30.29-40.27,28.24-74.43C296,102.52,223.94,89.37,160.17,134.59c-35.12-4.2-70.74-16.49-104.6-.43-2.86,17.7-.91,34.3,2,51.85,9.06,37.46,29,84.82,71.41,45.6C101.76,267.45,142.4,278.79,172.2,274.67Z"/><path class="cls-5" d="M191.66,228.09c1.28-34.69-15.72-63.69-32.66-92.68"/><path class="cls-6" d="M222,213.64"/><path class="cls-6" d="M247.49,140.16"/><path class="cls-5" d="M239.64,134.51c21.52,13.49,24.93,13.7,45.47-1.33"/><path class="cls-6" d="M274.78,119.9"/><path class="cls-5" d="M133.8,226.94c75.66,9.91,109.26-4.47,119.47-84.16"/><path class="cls-5" d="M275,120a59.21,59.21,0,0,0,26.48,22.37c11.1,4.79,17.24,10.52,24,20.23"/><path class="cls-5" d="M140.14,138.11c14,7.4,17.12,9,3,19.64"/><path class="cls-5" d="M64.59,146.53c17.29,6.68,14.76,9.16,3.8,21.84"/><path class="cls-6" d="M60.85,325.1"/><path class="cls-6" d="M135.93,226.24"/><path class="cls-6" d="M232.45,234"/><path class="cls-5" d="M233,233.57c20.67-5.78,39-13.3,55.81-26.82"/><path class="cls-5" d="M228.77,272.24a160.78,160.78,0,0,0,49.17-5.81"/><path class="cls-5" d="M216,309.86c13.35,3.95,25.19,4,38.75,1"/><path class="cls-5" d="M194.08,340.16c12.27,6.87,22.67,9,36.57,6.56"/><path class="cls-5" d="M162.85,371.05a64.38,64.38,0,0,0,35.26,9.55"/><path class="cls-5" d="M136.26,402.27c11.37,6.83,22.28,9.17,35.46,9.35"/><path class="cls-5" d="M104.73,440.6c11.59,6.2,22.46,8.49,35.56,8.4"/><path class="cls-5" d="M82.59,470.14c10.47,4.65,20.41,6,31.81,5.72"/><path class="cls-5" d="M57.14,504.86A103.19,103.19,0,0,0,96,512.65"/><path class="cls-5" d="M20.23,555.81A116.31,116.31,0,0,0,72.94,557"/><path class="cls-5" d="M4.28,602.36a224.15,224.15,0,0,0,53.78,6.8"/><path class="cls-5" d="M.2,645.67A200.46,200.46,0,0,0,55.62,649"/><path class="cls-5" d="M15.44,702.79c18.4-3.81,34-10.17,49.49-20.88"/><path class="cls-5" d="M55.06,752.84c11.28-6.61,19.77-14.12,26.87-25.16"/><path class="cls-5" d="M109.83,777.89a105.22,105.22,0,0,0,15.34-27.46"/><path class="cls-5" d="M167.91,773.57c1.68-6.94,1.43-13.15,0-20.13"/><path class="cls-5" d="M211.62,745.69A50.61,50.61,0,0,0,208,724.1"/><path class="cls-5" d="M245.84,703.47a157.94,157.94,0,0,0-5-24.65"/><path class="cls-5" d="M310.27,729.83A180.32,180.32,0,0,0,349.58,714"/><path class="cls-5" d="M339.18,793.78a140.42,140.42,0,0,0,37.2-18.08"/><path class="cls-5" d="M426.43,807.52c7-10.25,11.67-20.42,13.23-32.79"/><path class="cls-5" d="M471.69,767.57A64,64,0,0,0,475,739.39"/><path class="cls-5" d="M503.71,707.85a72.54,72.54,0,0,0-2.52-22.24"/><path class="cls-5" d="M300.89,674.21a89.07,89.07,0,0,0,21.87-13.28"/><path class="cls-5" d="M556.82,682.31C563.64,680,567.94,675.87,572,670"/><path class="cls-5" d="M557.65,731.58c8.06,2.38,14.75,2,22.66-.78"/><path class="cls-5" d="M566.67,789.64c11.08-1.06,19-4.47,27.18-12"/><path class="cls-5" d="M624.12,826.35a71.1,71.1,0,0,0,10.27-21.45"/><path class="cls-5" d="M183.79,18.24c23.21-9.36,29.38-11,52.21.61"/><path class="cls-5" d="M120.93,20.7c17.78-4.53,32.94-3.36,50.38,2"/><path d="M206.24,72.52c-1.07,6.58-5.91,10.68-12.62,9.44s-10-6.9-9-13.48,5.87-10.93,12.66-9.71S207.31,65.94,206.24,72.52Z"/><path d="M162,70.12c-.23,6.57-4.35,11.37-11.1,11.16s-10.68-5.48-10.49-12,4.29-11.74,11.15-11.49S162.24,63.55,162,70.12Z"/><path class="cls-7" d="M194,65c-5.42-.86-6.39,6.5-1,7.35S199.38,65.8,194,65Z"/><path class="cls-7" d="M151.11,61.74c-5.36-.86-6.49,6.52-1.13,7.36S156.48,62.6,151.11,61.74Z"/><path class="cls-8" d="M122.55,238.23c-5.82,3.61-11.22,6.5-18.09,7.34,10.35-6.22,20.24-13.06,30.06-20.07-6,8.72-10.82,17.25-13.48,27.55A35.61,35.61,0,0,1,122.55,238.23Z"/><path class="cls-9" d="M116.72,253.94C88.45,311.07,104,367.32,160.52,396.66c-36.34,3.22-43.5-9-56.52-40.36a500.66,500.66,0,0,0-4.32,52.45c-6.46-22-5.92-43.52-2.83-66.08-5-35.51-6.72-71.34,16.59-100.72C136.33,230.46,121.23,244.84,116.72,253.94Z"/></symbol><symbol id="Slange7" data-name="Slange7" viewBox="0 0 811.34 827.57"><path class="cls-1" d="M99,241.26"/><path class="cls-1" d="M658.17,614.38"/><path class="cls-2" d="M164.68,276.55c16.94-16.26,27.83-37.86,43.95-54.5C234,256,232.2,283,205.71,314.42,141.59,390.56,77.87,464.33,32.46,553,.84,682.75,81.25,835,226.22,738.86c17.88-29.8,50.88-102.23,95.26-86.73,17.73,22.47,18,55.63,23.2,82.69,44.94,100.82,124.4,78.9,168.58-6.73,6.45-17.61,45.37-127.84,72.33-67.92-30.63,68-31.8,210.47,75.11,146.37C707.33,778.59,836.21,673.74,807.11,621,732,636.62,730.06,719.14,671.05,755.77c-44.22-13.07-9.5-82.93-6.86-114.46-24.46-110.6-134-127.89-192.74-28.64-4.78,8.07-18.4,67.2-33.67,60.72-9.69-15.67-11.32-32.9-12.06-51.46C379.44,509.1,291.1,497,211.47,588.43c-41.32,57.43-76.39,95.81-70.9-12.15,44.77-131.5,157.71-226,199.26-358.94,20.4-62.09,1.69-90.23-56.17-115.5C254.61,44,212.11-35.37,137.7,17.2c-22-3.39-25.62-5.18-33,17.4C86.08,64.22,87.61,74.85,110,101.3c-49.84,9.2-89.61,21.8-77.25,82,10.79,40.44,29.44,88.51,73.91,43.3A259.26,259.26,0,0,0,164.68,276.55Z"/><path class="cls-3" d="M145.83,70.7c-3.09,22.12-8.86,30.88-32.42,27.7S86.69,85.25,89.61,63.12,98.18,31.38,122,34.58,148.91,48.57,145.83,70.7Z"/><path class="cls-3" d="M214.88,69C211,97,201,104,173.33,98.72s-35.51-15-31.8-43S155,19.78,183.22,24.29,218.79,41.12,214.88,69Z"/><path class="cls-4" d="M150.67,274.84c12.79,8.81,57.6-44.47,53.25-25.2-4.85,21.54-5.95,60-21.48,81.62-61.85,66.34-111,141.15-159.19,217.29C-40.95,678.38,47.13,819,196.5,762.81c28.18-21.23,49.56-48.91,70.07-77.35,31.84-35.92,38.36-30.19,55.32,13.09,7.25,35.19,11.87,79.81,45.77,100.4,111.09,67.47,136.66-59.11,170.64-134.3C579.83,647.47,566.23,671,557,701c-12.33,40.18-33.39,104,26.88,121.35,34,9.77,66.29-5.21,94.85-24C728,761.94,747.69,704,783.58,656.92c-55.37,42-66.73,105.62-136.26,137.77-74.68,4.27-42-90.56-45.68-133.56-37.43-79.31-89.81.58-106.14,45.26-35.9,74.3-92.85,94.37-116.68-2.58-3.1-28.16-16.25-52.08-26.26-78.29-93,4-97.58,20.56-147.32,95.92C147,809.66,57.89,642.75,76.91,577.54,88.4,507.54,134,450.35,182.74,401c42.66-45.74,77.91-97.26,100.44-155.78,24-24.05,28.47-40.11,26-73.61-41.85-68.12-109.4-83.9-175.07-36.81-35.29-3.93-70.95-13.06-104.66,2.78-1.7,17.66.22,34.35,3.53,51.71C43.87,227.45,62.94,271.9,105.88,233,81.74,271.46,119.69,279.51,150.67,274.84Z"/><path class="cls-5" d="M168.34,228.22c-.79-34.72-17.41-63.85-35.35-92.56"/><path class="cls-6" d="M198.14,213.5"/><path class="cls-6" d="M221.54,139.92"/><path class="cls-5" d="M213.56,134.21c21.69,13,24.6,13.69,45.33-1.16"/><path class="cls-6" d="M248.27,119.58"/><path class="cls-5" d="M110.52,228.13c75.26,7.61,108-5.84,116.86-85.57"/><path class="cls-5" d="M248.5,119.7a69,69,0,0,0,26.82,22.61c10.81,5.17,17.37,11.13,24.48,20.46"/><path class="cls-5" d="M114.2,138.76c14.41,7.14,16.8,8.14,3.53,19.52"/><path class="cls-5" d="M38.86,149.66c17.13,6.63,15,8.52,4.42,21.69"/><path class="cls-6" d="M41.26,329"/><path class="cls-6" d="M112.63,227.37"/><path class="cls-6" d="M209.19,233.71"/><path class="cls-5" d="M209.75,233.32c20.06-6.11,38-14.06,54.75-26.81"/><path class="cls-5" d="M206.79,271.84a185.34,185.34,0,0,0,48.7-6.3"/><path class="cls-5" d="M195.44,309.46a84.24,84.24,0,0,0,38.55.34"/><path class="cls-5" d="M174.92,340.11c12.32,5.91,23.11,7.82,36.64,5.67"/><path class="cls-5" d="M145.26,371.71a75.6,75.6,0,0,0,35.56,8.48"/><path class="cls-5" d="M120.45,403.68c11.67,5.8,22.84,8.05,35.83,8.14"/><path class="cls-5" d="M92,443a80.29,80.29,0,0,0,35.53,7.06"/><path class="cls-5" d="M71.88,473.29a80.65,80.65,0,0,0,31.72,4.47"/><path class="cls-5" d="M48.82,508.93a119.43,119.43,0,0,0,38.84,6.18"/><path class="cls-5" d="M15.21,561.28a133.56,133.56,0,0,0,52.47-1"/><path class="cls-5" d="M1.89,608.38a261,261,0,0,0,54.17,4.46"/><path class="cls-5" d="M.13,651.74a234.42,234.42,0,0,0,55.65.88"/><path class="cls-5" d="M18.24,708a150.89,150.89,0,0,0,48.62-23"/><path class="cls-5" d="M60.51,756.11a87.44,87.44,0,0,0,25.95-26.22"/><path class="cls-5" d="M116.92,778.9A123,123,0,0,0,131.43,751"/><path class="cls-5" d="M175.57,772.92a50.53,50.53,0,0,0-.54-20"/><path class="cls-5" d="M219.39,744.53a59.19,59.19,0,0,0-3.8-21.32"/><path class="cls-5" d="M254.79,703.13a166.73,166.73,0,0,0-4.33-24"/><path class="cls-5" d="M331.37,737.2a192.94,192.94,0,0,0,38.3-18"/><path class="cls-5" d="M367,800.26a159,159,0,0,0,36.29-20.58"/><path class="cls-5" d="M456.26,807.87c5.84-11,9.52-21.52,10.19-34"/><path class="cls-5" d="M496.45,764.33a81.8,81.8,0,0,0,.29-28.73"/><path class="cls-5" d="M522.32,703.88a109.68,109.68,0,0,0-2.87-22.1"/><path class="cls-5" d="M316.58,679.39a97.57,97.57,0,0,0,21.88-13.64"/><path class="cls-5" d="M563.07,680.93c7-1.6,12.41-4.74,17.9-9.36"/><path class="cls-5" d="M549.27,726.27c7.44,3,14.14,3.39,22,2.11"/><path class="cls-5" d="M544.4,783c10.83-.11,19.29-2.79,28.55-8.35"/><path class="cls-5" d="M594.05,826.89a88.58,88.58,0,0,0,13.87-20.21"/><path class="cls-5" d="M154.59,18.41c23-9.55,29.18-10.74,52.26-.47"/><path class="cls-5" d="M91.75,22.48c17.54-4.3,33-3.74,50.47.68"/><path d="M178.38,72.18c-.89,6.55-5.55,10.55-12.2,9.45s-10.07-6.55-9.2-13.09,5.51-10.84,12.24-9.75S179.28,65.62,178.38,72.18Z"/><path d="M134.06,70.56c-.05,6.5-4,11.25-10.66,11.19s-10.69-5-10.67-11.54,3.92-11.59,10.69-11.5S134.12,64.06,134.06,70.56Z"/><path class="cls-7" d="M166,65c-5.21-.69-5.88,6.28-.67,7S171.2,65.71,166,65Z"/><path class="cls-7" d="M123,62.7c-5.17-.69-6,6.27-.87,7S128.2,63.39,123,62.7Z"/><path class="cls-8" d="M99.63,239.79c-5.68,3.69-11.16,6.55-17.86,7.88,10.09-6.63,19.8-13.73,29.42-21-5.56,8.94-9.93,17.85-12.56,28.08A41.37,41.37,0,0,1,99.63,239.79Z"/><path class="cls-9" d="M94.53,255.62c-26.13,59.67-9,112.68,49.74,141.71-36.16,3.36-44.1-7.42-58.65-38.49-1.54,17.48-2.39,34.92-2.47,52.47-6.59-21.71-7.22-43.39-5.23-65.87-6.31-35.21-8.5-70.93,12.66-101.62C110.52,233.88,98.7,246.12,94.53,255.62Z"/></symbol></defs><title>slange_sprite</title><g id="Layer_2" data-name="Layer 2"><g id="Layer_7" data-name="Layer 7"><use width="911.53" height="849.92" transform="translate(0 9.67)" xlink:href="#slange1"/><use width="939" height="855.83" transform="translate(1102)" xlink:href="#Slange2"/><use width="1018.68" height="876.29" transform="translate(2179)" xlink:href="#Slange3"/><use width="868.74" height="828.04" transform="translate(3370 19)" xlink:href="#Slange4"/><use width="1005.56" height="854.64" transform="translate(4417 9.33)" xlink:href="#Slange5"/><use width="873.71" height="826.93" transform="translate(5599 16.67)" xlink:href="#Slange6"/><use width="811.34" height="827.57" transform="translate(6746 17.33)" xlink:href="#Slange7"/></g></g></svg>
