<svg xmlns="http://www.w3.org/2000/svg" viewBox="0 0 1385.44 395.83"><defs><style>.cls-1{fill:#0f0f0e;}.cls-2{fill:#d3aa8d;}.cls-3{fill:#e8e8e7;}.cls-4{fill:#353534;}.cls-5,.cls-6{fill:#d2976a;}.cls-13,.cls-6,.cls-7,.cls-8{stroke:#1d1d1b;stroke-miterlimit:10;}.cls-7,.cls-8{fill:none;}.cls-8{opacity:0.6;}.cls-9{opacity:0.62;}.cls-10,.cls-13{fill:#1d1d1b;}.cls-11{fill:#fff;}.cls-12{fill:#007fbf;}.cls-13{stroke-width:0.25px;}.cls-14{fill:#925f36;}.cls-15{fill:#7d5032;}.cls-16{fill:#e2b291;}.cls-17{fill:#314293;}.cls-18{fill:#8e9090;}.cls-19{fill:#727272;}.cls-20{fill:#8e8e85;}</style></defs><title>tlf_sprite</title><g id="Layer_2" data-name="Layer 2"><g id="Layer_1-2" data-name="Layer 1"><path class="cls-1" d="M627.9,0s-22.72-1.22-23.2,25.15.94,314.49.94,314.49-1.12,19.76,19.76,19.24,71,0,71,0L779.49,281V28.14S777.88,2.08,755.55,0Z"/><path class="cls-2" d="M605.22,93.92s-8.63-8.85-12.17-2.66-19.25,33.42-26.11,35.86c0,0-26.34,28.77-26.34,35.85,0,0-4.87,21-9.07,23.46,0,0-19.26,31-19,37.18,0,0-5.31,19.26-2.43,29.88,0,0-4.65,64.4-9.08,68.83,0,0-22.35,68.89-31,72.51H587.52L679.81,373s21.47-13.28,17.48-14.39-68.83-.22-68.83-.22-23.46-4.87-22.57-27.66l-1.33-144.08S585.35,203.57,582,204.19c0,0,5.78-16.65,4.88-17.91,0,0-.35-14.63,6.13-23.35,0,0,13.52-21.18,11.92-22S605.22,93.92,605.22,93.92Z"/><path class="cls-2" d="M779.49,138.08s27.44-10.79,32,10.09c0,0,7.75,13.79-32,29.36"/><path class="cls-2" d="M779.49,199.81s27.08-11.85,34,10.44c0,0,8.64,17-34,24.76"/><polyline class="cls-3" points="686.74 315.95 611.87 315.95 611.87 34.32 769.66 34.32 769.66 253.61"/><path class="cls-4" d="M688.92,322.25s-12.31-1.09-10.18,13.52,17.18,8.76,17.18,8.76"/><path class="cls-5" d="M680.11,128.3c-.84,2-27.35,9.6-32.12,13.63-8.32,7-2.31,11.63-5.77,23.94s-.37,12.94-3.84,38.61c0,0-7.14,5.7-11.71,50.93,0,0-1,2.53-5.81,5-1.13.57.46,2.42-6.3,16.52,0,0,2.64,5,9.85-7.65,0,0-2.86,13.7,6.07,24.31,0,0,3.2,1.48.8-4.84,0,0,8.93,13,6.29,0,0,0,8.7,7.93,4.47-1.88l-2.41-3.76s12.14,8.73,1.26-5.1c0,0-1.6-2.29-.91-17.06,0,0-6.07-3.63,4.23-19.34,0,0,7.67-15.18,7.33-32.11,0,0,7.33-10.47,8.82-20.68s1.6-13.43,1.6-13.43-3.3,19.7,3.66,34.38c1.79,3.78.46,34,.46,34s-13.51,21-15.68,72.66h29.07s10-21.62,14-46.07c0,0,6.3,31.57,13,46.07h29.42s3.21-25.29-15.44-73.22c0,0-1.25-26.79.84-35.64a101.12,101.12,0,0,1,4.61-14.75s1.14-4.55-1.45-15.52,3.89,25,10.78,34.59c0,0,1.43,25.46,12.73,40.24,0,0,.86,2.29,0,7.11s-1,8.7-1.1,16.59c-.94,1.31-11.06,14.36-1,8.29,0,0-6.27,14.45,4,3.21-.63-1.35-4.22,13.71,4.56,2.16,0,0,.23,13.23,6.84-4.57,0,0,2.51-4.28,1.94-14.18,0,0,2.61,7.55,8.09,7,2.51-.27-3.53-8.83-3.53-8.83s-.34-9.23-7.41-11.77c-3.77-11.37-2.7-17.62-3.31-23.54-1.4-13.72-5.94-25.06-8.78-29.17,0,0-1.37-33-5-43.2,0,0,3.07-20.07-12.55-23.82s-23.94-8.42-23.94-8.42l.11-13.65,1.26-3.48s4.47,1.34,4.33-14.85c0-3.61-2.51,0-2.51,0S712.65,72.7,693.23,74s-15.89,15.25-16.69,22.21c0,0-3.69-4.49-2,9.49.49,4.25,3.87,4.55,3.76,5.22a23.84,23.84,0,0,0,1.59,4.15,5.21,5.21,0,0,1,.33,1.79C680.45,120.59,680.11,128.3,680.11,128.3Z"/><path class="cls-6" d="M692.6,267a15.75,15.75,0,0,0-1.37,4.58c-.58,5.7-1.22,15.79,1.5,16,2.41.18,3.24-8.2,3.52-14.32a11.66,11.66,0,0,0-1.62-6.24"/><path class="cls-7" d="M691,273.8s-3.27,4.31-2.56,8.33,2.28,1.2,2.28,1.2"/><path class="cls-7" d="M696.17,274.77s3.69,5.61,2.12,7.92a1.63,1.63,0,0,1-3,0"/><path class="cls-8" d="M633.72,279.25a13.88,13.88,0,0,0,3.85,9.45"/><path class="cls-8" d="M627.2,268.05s4.18,1.3,6.52-3.46"/><path class="cls-8" d="M637.57,277.87s-1.15,2.75,2.48,5.85"/><line class="cls-8" x1="693.23" y1="187.5" x2="693.79" y2="242.81"/><path class="cls-8" d="M727.31,163.6s-1.53,18.06-20.49,18.06c-15.28,0-12.31-5.69-12.31-5.69"/><path class="cls-8" d="M658.62,162.77s2.48,17.51,18.35,17.78,14.49-1.25,15.3-4.17"/><path class="cls-8" d="M694.93,155.73s-4.48-13.66,33.29-11.31"/><path class="cls-8" d="M660,143.8s33.2-.74,32.31,11.93"/><path class="cls-8" d="M680.56,116.36s3.84,12.36,11.61,13.51,12.38-8.34,14.89-15.16,2.88-17.8,2.88-17.8-1.44-10.29-4.65-10.29-8.62,8.49-23.39,0c-1.76-1-4.91,5.34-4.91,9.63A63.73,63.73,0,0,0,680.56,116.36Z"/><path class="cls-8" d="M630.65,287.56s-1.85-6.18-1.35-8.51"/><path class="cls-8" d="M749.35,277.87a6.89,6.89,0,0,1-3.49,6.19"/><path class="cls-8" d="M752.3,280a8.69,8.69,0,0,1-2.45,7.24"/><path class="cls-8" d="M756.85,280.79s1,3.47-2.44,8.64"/><path class="cls-8" d="M758.82,268.34s-4,1.16-6.44-5.19"/><g class="cls-9"><path class="cls-10" d="M671.62,171.81a2.58,2.58,0,0,0-2.12,3.67,3,3,0,0,0,2.08,1.45,3.32,3.32,0,0,0,2.49-1c.62-.51-.27-1.39-.89-.88-.79.64-1.68,1-2.43.07a1.3,1.3,0,0,1,.87-2c.8-.07.81-1.32,0-1.25Z"/></g><g class="cls-9"><path class="cls-10" d="M713.19,176.16a8.54,8.54,0,0,1,1.6,0,2.77,2.77,0,0,0,1.18,0,3.22,3.22,0,0,0,1.63-1.08,2.57,2.57,0,0,0-1.07-3.32c-.73-.32-1.37.76-.63,1.08a1.3,1.3,0,0,1,.61.83c.19.54,0,.8-.43,1.07a2,2,0,0,1-1.41.11,12.18,12.18,0,0,0-1.48,0c-.8,0-.8,1.29,0,1.25Z"/></g><g class="cls-9"><path class="cls-10" d="M716.12,171.7c-.79,0-2.18-.29-2.6.61-.34.73.74,1.36,1.08.63,0,0-.11,0,.1,0h1.42a.63.63,0,0,0,0-1.25Z"/></g><g class="cls-9"><path class="cls-10" d="M688.63,120.49c.89.23,1.37,1.41,2.19,1.82a6.75,6.75,0,0,0,2.81.48,4.21,4.21,0,0,0,2.5-.62c.92-.62,1.58-2.33,2.91-2.22.8.06.8-1.19,0-1.25-1.75-.14-2,1.3-3.27,2.15a4,4,0,0,1-4.78-.15,4.76,4.76,0,0,0-2-1.42.63.63,0,0,0-.34,1.21Z"/></g><g class="cls-9"><path class="cls-10" d="M689.6,120.47c.54-.1,1.7.59,2.26.68a5.82,5.82,0,0,0,1.56,0c2.06-.26,3.8-1.4,5.93-1.23.81.06.8-1.19,0-1.25-1.93-.15-3.49.66-5.33,1.08a5.36,5.36,0,0,1-3.4-.36,2,2,0,0,0-1.35-.11c-.79.15-.46,1.35.33,1.21Z"/></g><g class="cls-9"><path class="cls-10" d="M690.07,112.3c.24,1.08-1.69,2.4-.31,3.28,1.17.73,3.46.26,4.72.12,1.06-.12,2.57-.28,2.95-1.49.5-1.6-1.44-1.61-1.61-2.86-.11-.79-1.32-.45-1.21.33a2.12,2.12,0,0,0,.85,1.51c.46.33,1.49.38-.16,1.14a6.93,6.93,0,0,1-2,.23,7.1,7.1,0,0,1-1.66.06l-.48,0c-.46-.15-.53-.37-.2-.65.13-.78.52-1.1.33-2s-1.38-.46-1.21.33Z"/></g><path class="cls-11" d="M689.87,101.77s-8.27-5.76-9.08,0S689.57,106.79,689.87,101.77Z"/><path class="cls-11" d="M696.14,102.51s6.88-6.29,9.2-1.48S697.66,107.55,696.14,102.51Z"/><ellipse class="cls-12" cx="685.8" cy="103.35" rx="1.89" ry="2.21"/><ellipse class="cls-12" cx="701.83" cy="103.35" rx="1.89" ry="2.21"/><ellipse class="cls-13" cx="686.34" cy="103.98" rx="1.04" ry="1.22"/><ellipse class="cls-13" cx="702.44" cy="103.98" rx="0.96" ry="1.12"/><path class="cls-13" d="M689.87,101.59s-7.92-4.92-9-.63"/><path class="cls-13" d="M696.89,102.39l8.71-.62s-1-6.16-9.46.74"/><ellipse class="cls-11" cx="685.82" cy="103.12" rx="0.52" ry="0.61"/><ellipse class="cls-11" cx="701.83" cy="103.12" rx="0.49" ry="0.58"/><path class="cls-14" d="M675.43,95.23c6.44,0,6.45-10,0-10s-6.44,10,0,10Z"/><path class="cls-14" d="M678.75,95.65c6.44,0,6.45-10,0-10s-6.44,10,0,10Z"/><path class="cls-14" d="M674.13,91.34c6.43,0,6.44-10,0-10s-6.45,10,0,10Z"/><path class="cls-14" d="M674.6,96.07c6.44,0,6.45-10,0-10s-6.44,10,0,10Z"/><path class="cls-14" d="M678.52,94c6.43,0,6.44-10,0-10s-6.45,10,0,10Z"/><path class="cls-14" d="M682.43,93.28c6.43,0,6.44-10,0-10s-6.45,10,0,10Z"/><path class="cls-14" d="M681.72,97c6.43,0,6.44-10,0-10s-6.45,10,0,10Z"/><path class="cls-14" d="M681,93.84c6.43,0,6.44-10,0-10s-6.45,10,0,10Z"/><path class="cls-14" d="M680.89,93.7c6.43,0,6.44-10,0-10s-6.45,10,0,10Z"/><path class="cls-14" d="M679.46,89c6.44,0,6.45-10,0-10s-6.44,10,0,10Z"/><path class="cls-14" d="M677.45,88.69c6.43,0,6.44-10,0-10s-6.45,10,0,10Z"/><path class="cls-14" d="M676.26,84.52c6.44,0,6.45-10,0-10s-6.44,10,0,10Z"/><path class="cls-14" d="M679.46,84.38c6.44,0,6.45-10,0-10s-6.44,10,0,10Z"/><path class="cls-14" d="M679.46,84.38c6.44,0,6.45-10,0-10s-6.44,10,0,10Z"/><path class="cls-14" d="M681.24,86.33c6.44,0,6.45-10,0-10s-6.44,10,0,10Z"/><path class="cls-14" d="M683.26,82.29c6.43,0,6.44-10,0-10s-6.45,10,0,10Z"/><path class="cls-14" d="M683.26,86.33c6.43,0,6.44-10,0-10s-6.45,10,0,10Z"/><path class="cls-14" d="M683.61,89.25c6.44,0,6.45-10,0-10s-6.44,10,0,10Z"/><path class="cls-14" d="M685.16,82.85c6.43,0,6.44-10,0-10s-6.45,10,0,10Z"/><path class="cls-14" d="M687.65,81c6.43,0,6.44-10,0-10s-6.45,10,0,10Z"/><path class="cls-14" d="M687.65,84.94c6.43,0,6.44-10,0-10s-6.45,10,0,10Z"/><path class="cls-14" d="M687.65,86.89c6.43,0,6.44-10,0-10s-6.45,10,0,10Z"/><path class="cls-14" d="M687.65,87.86c6.43,0,6.44-10,0-10s-6.45,10,0,10Z"/><path class="cls-14" d="M690.85,85.22c6.43,0,6.44-10,0-10s-6.45,10,0,10Z"/><path class="cls-14" d="M690.85,81.32c6.43,0,6.44-10,0-10s-6.45,10,0,10Z"/><path class="cls-14" d="M691,79.65c6.44,0,6.45-10,0-10s-6.44,10,0,10Z"/><path class="cls-14" d="M691.79,79.1c6.44,0,6.45-10,0-10s-6.44,10,0,10Z"/><path class="cls-14" d="M694.28,79.1c6.44,0,6.45-10,0-10s-6.44,10,0,10Z"/><path class="cls-14" d="M698,80.21c6.43,0,6.44-10,0-10s-6.45,10,0,10Z"/><path class="cls-14" d="M694.64,83.82c6.43,0,6.45-10,0-10s-6.45,10,0,10Z"/><path class="cls-14" d="M694.64,84.66c6.43,0,6.45-10,0-10s-6.45,10,0,10Z"/><path class="cls-14" d="M693.69,85.08c6.44,0,6.45-10,0-10s-6.44,10,0,10Z"/><path class="cls-14" d="M692.86,86.75c6.44,0,6.45-10,0-10s-6.44,10,0,10Z"/><path class="cls-14" d="M689.3,90.08c6.44,0,6.45-10,0-10s-6.44,10,0,10Z"/><path class="cls-14" d="M686.82,92.17c6.43,0,6.44-10,0-10s-6.45,10,0,10Z"/><path class="cls-14" d="M689.78,92.17c6.43,0,6.44-10,0-10s-6.45,10,0,10Z"/><path class="cls-14" d="M694.88,92.17c6.43,0,6.44-10,0-10s-6.45,10,0,10Z"/><path class="cls-14" d="M694.88,88.83c6.43,0,6.44-10,0-10s-6.45,10,0,10Z"/><path class="cls-14" d="M692.86,89.39c6.44,0,6.45-10,0-10s-6.44,10,0,10Z"/><path class="cls-14" d="M693.34,91.89c6.43,0,6.44-10,0-10s-6.45,10,0,10Z"/><path class="cls-14" d="M696.89,91.89c6.44,0,6.45-10,0-10s-6.44,10,0,10Z"/><path class="cls-14" d="M697.72,87.16c6.44,0,6.45-10,0-10s-6.44,10,0,10Z"/><path class="cls-14" d="M697.72,85.63c6.44,0,6.45-10,0-10s-6.44,10,0,10Z"/><path class="cls-14" d="M697.84,82.57c6.44,0,6.45-10,0-10s-6.44,10,0,10Z"/><path class="cls-14" d="M699.26,78.54c6.44,0,6.45-10,0-10s-6.44,10,0,10Z"/><path class="cls-14" d="M700.81,78.54c6.43,0,6.44-10,0-10s-6.45,10,0,10Z"/><path class="cls-14" d="M704.72,81.74c6.43,0,6.44-10,0-10s-6.45,10,0,10Z"/><path class="cls-14" d="M703.77,81.74c6.43,0,6.44-10,0-10s-6.45,10,0,10Z"/><path class="cls-14" d="M700.92,82.43c6.44,0,6.45-10,0-10s-6.44,10,0,10Z"/><path class="cls-14" d="M700.33,86.47c6.44,0,6.45-10,0-10s-6.44,10,0,10Z"/><path class="cls-14" d="M700.33,88.83c6.44,0,6.45-10,0-10s-6.44,10,0,10Z"/><path class="cls-14" d="M701.16,91.34c6.44,0,6.45-10,0-10s-6.44,10,0,10Z"/><path class="cls-14" d="M701.16,91.34c6.44,0,6.45-10,0-10s-6.44,10,0,10Z"/><path class="cls-14" d="M705.55,88.28c6.43,0,6.44-10,0-10s-6.45,10,0,10Z"/><path class="cls-14" d="M704.6,86.05c6.43,0,6.44-10,0-10s-6.45,10,0,10Z"/><path class="cls-14" d="M707.8,90.64c6.43,0,6.45-10,0-10s-6.45,10,0,10Z"/><path class="cls-14" d="M705.78,90.64c6.44,0,6.45-10,0-10s-6.44,10,0,10Z"/><path class="cls-14" d="M700.21,91.75c6.44,0,6.45-10,0-10s-6.44,10,0,10Z"/><path class="cls-14" d="M696.66,93.28c6.43,0,6.44-10,0-10s-6.45,10,0,10Z"/><path class="cls-14" d="M692.51,94.12c6.43,0,6.44-10,0-10s-6.45,10,0,10Z"/><path class="cls-14" d="M690.25,94.54c6.44,0,6.45-10,0-10s-6.44,10,0,10Z"/><path class="cls-14" d="M703.41,95.93c6.44,0,6.45-10,0-10s-6.44,10,0,10Z"/><path class="cls-14" d="M706.26,92.45c6.43,0,6.44-10,0-10s-6.45,10,0,10Z"/><path class="cls-14" d="M708,92.45c6.43,0,6.44-10,0-10s-6.45,10,0,10Z"/><path class="cls-14" d="M708.51,96.07c6.44,0,6.45-10,0-10s-6.44,10,0,10Z"/><path class="cls-14" d="M708.51,97.6c6.44,0,6.45-10,0-10s-6.44,10,0,10Z"/><path class="cls-14" d="M709.7,97.6c6.43,0,6.44-10,0-10s-6.45,10,0,10Z"/><path class="cls-14" d="M711.36,96.9c6.43,0,6.44-10,0-10s-6.45,10,0,10Z"/><path class="cls-14" d="M711.36,91.48c6.43,0,6.44-10,0-10s-6.45,10,0,10Z"/><path class="cls-14" d="M710.05,89c6.44,0,6.45-10,0-10s-6.44,10,0,10Z"/><path class="cls-14" d="M708.39,86.75c6.44,0,6.45-10,0-10s-6.44,10,0,10Z"/><path class="cls-14" d="M706.38,83c6.43,0,6.44-10,0-10s-6.45,10,0,10Z"/><path class="cls-14" d="M701,80.63c6.44,0,6.45-10,0-10s-6.44,10,0,10Z"/><path class="cls-14" d="M694.05,74.78c6.43,0,6.44-10,0-10s-6.45,10,0,10Z"/><path class="cls-14" d="M689.66,76.45c6.44,0,6.45-10,0-10s-6.44,10,0,10Z"/><path class="cls-14" d="M686.58,77c6.43,0,6.44-10,0-10s-6.45,10,0,10Z"/><path class="cls-14" d="M684.8,77.84c6.43,0,6.44-10,0-10s-6.45,10,0,10Z"/><path class="cls-14" d="M682.43,79.37c6.43,0,6.44-10,0-10s-6.45,10,0,10Z"/><path class="cls-14" d="M677.92,82.29c6.44,0,6.45-10,0-10s-6.44,10,0,10Z"/><path class="cls-14" d="M674.37,87.16c6.43,0,6.44-10,0-10s-6.45,10,0,10Z"/><path class="cls-14" d="M673.18,92.31c6.44,0,6.45-10,0-10s-6.44,10,0,10Z"/><path class="cls-14" d="M672.94,95.23c6.44,0,6.45-10,0-10s-6.44,10,0,10Z"/><path class="cls-14" d="M675.08,96.62c6.43,0,6.44-10,0-10s-6.45,10,0,10Z"/><path class="cls-14" d="M676.74,99c6.43,0,6.44-10,0-10s-6.45,10,0,10Z"/><path class="cls-14" d="M679.11,99.4c6.43,0,6.44-10,0-10s-6.45,10,0,10Z"/><path class="cls-14" d="M686.93,94c6.44,0,6.45-10,0-10s-6.44,10,0,10Z"/><path class="cls-14" d="M698.79,77.84c6.43,0,6.44-10,0-10s-6.45,10,0,10Z"/><path class="cls-14" d="M698.32,73.25c6.43,0,6.44-10,0-10s-6.45,10,0,10Z"/><path class="cls-14" d="M701.52,74.09c6.43,0,6.44-10,0-10s-6.45,10,0,10Z"/><path class="cls-14" d="M702.58,75.9c6.44,0,6.45-10,0-10s-6.44,10,0,10Z"/><path class="cls-14" d="M704.72,79.37c6.43,0,6.44-10,0-10s-6.45,10,0,10Z"/><path class="cls-14" d="M707.8,81.18c6.43,0,6.45-10,0-10s-6.45,10,0,10Z"/><path class="cls-14" d="M707.92,85.63c6.43,0,6.44-10,0-10s-6.45,10,0,10Z"/><path class="cls-14" d="M690.13,74.64c6.44,0,6.45-10,0-10s-6.44,10,0,10Z"/><path class="cls-14" d="M687.53,74.23c6.43,0,6.44-10,0-10s-6.45,10,0,10Z"/><path class="cls-14" d="M684.21,74.23c6.43,0,6.44-10,0-10s-6.45,10,0,10Z"/><path class="cls-14" d="M683.38,75.62c6.43,0,6.44-10,0-10s-6.45,10,0,10Z"/><path class="cls-14" d="M681.48,77.43c6.43,0,6.45-10,0-10s-6.45,10,0,10Z"/><path class="cls-14" d="M678.87,80.21c6.44,0,6.45-10,0-10s-6.44,10,0,10Z"/><path class="cls-14" d="M673.18,92.17c6.44,0,6.45-10,0-10s-6.44,10,0,10Z"/><path class="cls-15" d="M673.89,93.7c6.44,0,6.45-10,0-10s-6.44,10,0,10Z"/><path class="cls-15" d="M676,97.74c6.43,0,6.44-10,0-10s-6.45,10,0,10Z"/><path class="cls-15" d="M676.74,91.89c6.43,0,6.44-10,0-10s-6.45,10,0,10Z"/><path class="cls-15" d="M678,89.81c6.44,0,6.45-10,0-10s-6.44,10,0,10Z"/><path class="cls-15" d="M683.26,81.6c6.43,0,6.44-10,0-10s-6.45,10,0,10Z"/><path class="cls-15" d="M684.8,90.22c6.43,0,6.44-10,0-10s-6.45,10,0,10Z"/><path class="cls-15" d="M680.18,98.57c6.43,0,6.44-10,0-10s-6.45,10,0,10Z"/><path class="cls-15" d="M681.24,96.48c6.44,0,6.45-10,0-10s-6.44,10,0,10Z"/><path class="cls-15" d="M681.12,93.42c6.44,0,6.45-10,0-10s-6.44,10,0,10Z"/><path class="cls-15" d="M677.33,84.24c6.43,0,6.45-10,0-10s-6.44,10,0,10Z"/><path class="cls-15" d="M674.48,86.89c6.44,0,6.45-10,0-10s-6.44,10,0,10Z"/><path class="cls-15" d="M680.53,80.21c6.44,0,6.45-10,0-10s-6.44,10,0,10Z"/><path class="cls-15" d="M680.89,85.22c6.43,0,6.44-10,0-10s-6.45,10,0,10Z"/><path class="cls-15" d="M689.3,84.1c6.44,0,6.45-10,0-10s-6.44,10,0,10Z"/><path class="cls-15" d="M690,90.92c6.43,0,6.44-10,0-10s-6.45,10,0,10Z"/><path class="cls-15" d="M685.75,87.3c6.43,0,6.44-10,0-10s-6.45,10,0,10Z"/><path class="cls-15" d="M686.58,93.28c6.43,0,6.44-10,0-10s-6.45,10,0,10Z"/><path class="cls-15" d="M691.2,93.28c6.44,0,6.45-10,0-10s-6.44,10,0,10Z"/><path class="cls-15" d="M695.11,81c6.44,0,6.45-10,0-10s-6.44,10,0,10Z"/><path class="cls-15" d="M687.29,80.49c6.43,0,6.44-10,0-10s-6.45,10,0,10Z"/><path class="cls-15" d="M685,76.73c6.43,0,6.44-10,0-10s-6.45,10,0,10Z"/><path class="cls-15" d="M684.09,75.48c6.43,0,6.44-10,0-10s-6.45,10,0,10Z"/><path class="cls-15" d="M691.79,75.48c6.44,0,6.45-10,0-10s-6.44,10,0,10Z"/><path class="cls-15" d="M687.05,75.9c6.44,0,6.45-10,0-10s-6.44,10,0,10Z"/><path class="cls-15" d="M693.1,79.65c6.43,0,6.44-10,0-10s-6.45,10,0,10Z"/><path class="cls-15" d="M692,84.94c6.44,0,6.45-10,0-10s-6.44,10,0,10Z"/><path class="cls-15" d="M693.1,85.91c6.43,0,6.44-10,0-10s-6.45,10,0,10Z"/><path class="cls-15" d="M695.59,91.61c6.43,0,6.44-10,0-10s-6.45,10,0,10Z"/><path class="cls-15" d="M700.09,92c6.44,0,6.45-10,0-10s-6.44,10,0,10Z"/><path class="cls-15" d="M697.49,88.69c6.43,0,6.44-10,0-10s-6.45,10,0,10Z"/><path class="cls-15" d="M698.08,84.38c6.43,0,6.44-10,0-10s-6.45,10,0,10Z"/><path class="cls-15" d="M699.5,75.2c6.44,0,6.45-10,0-10s-6.44,10,0,10Z"/><path class="cls-15" d="M699.5,81.88c6.44,0,6.45-10,0-10s-6.44,10,0,10Z"/><path class="cls-15" d="M703.41,81.74c6.44,0,6.45-10,0-10s-6.44,10,0,10Z"/><path class="cls-15" d="M706,83c6.44,0,6.45-10,0-10s-6.44,10,0,10Z"/><path class="cls-15" d="M705.19,87.86c6.44,0,6.45-10,0-10s-6.44,10,0,10Z"/><path class="cls-15" d="M702.11,87.3c6.43,0,6.44-10,0-10s-6.45,10,0,10Z"/><path class="cls-15" d="M703.18,92.45c6.43,0,6.44-10,0-10s-6.45,10,0,10Z"/><path class="cls-15" d="M703.89,93.42c6.43,0,6.44-10,0-10s-6.45,10,0,10Z"/><path class="cls-15" d="M709.46,97.87c6.43,0,6.44-10,0-10s-6.45,10,0,10Z"/><path class="cls-15" d="M708.16,94.4c6.43,0,6.44-10,0-10s-6.45,10,0,10Z"/><path class="cls-15" d="M711.24,93.84c6.43,0,6.44-10,0-10s-6.45,10,0,10Z"/><path class="cls-15" d="M708.63,88.14c6.43,0,6.45-10,0-10s-6.45,10,0,10Z"/><path class="cls-16" d="M915.44,394.65,858.72,284.5s-3.42-13.59-20.49-13.36c0,0-10.9-2.12-13.05,14.86l-3.44-.43s1.07-24.94-24.94-25.16c0,0-19.78-1.72-11.18,29.68l-2.17.43s-13.1-39.57-18.69-39.78c0,0-20.21-8.6-25.16,8.38,0,0-6.1,12-.86,31.18,0,0,1.94,9.89-1.5,14.62,0,0-46-77.84-51.61-97.18,0,0-27.09-54.62-45.15-48.6,0,0-16.13,5.16-5.59,33.33,0,0,25.61,71.34,40.62,98,0,0,18.13,46.59,18.09,46.92,0,0,8.16,41.28,3.64,56.12,0,0-54.83-18.49-59.34-23.65,0,0-33.33-18.28-52-8.82,0,0-15.49,5.16-14.63,20.43,0,0-7,6.59,12.1,13.18Z"/><path class="cls-1" d="M1097.9,0s-22.72-1.22-23.2,25.15.94,314.49.94,314.49-1.12,19.76,19.76,19.24,71,0,71,0L1249.49,281V28.14S1247.88,2.08,1225.55,0Z"/><path class="cls-2" d="M1075.22,93.92s-8.63-8.85-12.17-2.66-19.25,33.42-26.11,35.86c0,0-26.34,28.77-26.34,35.85,0,0-4.87,21-9.07,23.46,0,0-19.26,31-19,37.18,0,0-5.31,19.26-2.43,29.88,0,0-4.65,64.4-9.08,68.83,0,0-22.35,68.89-31,72.51h117.52L1149.81,373s21.47-13.28,17.48-14.39-68.83-.22-68.83-.22-23.46-4.87-22.57-27.66l-1.33-144.08s-19.21,16.92-22.55,17.54c0,0,5.78-16.65,4.88-17.91,0,0-.35-14.63,6.13-23.35,0,0,13.52-21.18,11.92-22S1075.22,93.92,1075.22,93.92Z"/><path class="cls-2" d="M1249.49,138.08s27.44-10.79,32,10.09c0,0,7.75,13.79-32,29.36"/><path class="cls-2" d="M1249.49,199.81s27.08-11.85,34,10.44c0,0,8.64,17-34,24.76"/><polyline class="cls-3" points="1156.74 315.95 1081.87 315.95 1081.87 34.32 1239.66 34.32 1239.66 253.61"/><path class="cls-4" d="M1158.92,322.25s-12.31-1.09-10.18,13.52,17.18,8.76,17.18,8.76"/><path class="cls-5" d="M1150.46,136.65c-.82,1.87-26.8,8.92-31.47,12.66-8.16,6.51-2.27,10.79-5.65,22.22s-.38,12-3.78,35.84c0,0-7,5.28-11.47,47.26,0,0-1,2.35-5.69,4.6-1.11.53.45,2.25-6.17,15.34,0,0,2.58,4.61,9.65-7.11,0,0-2.81,12.72,5.94,22.57,0,0,3.14,1.37.79-4.49,0,0,8.75,12.09,6.17,0,0,0,8.53,7.36,4.37-1.75l-2.35-3.49s11.89,8.11,1.23-4.73c0,0-1.57-2.12-.9-15.84,0,0-5.94-3.36,4.16-18,0,0,7.51-14.09,7.18-29.8,0,0,7.18-9.72,8.63-19.2s1.58-12.47,1.58-12.47-3.24,18.29,3.59,31.92c1.75,3.51.44,31.54.44,31.54s-13.23,19.45-15.37,67.45h28.5s9.76-20.07,13.69-42.76c0,0,6.17,29.3,12.79,42.76h28.83s3.14-23.47-15.13-68c0,0-1.23-24.87.82-33.08a89.32,89.32,0,0,1,4.52-13.69s1.12-4.23-1.43-14.41,3.82,23.2,10.57,32.11c0,0,1.4,23.62,12.47,37.35,0,0,.85,2.13,0,6.6s-1,8.07-1.07,15.39c-.92,1.22-10.84,13.34-1,7.7,0,0-6.15,13.41,3.91,3-.62-1.25-4.14,12.73,4.47,2,0,0,.22,12.27,6.7-4.24,0,0,2.46-4,1.9-13.17,0,0,2.56,7,7.93,6.46,2.46-.25-3.46-8.19-3.46-8.19s-.34-8.57-7.26-10.93c-3.69-10.56-2.65-16.36-3.24-21.85-1.38-12.73-5.83-23.26-8.61-27.07,0,0-1.34-30.67-4.91-40.11,0,0,3-18.62-12.29-22.1s-23.47-7.82-23.47-7.82l.11-12.67,1.23-3.23s4.39,1.25,4.25-13.78c0-3.35-2.46,0-2.46,0s2.66-22.47-16.38-21.23-15.57,14.15-16.36,20.61c0,0-3.61-4.16-2,8.82.49,3.94,3.8,4.22,3.69,4.84a20.9,20.9,0,0,0,1.56,3.85,4.63,4.63,0,0,1,.32,1.67C1150.8,129.5,1150.46,136.65,1150.46,136.65Z"/><path class="cls-6" d="M1162.7,265.38a14.21,14.21,0,0,0-1.34,4.25c-.57,5.3-1.19,14.66,1.47,14.84,2.36.17,3.18-7.61,3.45-13.29a10.42,10.42,0,0,0-1.59-5.8"/><path class="cls-7" d="M1161.16,271.7s-3.21,4-2.51,7.74,2.23,1.11,2.23,1.11"/><path class="cls-7" d="M1166.2,272.61s3.62,5.2,2.08,7.35a1.64,1.64,0,0,1-2.93,0"/><path class="cls-8" d="M1105,276.76a12.46,12.46,0,0,0,3.77,8.78"/><path class="cls-8" d="M1098.62,266.37a5.54,5.54,0,0,0,6.38-3.21"/><path class="cls-8" d="M1108.78,275.48s-1.13,2.56,2.43,5.43"/><line class="cls-8" x1="1163.32" y1="191.6" x2="1163.87" y2="242.94"/><path class="cls-8" d="M1196.72,169.42s-1.5,16.77-20.08,16.77c-15,0-12.07-5.29-12.07-5.29"/><path class="cls-8" d="M1129.4,168.64s2.44,16.26,18,16.51,14.2-1.16,15-3.86"/><path class="cls-8" d="M1165,162.12s-4.39-12.69,32.62-10.5"/><path class="cls-8" d="M1130.7,151s32.54-.68,31.67,11.08"/><path class="cls-8" d="M1150.91,125.57s3.76,11.47,11.37,12.54,12.13-7.74,14.59-14.07,2.83-16.52,2.83-16.52-1.41-9.55-4.56-9.55-8.45,7.88-22.92,0c-1.73-.94-4.81,5-4.81,8.94A56.14,56.14,0,0,0,1150.91,125.57Z"/><path class="cls-8" d="M1102,284.48s-1.81-5.74-1.32-7.9"/><path class="cls-8" d="M1218.32,275.48a6.29,6.29,0,0,1-3.42,5.75"/><path class="cls-8" d="M1221.21,277.49a7.76,7.76,0,0,1-2.4,6.72"/><path class="cls-8" d="M1225.67,278.2s1,3.21-2.39,8"/><path class="cls-8" d="M1227.6,266.64s-3.95,1.07-6.31-4.82"/><g class="cls-9"><path class="cls-10" d="M1142.15,177c-1.54.11-3,1.86-2.15,3.39a2.92,2.92,0,0,0,2,1.44,3.08,3.08,0,0,0,2.4-.86c.63-.49,0-1.57-.63-1.08s-1.57,1.07-2.39.28a1.14,1.14,0,0,1,.75-1.92c.79-.06.8-1.31,0-1.25Z"/></g><g class="cls-9"><path class="cls-10" d="M1182.88,181.12a10.44,10.44,0,0,1,1.37,0,5.25,5.25,0,0,0,1.12.1,3,3,0,0,0,1.79-1c.77-1,0-2.75-1-3.21-.73-.32-1.37.76-.63,1.08a1.21,1.21,0,0,1,.63.84.86.86,0,0,1-.72,1,3.29,3.29,0,0,1-1.25,0,9.55,9.55,0,0,0-1.31,0c-.8,0-.8,1.29,0,1.25Z"/></g><g class="cls-9"><path class="cls-10" d="M1185.75,176.9c-.8,0-2.1-.29-2.55.58s.7,1.35,1.08.64c0,0,0,0,.08,0a2.09,2.09,0,0,1,.5,0h.89a.63.63,0,0,0,0-1.25Z"/></g><g class="cls-9"><path class="cls-10" d="M1158.81,129.44c.93.23,1.29,1.29,2.14,1.69a6.9,6.9,0,0,0,2.77.46,4.37,4.37,0,0,0,2.45-.59c.92-.59,1.54-2.15,2.85-2.05.8.06.79-1.19,0-1.25-1.69-.13-2,1.21-3.22,2a4.34,4.34,0,0,1-4.53,0c-.85-.56-1.12-1.24-2.12-1.49-.78-.19-1.12,1-.34,1.2Z"/></g><g class="cls-9"><path class="cls-10" d="M1159.77,129.43c.54-.1,1.64.54,2.21.63a6.11,6.11,0,0,0,1.54,0c2-.24,3.73-1.29,5.8-1.14.81.06.8-1.19,0-1.25-1.88-.14-3.43.62-5.23,1a5.66,5.66,0,0,1-3.33-.33,2.09,2.09,0,0,0-1.33-.11c-.79.14-.45,1.34.34,1.21Z"/></g><g class="cls-9"><path class="cls-10" d="M1160.21,121.81c.24,1-1.55,2-.42,3a3.63,3.63,0,0,0,1.87.33,21.45,21.45,0,0,0,2.89-.16c1-.11,2.51-.24,2.9-1.41.5-1.53-1.36-1.49-1.58-2.68-.15-.79-1.35-.45-1.21.33a2.05,2.05,0,0,0,.84,1.43,6.19,6.19,0,0,0,.58.28l-.73.7a7.35,7.35,0,0,1-2.11.22,8.35,8.35,0,0,1-1.58,0c-.7-.12-.8-.11-.47-.71a2.25,2.25,0,0,0,.23-1.72c-.18-.78-1.38-.45-1.21.33Z"/></g><path class="cls-11" d="M1160,112s-8.11-5.34-8.9,0S1159.73,116.69,1160,112Z"/><path class="cls-11" d="M1166.18,112.72s6.73-5.85,9-1.38S1167.66,117.39,1166.18,112.72Z"/><ellipse class="cls-12" cx="1156.04" cy="113.49" rx="1.85" ry="2.05"/><ellipse class="cls-12" cx="1171.75" cy="113.49" rx="1.85" ry="2.05"/><ellipse class="cls-13" cx="1156.57" cy="114.08" rx="1.01" ry="1.13"/><ellipse class="cls-13" cx="1172.35" cy="114.08" rx="0.94" ry="1.04"/><path class="cls-13" d="M1160,111.86s-7.77-4.56-8.77-.58"/><path class="cls-13" d="M1166.9,112.6l8.54-.58s-1-5.71-9.26.7"/><ellipse class="cls-11" cx="1156.06" cy="113.28" rx="0.51" ry="0.56"/><ellipse class="cls-11" cx="1171.75" cy="113.28" rx="0.48" ry="0.54"/><path class="cls-14" d="M1145.88,106.32c6.44,0,6.45-10,0-10s-6.44,10,0,10Z"/><path class="cls-14" d="M1149.13,106.71c6.44,0,6.45-10,0-10s-6.44,10,0,10Z"/><path class="cls-14" d="M1144.6,102.7c6.44,0,6.45-10,0-10s-6.44,10,0,10Z"/><path class="cls-14" d="M1145.07,107.09c6.43,0,6.44-10,0-10s-6.45,10,0,10Z"/><path class="cls-14" d="M1148.9,105.16c6.44,0,6.45-10,0-10s-6.44,10,0,10Z"/><path class="cls-14" d="M1152.74,104.51c6.43,0,6.44-10,0-10s-6.45,10,0,10Z"/><path class="cls-14" d="M1152,108c6.43,0,6.44-10,0-10s-6.45,10,0,10Z"/><path class="cls-14" d="M1151.34,105c6.44,0,6.45-10,0-10s-6.44,10,0,10Z"/><path class="cls-14" d="M1151.23,104.9c6.43,0,6.44-10,0-10s-6.45,10,0,10Z"/><path class="cls-14" d="M1149.83,100.51c6.44,0,6.45-10,0-10s-6.44,10,0,10Z"/><path class="cls-14" d="M1147.86,100.25c6.43,0,6.44-10,0-10s-6.45,10,0,10Z"/><path class="cls-14" d="M1146.69,96.38c6.44,0,6.45-10,0-10s-6.44,10,0,10Z"/><path class="cls-14" d="M1149.83,96.25c6.44,0,6.45-10,0-10s-6.44,10,0,10Z"/><path class="cls-14" d="M1149.83,96.25c6.44,0,6.45-10,0-10s-6.44,10,0,10Z"/><path class="cls-14" d="M1151.57,98.06c6.44,0,6.45-10,0-10s-6.44,10,0,10Z"/><path class="cls-14" d="M1153.55,94.31c6.43,0,6.44-10,0-10s-6.45,10,0,10Z"/><path class="cls-14" d="M1153.55,98.06c6.43,0,6.44-10,0-10s-6.45,10,0,10Z"/><path class="cls-14" d="M1153.9,100.77c6.43,0,6.44-10,0-10s-6.45,10,0,10Z"/><path class="cls-14" d="M1155.41,94.83c6.43,0,6.44-10,0-10s-6.45,10,0,10Z"/><path class="cls-14" d="M1157.85,93.15c6.43,0,6.44-10,0-10s-6.45,10,0,10Z"/><path class="cls-14" d="M1157.85,96.76c6.43,0,6.44-10,0-10s-6.45,10,0,10Z"/><path class="cls-14" d="M1157.85,98.57c6.43,0,6.44-10,0-10s-6.45,10,0,10Z"/><path class="cls-14" d="M1157.85,99.48c6.43,0,6.44-10,0-10s-6.45,10,0,10Z"/><path class="cls-14" d="M1161,97c6.43,0,6.44-10,0-10s-6.45,10,0,10Z"/><path class="cls-14" d="M1161,93.41c6.43,0,6.44-10,0-10s-6.45,10,0,10Z"/><path class="cls-14" d="M1161.1,91.86c6.44,0,6.45-10,0-10s-6.44,10,0,10Z"/><path class="cls-14" d="M1161.92,91.34c6.43,0,6.44-10,0-10s-6.45,10,0,10Z"/><path class="cls-14" d="M1164.36,91.34c6.43,0,6.44-10,0-10s-6.45,10,0,10Z"/><path class="cls-14" d="M1168,92.37c6.43,0,6.44-10,0-10s-6.45,10,0,10Z"/><path class="cls-14" d="M1164.7,95.73c6.44,0,6.45-10,0-10s-6.44,10,0,10Z"/><path class="cls-14" d="M1164.7,96.51c6.44,0,6.45-10,0-10s-6.44,10,0,10Z"/><path class="cls-14" d="M1163.77,96.89c6.44,0,6.45-10,0-10s-6.44,10,0,10Z"/><path class="cls-14" d="M1163,98.44c6.44,0,6.45-10,0-10s-6.44,10,0,10Z"/><path class="cls-14" d="M1159.48,101.54c6.43,0,6.44-10,0-10s-6.45,10,0,10Z"/><path class="cls-14" d="M1157,103.48c6.43,0,6.44-10,0-10s-6.45,10,0,10Z"/><path class="cls-14" d="M1159.94,103.48c6.43,0,6.45-10,0-10s-6.45,10,0,10Z"/><path class="cls-14" d="M1164.94,103.48c6.43,0,6.44-10,0-10s-6.45,10,0,10Z"/><path class="cls-14" d="M1164.94,100.38c6.43,0,6.44-10,0-10s-6.45,10,0,10Z"/><path class="cls-14" d="M1163,100.9c6.44,0,6.45-10,0-10s-6.44,10,0,10Z"/><path class="cls-14" d="M1163.43,103.22c6.43,0,6.44-10,0-10s-6.45,10,0,10Z"/><path class="cls-14" d="M1166.91,103.22c6.44,0,6.45-10,0-10s-6.44,10,0,10Z"/><path class="cls-14" d="M1167.72,98.83c6.44,0,6.45-10,0-10s-6.44,10,0,10Z"/><path class="cls-14" d="M1167.72,97.41c6.44,0,6.45-10,0-10s-6.44,10,0,10Z"/><path class="cls-14" d="M1167.84,94.57c6.44,0,6.45-10,0-10s-6.44,10,0,10Z"/><path class="cls-14" d="M1169.23,90.82c6.44,0,6.45-10,0-10s-6.44,10,0,10Z"/><path class="cls-14" d="M1170.75,90.82c6.43,0,6.44-10,0-10s-6.45,10,0,10Z"/><path class="cls-14" d="M1174.58,93.79c6.43,0,6.44-10,0-10s-6.45,10,0,10Z"/><path class="cls-14" d="M1173.65,93.79c6.43,0,6.45-10,0-10s-6.45,10,0,10Z"/><path class="cls-14" d="M1170.86,94.44c6.44,0,6.45-10,0-10s-6.44,10,0,10Z"/><path class="cls-14" d="M1170.28,98.18c6.44,0,6.45-10,0-10s-6.44,10,0,10Z"/><path class="cls-14" d="M1170.28,100.38c6.44,0,6.45-10,0-10s-6.44,10,0,10Z"/><path class="cls-14" d="M1171.09,102.7c6.44,0,6.45-10,0-10s-6.44,10,0,10Z"/><path class="cls-14" d="M1171.09,102.7c6.44,0,6.45-10,0-10s-6.44,10,0,10Z"/><path class="cls-14" d="M1175.39,99.86c6.44,0,6.45-10,0-10s-6.44,10,0,10Z"/><path class="cls-14" d="M1174.46,97.8c6.44,0,6.45-10,0-10s-6.44,10,0,10Z"/><path class="cls-14" d="M1177.6,102.06c6.43,0,6.45-10,0-10s-6.44,10,0,10Z"/><path class="cls-14" d="M1175.63,102.06c6.43,0,6.44-10,0-10s-6.45,10,0,10Z"/><path class="cls-14" d="M1170.16,103.09c6.44,0,6.45-10,0-10s-6.44,10,0,10Z"/><path class="cls-14" d="M1166.68,104.51c6.43,0,6.44-10,0-10s-6.45,10,0,10Z"/><path class="cls-14" d="M1162.61,105.29c6.44,0,6.45-10,0-10s-6.44,10,0,10Z"/><path class="cls-14" d="M1160.4,105.67c6.44,0,6.45-10,0-10s-6.44,10,0,10Z"/><path class="cls-14" d="M1173.3,107c6.44,0,6.45-10,0-10s-6.44,10,0,10Z"/><path class="cls-14" d="M1176.09,103.74c6.43,0,6.45-10,0-10s-6.45,10,0,10Z"/><path class="cls-14" d="M1177.83,103.74c6.44,0,6.45-10,0-10s-6.44,10,0,10Z"/><path class="cls-14" d="M1178.3,107.09c6.43,0,6.44-10,0-10s-6.45,10,0,10Z"/><path class="cls-14" d="M1178.3,108.51c6.43,0,6.44-10,0-10s-6.45,10,0,10Z"/><path class="cls-14" d="M1179.46,108.51c6.43,0,6.44-10,0-10s-6.45,10,0,10Z"/><path class="cls-14" d="M1181.09,107.87c6.43,0,6.44-10,0-10s-6.45,10,0,10Z"/><path class="cls-14" d="M1181.09,102.83c6.43,0,6.44-10,0-10s-6.45,10,0,10Z"/><path class="cls-14" d="M1179.81,100.51c6.43,0,6.44-10,0-10s-6.45,10,0,10Z"/><path class="cls-14" d="M1178.18,98.44c6.44,0,6.45-10,0-10s-6.44,10,0,10Z"/><path class="cls-14" d="M1176.21,95c6.43,0,6.44-10,0-10s-6.45,10,0,10Z"/><path class="cls-14" d="M1171,92.76c6.43,0,6.44-10,0-10s-6.45,10,0,10Z"/><path class="cls-14" d="M1164.12,87.34c6.44,0,6.45-10,0-10s-6.44,10,0,10Z"/><path class="cls-14" d="M1159.82,88.89c6.44,0,6.45-10,0-10s-6.44,10,0,10Z"/><path class="cls-14" d="M1156.8,89.4c6.44,0,6.45-10,0-10s-6.44,10,0,10Z"/><path class="cls-14" d="M1155.06,90.18c6.43,0,6.45-10,0-10s-6.45,10,0,10Z"/><path class="cls-14" d="M1152.74,91.6c6.43,0,6.44-10,0-10s-6.45,10,0,10Z"/><path class="cls-14" d="M1148.32,94.31c6.44,0,6.45-10,0-10s-6.44,10,0,10Z"/><path class="cls-14" d="M1144.84,98.83c6.43,0,6.44-10,0-10s-6.45,10,0,10Z"/><path class="cls-14" d="M1143.67,103.61c6.44,0,6.45-10,0-10s-6.44,10,0,10Z"/><path class="cls-14" d="M1143.44,106.32c6.44,0,6.45-10,0-10s-6.44,10,0,10Z"/><path class="cls-14" d="M1145.53,107.61c6.44,0,6.45-10,0-10s-6.44,10,0,10Z"/><path class="cls-14" d="M1147.16,109.8c6.43,0,6.44-10,0-10s-6.45,10,0,10Z"/><path class="cls-14" d="M1149.48,110.19c6.44,0,6.45-10,0-10s-6.44,10,0,10Z"/><path class="cls-14" d="M1157.15,105.16c6.44,0,6.45-10,0-10s-6.44,10,0,10Z"/><path class="cls-14" d="M1168.77,90.18c6.43,0,6.45-10,0-10s-6.45,10,0,10Z"/><path class="cls-14" d="M1168.31,85.92c6.43,0,6.44-10,0-10s-6.45,10,0,10Z"/><path class="cls-14" d="M1171.44,86.69c6.44,0,6.45-10,0-10s-6.44,10,0,10Z"/><path class="cls-14" d="M1172.49,88.37c6.43,0,6.44-10,0-10s-6.45,10,0,10Z"/><path class="cls-14" d="M1174.58,91.6c6.43,0,6.44-10,0-10s-6.45,10,0,10Z"/><path class="cls-14" d="M1177.6,93.28c6.43,0,6.45-10,0-10s-6.44,10,0,10Z"/><path class="cls-14" d="M1177.72,97.41c6.43,0,6.44-10,0-10s-6.45,10,0,10Z"/><path class="cls-14" d="M1160.29,87.21c6.43,0,6.44-10,0-10s-6.45,10,0,10Z"/><path class="cls-14" d="M1157.73,86.82c6.44,0,6.45-10,0-10s-6.44,10,0,10Z"/><path class="cls-14" d="M1154.48,86.82c6.43,0,6.44-10,0-10s-6.45,10,0,10Z"/><path class="cls-14" d="M1153.67,88.11c6.43,0,6.44-10,0-10s-6.45,10,0,10Z"/><path class="cls-14" d="M1151.81,89.79c6.43,0,6.44-10,0-10s-6.45,10,0,10Z"/><path class="cls-14" d="M1149.25,92.37c6.44,0,6.45-10,0-10s-6.44,10,0,10Z"/><path class="cls-14" d="M1143.67,103.48c6.44,0,6.45-10,0-10s-6.44,10,0,10Z"/><path class="cls-15" d="M1144.37,104.9c6.44,0,6.45-10,0-10s-6.44,10,0,10Z"/><path class="cls-15" d="M1146.46,108.64c6.44,0,6.45-10,0-10s-6.44,10,0,10Z"/><path class="cls-15" d="M1147.16,103.22c6.43,0,6.44-10,0-10s-6.45,10,0,10Z"/><path class="cls-15" d="M1148.44,101.28c6.43,0,6.44-10,0-10s-6.45,10,0,10Z"/><path class="cls-15" d="M1153.55,93.67c6.43,0,6.44-10,0-10s-6.45,10,0,10Z"/><path class="cls-15" d="M1155.06,101.67c6.43,0,6.45-10,0-10s-6.45,10,0,10Z"/><path class="cls-15" d="M1150.53,109.42c6.43,0,6.44-10,0-10s-6.45,10,0,10Z"/><path class="cls-15" d="M1151.57,107.48c6.44,0,6.45-10,0-10s-6.44,10,0,10Z"/><path class="cls-15" d="M1151.46,104.64c6.43,0,6.44-10,0-10s-6.45,10,0,10Z"/><path class="cls-15" d="M1147.74,96.12c6.43,0,6.45-10,0-10s-6.44,10,0,10Z"/><path class="cls-15" d="M1145,98.57c6.44,0,6.45-10,0-10s-6.44,10,0,10Z"/><path class="cls-15" d="M1150.88,92.37c6.43,0,6.44-10,0-10s-6.45,10,0,10Z"/><path class="cls-15" d="M1151.23,97c6.43,0,6.44-10,0-10s-6.45,10,0,10Z"/><path class="cls-15" d="M1159.48,96c6.43,0,6.44-10,0-10s-6.45,10,0,10Z"/><path class="cls-15" d="M1160.17,102.32c6.44,0,6.45-10,0-10s-6.44,10,0,10Z"/><path class="cls-15" d="M1156,99c6.43,0,6.44-10,0-10s-6.45,10,0,10Z"/><path class="cls-15" d="M1156.8,104.51c6.44,0,6.45-10,0-10s-6.44,10,0,10Z"/><path class="cls-15" d="M1161.33,104.51c6.44,0,6.45-10,0-10s-6.44,10,0,10Z"/><path class="cls-15" d="M1165.17,93.15c6.43,0,6.44-10,0-10s-6.45,10,0,10Z"/><path class="cls-15" d="M1157.5,92.63c6.43,0,6.45-10,0-10s-6.45,10,0,10Z"/><path class="cls-15" d="M1155.29,89.15c6.44,0,6.45-10,0-10s-6.44,10,0,10Z"/><path class="cls-15" d="M1154.36,88c6.44,0,6.45-10,0-10s-6.44,10,0,10Z"/><path class="cls-15" d="M1161.92,88c6.43,0,6.44-10,0-10s-6.45,10,0,10Z"/><path class="cls-15" d="M1157.27,88.37c6.43,0,6.44-10,0-10s-6.45,10,0,10Z"/><path class="cls-15" d="M1163.19,91.86c6.44,0,6.45-10,0-10s-6.44,10,0,10Z"/><path class="cls-15" d="M1162.15,96.76c6.43,0,6.44-10,0-10s-6.45,10,0,10Z"/><path class="cls-15" d="M1163.19,97.67c6.44,0,6.45-10,0-10s-6.44,10,0,10Z"/><path class="cls-15" d="M1165.63,103c6.44,0,6.45-10,0-10s-6.44,10,0,10Z"/><path class="cls-15" d="M1170.05,103.35c6.43,0,6.44-10,0-10s-6.45,10,0,10Z"/><path class="cls-15" d="M1167.49,100.25c6.44,0,6.45-10,0-10s-6.44,10,0,10Z"/><path class="cls-15" d="M1168.07,96.25c6.44,0,6.45-10,0-10s-6.44,10,0,10Z"/><path class="cls-15" d="M1169.47,87.73c6.43,0,6.44-10,0-10s-6.45,10,0,10Z"/><path class="cls-15" d="M1169.47,93.92c6.43,0,6.44-10,0-10s-6.45,10,0,10Z"/><path class="cls-15" d="M1173.3,93.79c6.44,0,6.45-10,0-10s-6.44,10,0,10Z"/><path class="cls-15" d="M1175.86,95c6.43,0,6.44-10,0-10s-6.45,10,0,10Z"/><path class="cls-15" d="M1175,99.48c6.44,0,6.45-10,0-10s-6.44,10,0,10Z"/><path class="cls-15" d="M1172,99c6.44,0,6.45-10,0-10s-6.44,10,0,10Z"/><path class="cls-15" d="M1173.07,103.74c6.43,0,6.44-10,0-10s-6.45,10,0,10Z"/><path class="cls-15" d="M1173.77,104.64c6.43,0,6.44-10,0-10s-6.45,10,0,10Z"/><path class="cls-15" d="M1179.23,108.77c6.43,0,6.44-10,0-10s-6.45,10,0,10Z"/><path class="cls-15" d="M1178,105.54c6.43,0,6.44-10,0-10s-6.45,10,0,10Z"/><path class="cls-15" d="M1181,105c6.43,0,6.45-10,0-10s-6.45,10,0,10Z"/><path class="cls-15" d="M1178.41,99.73c6.44,0,6.45-10,0-10s-6.44,10,0,10Z"/><path class="cls-17" d="M1120.23,315s2.11-51.12,11.69-63.05l62,1.38s13.51,24.82,14.28,59.76l-31-.22c-2.49,0-10.87-28.39-10.87-28.39l-5.13,3s-6.24,27.26-10.07,27.47S1120.23,315,1120.23,315Z"/><path class="cls-18" d="M1097.88,246l15.93,3.76,2.06-9.1s6.35-8.34,8.32-28.72c0,0,8.73-9.67,8.53-16.91s.21,12.41,0,16.11c-.13,2.27-2.27,4.15-.92,6.83s-1.38,9.79-.51,12.48-.1,5.09-1.3,8-3.63,5.64-2.42,7.51,69.74,1.08,69.74,1.08-4.33-11.81-3.61-22.8,3.87-13.69,2.18-19a16.16,16.16,0,0,1,.06-9.86l3.56,12,3.62,10.19,2.17,9.12s4.34,17.7,7,20.92,4.91,6.71,4.91,6.71l13.67-4.29-2.68-8.21s-.42-27.73-7.56-35c0,0,1.24-34.58-10.13-55.42-5.25-9.63-12.47-11.55-25-14.34,0,0-15.76,26.82-46.24,3.23,0-.28-24.17-.67-24.77,16.31-.25,7.13-3.54,30.75-4.14,37.34-.34,3.74-3,14.57-5.85,25.38C1101,232.8,1097.29,246.29,1097.88,246Z"/><path class="cls-19" d="M1129.4,254.27s3.34-5.73-1.83-8.32,69.74,1.08,69.74,1.08-5.46.22-3,7.24Z"/><path class="cls-19" d="M1144.91,138.69s-3.89,2.54-5.68,1.57,27.11,23.93,46.24-3.23c0,0-2.41,2-4.25.66C1181.22,137.69,1168.58,154.6,1144.91,138.69Z"/><path class="cls-19" d="M1097.82,247.86s.6-.54.06-1.91,15.93,3.76,15.93,3.76-2,.58-1.85,1.06S1097.82,247.86,1097.82,247.86Z"/><path class="cls-19" d="M1230.87,252.23s-1.18-1.35,0-2.25-13.67,4.29-13.67,4.29.63,1.73,0,2.45S1230.87,252.23,1230.87,252.23Z"/><path class="cls-10" d="M1157.57,256.43c-.13,7.78-3,22.25,8.08,23.6.8.1.79-1.15,0-1.25-9.7-1.18-6.94-15.48-6.83-22.35a.63.63,0,0,0-1.25,0Z"/><path class="cls-10" d="M1165.29,255.79a186.32,186.32,0,0,0,1,28.73c.09.79,1.34.8,1.25,0a186.32,186.32,0,0,1-1-28.73c0-.8-1.22-.8-1.25,0Z"/><path class="cls-10" d="M1125.84,269.48c5.93,1.22,11.54-1.93,14.31-7.18.38-.71-.7-1.35-1.07-.63-2.51,4.72-7.52,7.71-12.91,6.6-.78-.16-1.12,1-.33,1.21Z"/><path class="cls-10" d="M1182.32,261.89c2.64,2.09,4.58,5.18,7.71,6.61,2.92,1.34,6.23,1.06,9.34.77.79-.08.8-1.33,0-1.25-3.22.31-6.71.64-9.62-1.07-2.54-1.49-4.25-4.13-6.54-5.95-.63-.49-1.52.39-.89.89Z"/><path class="cls-16" d="M1385.44,394.65,1328.72,284.5s-3.42-13.59-20.49-13.36c0,0-10.9-2.12-13,14.86l-3.44-.43s1.07-24.94-24.94-25.16c0,0-19.78-1.72-11.18,29.68l-2.17.43s-13.1-39.57-18.69-39.78c0,0-20.21-8.6-25.16,8.38,0,0-6.1,12-.86,31.18,0,0,1.94,9.89-1.5,14.62,0,0-46-77.84-51.61-97.18,0,0-27.09-54.62-45.15-48.6,0,0-16.13,5.16-5.59,33.33,0,0,25.61,71.34,40.62,98,0,0,18.13,46.59,18.09,46.92,0,0,8.16,41.28,3.64,56.12,0,0-54.83-18.49-59.34-23.65,0,0-33.33-18.28-52-8.82,0,0-15.49,5.16-14.63,20.43,0,0-7,6.59,12.1,13.18Z"/><path class="cls-1" d="M157.9,1S135.18-.21,134.7,26.16s.94,314.49.94,314.49-1.12,19.76,19.76,19.24,71,0,71,0L309.49,282V29.14S307.88,3.08,285.55,1Z"/><path class="cls-2" d="M135.22,94.92s-8.63-8.85-12.17-2.66-19.25,33.42-26.11,35.86c0,0-26.34,28.77-26.34,35.85,0,0-4.87,21-9.07,23.46,0,0-19.26,31-19,37.18,0,0-5.31,19.26-2.43,29.88,0,0-4.65,64.4-9.08,68.83,0,0-22.35,68.89-31,72.51H117.52L209.81,374s21.47-13.28,17.48-14.39-68.83-.22-68.83-.22-23.46-4.87-22.57-27.66l-1.33-144.08S115.35,204.57,112,205.19c0,0,5.78-16.65,4.88-17.91,0,0-.35-14.63,6.13-23.35,0,0,13.52-21.18,11.92-22S135.22,94.92,135.22,94.92Z"/><path class="cls-2" d="M309.49,139.08s27.44-10.79,32,10.09c0,0,7.75,13.79-32,29.36"/><path class="cls-2" d="M309.49,200.81s27.08-11.85,34,10.44c0,0,8.64,17-34,24.76"/><polyline class="cls-20" points="216.74 316.95 141.87 316.95 141.87 35.32 299.66 35.32 299.66 254.61"/><path class="cls-4" d="M218.92,323.25s-12.31-1.09-10.18,13.52,17.18,8.76,17.18,8.76"/><path class="cls-16" d="M445.44,395.65,388.72,285.5s-3.42-13.59-20.49-13.36c0,0-10.9-2.12-13.05,14.86l-3.44-.43s1.07-24.94-24.94-25.16c0,0-19.78-1.72-11.18,29.68l-2.17.43s-13.1-39.57-18.69-39.78c0,0-20.21-8.6-25.16,8.38,0,0-6.1,12-.86,31.18,0,0,1.94,9.89-1.5,14.62,0,0-46-77.84-51.61-97.18,0,0-27.09-54.62-45.15-48.6,0,0-16.13,5.16-5.59,33.33,0,0,25.61,71.34,40.62,98,0,0,18.13,46.59,18.09,46.92,0,0,8.16,41.28,3.64,56.12,0,0-54.83-18.49-59.34-23.65,0,0-33.33-18.28-52-8.82,0,0-15.49,5.16-14.63,20.43,0,0-7,6.59,12.1,13.18Z"/></g></g></svg>
